<!-- Generator: Adobe Illustrator 19.2.1, SVG Export Plug-In  -->
<svg version="1.1"
	 xmlns="http://www.w3.org/2000/svg" xmlns:xlink="http://www.w3.org/1999/xlink" xmlns:a="http://ns.adobe.com/AdobeSVGViewerExtensions/3.0/"
	 x="0px" y="0px" width="37.074px" height="37.465px" viewBox="0 0 37.074 37.465"
	 style="enable-background:new 0 0 37.074 37.465;" xml:space="preserve">
<style type="text/css">
	.st0{fill:#FFFFFF;}
</style>
<defs>
</defs>
<g>
	<path class="st0" d="M2.696,8.45C0.734,8.48,0.413,9.567,0.43,11.174c0.041,3.849,0.013,7.698,0.018,11.547
		c0,4.111,0.045,8.224-0.021,12.334c-0.028,1.728,0.764,2.305,2.371,2.329c1.633,0.025,2.429-0.619,2.425-2.298
		c-0.018-8.047-0.015-16.095,0-24.142C5.226,9.216,4.521,8.422,2.696,8.45z"/>
	<path class="st0" d="M2.96,0C1.212,0.172,0.032,1.066,0.001,2.928c-0.029,1.732,1.031,2.807,2.72,2.878
		c1.838,0.077,2.995-1.032,3.011-2.857C5.747,1.282,4.725,0.249,2.96,0z"/>
	<path class="st0" d="M25.623,8.87c-2.529-0.512-5.064-0.393-7.604-0.413c-1.668,0-3.336,0.031-5.003-0.009
		c-1.699-0.04-2.591,0.564-2.579,2.44c0.051,8.075,0.044,16.151,0.005,24.226c-0.008,1.576,0.687,2.246,2.185,2.263
		c4.123,0.048,8.257,0.286,12.356-0.321c6.771-1.004,11.928-6.854,12.087-13.609C37.245,16.022,32.714,10.306,25.623,8.87z
		 M22.588,32.904c-8.316,0.418-7.201,0.803-7.282-6.356c-0.014-1.226-0.002-2.452-0.002-3.678c0.009,0,0.018,0,0.027,0
		c0-2.539,0.013-5.079-0.004-7.619c-0.012-1.755,0.829-2.567,2.583-2.512c1.312,0.042,2.628-0.015,3.94,0.029
		c6.312,0.211,10.176,3.773,10.358,9.525C32.396,28.236,28.756,32.594,22.588,32.904z"/>
</g>
</svg>