<!-- Generator: Adobe Illustrator 19.2.1, SVG Export Plug-In  -->
<svg version="1.1"
	 xmlns="http://www.w3.org/2000/svg" xmlns:xlink="http://www.w3.org/1999/xlink" xmlns:a="http://ns.adobe.com/AdobeSVGViewerExtensions/3.0/"
	 x="0px" y="0px" width="151.596px" height="151.596px" viewBox="0 0 151.596 151.596"
	 style="enable-background:new 0 0 151.596 151.596;" xml:space="preserve">
<style type="text/css">
	.st0{fill:none;}
</style>
<defs>
</defs>
<g>
	<path class="st0" d="M17.813,113.918c0.625-0.7,1.586-1.115,2.152-1.847c1.073-1.385,1.978-2.9,2.942-4.369
		c0.991-1.509,1.966-3.029,2.954-4.54c0.09-0.137,0.209-0.276,0.347-0.358c1.293-0.768,1.788-2.062,2.35-3.359
		c2.878-6.645,6.841-12.636,11.239-18.352c1.962-2.551,3.992-5.049,5.976-7.583c0.228-0.291,0.409-0.645,0.522-0.998
		c2.325-7.238,6.851-12.653,13.474-16.351c0.397-0.222,0.766-0.557,1.042-0.92c1.512-1.987,3.609-2.8,5.988-2.819
		c4.473-0.036,8.441,1.458,11.915,4.274c0.183,0.148,0.374,0.306,0.587,0.396c4.714,1.992,7.366,5.705,8.735,10.477
		c0.8,2.789,1.067,5.654,1.165,8.542c0.011,0.332,0.126,0.704,0.31,0.979c0.925,1.386,1.59,2.916,2.451,4.335
		c0.244,0.403,0.526,0.783,0.801,1.189c0.731-0.225,0.647-0.784,0.637-1.29c-0.076-3.838-0.99-7.537-1.959-11.215
		c-1.085-4.115-2.599-8.06-5.102-11.557c-1.863-2.602-4.145-4.762-7.054-6.122c-1.497-0.699-3.16-1.033-4.704-1.642
		c-1.475-0.581-2.891-1.309-4.339-1.962c-0.208-0.094-0.441-0.16-0.669-0.182c-4.075-0.383-7.692,0.884-10.883,3.298
		c-2.046,1.548-3.91,3.34-5.828,5.053c-0.96,0.857-1.894,1.751-2.767,2.695c-0.458,0.495-0.798,1.115-1.122,1.716
		c-0.417,0.773-0.699,1.624-1.166,2.362c-0.345,0.546-0.817,1.097-1.367,1.404c-0.621,0.346-0.904,0.757-0.841,1.406
		c0.074,0.767-0.212,1.309-0.705,1.907c-1.104,1.34-1.968,2.883-3.113,4.183c-6.464,7.344-11.172,15.868-16.306,24.106
		c-2.381,3.82-4.692,7.685-7.025,11.535c-0.155,0.256-0.356,0.571-0.327,0.836c0.077,0.728-0.273,1.187-0.733,1.677
		c-1.517,1.615-2.979,3.283-4.502,4.892c-0.294,0.31-0.642,0.569-0.995,0.823c0.462,0.723,0.928,1.443,1.413,2.149
		C14.855,117.143,16.354,115.552,17.813,113.918z"/>
	<path class="st0" d="M141.274,65.477c-0.101-0.394-0.249-0.638-0.638-0.894c-0.379-0.25-0.742-0.929-0.685-1.363
		c0.243-1.839-0.451-3.334-1.317-4.872c-0.673-1.195-0.948-2.555-0.206-3.895c0.046-0.083,0.095-0.165,0.151-0.241
		c0.027-0.037,0.072-0.06,0.205-0.166c0.557,1.641,1.079,3.213,1.629,4.774c0.097,0.275,0.317,0.505,0.464,0.766
		c0.287,0.508,0.773,1.01,0.805,1.537c0.129,2.145,0.856,4.138,1.422,6.166c1.967,7.048,4.05,14.064,5.965,21.126
		c0.305,1.126,0.566,2.263,0.815,3.404c0.826-3.837,1.369-7.779,1.59-11.808c-0.167-0.162-0.352-0.306-0.549-0.397
		c-0.568-0.264-0.836-0.73-0.79-1.246c0.227-2.571-1.079-4.733-1.818-7.039c-1.386-4.323-2.74-8.661-4.323-12.912
		c-0.824-2.211-2.107-4.251-3.192-6.363c-0.095-0.186-0.233-0.373-0.399-0.495c-2.265-1.678-3.871-3.917-5.384-6.246
		c-1.608-2.475-3.196-4.965-4.898-7.374c-1.035-1.465-2.489-2.531-3.922-3.622c-1.623-1.236-3.117-2.649-4.601-4.055
		c-0.872-0.826-1.586-1.816-2.429-2.675c-0.512-0.521-1.109-0.971-1.716-1.38c-0.755-0.508-1.531-0.967-1.955-1.828
		c-0.066-0.133-0.23-0.24-0.373-0.31c-5.246-2.591-10.438-5.301-15.761-7.725c-4.873-2.22-10.059-3.497-15.398-4.009
		c-2.083-0.2-4.191-0.149-6.288-0.191c-2.106-0.042-4.176-0.289-6.163-1.02c-0.286-0.105-0.516-0.361-0.764-0.729
		c1.062-0.157,2.12-0.361,3.188-0.463c3.239-0.312,6.518-0.484,9.669,0.378c7.72,2.112,15.56,3.864,22.924,7.125
		c3.439,1.523,6.599,3.466,9.417,6.001c1.189,1.07,2.705,1.768,4.033,2.691c8.839,6.149,15.61,14.128,20.773,23.526
		c0.194,0.354,0.287,0.82,0.883,0.785c0.123-0.007,0.293,0.332,0.396,0.535c2.8,5.508,4.912,11.286,6.728,17.179
		c0.637,2.067,1.223,4.149,1.845,6.22c0.065,0.217,0.159,0.469,0.323,0.603c0.309,0.252,0.514,0.545,0.666,0.861
		c0-0.014,0.001-0.028,0.001-0.041c0-5.868-0.689-11.572-1.951-17.057c-0.537-1.072-1.017-2.173-1.344-3.354
		c-0.293-1.057-0.93-2.027-1.459-3.01c-3.67-6.819-8.224-12.994-13.559-18.605c-6.479-6.813-13.78-12.627-21.71-17.629
		c-3.459-2.182-7.292-3.7-11.135-5.12c-3.741-1.382-7.594-2.328-11.547-2.852c-0.539-0.072-1.096-0.005-1.643-0.03
		c-0.281-0.013-0.619-0.004-0.826-0.152c-0.319-0.227-0.547-0.581-0.813-0.881c0.266-0.188,0.518-0.512,0.8-0.541
		c1.316-0.135,2.657-0.35,3.956-0.218c0.92,0.094,1.767,0.764,2.684,1.061c3.482,1.126,6.996,2.156,10.467,3.316
		c2.971,0.993,5.785,2.316,8.212,4.367c0.441,0.373,1.042,0.562,1.578,0.817c14.301,6.824,25.05,17.333,32.414,31.325
		c0.503,0.955,0.963,1.932,1.416,2.913c-3.448-9.587-8.771-18.277-15.53-25.63c-0.762-0.709-1.522-1.421-2.304-2.107
		c-0.947-0.831-2.075-1.42-2.957-2.384c-0.67-0.731-1.664-1.171-2.527-1.719c-0.914-0.581-1.759-1.216-2.307-2.191
		c-0.126-0.223-0.41-0.389-0.657-0.507c-3.086-1.472-6.181-2.925-9.268-4.394c-1.453-0.691-2.815-1.506-3.778-2.857
		c-0.125-0.176-0.367-0.298-0.58-0.378c-4.866-1.81-9.793-3.446-14.939-4.216C89.115,3.29,85.9,3.011,82.694,2.851
		c-3.237-0.162-6.489-0.015-9.731-0.106c-2.415-0.068-4.806-0.028-7.166,0.545c-0.314,0.076-0.623,0.155-0.67-0.339
		c-0.042-0.439,0.039-0.769,0.552-0.802c0.261-0.017,0.528-0.026,0.786,0.005c0.58,0.071,0.999,0.056,1.279-0.653
		c0.249-0.632,1.013-0.646,1.633-0.641c1.644,0.013,3.288,0.053,4.931,0.102c4.933,0.148,9.866,0.268,14.796,0.478
		c0.822,0.035,1.643,0.116,2.463,0.214C86.48,0.577,81.207,0,75.798,0c-8.412,0-16.495,1.391-24.056,3.921
		c0.508,0.034,1.017,0.069,1.525,0.058c1.019-0.023,2.051-0.1,3.045-0.308c0.599-0.126,1.263-0.427,1.677-0.86
		c1.145-1.198,3.898-1.095,5.407-0.049c0.481,0.333,0.388,0.846-0.173,1.022c-0.38,0.119-0.794,0.191-1.191,0.187
		c-1.308-0.013-2.616-0.08-3.924-0.105c-0.534-0.01-1.028,0.03-1.221,0.717c-0.066,0.235-0.464,0.526-0.72,0.535
		c-4.666,0.161-9.095,1.375-13.448,2.948c-0.018,0.007-0.043-0.004-0.134-0.015c0.037-0.179,0.1-0.333,0.168-0.482
		c-7.311,3.547-13.955,8.244-19.722,13.841c0.123-0.07,0.242-0.145,0.366-0.214c1.202-0.668,2.358-1.425,3.512-2.177
		c7.417-4.834,15.523-8.033,24.079-10.159c5.279-1.312,10.632-2.156,16.067-2.477c0.563-0.033,1.109-0.322,1.67-0.461
		c0.481-0.119,0.971-0.247,1.462-0.273c0.616-0.033,1.238,0.051,1.857,0.053c1.997,0.005,3.999-0.081,5.991,0.017
		c1.467,0.072,2.93,0.339,4.379,0.603c0.405,0.074,0.757,0.442,1.132,0.674c0.016,0.84-0.626,0.948-1.206,0.946
		c-1.381-0.005-2.761-0.092-4.141-0.16c-2.356-0.116-4.71-0.268-7.066-0.353c-1.375-0.049-2.754,0-4.131,0.012
		c-0.494,0.004-0.859,0.138-1.179,0.62C65.599,8.393,65.04,8.662,64.62,8.68c-1.566,0.065-3.143-0.072-4.705,0.032
		c-1.579,0.105-3.194,0.23-4.708,0.65c-5.29,1.467-10.544,3.063-15.809,4.619c-0.193,0.057-0.403,0.173-0.527,0.324
		c-0.595,0.728-1.389,0.979-2.281,0.98c-0.358,0-0.593,0.058-0.798,0.414c-0.162,0.283-0.509,0.62-0.795,0.641
		c-0.663,0.049-1.046,0.491-1.538,0.799c-0.52,0.326-1.065,0.691-1.648,0.818c-0.886,0.193-1.537,0.644-2.169,1.256
		c-1.085,1.053-2.417,1.668-3.903,1.962c-0.24,0.047-0.526,0.156-0.672,0.334c-1.882,2.295-4.434,3.633-6.924,5.109
		c-3.377,3.955-6.364,8.251-8.879,12.847c0.429-0.428,0.856-0.857,1.285-1.285c0.083-0.083,0.208-0.226,0.276-0.207
		c1.103,0.303,1.505-0.735,2.219-1.162c0.205-0.123,0.359-0.368,0.478-0.589c1.409-2.62,3.483-4.521,6.071-5.98
		c1.226-0.691,2.263-1.729,3.35-2.651c1.138-0.966,2.342-1.778,3.815-2.157c0.349-0.09,0.65-0.379,0.966-0.585
		c1.831-1.196,3.632-2.44,5.502-3.57c0.782-0.473,1.715-0.69,2.566-1.055c0.353-0.151,0.671-0.384,1.005-0.58
		c0.02-0.012,0.038-0.042,0.056-0.042c0.973,0.008,1.217-1.034,1.931-1.35c0.781-0.345,1.635-0.526,2.474-0.784
		c0.259,1.332-0.109,1.842-1.244,1.998c-0.166,0.023-0.422,0.103-0.461,0.217c-0.326,0.953-1.119,0.969-1.917,1.04
		c-0.336,0.03-0.697,0.113-0.987,0.277c-3.726,2.111-7.425,4.273-11.173,6.343c-0.873,0.482-1.194,1.373-1.89,1.957
		c-0.193,0.162-0.355,0.375-0.57,0.496c-2.43,1.364-4.242,3.368-5.766,5.643c-0.735,1.098-1.7,1.908-2.73,2.689
		c-1.153,0.875-2.494,1.635-3.333,2.759c-1.36,1.823-3.083,3.226-4.653,4.81c-0.209,0.211-0.406,0.435-0.604,0.657
		c-1.741,4.127-3.109,8.448-4.102,12.909c1.465-1.735,2.76-3.617,4.132-5.433c2.052-2.718,3.997-5.527,6.189-8.127
		c3.171-3.761,7.115-6.438,11.952-7.666c0.217-0.055,0.502-0.155,0.599-0.324c0.643-1.121,1.68-1.454,2.869-1.592
		c0.389-0.045,0.828-0.215,1.119-0.47c3.03-2.655,6.258-5.018,10.086-6.37c1.625-0.574,3.007-1.446,4.419-2.386
		c1.891-1.257,3.915-2.304,6.12-2.991c1.461-0.455,2.855-1.136,4.26-1.758c1.348-0.596,2.674-1.244,4.008-1.873
		c0.629-0.297,1.229-0.693,1.888-0.879c0.48-0.135,1.035,0.011,1.557,0.012c1.029,0.002,2.108,0.3,3.013-0.492
		c0.059-0.051,0.185-0.049,0.275-0.038c1.455,0.191,2.766-0.301,4.076-0.831c1.205-0.488,2.42-0.61,3.527,0.228
		c0.258,0.195,0.483,0.59,0.494,0.901c0.008,0.217-0.343,0.586-0.59,0.645c-0.664,0.158-1.367,0.295-2.04,0.247
		c-3.14-0.226-6.198,0.316-9.164,1.185c-3.323,0.974-6.562,2.238-9.835,3.383c-0.175,0.061-0.375,0.147-0.485,0.285
		c-1.154,1.449-2.84,1.939-4.48,2.514c-0.56,0.196-1.144,0.338-1.679,0.588c-0.454,0.213-0.847,0.555-1.277,0.822
		c-0.341,0.211-0.688,0.539-1.05,0.564c-0.969,0.067-1.59,0.656-2.256,1.23c-2.479,2.137-5.036,4.159-8.149,5.326
		c-0.444,0.167-0.89,0.336-1.346,0.462c-0.636,0.177-1.298,0.27-1.71,0.894c-0.094,0.143-0.309,0.272-0.48,0.289
		c-1.077,0.106-1.701,0.799-2.346,1.578c-0.425,0.513-1.04,0.947-1.658,1.209c-2.607,1.106-4.397,3.204-6.358,5.097
		c-0.531,0.512-0.995,1.092-1.495,1.636c-1.063,1.159-2.166,2.21-3.665,2.877c-2.007,0.892-3.304,2.48-3.859,4.675
		c-0.58,2.294-1.976,4.141-3.47,5.925c-1.39,1.66-2.727,3.364-4.088,5.049C0.86,65.75,0.795,65.91,0.71,65.922
		c-0.02,0.003-0.031,0.015-0.05,0.018c-0.376,2.893-0.593,5.834-0.633,8.82c2.009-3.394,3.864-6.882,6.154-10.108
		c3.291-4.635,6.759-9.113,10.688-13.225c9.109-9.533,19.788-16.731,32.061-21.561c0.524-0.206,1.015-0.512,1.496-0.813
		c1.779-1.114,3.778-1.663,5.756-2.264c0.4-0.122,0.676-0.253,0.862-0.705c0.271-0.659,0.983-0.693,1.598-0.738
		c2.326-0.172,4.425-1.124,6.578-1.892c0.261-0.093,0.545-0.256,0.707-0.471c0.617-0.822,1.505-1.019,2.434-1.165
		c1.495-0.236,2.991-0.313,4.467,0.089c0.588,0.16,1.201,0.356,1.397,1.118c-1,0.647-2.151,0.681-3.267,0.86
		c-1.031,0.165-2.059,0.349-3.082,0.558c-0.265,0.054-0.505,0.231-0.767,0.356c0.207,0.682,0.752,0.62,1.191,0.618
		c3.439-0.01,6.855,0.217,10.232,0.903c0.302,0.061,0.601,0.141,0.899,0.218c0.041,0.011,0.073,0.057,0.147,0.118
		c-0.243,0.575-0.765,0.646-1.276,0.639c-1.071-0.014-2.142-0.119-3.213-0.111c-1.739,0.013-3.478,0.101-5.217,0.124
		c-0.568,0.007-1.146-0.048-1.704-0.152c-0.569-0.106-1.046-0.358-1.334-0.948c-0.375-0.77-1.14-0.944-1.896-0.849
		c-1.389,0.174-2.771,0.426-4.148,0.684c-0.831,0.156-1.193,1.128-0.806,1.929c0.231,0.479,0.375,1,0.561,1.501
		c0.226,0.606,0.736,0.736,1.273,0.635c0.745-0.14,1.469-0.393,2.208-0.57c0.602-0.144,1.177-0.12,1.662,0.362
		c0.111,0.11,0.321,0.154,0.491,0.167c1.421,0.111,2.846,0.176,4.263,0.322c0.819,0.084,1.492,0.024,2.284-0.411
		c0.818-0.448,1.913-0.408,2.892-0.539c1.318-0.176,2.414,0.577,3.614,0.902c6.032,1.636,11.774,3.902,16.979,7.441
		c1.569,1.066,3.358,1.808,4.927,2.874c4.761,3.238,8.184,7.654,10.853,12.697c3.027,5.72,4.925,11.842,6.4,18.107
		c0.643,2.732,1.17,5.491,1.754,8.237c0.034,0.161,0.099,0.316,0.157,0.5c0.757-0.033,1.071,0.428,1.153,1.089
		c0.058,0.47,0.075,0.947,0.08,1.421c0.014,1.352,0.038,2.705-0.001,4.056c-0.011,0.379-0.22,0.755-0.352,1.127
		c-0.135,0.384-0.287,0.762-0.437,1.16c1.021,0.24,1.209,0.471,1.234,1.4c0.011,0.405-0.052,0.823,0.028,1.213
		c0.071,0.35,0.204,0.793,0.464,0.976c0.554,0.39,0.768,0.894,0.805,1.508c0.033,0.545,0.013,1.093,0.013,1.639
		c0.001,1.522-0.041,3.044,0.008,4.564c0.117,3.662-0.887,7.105-1.938,10.552c-0.908,2.977-1.849,5.952-2.548,8.98
		c-0.413,1.788-0.383,3.677-0.547,5.459c0.963,0.403,1.281,0.26,1.668-0.443c0.449-0.816,0.967-1.593,1.441-2.396
		c0.094-0.159,0.143-0.351,0.185-0.535c1.133-4.888,2.356-9.758,3.343-14.676c0.35-1.746,0.224-3.613,0.141-5.417
		c-0.227-4.904-0.836-9.79-0.624-14.713c0.003-0.07-0.014-0.142-0.182-0.125c-0.184-0.291-0.479-0.561-0.535-0.875
		c-0.64-3.608-1.22-7.227-1.864-10.835c-1.281-7.179-2.874-14.271-5.982-20.93c-1.9-4.07-4.398-7.704-7.447-11.026
		c-2.15-2.342-4.364-4.599-6.755-6.677c-1.05-0.913-2.3-1.597-3.461-2.382c-1.377-0.931-2.757-1.859-4.136-2.787
		c-0.097-0.066-0.192-0.149-0.3-0.182c-2.704-0.822-5.399-1.681-8.122-2.434c-1.019-0.282-2.104-0.339-3.164-0.453
		c-0.617-0.066-1.186-0.168-1.528-0.752c-0.2-0.342-0.192-0.686,0.25-0.773c0.924-0.181,1.858-0.323,2.793-0.424
		c0.229-0.025,0.56,0.105,0.71,0.279c1.214,1.402,2.947,1.652,4.584,2.102c1.305,0.359,2.651,0.592,3.927,1.029
		c0.837,0.286,1.584,0.837,2.371,1.269c0.186,0.102,0.364,0.222,0.559,0.302c8.421,3.454,14.78,9.274,19.484,16.988
		c3.828,6.276,6.271,13.11,8.08,20.195c1.598,6.258,2.703,12.608,3.452,19.018c0.506,4.33,0.981,8.664,1.379,13.005
		c0.176,1.918,0.153,3.857,0.17,5.787c0.01,1.209-0.342,1.69-1.266,1.892c-0.136,3.028-0.994,5.906-2.064,8.742
		c-0.772,2.045-1.478,4.115-2.155,6.193c-0.293,0.9-0.431,1.85-0.653,2.774c-0.078,0.323-0.173,0.646-0.302,0.951
		c-0.238,0.562-0.522,1.107-1.26,1.078c-0.686-0.027-1.285-0.587-1.464-1.352c-0.713-0.221-1.335-0.073-1.859,0.487
		c-0.13,0.139-0.25,0.323-0.414,0.39c-0.542,0.219-0.586,0.626-0.586,1.138c-0.002,1.066-0.38,1.438-1.431,1.572
		c-0.176,0.023-0.431,0.068-0.499,0.189c-0.442,0.784-0.959,1.554-1.235,2.399c-0.695,2.13-1.89,3.937-3.314,5.625
		c-1.475,1.747-3.054,3.421-4.027,5.531c-0.141,0.306-0.197,0.651-0.32,1.075c0.224-0.003,0.429-0.033,0.634-0.062
		c0.688-0.305,1.379-0.605,2.056-0.929c0.062-0.054,0.13-0.096,0.19-0.154c0.512-0.494,0.923-1.09,1.411-1.611
		c0.761-0.81,1.491-1.663,2.338-2.374c1.302-1.094,2.02-2.568,2.864-3.974c0.526-0.876,1.138-1.699,1.666-2.574
		c0.199-0.331,0.296-0.733,0.392-1.114c0.313-1.242,0.745-2.373,2.219-2.67c0.511,0.647,0.428,1.345,0.105,1.966
		c-0.525,1.009-1.171,1.955-1.729,2.948c-0.332,0.591-0.563,1.239-0.894,1.83c-0.496,0.887-0.966,1.803-1.58,2.604
		c-0.52,0.679-1.009,1.361-1.365,2.112c2.201-1.294,4.332-2.692,6.384-4.195c0.441-0.61,0.857-1.235,1.195-1.896
		c0.472-0.923,0.554-2.041,0.845-3.061c0.318-1.114,0.589-2.254,1.036-3.317c1.346-3.2,2.808-6.351,4.15-9.552
		c1.575-3.757,2.134-7.733,2.394-11.769c0.335-5.205-0.009-10.387-0.41-15.572c-0.244-3.16-0.289-6.338-0.617-9.488
		c-0.29-2.788-0.76-5.565-1.304-8.317c-1.438-7.282-3.61-14.335-6.818-21.05c-3.14-6.573-7.175-12.525-12.369-17.65
		c-3.889-3.837-8.217-7.095-13.062-9.656c-1.365-0.722-2.652-1.592-3.969-2.406c-2.094-1.294-4.355-2-6.829-2.013
		c-0.347-0.002-0.714-0.083-1.037-0.214c-2.167-0.88-4.417-1.115-6.732-0.943c-0.52,0.039-1.055,0.024-1.567-0.06
		c-0.331-0.055-0.69-0.222-0.934-0.449c-0.299-0.277-0.354-0.52,0.123-0.877c0.875-0.655,1.761-0.401,2.668-0.326
		c0.117,0.01,0.24,0.037,0.344,0.09c3.118,1.571,6.592,1.49,9.906,2.151c2.674,0.533,5.08,1.665,7.296,3.282
		c0.686,0.501,1.656,0.683,2.527,0.845c1.82,0.338,3.375,0.998,4.235,2.776c0.066,0.136,0.273,0.262,0.431,0.286
		c1.758,0.268,2.952,1.346,3.96,2.706c0.298,0.402,0.635,0.776,0.917,1.189c0.418,0.612,0.91,0.958,1.717,0.91
		c0.332-0.019,0.718,0.311,1.027,0.551c2.579,1.998,4.711,4.413,6.783,6.93c4.884,5.934,8.027,12.736,10.367,19.963
		c2.131,6.58,3.574,13.325,4.475,20.176c0.575,4.367,0.988,8.755,1.441,13.137c0.071,0.685,0.523,0.939,1.022,1.125
		c0.524,0.194,0.801,0.543,0.83,1.045c0.047,0.803,0.032,1.611,0.016,2.416c-0.036,1.857-0.041,3.716-0.144,5.569
		c-0.292,5.249-1.538,10.294-3.379,15.202c-1.797,4.79-4.175,9.284-6.937,13.582c-0.146,0.227-0.278,0.514-0.279,0.774
		c-0.002,0.523-0.08,1.018-0.191,1.502c1.11-0.905,2.196-1.837,3.252-2.802c0.133-0.452,0.441-0.731,0.88-0.839
		c0.751-0.709,1.49-1.429,2.212-2.167c0.067-0.288,0.135-0.556,0.23-0.812c1.223-3.272,2.459-6.539,3.716-9.798
		c1.101-2.852,1.954-5.765,2.304-8.811c0.052-0.449,0.059-0.905,0.059-1.357c0.004-3.985,0.095-7.972-0.03-11.953
		c-0.084-2.684-0.4-5.369-0.742-8.037c-0.749-5.833-1.777-11.627-3.291-17.307c-1.866-7.003-3.936-13.952-5.918-20.925
		c-0.032-0.114-0.031-0.288-0.106-0.333c-0.892-0.53-0.602-1.396-0.665-2.175c-0.023-0.284-0.147-0.609-0.332-0.823
		c-2.136-2.469-4.27-4.94-6.45-7.369c-2.388-2.661-4.823-5.279-7.236-7.917c-0.061-0.067-0.111-0.145-0.166-0.218
		c3.097,1.096,5.716,2.902,7.844,5.33c1.692,1.931,3.259,3.983,4.738,6.083c0.714,1.012,1.592,1.783,2.494,2.574
		c0.181,0.159,0.375,0.456,0.354,0.668c-0.138,1.378,0.293,2.611,0.789,3.863c3.606,9.118,6.692,18.405,8.903,27.966
		c1.667,7.205,2.84,14.478,2.975,21.898c0.12,6.552-0.517,12.977-2.88,19.149c-0.66,1.724-1.315,3.45-1.999,5.164
		c2.598-3.192,4.932-6.604,6.99-10.196c0.136-0.42,0.282-0.836,0.415-1.256c0.582-1.831,0.962-3.726,1.417-5.596
		c0.066-0.273,0.056-0.569,0.056-0.854c0.001-2.858,0.064-5.718-0.045-8.572c-0.037-0.976-0.285-1.981-1.209-2.724
		c-0.405-0.326-0.419-1.142-0.598-1.739c-0.025-0.083,0.029-0.187,0.031-0.282c0.026-1.379,0.257-2.702-0.548-4.069
		c-0.65-1.105-0.82-2.523-1.072-3.828c-0.939-4.858-1.807-9.729-2.738-14.588c-0.366-1.907-0.731-3.806-1.404-5.658
		c-0.493-1.356-0.508-2.886-0.736-4.338c-0.036-0.231-0.032-0.475-0.106-0.693c-1.013-2.965-2.052-5.921-3.052-8.891
		c-0.814-2.418-1.57-4.884-3.279-6.84c-1.722-1.972-3.595-3.813-5.399-5.714c-0.902-0.951-1.82-1.888-2.682-2.874
		c-0.225-0.258-0.376-0.677-0.37-1.018c0.01-0.552-0.18-0.893-0.647-1.15c-0.834-0.459-1.658-0.936-2.48-1.416
		c-0.894-0.523-1.695-1.138-2.207-2.081c-0.119-0.219-0.413-0.376-0.661-0.488c-7.821-3.542-15.646-7.074-23.47-10.609
		c-0.211-0.095-0.418-0.201-0.627-0.302c0.015-0.062,0.031-0.125,0.046-0.187c1.212,0.241,2.435,0.434,3.633,0.731
		c5.05,1.253,9.712,3.456,14.266,5.908c2.327,1.253,4.704,2.44,6.908,3.886c2.285,1.499,4.436,3.216,6.561,4.941
		c3.554,2.883,6.741,6.125,9.222,10.005c2.551,3.99,4.105,8.345,4.786,13.026c0.101,0.692,0.386,1.354,0.525,2.043
		c0.182,0.906,0.37,1.82,0.435,2.738c0.09,1.273,0.28,2.442,1.052,3.555c1.226,1.768,1.519,3.873,1.682,5.976
		c0.053,0.685,0.176,1.311,0.429,1.975c0.29,0.76,0.194,1.673,0.234,2.521c0.042,0.899,0.001,1.805,0.086,2.699
		c0.04,0.415,0.276,0.775,0.834,0.827c0.203,0.019,0.48,0.365,0.542,0.608c0.464,1.818,0.935,3.638,1.291,5.479
		c0.152,0.785,0.504,1.272,1.186,1.611c0.142,0.071,0.274,0.288,0.297,0.454c0.332,2.309,0.762,4.613,0.936,6.935
		c0.288,3.847,0.453,7.705,0.576,11.561c1.341-3.193,2.463-6.499,3.362-9.896c-0.99-6.425-3.109-12.566-4.94-18.784
		C143.066,72.82,142.214,69.135,141.274,65.477z M48.988,20.448c-2.023,0.833-4.082,1.592-6.052,2.536
		c-1.623,0.778-3.168,1.732-4.697,2.689c-4.298,2.69-8.55,5.456-12.866,8.118c-1.289,0.795-2.726,1.352-4.097,2.012
		c-0.204,0.098-0.423,0.166-0.634,0.248c-0.055-0.075-0.109-0.15-0.164-0.224c1.383-1.262,2.713-2.589,4.162-3.77
		c2.429-1.979,5.171-3.48,7.949-4.909c4.844-2.491,9.668-5.022,14.54-7.458c2.35-1.175,4.843-1.98,7.508-2.094
		c0.167-0.007,0.334-0.002,0.501,0.002c0.114,0.003,0.229,0.014,0.343,0.021c0.01,0.052,0.02,0.104,0.03,0.155
		C53.336,18.666,51.16,19.554,48.988,20.448z M56.368,13.969c-0.541,0.157-1.141,0.296-1.685,0.225
		c-2.061-0.27-3.876,0.492-5.717,1.203c-1.35,0.521-2.707,1.024-4.064,1.528c-0.146,0.054-0.309,0.062-0.52,0.101
		c0.104-0.933,0.615-1.518,1.353-1.836c0.845-0.365,1.756-0.574,2.621-0.895c0.685-0.255,1.333-0.611,2.019-0.861
		c0.639-0.232,1.297-0.445,1.965-0.553c0.748-0.121,1.519-0.094,2.276-0.172c0.858-0.088,1.695-0.26,2.285-0.981
		C57.837,12.723,57.636,13.6,56.368,13.969z M61.904,10.71c1.773-0.73,3.632-0.615,5.483-0.508c0.66,0.038,1.315,0.162,2.005,0.251
		c0.067,0.665-0.29,1.111-0.775,1.33c-0.702,0.317-1.464,0.648-2.214,0.682c-1.934,0.087-3.876,0.013-5.952,0.003
		C60.681,11.417,61.222,10.99,61.904,10.71z M67.461,15.295c-0.865,0.15-1.725,0.325-2.587,0.491
		c-0.069,0.013-0.14,0.074-0.201,0.063c-1.572-0.272-2.989,0.431-4.476,0.695c-0.781,0.138-1.514,0.008-2.213-0.809
		c0.447-0.169,0.805-0.4,1.178-0.426c0.83-0.057,1.675,0.057,2.498-0.035c0.415-0.046,0.882-0.309,1.174-0.618
		c0.456-0.483,0.979-0.67,1.59-0.658c1.333,0.027,2.666,0.069,3.997,0.144c0.56,0.031,1.117,0.152,1.671,0.253
		c0.121,0.022,0.225,0.134,0.337,0.205c0.002,0.071,0.005,0.142,0.007,0.213C69.445,14.973,68.451,15.123,67.461,15.295z
		 M91.578,26.514c-1.654,0.465-2.927-0.117-3.586-1.73C89.318,25.279,90.833,25.004,91.578,26.514z M80.919,23.174
		c0.966,0.101,1.92,0.258,2.647,0.837c-1.694-0.088-3.441-0.134-5.178-0.289c-0.762-0.068-1.516-0.324-2.25-0.567
		c-0.264-0.087-0.457-0.387-0.6-0.516C77.343,22.817,79.132,22.987,80.919,23.174z M87.878,16.972
		c-0.122,0.009-0.261,0.063-0.363,0.022c-2.182-0.88-4.465-0.475-6.711-0.54c-1.706-0.049-3.421-0.018-5.115-0.191
		c-1.144-0.117-1.737-0.74-2.023-1.702c0.865-0.161,1.713-0.373,2.573-0.467c2.185-0.238,4.377-0.302,6.531,0.221
		c0.467,0.113,0.864,0.502,1.303,0.747c0.41,0.229,0.816,0.478,1.253,0.64c0.51,0.189,1.067,0.251,1.573,0.447
		c0.375,0.145,0.7,0.417,1.047,0.633C87.924,16.846,87.901,16.909,87.878,16.972z"/>
	<path class="st0" d="M16.497,92.565c0.249-1.202,0.321-2.451,0.369-3.682c0.026-0.668,0.148-1.237,0.526-1.796
		c3.295-4.876,6.597-9.747,9.847-14.653c2.815-4.249,5.577-8.534,8.335-12.82c1.014-1.576,2.435-2.724,3.828-3.922
		c3.001-2.581,5.991-5.168,9.311-7.348c4.046-2.656,8.36-4.722,12.995-6.12c0.223-0.067,0.506-0.212,0.595-0.4
		c0.281-0.597,0.764-0.844,1.361-0.893c0.878-0.071,1.759-0.098,2.64-0.134c0.82-0.033,1.527-0.197,1.972-1.028
		c0.147-0.274,0.609-0.448,0.96-0.531c1.693-0.397,3.408-0.44,5.095-0.007c0.457,0.117,0.828,0.542,1.264,0.778
		c0.298,0.162,0.64,0.34,0.963,0.341c0.855,0.003,1.713-0.138,2.566-0.114c0.35,0.01,0.69,0.301,1.04,0.452
		c0.2,0.086,0.41,0.21,0.615,0.209c0.934-0.004,1.732,0.255,2.334,1.014c0.11,0.138,0.297,0.236,0.469,0.3
		c6.783,2.531,11.877,7.094,15.776,13.098c3.544,5.458,5.843,11.472,7.852,17.614c0.547,1.672,1.04,3.361,1.567,5.04
		c0.052,0.166,0.179,0.447,0.258,0.443c0.652-0.035,0.723,0.458,0.824,0.884c0.539,2.263,0.552,4.529-0.036,6.787
		c-0.094,0.362-0.168,0.752-0.695,0.768c-0.103,0.003-0.277,0.259-0.283,0.404c-0.016,0.351-0.043,0.748,0.095,1.053
		c0.664,1.466,0.638,3.005,0.585,4.555c-0.023,0.667,0.268,1.071,0.947,1.21c0.505,0.103,0.72-0.102,0.75-0.574
		c0.015-0.238,0.012-0.477,0.012-0.716c-0.001-0.397,0.142-0.627,0.59-0.615c0.518,0.015,0.779-0.321,0.696-0.78
		c-0.155-0.86,0.006-1.735-0.462-2.602c-0.33-0.61-0.196-1.487-0.214-2.246c-0.028-1.121-0.067-2.247,0.004-3.364
		c0.189-2.966-0.323-5.809-1.161-8.648c-2.095-7.102-4.691-13.98-8.618-20.295c-3.636-5.846-8.145-10.889-14.002-14.571
		c-1.387-0.872-3.111-1.27-4.729-1.699c-4.141-1.096-8.372-1.689-12.657-1.515c-2.657,0.108-5.354,0.292-7.936,0.872
		c-2.222,0.499-4.344,1.527-6.446,2.463c-5.711,2.545-10.874,5.924-15.222,10.454c-1.45,1.511-2.711,3.203-4.148,4.728
		c-1.848,1.96-3.808,3.814-5.681,5.751c-2.38,2.46-4.26,5.244-5.319,8.534c-0.055,0.172-0.155,0.354-0.287,0.474
		c-2.923,2.652-5.135,5.873-7.358,9.094c-1.907,2.764-3.854,5.504-5.869,8.19c-0.603,0.804-1.522,1.362-2.241,2.087
		c-1.274,1.285-2.505,2.613-3.755,3.922c-0.13,0.136-0.242,0.333-0.402,0.392c-1.238,0.456-1.898,1.46-2.484,2.545
		c-0.173,0.319-0.348,0.638-0.532,0.951c0.459,1.587,0.954,3.159,1.512,4.701c1.458-1.66,2.763-3.433,3.708-5.492
		c0.874-1.904,1.956-3.732,3.689-5.018c0.729-0.541,1.575-0.924,2.368-1.38c0.054,0.072,0.109,0.144,0.163,0.216
		c-2.257,4.627-4.501,9.303-8.471,12.749c-0.272,0.236-0.505,0.497-0.752,0.75c0.654,1.669,1.352,3.316,2.118,4.925
		c1.707-2.445,3.395-4.903,5.083-7.36C14.205,98.388,15.846,95.703,16.497,92.565z"/>
	<path class="st0" d="M11.44,112.527c1.028-1.305,2.056-2.587,3.198-3.797c2.691-2.849,4.389-6.318,5.934-9.868
		c1.451-3.335,2.641-6.814,4.404-9.974c2.281-4.086,4.846-8.041,7.594-11.832c5.175-7.14,10.538-14.145,15.892-21.153
		c1.259-1.648,2.867-3.005,4.753-3.95c0.547-0.274,1.154-0.434,1.739-0.628c1.947-0.647,3.622-1.79,5.299-2.923
		c2.142-1.447,4.414-2.54,7.038-2.737c0.604-0.687,1.765-0.29,2.305-1.274c0.201-0.366,1.009-0.506,1.557-0.551
		c1.04-0.086,2.097-0.093,3.138-0.012c0.801,0.062,1.464,0.427,2.124,1.004c0.653,0.571,1.631,0.828,2.508,1.073
		c1.249,0.349,2.602,0.378,3.598,1.392c0.104,0.105,0.358,0.095,0.54,0.086c0.808-0.042,1.496,0.24,2.097,0.755
		c0.64,0.548,1.38,0.844,2.163,1.16c0.937,0.379,1.77,1.112,2.526,1.823c1.866,1.755,3.384,3.749,4.512,6.101
		c1.8,3.752,3.825,7.397,5.742,11.094c0.295,0.569,0.506,1.181,0.794,1.754c0.14,0.279,0.398,0.497,0.551,0.772
		c0.154,0.277,0.344,0.59,0.343,0.886c-0.003,0.879-0.104,1.758-0.142,2.638c-0.02,0.465,0.029,0.926,0.588,1.09
		c0.602,0.177,1.453-0.058,1.724-0.482c0.568-0.89,0.502-1.877,0.351-2.843c-0.378-2.423-1.33-4.659-2.373-6.855
		c-1.751-3.686-3.672-7.298-6.236-10.475c-2.39-2.962-4.853-5.904-8.002-8.138c-1.331-0.944-2.701-1.834-4.05-2.753
		c-0.196-0.133-0.456-0.253-0.548-0.445c-0.398-0.829-1.171-0.8-1.903-0.972c-0.912-0.215-1.791-0.57-2.688-0.854
		c-0.197-0.063-0.407-0.109-0.613-0.118c-10.457-0.463-19.571,3.193-27.82,9.273c-6.439,4.746-11.221,10.975-15.199,17.843
		c-1.233,2.128-2.474,4.222-4.206,6.002c-0.907,0.932-1.449,2.112-1.761,3.386c-0.047,0.19-0.145,0.397-0.283,0.531
		c-0.627,0.611-1.268,1.208-1.92,1.792c-0.633,0.567-1.378,1.035-1.913,1.68c-2.186,2.638-3.521,5.749-4.79,8.891
		c-1.433,3.55-2.694,7.176-4.615,10.511c-1.505,2.613-3.369,4.906-5.893,6.618c-0.186,0.126-0.331,0.453-0.335,0.688
		c-0.014,0.836-0.196,1.563-0.536,2.177c0.52,0.993,1.063,1.972,1.626,2.939C10.67,113.426,11.074,112.991,11.44,112.527z"/>
	<path class="st0" d="M115.406,11.407c0.589,0.767,1.344,1.008,2.161,1.327c0.21,0.082,0.428,0.157,0.643,0.234
		c-1.109-0.75-2.242-1.466-3.392-2.158C115.03,10.987,115.23,11.179,115.406,11.407z"/>
	<path class="st0" d="M4.627,80.983c0.16-0.105,0.262-0.392,0.28-0.604c0.112-1.293,0.779-2.267,1.827-2.926
		c1.247-0.785,1.98-1.865,2.55-3.211c2.237-5.283,5.438-9.982,9.005-14.445c0.142-0.177,0.341-0.425,0.31-0.604
		c-0.163-0.941,0.397-1.536,0.972-2.094c2.959-2.871,5.829-5.845,8.93-8.555c8.423-7.362,18.071-12.721,28.375-16.961
		c0.27-0.111,0.463-0.408,0.695-0.614c0.085-0.075,0.177-0.143,0.27-0.208c0.267-0.186,0.723-0.331,0.768-0.559
		c0.11-0.546,0.041-1.131,0.002-1.697c-0.005-0.065-0.279-0.15-0.433-0.16c-1.459-0.097-2.862,0.036-4.04,1.039
		c-0.088,0.075-0.196,0.183-0.295,0.183c-1.688,0.001-3.075,0.811-4.468,1.625c-4.791,2.8-9.605,5.56-14.374,8.395
		c-3.612,2.147-7.058,4.541-10.059,7.509c-2.085,2.062-4.104,4.19-6.172,6.269c-1.025,1.031-2.223,1.918-3.112,3.052
		c-1.554,1.982-2.983,4.068-4.366,6.175c-1.594,2.43-2.975,5.031-5.153,7c-0.969,0.875-1.434,1.761-1.211,3.009
		c0.169,0.944-0.353,1.546-0.923,2.186c-1.329,1.493-2.667,2.984-3.917,4.541c0.112,2.437,0.346,4.842,0.682,7.214
		c0.22-0.392,0.428-0.793,0.604-1.218C2.084,83.612,3.017,82.041,4.627,80.983z"/>
	<path class="st0" d="M25.188,62.044c-0.011-0.633,0.12-1.156,0.575-1.616c0.871-0.881,1.751-1.757,2.566-2.689
		c3.602-4.115,8.077-7.245,12.2-10.765c2.439-2.081,5.082-3.947,7.763-5.713c3.389-2.232,7.164-3.625,11.135-4.471
		c0.138-0.029,0.315-0.022,0.405-0.106c1.205-1.128,2.73-0.986,4.19-1.043c1.315-0.051,2.579-0.164,3.815-0.741
		c0.773-0.361,1.697-0.481,2.565-0.542c3.437-0.242,6.781,0.444,10.122,1.121c0.114,0.023,0.254,0.039,0.329,0.113
		c1.149,1.128,2.684,1.258,4.132,1.605c1.045,0.25,2.092,0.478,2.932,1.218c0.085,0.075,0.208,0.119,0.321,0.151
		c4.281,1.206,7.605,3.854,10.575,7.028c4.195,4.482,7.292,9.693,9.989,15.162c2.633,5.339,4.564,10.923,5.662,16.776
		c0.702,3.742,1.077,7.504,0.09,11.27c-0.318,1.214-1.082,2.313-0.823,3.685c0.079,0.421-0.203,0.916-0.345,1.37
		c-0.257,0.823-0.402,1.56,0.052,2.448c0.293,0.573,0.187,1.464,0.006,2.144c-0.364,1.369-0.889,2.697-1.374,4.032
		c-0.171,0.472-0.3,0.841,0.193,1.256c0.215,0.181,0.28,0.715,0.198,1.035c-0.119,0.468-0.335,0.999-0.684,1.3
		c-0.494,0.424-0.523,0.886-0.521,1.443c0.005,1.926-0.027,3.852-0.02,5.778c0.001,0.371,0.059,0.767,0.204,1.102
		c0.081,0.186,0.446,0.417,0.594,0.367c0.209-0.071,0.464-0.379,0.473-0.594c0.024-0.59-0.082-1.184-0.116-1.778
		c-0.03-0.526-0.033-0.938,0.629-1.249c0.455-0.213,0.739-0.903,0.981-1.434c0.835-1.832,0.966-3.812,1.113-5.783
		c0.199-2.657,0.134-5.344,0.86-7.939c0.184-0.658,0.41-1.339,0.781-1.9c0.396-0.6,0.508-1.193,0.495-1.876
		c-0.025-1.263,0.288-2.405,0.972-3.517c0.301-0.488,0.152-1.321,0.053-1.973c-0.169-1.11-0.46-2.201-0.726-3.418
		c-0.98-0.171-0.93-1.204-0.971-2.05c-0.059-1.209,0.035-2.43,0.118-3.642c0.158-2.31-0.541-4.479-1.086-6.665
		c-1.739-6.976-4.464-13.524-8.3-19.638c-1.136-1.81-2.464-3.37-3.941-4.853c-0.714-0.717-1.288-1.475-1.072-2.576
		c0.088-0.45-0.162-0.657-0.55-0.858c-0.99-0.512-1.962-1.065-2.909-1.653c-0.333-0.207-0.661-0.518-0.836-0.861
		c-0.362-0.713-0.98-1.061-1.634-1.408c-3.005-1.593-5.942-3.332-9.022-4.762c-4.218-1.958-8.713-2.674-13.367-2.315
		c-0.735,0.057-1.481,0.058-2.217,0.01c-0.441-0.029-1.005-0.068-1.284-0.339c-0.911-0.885-1.932-0.566-2.964-0.48
		c-1.276,0.106-2.556,0.157-3.834,0.236c-0.211,0.013-0.432,0.017-0.629,0.084c-7.626,2.57-14.984,5.706-21.627,10.335
		c-3.082,2.148-5.876,4.618-8.458,7.352c-1.947,2.062-3.989,4.04-6.06,5.98c-5.296,4.96-9.498,10.795-13.569,16.746
		c-2.074,3.033-4.309,5.945-6.87,8.595c-0.173,0.178-0.304,0.494-0.292,0.737c0.054,1.09-0.456,1.799-1.362,2.322
		c-0.205,0.119-0.444,0.411-0.44,0.619c0.021,1.155-0.517,1.968-1.463,2.527c-0.624,0.369-0.986,0.842-1.228,1.55
		c-0.111,0.325-0.278,0.638-0.473,0.937c0.346,1.932,0.747,3.844,1.236,5.722c7.158-10.783,14.601-21.363,22.459-31.65
		C25.146,62.991,25.196,62.467,25.188,62.044z"/>
	<path class="st0" d="M81.265,146.837c2.41-1.869,4.119-4.352,5.914-6.752c6.662-8.904,12.045-18.516,15.625-29.064
		c1.373-4.045,2.377-8.216,3.571-12.323c0.085-0.291,0.348-0.53,0.528-0.794c0.064,0.029,0.128,0.058,0.192,0.087
		c0-0.427,0-0.855,0-1.282c0-5.632,0.006-11.264-0.016-16.896c-0.001-0.326-0.234-0.65-0.355-0.977
		c-0.155-0.42-0.339-0.834-0.451-1.266c-0.144-0.558-0.377-0.987-1.029-0.987c-0.673-0.001-0.973,0.493-0.99,1.02
		c-0.05,1.564-0.154,3.15,0.039,4.693c0.427,3.404,0.457,6.796,0.143,10.201c-0.219,2.375-0.573,4.725-1.353,6.992
		c-0.046,0.132-0.108,0.259-0.178,0.424c-0.681-0.244-1.026-0.796-1.087-1.392c-0.149-1.46-0.311-2.941-0.214-4.397
		c0.093-1.386,0.496-2.752,0.784-4.123c0.3-1.428,0.161-2.807-0.514-4.092c-0.174-0.331-0.579-0.655-0.931-0.729
		c-0.18-0.038-0.535,0.45-0.711,0.757c-0.317,0.552-0.66,1.122-0.809,1.729c-0.235,0.956-0.559,1.987-0.414,2.918
		c0.269,1.727,0.21,3.456,0.34,5.18c0.061,0.804,0.061,1.622-0.014,2.424c-0.059,0.634-0.298,1.231-1.197,1.181
		c0,0.458,0.003,0.882-0.001,1.306c-0.007,0.817,0.025,1.572-0.562,2.332c-0.44,0.57-0.507,1.463-0.637,2.23
		c-0.312,1.836-0.287,1.84-2.108,1.84c-0.914,0-1.678-0.838-1.607-1.767c0.037-0.484,0.369-0.587,0.784-0.663
		c0.222-0.041,0.552-0.222,0.595-0.398c0.732-2.977,1.49-5.95,2.111-8.951c0.489-2.365,0.575-4.771,0.196-7.256
		c-1.055,0.507-1.83,1.24-2.127,2.309c-0.284,1.023-0.574,2.106-0.526,3.147c0.181,3.953-0.903,7.635-2.225,11.271
		c-1.319,3.628-3.041,7.039-5.682,9.917c-0.224,0.244-0.435,0.499-0.687,0.788c-0.775-0.769-0.796-1.638-0.524-2.446
		c0.461-1.37,1.063-2.693,1.606-4.036c0.018-0.044,0.026-0.107,0.059-0.126c1.698-0.99,1.469-2.733,1.687-4.302
		c0.088-0.636,0.136-1.286,0.304-1.901c0.104-0.379,0.42-0.695,0.605-1.057c0.126-0.246,0.256-0.521,0.269-0.788
		c0.036-0.769,0.013-1.541,0.013-2.311c-0.082-0.029-0.164-0.059-0.246-0.088c-0.172,0.218-0.39,0.414-0.51,0.658
		c-1.278,2.587-2.861,5.018-3.683,7.841c-0.311,1.068-1.18,1.972-1.783,2.958c-0.116,0.189-0.222,0.406-0.252,0.621
		c-0.043,0.304-0.056,0.627-0.003,0.928c0.245,1.401-0.391,2.413-1.357,3.326c-0.9,0.851-1.767,1.74-2.618,2.641
		c-0.341,0.361-0.689,0.761-0.879,1.209c-0.445,1.051-1.378,1.58-2.201,2.273c0.049,0.345,0.137,0.717,0.148,1.091
		c0.025,0.872-0.417,1.44-1.256,1.679c-0.919,0.262-2.173-0.029-2.462-0.667c-0.134-0.296-0.135-0.792,0.028-1.061
		c1.555-2.563,3.114-5.125,4.759-7.631c1.961-2.987,4.01-5.918,5.499-9.184c1.222-2.682,2.044-5.468,2.082-8.666
		c-0.456,0.579-0.81,1.003-1.136,1.447c-2.747,3.746-4.715,7.933-6.803,12.052c-1.649,3.252-3.331,6.484-5.547,9.401
		c-0.071,0.094-0.152,0.196-0.178,0.307c-0.404,1.679-1.563,2.793-2.827,3.842c-1.313,1.089-2.379,2.338-2.579,4.135
		c-0.018,0.162-0.257,0.376-0.435,0.432c-2.103,0.664-3.464,2.129-4.596,3.956c-0.628,1.015-1.509,1.885-2.338,2.761
		c-0.849,0.897-1.775,1.722-2.669,2.575c-0.12,0.114-0.245,0.228-0.385,0.314c-3.314,2.017-6.219,4.57-9.225,6.994
		c-0.267,0.215-0.561,0.399-0.863,0.573c0.799,0.351,1.607,0.684,2.42,1.008c1.401-1.054,2.919-1.973,4.265-3.095
		c2.654-2.211,5.257-4.493,7.759-6.875c3.058-2.91,5.987-5.956,8.977-8.938c0.583-0.581,1.192-1.136,1.886-1.795
		c0.094,1.409-0.127,2.64-0.829,3.665c-0.993,1.447-2.141,2.788-3.237,4.163c-1.215,1.524-2.584,2.948-3.62,4.584
		c-0.623,0.984-1.336,1.675-2.27,2.318c-3.359,2.315-6.668,4.701-9.984,7.078c1.117,0.391,2.244,0.759,3.384,1.098
		c1.734-1.328,3.415-2.738,5.028-4.256c3.509-3.302,6.926-6.676,10.244-10.171c2.734-2.88,4.858-6.164,7.082-9.4
		c1.803-2.625,3.76-5.11,6.46-6.895c0.235-0.155,0.48-0.296,0.866-0.534c-0.347,2.246-1.034,4.206-1.998,6.076
		c-1.444,2.801-3.469,5.179-5.514,7.54c-2.156,2.489-4.203,5.044-5.715,8.001c-0.899,1.758-2.408,2.997-3.974,4.142
		c-2.949,2.156-5.848,4.389-8.839,6.482c1.136,0.278,2.281,0.532,3.436,0.758c0.056-0.045,0.115-0.083,0.171-0.128
		c1.379-1.128,2.626-2.417,3.934-3.632c1.17-1.087,2.354-2.159,3.508-3.262c5.249-5.013,9.822-10.559,13.609-16.776
		c1.693-2.779,3.745-5.339,5.652-7.986c0.303-0.421,0.695-0.778,1.089-1.21c0.88,0.992,0.85,2.091,0.539,3.185
		c-0.72,2.537-2.196,4.567-4.287,6.165c-0.212,0.162-0.437,0.382-0.525,0.623c-1.748,4.777-4.559,8.888-7.976,12.596
		c-2.65,2.876-5.392,5.667-8.094,8.495c-0.382,0.4-0.849,0.792-0.379,1.396c0.306,0.393,1.499,0.44,1.93,0.072
		c1.45-1.238,2.937-2.44,4.31-3.76c5.742-5.52,10.305-11.958,14.06-18.929c4.128-7.664,7.959-15.487,11.921-23.24
		c0.103-0.202,0.221-0.397,0.492-0.549c-0.235,1.446-0.43,2.9-0.713,4.337c-1.963,9.97-6.525,18.739-12.569,26.784
		c-2.116,2.817-4.426,5.495-6.747,8.148c-2.275,2.6-4.678,5.088-7.024,7.625c-0.38,0.411-0.498,0.938-0.32,1.414
		c0.676,0.018,1.348,0.051,2.029,0.051c0.17,0,0.338-0.012,0.508-0.013c1.245-1.182,2.488-2.366,3.729-3.552
		C80.448,147.636,80.816,147.185,81.265,146.837z M94.038,111.924c-0.135,0.044-0.195,0.355-0.266,0.551
		c-0.586,1.63-1.487,2.776-2.756,3.491c-0.676-0.557-0.867-1.208-0.453-2.071c0.272-0.568,0.657-1.106,1.088-1.567
		c0.342-0.366,0.51-0.712,0.423-1.193c-0.017-0.092-0.01-0.19-0.009-0.285c0.024-1.634,0.692-2.209,2.375-2.006
		c0.063,0.582,0.149,1.12,0.172,1.66C94.635,111.045,94.822,111.667,94.038,111.924z"/>
	<path class="st0" d="M50.513,136.986c1.644-1.025,3.062-2.205,4.068-3.962c1.066-1.861,2.902-3.013,4.655-4.246
		c1.419-0.998,2.709-2.284,3.058-4.195c0.09-0.491,0.485-0.966,0.838-1.361c0.698-0.783,1.587-1.418,2.18-2.267
		c2.942-4.21,6.668-7.812,9.279-12.286c3.798-6.504,6.478-13.441,8.442-20.681c0.448-1.651,0.882-3.309,1.238-4.982
		c0.156-0.733,0.128-1.511,0.134-2.269c0.005-0.618-0.03-1.241-0.104-1.855c-0.159-1.324,0.314-2.253,1.569-2.783
		c0.151-0.064,0.294-0.368,0.285-0.553c-0.264-5.514-1.576-10.683-5.1-15.092c-0.683-0.855-1.46-1.635-2.209-2.435
		c-0.175-0.187-0.395-0.353-0.626-0.462c-1.823-0.864-3.657-1.707-5.482-2.568c-1.56-0.736-3.143-1.4-4.913-1.317
		c-1.826,0.086-3.442,0.579-4.812,1.963c-3.394,3.428-6.156,7.329-8.853,11.296c-2.558,3.763-5.182,7.48-7.726,11.252
		c-0.269,0.399-0.281,1.04-0.25,1.558c0.047,0.785-0.162,1.227-0.951,1.544c-1.318,0.529-1.731,1.341-1.525,2.719
		c0.066,0.443-0.08,0.625-0.443,0.733c-0.319,0.095-0.644,0.168-0.965,0.255c-0.885,0.237-1.027,0.473-1.01,1.36
		c0.006,0.322-0.088,0.706-0.274,0.963c-4.571,6.313-9.192,12.59-13.731,18.926c-1.578,2.203-2.974,4.537-4.433,6.825
		c-1.14,1.788-2.579,3.278-4.21,4.63c-1.269,1.052-2.501,2.149-3.728,3.252c0.723,0.973,1.468,1.927,2.235,2.864
		c0.763-0.518,1.464-1.006,1.64-2.071c0.079-0.477,0.744-0.85,1.124-1.286c0.213-0.245,0.497-0.501,0.561-0.793
		c0.308-1.4,1.083-2.472,2.179-3.344c0.504-0.401,1.025-0.778,1.527-1.181c0.533-0.427,1.08-0.831,1.144-1.619
		c0.02-0.252,0.211-0.608,0.421-0.704c0.68-0.313,0.886-0.941,1.206-1.515c1.005-1.806,2.467-3.128,4.322-4.031
		c0.244-0.119,0.507-0.283,0.655-0.499c2.416-3.511,4.782-7.057,7.228-10.548c1.984-2.831,3.951-5.661,5.442-8.796
		c0.778-1.635,2.187-2.692,3.668-3.617c0.727-0.454,1.07-0.936,0.853-1.789c-0.081-0.318-0.127-0.678-0.061-0.991
		c0.06-0.28,0.278-0.536,0.46-0.778c0.179-0.238,0.445-0.417,0.595-0.669c2.052-3.434,4.053-6.899,6.144-10.309
		c2.179-3.554,4.678-6.864,8.048-9.394c1.154-0.866,2.108-1.848,2.868-3.073c0.189-0.305,0.767-0.491,1.176-0.509
		c0.63-0.027,1.27,0.123,1.901,0.226c0.715,0.117,1.146,0.449,1.07,1.285c-0.076,0.838-0.43,1.392-1.199,1.559
		c-0.323,0.07-0.67,0.126-0.993,0.087c-1.759-0.213-2.922,0.697-3.775,2.063c-0.5,0.8-0.899,1.682-1.217,2.572
		c-0.532,1.489-1.541,2.597-2.598,3.712c-0.959,1.012-1.794,2.142-2.704,3.202c-0.163,0.19-0.43,0.291-0.773,0.513
		c0.056,0.398,0.073,0.922,0.211,1.412c0.156,0.552,0.648,0.713,1.176,0.77c0.543,0.059,0.679-0.36,0.838-0.724
		c0.258-0.587,0.471-1.193,0.729-1.78c0.341-0.776,1.315-1.448,2.487-1.003c-0.291,1.39-0.557,2.808-0.886,4.212
		c-2.133,9.108-6.459,17.142-12.057,24.549c-0.747,0.989-1.596,1.912-2.249,2.959c-1.088,1.743-2.655,3.139-3.498,5.066
		c-0.529,1.208-1.611,1.879-2.767,2.553c-1.419,0.828-2.715,1.944-3.875,3.121c-1.838,1.866-3.444,3.961-5.285,5.823
		c-2.008,2.032-4.132,3.957-6.291,5.83c-0.732,0.635-1.747,0.932-2.59,1.452c-0.884,0.545-1.776,1.105-2.558,1.782
		c-0.187,0.162-0.371,0.324-0.557,0.485c0.713,0.749,1.439,1.485,2.182,2.205c0.885-0.726,1.763-1.458,2.605-2.23
		c2.6-2.381,5.039-4.937,7.576-7.388c1.439-1.39,2.849-2.833,4.427-4.051c2.326-1.795,4.218-4.002,6.24-6.088
		c2.539-2.62,5.148-5.178,7.578-7.897c7.109-7.957,11.922-17.108,14.031-27.617c0.63-3.137,1.055-6.293,0.934-9.509
		c-0.016-0.425,0.242-0.877,0.436-1.287c0.14-0.296,0.389-0.539,0.585-0.809c1.879-2.579,2.905-3.163,6.056-3.425
		c0.039-0.162,0.08-0.333,0.121-0.504c5.788,1.518,8.127,5.219,8.521,9.681c0.312,3.536-0.301,6.988-0.931,10.429
		c-0.456,2.494-0.765,4.987-0.731,7.522c0.045,3.364-1.05,6.457-2.307,9.503c-1.798,4.357-4.301,8.322-6.87,12.249
		c-0.952,1.455-1.874,2.929-2.816,4.391c-0.141,0.219-0.306,0.422-0.469,0.625c-1.027,1.279-2.196,2.469-3.059,3.851
		c-2.031,3.254-4.33,6.225-7.212,8.807c-3.587,3.213-6.997,6.626-10.951,9.404c-1.44,1.012-2.944,1.937-4.462,2.83
		c-0.673,0.396-1.256,0.822-1.68,1.486c-0.515,0.806-1.138,1.397-1.883,1.756c0.831,0.466,1.674,0.911,2.524,1.346
		c2.745-1.844,5.457-3.739,8.173-5.627C49.847,137.446,50.17,137.2,50.513,136.986z"/>
	<path class="st0" d="M106.492,6.585c0.749,0.272,1.408,0.784,2.127,1.149c1.058,0.537,2.12,1.068,3.204,1.548
		c0.416,0.184,0.845,0.353,1.265,0.534c-5.34-3.024-11.08-5.417-17.125-7.083c1.713,1.115,3.647,1.676,5.579,2.258
		C103.202,5.492,104.864,5.993,106.492,6.585z"/>
	<path class="st0" d="M47.087,131.211c0.137-0.13,0.251-0.304,0.413-0.386c2.115-1.069,3.675-2.769,5.217-4.505
		c2.58-2.906,5.219-5.759,7.783-8.678c5.707-6.498,10.692-13.465,13.849-21.603c1.958-5.046,3.15-10.265,3.708-15.647
		c0.422-4.072,0.378-8.142,0.083-12.211c-0.134-1.854-0.446-3.707-1.726-5.197c-0.305-0.355-0.724-0.61-1.069-0.935
		c-0.206-0.194-0.357-0.444-0.555-0.648c-0.116-0.119-0.266-0.258-0.416-0.28c-0.815-0.119-1.559,0.041-2.188,0.621
		c-0.418,0.387-0.872,0.735-1.282,1.131c-0.115,0.111-0.133,0.325-0.186,0.494c-0.195,0.624-0.289,1.304-0.603,1.86
		c-0.435,0.769-0.74,1.511-0.685,2.42c0.09,1.498,0.116,3,0.131,4.501c0.006,0.591-0.03,1.198-0.161,1.772
		c-0.118,0.517-0.263,1.132-1.15,0.932c0.252,2.113-0.345,3.915-1.031,5.705c-0.523,1.366-0.855,2.769-0.677,4.324
		c0.247-0.016,0.474-0.037,0.701-0.044c0.748-0.024,1.419,0.176,1.936,0.741c0.497,0.544,0.43,1.133-0.021,1.652
		c-0.441,0.507-0.79,1.096-1.16,1.662c-0.335,0.513-0.617,1.063-0.977,1.557c-0.068,0.093-0.173,0.159-0.289,0.218
		c-0.116,0.059-0.242,0.11-0.351,0.173c-0.06-0.123-0.14-0.244-0.208-0.366c-0.068-0.122-0.125-0.245-0.14-0.374
		c-0.093-0.804-0.092-1.619-0.187-2.422c-0.055-0.467-0.224-0.921-0.381-1.536c-1.229,2.925-2.246,5.699-3.541,8.336
		c-1.467,2.987-3.636,5.469-6.319,7.468c-0.357,0.266-0.501,0.548-0.518,1.006c-0.014,0.393-0.151,0.863-0.403,1.15
		c-0.88,1.001-1.879,1.899-2.746,2.91c-0.753,0.879-1.387,1.86-2.079,2.792c-0.138,0.186-0.281,0.38-0.46,0.523
		c-3.182,2.535-5.935,5.515-8.795,8.388c-1.73,1.738-3.609,3.327-5.391,5.015c-1.523,1.443-2.996,2.937-4.505,4.395
		c-0.617,0.596-1.249,1.164-2.237,1.026c-0.225-0.031-0.525,0.194-0.733,0.37c-0.955,0.804-1.89,1.634-2.848,2.434
		c0.726,0.658,1.471,1.295,2.222,1.925c1.828-1.472,3.509-3.109,4.969-4.969c0.131-0.167,0.272-0.369,0.454-0.445
		c1.612-0.679,2.735-1.96,3.942-3.143c0.425-0.416,0.866-0.824,1.344-1.176c0.273-0.201,0.646-0.259,0.954-0.419
		c0.469-0.244,1.107-0.406,1.35-0.802c1.101-1.792,2.791-2.983,4.247-4.413c1.391-1.366,2.705-2.81,4.077-4.196
		c0.855-0.862,1.743-1.692,2.638-2.513c1.913-1.754,3.476-3.745,4.722-6.05c0.683-1.264,1.857-2.268,2.84-3.362
		c1.159-1.29,2.331-2.569,3.534-3.817c1.388-1.44,2.798-2.862,4.234-4.255c1.62-1.571,3.125-3.204,3.916-5.381
		c0.584-1.608,0.326-3.246,0.313-4.883c-0.014-1.807,0-3.619,0.114-5.421c0.037-0.581,0.048-1.416,1.092-1.404
		c0-0.273,0.003-0.506,0-0.74c-0.038-2.693-0.085-5.387-0.109-8.08c-0.005-0.543,0.051-1.091,0.13-1.63
		c0.032-0.22,0.145-0.541,0.31-0.612c1.022-0.44,0.852-1.308,0.837-2.131c-0.003-0.139,0.012-0.278,0.018-0.404
		c1.609-0.5,2.546,0.3,2.468,2.081c-0.017,0.394-0.108,0.72,0.341,1.032c0.239,0.166,0.277,0.73,0.279,1.115
		c0.017,2.713,0.045,5.427-0.02,8.139c-0.038,1.585-0.208,3.17-0.393,4.747c-0.037,0.313-0.414,0.585-0.634,0.876
		c-0.067-0.035-0.135-0.071-0.202-0.106c-0.288,1.686-0.543,3.379-0.87,5.058c-1.384,7.109-3.486,13.978-7.68,19.973
		c-1.914,2.736-4.254,5.177-6.441,7.718c-1.586,1.843-3.21,3.656-4.867,5.435c-6.568,7.049-13.722,13.415-21.562,18.975
		c0.969,0.654,1.954,1.285,2.954,1.894c1.918-2.049,4.274-3.571,6.413-5.353C44.316,133.968,45.67,132.552,47.087,131.211z"/>
	<path class="st0" d="M22.582,123.782c0.671,0.088,1.038-0.255,1.415-0.735c1.118-1.422,2.36-2.757,2.965-4.515
		c0.03-0.086,0.099-0.166,0.167-0.23c1.656-1.543,3.314-3.085,4.973-4.625c0.466-0.433,0.966-0.745,1.658-0.674
		c0.209,0.021,0.512-0.131,0.653-0.302c6.173-7.484,12.441-14.896,17.807-23.004c2.842-4.295,5.401-8.75,7.554-13.432
		c-0.07-0.012-0.14-0.024-0.21-0.037c-0.093-0.315-0.249-0.626-0.267-0.945c-0.055-0.989-0.481-1.57-1.29-1.56
		c-0.227,0.003-0.564,0.168-0.659,0.356c-1.933,3.792-3.824,7.606-5.758,11.398c-0.485,0.952-1.12,1.826-1.628,2.767
		c-2.13,3.946-5.355,7.032-8.173,10.435c-3.634,4.389-7.322,8.735-10.999,13.089c-2.077,2.459-4.225,4.851-6.703,6.928
		c-0.672,0.564-1.225,1.269-1.855,1.885c-1.425,1.393-2.844,2.793-4.294,4.157c0.493,0.582,0.988,1.162,1.498,1.729
		c0.817-0.808,1.628-1.622,2.45-2.425C22.051,123.881,22.361,123.753,22.582,123.782z"/>
	<path class="st0" d="M35.253,133.485c2.472-0.903,4.362-2.682,6.254-4.434c1.684-1.558,3.407-3.059,5.536-4.002
		c0.163-0.072,0.329-0.202,0.425-0.35c2.707-4.135,6.148-7.651,9.496-11.242c3.177-3.408,6.075-7.037,8.709-10.876
		c0.959-1.399,1.834-2.868,2.086-4.576c0.128-0.868,0.022-1.77,0.022-2.656c-0.064-0.015-0.129-0.03-0.194-0.045
		c-0.759,1.027-1.524,2.051-2.277,3.082c-2.291,3.137-4.58,6.275-6.859,9.421c-0.177,0.244-0.331,0.533-0.395,0.824
		c-0.257,1.168-0.832,2.186-1.777,2.853c-2.16,1.525-3.701,3.624-5.441,5.544c-1.377,1.519-2.804,2.993-4.21,4.486
		c-0.098,0.104-0.279,0.196-0.29,0.306c-0.089,0.921-0.961,0.869-1.485,1.256c-0.877,0.648-1.691,1.381-2.54,2.067
		c-0.976,0.788-1.943,1.588-2.946,2.34c-2.972,2.229-6.013,4.37-8.93,6.668c-0.504,0.397-1.007,0.796-1.51,1.193
		c0.612,0.483,1.224,0.966,1.851,1.43c0.494-0.505,0.989-1.009,1.516-1.478C33.17,134.519,34.123,133.898,35.253,133.485z"/>
	<path d="M106.168,144.092c0.973-2.11,2.553-3.784,4.027-5.531c1.424-1.687,2.619-3.494,3.314-5.625
		c0.276-0.845,0.792-1.615,1.235-2.399c0.068-0.12,0.323-0.166,0.499-0.189c1.051-0.134,1.429-0.506,1.431-1.572
		c0.001-0.512,0.045-0.92,0.586-1.138c0.164-0.066,0.284-0.25,0.414-0.39c0.524-0.56,1.146-0.708,1.859-0.487
		c0.179,0.765,0.778,1.325,1.464,1.352c0.738,0.029,1.022-0.516,1.26-1.078c0.129-0.305,0.225-0.628,0.302-0.951
		c0.222-0.924,0.36-1.874,0.653-2.774c0.677-2.078,1.383-4.149,2.155-6.193c1.07-2.836,1.928-5.714,2.064-8.742
		c0.924-0.202,1.277-0.684,1.266-1.892c-0.017-1.93,0.006-3.869-0.17-5.787c-0.398-4.341-0.873-8.675-1.379-13.005
		c-0.749-6.411-1.854-12.761-3.452-19.018c-1.809-7.084-4.252-13.918-8.08-20.195c-4.704-7.714-11.064-13.534-19.484-16.988
		c-0.195-0.08-0.373-0.2-0.559-0.302c-0.787-0.432-1.534-0.983-2.371-1.269c-1.277-0.437-2.622-0.67-3.927-1.029
		c-1.638-0.451-3.37-0.7-4.584-2.102c-0.151-0.174-0.482-0.303-0.71-0.279c-0.936,0.101-1.87,0.243-2.793,0.424
		c-0.442,0.086-0.45,0.43-0.25,0.773c0.342,0.585,0.911,0.686,1.528,0.752c1.06,0.114,2.145,0.171,3.164,0.453
		c2.723,0.753,5.418,1.612,8.122,2.434c0.109,0.033,0.203,0.117,0.3,0.182c1.379,0.928,2.759,1.856,4.136,2.787
		c1.161,0.785,2.411,1.469,3.461,2.382c2.391,2.078,4.605,4.335,6.755,6.677c3.049,3.322,5.547,6.956,7.447,11.026
		c3.109,6.659,4.701,13.751,5.982,20.93c0.644,3.607,1.223,7.227,1.864,10.835c0.056,0.313,0.351,0.584,0.535,0.875
		c0.168-0.017,0.185,0.054,0.182,0.125c-0.212,4.923,0.398,9.809,0.624,14.713c0.083,1.804,0.21,3.671-0.141,5.417
		c-0.986,4.917-2.21,9.788-3.343,14.676c-0.043,0.183-0.091,0.375-0.185,0.535c-0.474,0.802-0.992,1.58-1.441,2.396
		c-0.387,0.703-0.705,0.846-1.668,0.443c0.164-1.782,0.134-3.672,0.547-5.459c0.699-3.028,1.64-6.003,2.548-8.98
		c1.051-3.447,2.055-6.89,1.938-10.552c-0.049-1.52-0.007-3.043-0.008-4.564c0-0.547,0.019-1.095-0.013-1.639
		c-0.037-0.615-0.251-1.119-0.805-1.508c-0.26-0.183-0.393-0.626-0.464-0.976c-0.079-0.39-0.016-0.808-0.028-1.213
		c-0.026-0.929-0.213-1.16-1.234-1.4c0.151-0.398,0.302-0.776,0.437-1.16c0.131-0.373,0.34-0.748,0.352-1.127
		c0.039-1.351,0.015-2.704,0.001-4.056c-0.005-0.474-0.022-0.951-0.08-1.421c-0.082-0.661-0.396-1.122-1.153-1.089
		c-0.059-0.184-0.123-0.339-0.157-0.5c-0.583-2.746-1.11-5.505-1.754-8.237c-1.475-6.265-3.373-12.388-6.4-18.107
		c-2.669-5.043-6.092-9.459-10.853-12.697c-1.568-1.067-3.358-1.808-4.927-2.874c-5.205-3.538-10.947-5.804-16.979-7.441
		c-1.2-0.326-2.297-1.078-3.614-0.902c-0.98,0.131-2.075,0.091-2.892,0.539c-0.793,0.435-1.465,0.495-2.284,0.411
		c-1.417-0.146-2.842-0.21-4.263-0.322c-0.169-0.013-0.38-0.056-0.491-0.167c-0.486-0.482-1.061-0.506-1.662-0.362
		c-0.739,0.176-1.463,0.43-2.208,0.57c-0.537,0.101-1.047-0.03-1.273-0.635c-0.187-0.501-0.33-1.022-0.561-1.501
		c-0.387-0.801-0.025-1.773,0.806-1.929c1.377-0.258,2.758-0.509,4.148-0.684c0.757-0.095,1.521,0.079,1.896,0.849
		c0.288,0.591,0.765,0.843,1.334,0.948c0.559,0.104,1.136,0.159,1.704,0.152c1.739-0.023,3.478-0.112,5.217-0.124
		c1.071-0.008,2.142,0.097,3.213,0.111c0.511,0.007,1.033-0.064,1.276-0.639c-0.074-0.061-0.106-0.107-0.147-0.118
		c-0.299-0.077-0.597-0.157-0.899-0.218c-3.377-0.686-6.793-0.913-10.232-0.903c-0.439,0.001-0.984,0.064-1.191-0.618
		c0.262-0.125,0.502-0.302,0.767-0.356c1.023-0.209,2.051-0.393,3.082-0.558c1.116-0.178,2.268-0.212,3.267-0.86
		c-0.196-0.762-0.81-0.958-1.397-1.118c-1.476-0.402-2.972-0.325-4.467-0.089c-0.928,0.147-1.816,0.343-2.434,1.165
		c-0.161,0.215-0.445,0.377-0.707,0.471c-2.152,0.767-4.251,1.719-6.578,1.892c-0.615,0.046-1.327,0.079-1.598,0.738
		c-0.186,0.452-0.462,0.583-0.862,0.705c-1.978,0.601-3.977,1.151-5.756,2.264c-0.481,0.301-0.972,0.607-1.496,0.813
		c-12.274,4.83-22.952,12.029-32.061,21.561c-3.929,4.112-7.397,8.59-10.688,13.225c-2.29,3.226-4.145,6.714-6.154,10.108
		C0.022,75.107,0,75.45,0,75.798c0,1.183,0.036,2.358,0.089,3.529c1.25-1.557,2.587-3.048,3.917-4.541
		c0.57-0.641,1.092-1.242,0.923-2.186c-0.223-1.248,0.243-2.134,1.211-3.009c2.178-1.969,3.558-4.57,5.153-7
		c1.383-2.107,2.812-4.193,4.366-6.175c0.889-1.133,2.087-2.02,3.112-3.052c2.067-2.08,4.087-4.207,6.172-6.269
		c3.001-2.968,6.447-5.362,10.059-7.509c4.769-2.835,9.584-5.595,14.374-8.395c1.392-0.814,2.78-1.624,4.468-1.625
		c0.099,0,0.206-0.108,0.295-0.183c1.178-1.003,2.581-1.135,4.04-1.039c0.154,0.01,0.428,0.095,0.433,0.16
		c0.039,0.566,0.108,1.151-0.002,1.697c-0.046,0.228-0.501,0.373-0.768,0.559c-0.093,0.065-0.186,0.133-0.27,0.208
		c-0.232,0.206-0.425,0.503-0.695,0.614c-10.305,4.24-19.953,9.599-28.375,16.961c-3.101,2.71-5.971,5.685-8.93,8.555
		c-0.575,0.558-1.135,1.153-0.972,2.094c0.031,0.18-0.169,0.427-0.31,0.604c-3.567,4.463-6.767,9.162-9.005,14.445
		c-0.57,1.346-1.303,2.426-2.55,3.211c-1.048,0.66-1.715,1.633-1.827,2.926c-0.018,0.212-0.12,0.499-0.28,0.604
		c-1.61,1.058-2.543,2.629-3.251,4.339c-0.176,0.425-0.383,0.826-0.604,1.218c0.128,0.904,0.28,1.799,0.44,2.692
		c0.195-0.299,0.363-0.612,0.473-0.937c0.242-0.708,0.604-1.181,1.228-1.55c0.946-0.559,1.484-1.372,1.463-2.527
		c-0.004-0.208,0.235-0.501,0.44-0.619c0.905-0.524,1.416-1.233,1.362-2.322c-0.012-0.243,0.119-0.559,0.292-0.737
		c2.561-2.65,4.795-5.562,6.87-8.595c4.07-5.951,8.272-11.786,13.569-16.746c2.071-1.939,4.112-3.918,6.06-5.98
		c2.582-2.734,5.376-5.204,8.458-7.352c6.643-4.629,14-7.765,21.627-10.335c0.197-0.066,0.418-0.071,0.629-0.084
		c1.278-0.08,2.559-0.13,3.834-0.236c1.031-0.086,2.052-0.405,2.964,0.48c0.279,0.271,0.843,0.31,1.284,0.339
		c0.736,0.048,1.481,0.047,2.217-0.01c4.654-0.359,9.149,0.357,13.367,2.315c3.08,1.43,6.017,3.169,9.022,4.762
		c0.654,0.347,1.272,0.695,1.634,1.408c0.174,0.343,0.503,0.654,0.836,0.861c0.947,0.588,1.919,1.141,2.909,1.653
		c0.388,0.201,0.638,0.407,0.55,0.858c-0.215,1.101,0.358,1.858,1.072,2.576c1.477,1.484,2.805,3.043,3.941,4.853
		c3.835,6.113,6.561,12.662,8.3,19.638c0.545,2.186,1.244,4.355,1.086,6.665c-0.083,1.212-0.177,2.433-0.118,3.642
		c0.041,0.847-0.009,1.88,0.971,2.05c0.266,1.217,0.557,2.309,0.726,3.418c0.099,0.653,0.248,1.485-0.053,1.973
		c-0.685,1.112-0.997,2.254-0.972,3.517c0.013,0.683-0.099,1.276-0.495,1.876c-0.371,0.562-0.597,1.242-0.781,1.9
		c-0.726,2.596-0.662,5.283-0.86,7.939c-0.147,1.971-0.279,3.951-1.113,5.783c-0.242,0.531-0.526,1.221-0.981,1.434
		c-0.662,0.311-0.659,0.723-0.629,1.249c0.034,0.594,0.139,1.188,0.116,1.778c-0.009,0.216-0.264,0.523-0.473,0.594
		c-0.149,0.05-0.514-0.18-0.594-0.367c-0.145-0.335-0.203-0.731-0.204-1.102c-0.007-1.926,0.025-3.852,0.02-5.778
		c-0.002-0.557,0.027-1.019,0.521-1.443c0.35-0.3,0.565-0.832,0.684-1.3c0.081-0.319,0.017-0.853-0.198-1.035
		c-0.493-0.415-0.364-0.784-0.193-1.256c0.485-1.335,1.01-2.663,1.374-4.032c0.181-0.681,0.287-1.571-0.006-2.144
		c-0.454-0.888-0.309-1.625-0.052-2.448c0.142-0.453,0.424-0.949,0.345-1.37c-0.259-1.372,0.505-2.471,0.823-3.685
		c0.988-3.766,0.612-7.528-0.09-11.27c-1.098-5.854-3.029-11.437-5.662-16.776c-2.697-5.47-5.794-10.68-9.989-15.162
		c-2.97-3.173-6.295-5.821-10.575-7.028c-0.113-0.032-0.235-0.076-0.321-0.151c-0.84-0.74-1.887-0.968-2.932-1.218
		C83.536,36.85,82,36.72,80.852,35.592c-0.075-0.074-0.215-0.09-0.329-0.113c-3.341-0.676-6.685-1.363-10.122-1.121
		c-0.868,0.061-1.792,0.181-2.565,0.542c-1.236,0.577-2.499,0.689-3.815,0.741c-1.459,0.057-2.985-0.084-4.19,1.043
		c-0.089,0.084-0.267,0.076-0.405,0.106c-3.971,0.846-7.746,2.24-11.135,4.471c-2.681,1.766-5.324,3.632-7.763,5.713
		c-4.124,3.519-8.598,6.65-12.2,10.765c-0.815,0.931-1.695,1.808-2.566,2.689c-0.454,0.46-0.586,0.983-0.575,1.616
		c0.008,0.423-0.042,0.947-0.282,1.26C17.048,73.592,9.605,84.172,2.447,94.955c0.17,0.654,0.365,1.298,0.552,1.945
		c0.184-0.313,0.359-0.631,0.532-0.951c0.586-1.085,1.246-2.089,2.484-2.545c0.16-0.059,0.272-0.255,0.402-0.392
		c1.25-1.309,2.481-2.636,3.755-3.922c0.719-0.726,1.639-1.284,2.241-2.087c2.014-2.687,3.961-5.426,5.869-8.19
		c2.223-3.221,4.435-6.442,7.358-9.094c0.132-0.119,0.231-0.302,0.287-0.474c1.06-3.291,2.939-6.074,5.319-8.534
		c1.874-1.937,3.833-3.791,5.681-5.751c1.437-1.524,2.698-3.217,4.148-4.728c4.348-4.53,9.511-7.909,15.222-10.454
		c2.103-0.937,4.224-1.964,6.446-2.463c2.582-0.58,5.279-0.764,7.936-0.872c4.284-0.174,8.516,0.419,12.657,1.515
		c1.619,0.429,3.342,0.827,4.729,1.699c5.857,3.682,10.366,8.725,14.002,14.571c3.928,6.316,6.523,13.194,8.618,20.295
		c0.838,2.839,1.35,5.682,1.161,8.648c-0.071,1.117-0.032,2.243-0.004,3.364c0.019,0.759-0.115,1.636,0.214,2.246
		c0.468,0.866,0.308,1.742,0.462,2.602c0.083,0.459-0.179,0.795-0.696,0.78c-0.448-0.013-0.591,0.218-0.59,0.615
		c0.001,0.239,0.003,0.478-0.012,0.716c-0.03,0.472-0.245,0.677-0.75,0.574c-0.679-0.139-0.97-0.543-0.947-1.21
		c0.053-1.549,0.079-3.089-0.585-4.555c-0.138-0.305-0.111-0.702-0.095-1.053c0.007-0.145,0.18-0.401,0.283-0.404
		c0.527-0.015,0.601-0.405,0.695-0.768c0.588-2.258,0.575-4.524,0.036-6.787c-0.101-0.426-0.172-0.918-0.824-0.884
		c-0.08,0.004-0.206-0.277-0.258-0.443c-0.527-1.678-1.02-3.368-1.567-5.04c-2.009-6.142-4.308-12.156-7.852-17.614
		c-3.899-6.004-8.992-10.567-15.776-13.098c-0.171-0.064-0.359-0.162-0.469-0.3c-0.602-0.759-1.401-1.017-2.334-1.014
		c-0.205,0.001-0.416-0.123-0.615-0.209c-0.35-0.151-0.69-0.442-1.04-0.452c-0.854-0.024-1.711,0.117-2.566,0.114
		c-0.323-0.001-0.665-0.179-0.963-0.341c-0.436-0.237-0.807-0.661-1.264-0.778c-1.688-0.433-3.402-0.39-5.095,0.007
		c-0.35,0.082-0.813,0.257-0.96,0.531c-0.445,0.831-1.152,0.995-1.972,1.028c-0.88,0.036-1.762,0.062-2.64,0.134
		c-0.596,0.049-1.079,0.296-1.361,0.893c-0.088,0.187-0.372,0.332-0.595,0.4c-4.635,1.398-8.949,3.464-12.995,6.12
		c-3.321,2.18-6.31,4.767-9.311,7.348c-1.393,1.198-2.814,2.346-3.828,3.922c-2.759,4.286-5.52,8.571-8.335,12.82
		c-3.25,4.906-6.552,9.777-9.847,14.653c-0.377,0.559-0.5,1.128-0.526,1.796c-0.048,1.232-0.119,2.48-0.369,3.682
		c-0.651,3.138-2.292,5.824-4.079,8.425c-1.688,2.458-3.377,4.916-5.083,7.36c0.412,0.865,0.85,1.715,1.293,2.561
		c0.34-0.615,0.522-1.341,0.536-2.177c0.004-0.236,0.148-0.562,0.335-0.688c2.524-1.712,4.388-4.005,5.893-6.618
		c1.921-3.335,3.182-6.961,4.615-10.511c1.268-3.142,2.604-6.253,4.79-8.891c0.535-0.645,1.28-1.113,1.913-1.68
		c0.652-0.584,1.293-1.181,1.92-1.792c0.138-0.134,0.236-0.341,0.283-0.531c0.312-1.274,0.854-2.455,1.761-3.386
		c1.732-1.78,2.973-3.873,4.206-6.002c3.978-6.868,8.76-13.097,15.199-17.843c8.249-6.08,17.363-9.736,27.82-9.273
		c0.206,0.009,0.416,0.056,0.613,0.118c0.896,0.284,1.775,0.64,2.688,0.854c0.731,0.172,1.505,0.144,1.903,0.972
		c0.092,0.192,0.352,0.312,0.548,0.445c1.349,0.919,2.719,1.809,4.05,2.753c3.149,2.234,5.612,5.176,8.002,8.138
		c2.563,3.177,4.485,6.789,6.236,10.475c1.043,2.196,1.994,4.431,2.373,6.855c0.151,0.966,0.217,1.954-0.351,2.843
		c-0.271,0.424-1.122,0.659-1.724,0.482c-0.559-0.165-0.607-0.626-0.588-1.09c0.037-0.88,0.139-1.759,0.142-2.638
		c0.001-0.297-0.189-0.61-0.343-0.886c-0.153-0.275-0.411-0.493-0.551-0.772c-0.288-0.573-0.499-1.185-0.794-1.754
		c-1.917-3.697-3.941-7.341-5.742-11.094c-1.128-2.351-2.646-4.346-4.512-6.101c-0.755-0.71-1.589-1.443-2.526-1.823
		c-0.782-0.317-1.523-0.613-2.163-1.16c-0.602-0.515-1.289-0.797-2.097-0.755c-0.182,0.009-0.436,0.019-0.54-0.086
		c-0.996-1.014-2.349-1.043-3.598-1.392c-0.877-0.245-1.855-0.501-2.508-1.073c-0.66-0.577-1.323-0.942-2.124-1.004
		c-1.041-0.081-2.097-0.074-3.138,0.012c-0.548,0.045-1.356,0.185-1.557,0.551c-0.54,0.984-1.701,0.587-2.305,1.274
		c-2.624,0.197-4.896,1.29-7.038,2.737c-1.677,1.133-3.352,2.275-5.299,2.923c-0.585,0.195-1.192,0.354-1.739,0.628
		c-1.887,0.945-3.494,2.302-4.753,3.95C43.108,62.91,37.745,69.915,32.57,77.056c-2.747,3.791-5.313,7.746-7.594,11.832
		c-1.764,3.16-2.953,6.639-4.404,9.974c-1.545,3.55-3.243,7.019-5.934,9.868c-1.143,1.21-2.17,2.492-3.198,3.797
		c-0.366,0.464-0.77,0.899-1.186,1.323c0.528,0.908,1.075,1.803,1.639,2.686c0.353-0.254,0.701-0.513,0.995-0.823
		c1.523-1.609,2.985-3.277,4.502-4.892c0.46-0.489,0.81-0.949,0.733-1.677c-0.028-0.265,0.172-0.58,0.327-0.836
		c2.334-3.85,4.644-7.715,7.025-11.535c5.134-8.237,9.843-16.761,16.306-24.106c1.144-1.3,2.008-2.843,3.113-4.183
		c0.493-0.598,0.779-1.14,0.705-1.907c-0.063-0.649,0.22-1.06,0.841-1.406c0.55-0.307,1.023-0.858,1.367-1.404
		c0.466-0.738,0.748-1.59,1.166-2.362c0.324-0.601,0.664-1.22,1.122-1.716c0.873-0.944,1.807-1.837,2.767-2.695
		c1.918-1.714,3.782-3.505,5.828-5.053c3.191-2.414,6.807-3.681,10.883-3.298c0.227,0.021,0.46,0.088,0.669,0.182
		c1.447,0.653,2.864,1.38,4.339,1.962c1.545,0.609,3.208,0.943,4.704,1.642c2.909,1.36,5.191,3.519,7.054,6.122
		c2.503,3.497,4.017,7.442,5.102,11.557c0.97,3.678,1.883,7.377,1.959,11.215c0.01,0.506,0.094,1.064-0.637,1.29
		c-0.275-0.406-0.556-0.786-0.801-1.189c-0.861-1.419-1.525-2.95-2.451-4.335c-0.184-0.275-0.299-0.647-0.31-0.979
		c-0.098-2.888-0.364-5.753-1.165-8.542c-1.37-4.772-4.022-8.485-8.735-10.477c-0.214-0.09-0.404-0.248-0.587-0.396
		c-3.474-2.815-7.442-4.31-11.915-4.274c-2.379,0.019-4.476,0.832-5.988,2.819c-0.276,0.363-0.646,0.698-1.042,0.92
		c-6.623,3.698-11.149,9.113-13.474,16.351c-0.113,0.353-0.294,0.707-0.522,0.998c-1.984,2.534-4.014,5.032-5.976,7.583
		c-4.398,5.716-8.361,11.706-11.239,18.352c-0.562,1.297-1.057,2.591-2.35,3.359c-0.138,0.082-0.257,0.221-0.347,0.358
		c-0.989,1.511-1.964,3.031-2.954,4.54c-0.964,1.469-1.869,2.984-2.942,4.369c-0.567,0.732-1.528,1.147-2.152,1.847
		c-1.459,1.634-2.958,3.226-4.507,4.767c0.525,0.763,1.057,1.52,1.609,2.262c1.227-1.103,2.458-2.2,3.728-3.252
		c1.631-1.352,3.07-2.842,4.21-4.63c1.458-2.288,2.854-4.622,4.433-6.825c4.539-6.336,9.159-12.613,13.731-18.926
		c0.186-0.257,0.28-0.641,0.274-0.963c-0.017-0.887,0.125-1.122,1.01-1.36c0.321-0.086,0.646-0.16,0.965-0.255
		c0.363-0.108,0.509-0.29,0.443-0.733c-0.206-1.378,0.207-2.189,1.525-2.719c0.789-0.317,0.998-0.76,0.951-1.544
		c-0.031-0.519-0.019-1.159,0.25-1.558c2.543-3.772,5.168-7.49,7.726-11.252c2.697-3.966,5.459-7.868,8.853-11.296
		c1.37-1.384,2.986-1.877,4.812-1.963c1.77-0.083,3.353,0.581,4.913,1.317c1.825,0.861,3.659,1.703,5.482,2.568
		c0.231,0.109,0.451,0.275,0.626,0.462c0.749,0.8,1.527,1.58,2.209,2.435c3.524,4.409,4.836,9.578,5.1,15.092
		c0.009,0.185-0.134,0.49-0.285,0.553c-1.255,0.529-1.728,1.459-1.569,2.783c0.074,0.614,0.109,1.237,0.104,1.855
		c-0.007,0.758,0.022,1.536-0.134,2.269c-0.356,1.673-0.79,3.33-1.238,4.982c-1.964,7.24-4.645,14.176-8.442,20.681
		c-2.612,4.473-6.338,8.076-9.279,12.286c-0.593,0.848-1.482,1.484-2.18,2.267c-0.352,0.395-0.748,0.87-0.838,1.361
		c-0.349,1.911-1.639,3.197-3.058,4.195c-1.753,1.233-3.59,2.384-4.655,4.246c-1.006,1.757-2.424,2.937-4.068,3.962
		c-0.343,0.214-0.666,0.46-0.999,0.691c-2.717,1.888-5.428,3.783-8.173,5.627c1.32,0.675,2.66,1.316,4.024,1.915
		c0.302-0.174,0.596-0.357,0.863-0.573c3.006-2.424,5.911-4.976,9.225-6.994c0.14-0.085,0.266-0.199,0.385-0.314
		c0.895-0.854,1.82-1.679,2.669-2.575c0.83-0.876,1.71-1.746,2.338-2.761c1.131-1.827,2.493-3.292,4.596-3.956
		c0.178-0.056,0.417-0.27,0.435-0.432c0.2-1.798,1.266-3.046,2.579-4.135c1.264-1.048,2.423-2.163,2.827-3.842
		c0.027-0.11,0.107-0.213,0.178-0.307c2.217-2.917,3.899-6.149,5.547-9.401c2.088-4.119,4.056-8.306,6.803-12.052
		c0.326-0.445,0.68-0.868,1.136-1.447c-0.038,3.198-0.86,5.984-2.082,8.666c-1.488,3.266-3.538,6.197-5.499,9.184
		c-1.645,2.506-3.204,5.068-4.759,7.631c-0.163,0.269-0.162,0.765-0.028,1.061c0.289,0.638,1.543,0.929,2.462,0.667
		c0.839-0.239,1.281-0.807,1.256-1.679c-0.011-0.375-0.099-0.747-0.148-1.091c0.823-0.693,1.756-1.222,2.201-2.273
		c0.19-0.448,0.538-0.848,0.879-1.209c0.851-0.901,1.718-1.79,2.618-2.641c0.966-0.913,1.602-1.925,1.357-3.326
		c-0.053-0.301-0.039-0.624,0.003-0.928c0.03-0.215,0.137-0.431,0.252-0.621c0.603-0.986,1.472-1.89,1.783-2.958
		c0.822-2.823,2.405-5.254,3.683-7.841c0.12-0.244,0.338-0.44,0.51-0.658c0.082,0.029,0.164,0.059,0.246,0.088
		c0,0.771,0.023,1.542-0.013,2.311c-0.012,0.267-0.143,0.542-0.269,0.788c-0.185,0.362-0.501,0.679-0.605,1.057
		c-0.168,0.615-0.216,1.265-0.304,1.901c-0.218,1.569,0.012,3.312-1.687,4.302c-0.033,0.019-0.041,0.083-0.059,0.126
		c-0.543,1.343-1.145,2.665-1.606,4.036c-0.272,0.808-0.251,1.677,0.524,2.446c0.252-0.289,0.463-0.544,0.687-0.788
		c2.641-2.878,4.363-6.289,5.682-9.917c1.321-3.636,2.405-7.317,2.225-11.271c-0.048-1.041,0.242-2.125,0.526-3.147
		c0.297-1.069,1.072-1.802,2.127-2.309c0.379,2.485,0.293,4.891-0.196,7.256c-0.62,3.001-1.378,5.974-2.111,8.951
		c-0.043,0.176-0.373,0.357-0.595,0.398c-0.414,0.076-0.747,0.179-0.784,0.663c-0.072,0.929,0.693,1.767,1.607,1.767
		c1.821,0,1.797-0.004,2.108-1.84c0.13-0.767,0.197-1.661,0.637-2.23c0.588-0.76,0.555-1.515,0.562-2.332
		c0.004-0.424,0.001-0.847,0.001-1.306c0.9,0.051,1.138-0.547,1.197-1.181c0.075-0.802,0.075-1.62,0.014-2.424
		c-0.13-1.724-0.071-3.453-0.34-5.18c-0.145-0.932,0.179-1.962,0.414-2.918c0.149-0.607,0.492-1.177,0.809-1.729
		c0.176-0.307,0.531-0.795,0.711-0.757c0.352,0.075,0.757,0.399,0.931,0.729c0.675,1.286,0.814,2.665,0.514,4.092
		c-0.288,1.37-0.692,2.737-0.784,4.123c-0.097,1.456,0.065,2.937,0.214,4.397c0.061,0.596,0.405,1.148,1.087,1.392
		c0.07-0.165,0.133-0.291,0.178-0.424c0.779-2.267,1.134-4.617,1.353-6.992c0.314-3.405,0.284-6.797-0.143-10.201
		c-0.194-1.543-0.09-3.129-0.039-4.693c0.017-0.526,0.317-1.02,0.99-1.02c0.652,0.001,0.885,0.429,1.029,0.987
		c0.112,0.432,0.295,0.845,0.451,1.266c0.121,0.327,0.354,0.651,0.355,0.977c0.022,5.632,0.016,11.264,0.016,16.896
		c0,0.427,0,0.855,0,1.282c-0.064-0.029-0.128-0.058-0.192-0.087c-0.18,0.263-0.443,0.503-0.528,0.794
		c-1.194,4.107-2.198,8.277-3.571,12.323c-3.58,10.549-8.962,20.16-15.625,29.064c-1.796,2.4-3.504,4.882-5.914,6.752
		c-0.449,0.348-0.817,0.799-1.23,1.194c-1.241,1.186-2.484,2.37-3.729,3.552c1.715-0.011,3.413-0.092,5.1-0.216
		c-0.298-0.393-0.669-0.686-1.326-0.632c-0.034-0.063-0.069-0.126-0.103-0.19c1.66-1.63,3.302-3.281,4.991-4.881
		c0.622-0.59,1.235-1.288,2.284-1.089c0.163,0.031,0.425-0.261,0.587-0.449c8.699-10.144,14.794-21.656,18.088-34.619
		c0.655-2.579,1.134-5.203,1.698-7.805c0.039-0.178,0.064-0.466,0.17-0.505c0.843-0.316,0.554-1.001,0.546-1.584
		c-0.005-0.355-0.107-0.712-0.086-1.063c0.009-0.146,0.224-0.4,0.343-0.398c0.507,0.006,0.694-0.301,0.884-0.688
		c0.094-0.193,0.313-0.324,0.476-0.483c0.171,0.175,0.426,0.32,0.5,0.529c0.591,1.672,0.364,3.326-0.178,4.965
		c-0.074,0.223-0.212,0.462-0.184,0.676c0.421,3.208-0.772,6.069-1.847,8.972c-2.089,5.643-4.239,11.257-6.913,16.658
		c-3.81,7.692-9.09,14.227-15.517,19.872c-0.336,0.295-0.616,0.654-0.944,0.959c-0.131,0.122-0.323,0.255-0.486,0.254
		c-0.741-0.005-1.024,0.583-1.153,1.08c-0.028,0.108-0.069,0.198-0.107,0.292c1.476-0.142,2.942-0.321,4.392-0.546
		c0.306-0.467,0.692-0.787,1.212-1.04c1.854-0.901,3.247-2.291,4.226-4.119c0.318-0.594,0.735-1.166,1.217-1.635
		c3.349-3.257,5.993-7.041,8.207-11.118c2.158-3.972,4.073-8.078,6.316-11.998c0.655-1.145,0.869-2.173,0.833-3.38
		c-0.007-0.233-0.003-0.525,0.125-0.689c0.209-0.27,0.525-0.634,0.795-0.632c0.268,0.002,0.745,0.389,0.763,0.633
		c0.058,0.812,0.011,1.645-0.111,2.453c-0.135,0.896-0.397,1.773-0.634,2.788c-0.747,0.14-1.074,0.692-1.055,2.324
		c0.009,0.778,0.369,1.077,1.332,1.263c1.227,0.237,1.783,0.095,2.067-0.526c0.543-1.187,0.482-1.962-0.219-2.534
		c1.904-2.629,2.459-5.717,2.94-8.826c0.578-3.735,0.778-7.534,1.876-11.18c0.461-1.529,1.096-2.977,2.213-4.275
		c0.57,1.763,0.636,3.484,0.544,5.217c-0.233,4.364-1.503,8.512-2.678,12.679c-0.451,1.601-0.891,3.206-1.366,4.801
		c-0.057,0.191-0.305,0.325-0.462,0.487c-0.151,0.157-0.39,0.296-0.432,0.479c-0.168,0.739-0.313,1.487-0.395,2.24
		c-0.131,1.206-0.157,2.425-0.318,3.626c-0.103,0.766-0.455,1.441-1.181,1.868c-0.157,0.092-0.218,0.372-0.295,0.575
		c-0.177,0.471-0.235,1.023-0.52,1.41c-3.067,4.163-6.189,8.285-8.804,12.76c-0.261,0.447-0.509,0.902-0.814,1.446
		c0.796-0.025,1.661-0.308,2.358-0.13c0.412-0.174,0.813-0.369,1.221-0.55c-0.205,0.029-0.409,0.059-0.634,0.062
		C105.971,144.743,106.027,144.398,106.168,144.092z M84.857,95.646c-0.233,0.031-0.609-0.124-0.733-0.315
		c-0.748-1.142,0.368-3.323,1.732-3.446c0.734-0.066,0.93,0.187,0.922,1.192C86.766,94.591,86.128,95.478,84.857,95.646z
		 M88.691,84.393c-0.144,0.092-0.205,0.412-0.199,0.625c0.017,0.664,0.106,1.326,0.12,1.991c0.005,0.245-0.043,0.627-0.198,0.715
		c-0.507,0.289-0.418,0.72-0.442,1.161c-0.025,0.446-0.004,0.953-0.211,1.313c-0.192,0.334-0.641,0.658-1.012,0.705
		c-0.283,0.036-0.737-0.298-0.915-0.589c-0.596-0.976-0.453-1.965,0.254-2.881c0.127-0.165,0.159-0.439,0.157-0.661
		c-0.005-0.427-0.083-0.852-0.098-1.279c-0.009-0.256-0.046-0.671,0.085-0.747c0.855-0.498,0.46-1.288,0.497-1.951
		c0.065-1.181,0.366-2.236,1.246-3.1c0.771,0.342,1.247,0.719,1.122,1.613c-0.083,0.598,0.079,1.228,0.113,1.845
		C89.235,83.64,89.178,84.084,88.691,84.393z M92.912,88.982c-0.13,0.263-0.17,0.582-0.201,0.88
		c-0.061,0.597,0.128,1.248-0.472,1.71c-0.088,0.068-0.051,0.314-0.053,0.477c-0.007,0.476,0.04,0.958-0.015,1.428
		c-0.166,1.422-0.786,1.87-2.289,1.657c-0.063-0.728-0.141-1.412-0.169-2.098c-0.009-0.222,0.05-0.596,0.182-0.651
		c0.661-0.277,0.452-0.827,0.529-1.313c0.067-0.42,0.301-0.81,0.402-1.228c0.103-0.427,0.174-0.87,0.186-1.308
		c0.031-1.138-0.026-2.281,0.05-3.415c0.037-0.561,0.115-1.248,0.895-1.352c0.564-0.075,1.108,0.413,1.323,1.192
		C93.661,86.341,93.556,87.684,92.912,88.982z M97.798,85.672c-0.222,0.609-0.85,0.628-1.519,0.242
		c-0.612-0.353-0.456-0.799-0.19-1.268c0.329-0.579,0.884-1.083,0.542-1.859c0.461,0.185,0.871,0.34,1.271,0.517
		c0.091,0.04,0.22,0.16,0.212,0.23C98.034,84.252,98.04,85.008,97.798,85.672z M97.569,82.613c-0.874-0.751-0.998-1.754-1.064-2.75
		c-0.085-1.283-0.032-2.577-0.157-3.855c-0.087-0.891,0.166-1.999-1.099-2.422c-0.139-0.047-0.146-0.566-0.169-0.869
		c-0.163-2.147-0.57-4.241-1.316-6.265c-0.794-2.156-1.988-4.05-3.66-5.643c-0.204-0.194-0.346-0.582-0.32-0.862
		c0.074-0.818-0.175-1.438-0.749-2.032c-1.505-1.557-2.928-3.194-4.443-4.742c-0.593-0.606-1.317-0.994-2.279-0.999
		c-0.722-0.004-1.485-0.313-2.156-0.639c-1.705-0.828-3.368-1.744-5.051-2.617c-0.22-0.114-0.455-0.235-0.695-0.269
		c-1.185-0.171-2.265-0.586-3.139-1.411c-0.23-0.217-0.466-0.649-0.397-0.9c0.065-0.24,0.502-0.464,0.813-0.536
		c1.465-0.344,2.896-0.091,4.266,0.45c1.786,0.705,3.537,1.444,5.422,1.935c1.332,0.347,2.5,1.436,3.664,2.298
		c6.868,5.082,10.837,11.94,12.326,20.297c0.494,2.775,0.788,5.564,0.7,8.389c-0.022,0.71,0.115,1.424,0.14,2.138
		C98.223,81.811,98.176,82.318,97.569,82.613z M119.711,94.458c-0.693,0.041-1.275-0.412-1.262-1.104
		c0.019-0.969,0.102-1.941,0.234-2.9c0.053-0.382,0.261-0.813,0.83-0.614c0.547,0.192,1.294,0.134,1.306,1.013
		c0.006,0.453,0.001,0.906,0.001,1.359c0,0.358,0.001,0.715,0,1.073C120.818,94.01,120.434,94.415,119.711,94.458z"/>
	<path d="M144.198,86.627c-0.024-0.166-0.155-0.384-0.297-0.454c-0.682-0.339-1.034-0.825-1.186-1.611
		c-0.357-1.841-0.827-3.661-1.291-5.479c-0.062-0.243-0.339-0.589-0.542-0.608c-0.558-0.051-0.795-0.411-0.834-0.827
		c-0.085-0.894-0.044-1.799-0.086-2.699c-0.039-0.848,0.056-1.761-0.234-2.521c-0.253-0.664-0.376-1.29-0.429-1.975
		c-0.163-2.103-0.457-4.208-1.682-5.976c-0.771-1.113-0.961-2.282-1.052-3.555c-0.065-0.919-0.253-1.832-0.435-2.738
		c-0.139-0.689-0.424-1.351-0.525-2.043c-0.681-4.681-2.235-9.036-4.786-13.026c-2.481-3.881-5.669-7.122-9.222-10.005
		c-2.126-1.725-4.276-3.442-6.561-4.941c-2.204-1.446-4.581-2.633-6.908-3.886c-4.554-2.451-9.217-4.655-14.266-5.908
		c-1.198-0.297-2.421-0.49-3.633-0.731c-0.015,0.062-0.031,0.125-0.046,0.187c0.209,0.101,0.415,0.207,0.627,0.302
		c7.824,3.535,15.649,7.067,23.47,10.609c0.247,0.112,0.542,0.269,0.661,0.488c0.512,0.944,1.313,1.559,2.207,2.081
		c0.822,0.48,1.646,0.958,2.48,1.416c0.467,0.257,0.657,0.598,0.647,1.15c-0.006,0.342,0.145,0.761,0.37,1.018
		c0.862,0.986,1.779,1.924,2.682,2.874c1.804,1.901,3.677,3.742,5.399,5.714c1.709,1.956,2.465,4.422,3.279,6.84
		c0.999,2.97,2.039,5.926,3.052,8.891c0.074,0.218,0.07,0.462,0.106,0.693c0.227,1.452,0.243,2.982,0.736,4.338
		c0.673,1.853,1.038,3.751,1.404,5.658c0.931,4.859,1.799,9.731,2.738,14.588c0.252,1.304,0.422,2.722,1.072,3.828
		c0.805,1.367,0.575,2.69,0.548,4.069c-0.002,0.095-0.056,0.199-0.031,0.282c0.179,0.597,0.193,1.413,0.598,1.739
		c0.924,0.743,1.172,1.748,1.209,2.724c0.108,2.854,0.045,5.715,0.045,8.572c0,0.285,0.01,0.581-0.056,0.854
		c-0.455,1.87-0.835,3.766-1.417,5.596c-0.134,0.42-0.279,0.837-0.415,1.256c1.53-2.67,2.917-5.432,4.119-8.294
		c-0.123-3.856-0.288-7.714-0.576-11.561C144.96,91.239,144.531,88.936,144.198,86.627z"/>
	<path d="M62.987,137.937c1.036-1.636,2.405-3.06,3.62-4.584c1.096-1.375,2.244-2.716,3.237-4.163
		c0.703-1.024,0.923-2.256,0.829-3.665c-0.694,0.659-1.303,1.214-1.886,1.795c-2.99,2.981-5.919,6.027-8.977,8.938
		c-2.502,2.381-5.105,4.663-7.759,6.875c-1.346,1.122-2.864,2.04-4.265,3.095c0.973,0.387,1.954,0.758,2.947,1.106
		c3.316-2.377,6.626-4.763,9.984-7.078C61.651,139.612,62.364,138.921,62.987,137.937z"/>
	<path d="M100.938,144.091c0.556-1.744,1.847-2.883,3.088-4.1c0.949-0.93,1.868-1.918,2.637-2.996
		c0.505-0.707,0.721-1.621,1.067-2.442c0.156-0.37,0.262-0.774,0.48-1.103c0.457-0.69,0.82-1.38,0.762-2.251
		c-0.011-0.17,0.247-0.418,0.44-0.531c0.822-0.483,1.322-1.14,1.33-2.129c0.003-0.427-0.123-0.706-0.597-0.674
		c-0.521,0.035-1.053,0.041-1.558,0.159c-0.552,0.129-0.86,0.518-0.945,1.119c-0.056,0.398-0.187,0.826-0.411,1.155
		c-2.808,4.111-5.591,8.24-8.477,12.296c-1.775,2.496-3.685,4.869-5.815,7.032c1.648-0.381,3.28-0.805,4.885-1.291
		c0.784-0.794,1.526-1.629,2.158-2.576C100.338,145.224,100.748,144.688,100.938,144.091z"/>
	<path d="M124.134,132.285c2.762-4.298,5.14-8.792,6.937-13.582c1.841-4.907,3.087-9.952,3.379-15.202
		c0.103-1.853,0.108-3.712,0.144-5.569c0.016-0.805,0.031-1.613-0.016-2.416c-0.03-0.502-0.307-0.851-0.83-1.045
		c-0.499-0.185-0.951-0.44-1.022-1.125c-0.453-4.382-0.866-8.771-1.441-13.137c-0.902-6.851-2.344-13.596-4.475-20.176
		c-2.34-7.227-5.483-14.029-10.367-19.963c-2.072-2.517-4.204-4.932-6.783-6.93c-0.309-0.239-0.695-0.57-1.027-0.551
		c-0.807,0.047-1.299-0.298-1.717-0.91c-0.282-0.412-0.619-0.787-0.917-1.189c-1.008-1.36-2.202-2.439-3.96-2.706
		c-0.158-0.024-0.365-0.15-0.431-0.286c-0.86-1.778-2.414-2.438-4.235-2.776c-0.871-0.162-1.841-0.344-2.527-0.845
		c-2.216-1.617-4.621-2.749-7.296-3.282c-3.315-0.661-6.788-0.579-9.906-2.151c-0.104-0.052-0.227-0.08-0.344-0.09
		c-0.907-0.075-1.793-0.329-2.668,0.326c-0.477,0.357-0.422,0.601-0.123,0.877c0.245,0.226,0.603,0.394,0.934,0.449
		c0.512,0.085,1.048,0.099,1.567,0.06c2.315-0.172,4.564,0.063,6.732,0.943c0.323,0.131,0.69,0.212,1.037,0.214
		c2.474,0.014,4.735,0.719,6.829,2.013c1.316,0.814,2.603,1.684,3.969,2.406c4.845,2.561,9.174,5.819,13.062,9.656
		c5.194,5.125,9.229,11.077,12.369,17.65c3.208,6.714,5.38,13.768,6.818,21.05c0.544,2.752,1.014,5.529,1.304,8.317
		c0.328,3.15,0.373,6.328,0.617,9.488c0.401,5.185,0.745,10.367,0.41,15.572c-0.26,4.036-0.819,8.012-2.394,11.769
		c-1.342,3.201-2.804,6.352-4.15,9.552c-0.447,1.063-0.718,2.203-1.036,3.317c-0.291,1.021-0.374,2.138-0.845,3.061
		c-0.338,0.662-0.754,1.286-1.195,1.896c1.063-0.778,2.107-1.58,3.126-2.411c0.111-0.484,0.19-0.979,0.191-1.502
		C123.856,132.8,123.988,132.512,124.134,132.285z"/>
	<path d="M117.099,136.451c0.331-0.592,0.562-1.239,0.894-1.83c0.558-0.993,1.204-1.939,1.729-2.948
		c0.323-0.622,0.406-1.319-0.105-1.966c-1.474,0.297-1.905,1.428-2.219,2.67c-0.096,0.381-0.192,0.784-0.392,1.114
		c-0.527,0.875-1.14,1.698-1.666,2.574c-0.844,1.406-1.562,2.88-2.864,3.974c-0.847,0.711-1.578,1.564-2.338,2.374
		c-0.488,0.52-0.899,1.117-1.411,1.611c-0.06,0.058-0.128,0.1-0.19,0.154c1.921-0.922,3.789-1.934,5.616-3.009
		c0.356-0.751,0.845-1.433,1.365-2.112C116.133,138.254,116.603,137.337,117.099,136.451z"/>
	<path d="M126.916,131.759c0.299-0.273,0.585-0.561,0.88-0.839C127.356,131.028,127.049,131.307,126.916,131.759z"/>
	<path d="M74.089,150.131c2.346-2.538,4.749-5.025,7.024-7.625c2.322-2.654,4.632-5.332,6.747-8.148
		c6.043-8.045,10.606-16.813,12.569-26.784c0.283-1.437,0.477-2.891,0.713-4.337c-0.271,0.152-0.389,0.347-0.492,0.549
		c-3.962,7.753-7.793,15.577-11.921,23.24c-3.754,6.97-8.318,13.408-14.06,18.929c-1.373,1.32-2.86,2.522-4.31,3.76
		c-0.431,0.368-1.624,0.321-1.93-0.072c-0.47-0.604-0.003-0.996,0.379-1.396c2.702-2.828,5.444-5.619,8.094-8.495
		c3.417-3.708,6.229-7.818,7.976-12.596c0.088-0.241,0.313-0.46,0.525-0.623c2.091-1.598,3.566-3.628,4.287-6.165
		c0.311-1.095,0.341-2.194-0.539-3.185c-0.393,0.433-0.786,0.79-1.089,1.21c-1.906,2.647-3.959,5.207-5.652,7.986
		c-3.787,6.217-8.36,11.763-13.609,16.776c-1.155,1.103-2.338,2.175-3.508,3.262c-1.308,1.215-2.555,2.504-3.934,3.632
		c-0.055,0.045-0.115,0.083-0.171,0.128c1.209,0.236,2.428,0.445,3.657,0.623c0.357-0.29,0.731-0.547,1.139-0.711
		c0.633-0.254,1.449-0.051,2.258-0.051c0,0.453,0,0.838,0,1.184c1.443,0.143,2.9,0.235,4.365,0.296
		c0.103-0.068,0.205-0.136,0.309-0.205c0.065,0.077,0.121,0.143,0.183,0.218c0.222,0.008,0.445,0.011,0.668,0.017
		C73.591,151.069,73.709,150.541,74.089,150.131z"/>
	<path d="M40.7,140.202c0.424-0.664,1.007-1.09,1.68-1.486c1.518-0.892,3.022-1.818,4.462-2.83
		c3.954-2.778,7.364-6.191,10.951-9.404c2.882-2.582,5.181-5.553,7.212-8.807c0.863-1.382,2.032-2.572,3.059-3.851
		c0.163-0.203,0.329-0.407,0.469-0.625c0.941-1.462,1.864-2.936,2.816-4.391c2.568-3.928,5.072-7.892,6.87-12.249
		c1.257-3.046,2.352-6.14,2.307-9.503c-0.033-2.535,0.275-5.028,0.731-7.522c0.63-3.441,1.243-6.893,0.931-10.429
		c-0.394-4.462-2.733-8.162-8.521-9.681c-0.041,0.172-0.082,0.343-0.121,0.504c-3.151,0.263-4.177,0.846-6.056,3.425
		c-0.196,0.27-0.445,0.513-0.585,0.809c-0.195,0.409-0.452,0.862-0.436,1.287c0.12,3.215-0.305,6.372-0.934,9.509
		c-2.109,10.509-6.922,19.66-14.031,27.617c-2.429,2.719-5.039,5.277-7.578,7.897c-2.022,2.087-3.914,4.294-6.24,6.088
		c-1.578,1.218-2.988,2.661-4.427,4.051c-2.537,2.451-4.977,5.007-7.576,7.388c-0.842,0.772-1.721,1.504-2.605,2.23
		c0.599,0.581,1.196,1.164,1.814,1.724c0.958-0.799,1.893-1.629,2.848-2.434c0.208-0.175,0.508-0.401,0.733-0.37
		c0.988,0.138,1.62-0.43,2.237-1.026c1.509-1.457,2.982-2.952,4.505-4.395c1.782-1.688,3.661-3.277,5.391-5.015
		c2.86-2.873,5.613-5.854,8.795-8.388c0.179-0.143,0.322-0.337,0.46-0.523c0.692-0.932,1.326-1.913,2.079-2.792
		c0.867-1.011,1.866-1.909,2.746-2.91c0.252-0.287,0.389-0.757,0.403-1.15c0.017-0.458,0.161-0.74,0.518-1.006
		c2.683-1.999,4.852-4.481,6.319-7.468c1.295-2.637,2.312-5.411,3.541-8.336c0.157,0.615,0.325,1.069,0.381,1.536
		c0.095,0.804,0.094,1.618,0.187,2.422c0.015,0.128,0.072,0.252,0.14,0.374c0.068,0.122,0.148,0.243,0.208,0.366
		c0.109-0.064,0.235-0.115,0.351-0.173c0.116-0.058,0.221-0.125,0.289-0.218c0.359-0.494,0.642-1.044,0.977-1.557
		c0.37-0.566,0.719-1.154,1.16-1.662c0.451-0.519,0.519-1.108,0.021-1.652c-0.516-0.565-1.188-0.765-1.936-0.741
		c-0.227,0.007-0.453,0.028-0.701,0.044c-0.178-1.555,0.154-2.958,0.677-4.324c0.686-1.79,1.283-3.592,1.031-5.705
		c0.887,0.2,1.032-0.415,1.15-0.932c0.131-0.574,0.167-1.18,0.161-1.772c-0.015-1.501-0.041-3.003-0.131-4.501
		c-0.054-0.909,0.251-1.651,0.685-2.42c0.314-0.556,0.408-1.236,0.603-1.86c0.053-0.17,0.072-0.384,0.186-0.494
		c0.409-0.395,0.863-0.744,1.282-1.131c0.628-0.58,1.372-0.74,2.188-0.621c0.15,0.022,0.3,0.162,0.416,0.28
		c0.198,0.203,0.349,0.454,0.555,0.648c0.345,0.325,0.764,0.58,1.069,0.935c1.28,1.49,1.592,3.343,1.726,5.197
		c0.294,4.069,0.339,8.139-0.083,12.211c-0.558,5.382-1.75,10.601-3.708,15.647c-3.157,8.138-8.142,15.105-13.849,21.603
		c-2.564,2.919-5.203,5.773-7.783,8.678c-1.542,1.736-3.102,3.436-5.217,4.505c-0.161,0.082-0.275,0.256-0.413,0.386
		c-1.417,1.341-2.77,2.757-4.266,4.003c-2.139,1.782-4.495,3.304-6.413,5.353c0.791,0.482,1.599,0.937,2.409,1.391
		C39.561,141.599,40.185,141.008,40.7,140.202z"/>
	<path d="M55.016,119.698c1.657-1.779,3.281-3.592,4.867-5.435c2.187-2.54,4.527-4.982,6.441-7.718
		c4.195-5.995,6.296-12.863,7.68-19.973c0.327-1.679,0.582-3.372,0.87-5.058c0.067,0.035,0.135,0.071,0.202,0.106
		c0.22-0.291,0.597-0.564,0.634-0.876c0.185-1.576,0.355-3.161,0.393-4.747c0.064-2.712,0.037-5.426,0.02-8.139
		c-0.002-0.385-0.04-0.949-0.279-1.115c-0.449-0.311-0.358-0.637-0.341-1.032c0.078-1.78-0.859-2.58-2.468-2.081
		c-0.006,0.126-0.02,0.265-0.018,0.404c0.015,0.823,0.185,1.691-0.837,2.131c-0.164,0.071-0.278,0.392-0.31,0.612
		c-0.078,0.539-0.135,1.086-0.13,1.63c0.024,2.693,0.071,5.387,0.109,8.08c0.003,0.234,0,0.467,0,0.74
		c-1.043-0.012-1.055,0.823-1.092,1.404c-0.114,1.803-0.127,3.614-0.114,5.421c0.012,1.638,0.271,3.275-0.313,4.883
		c-0.791,2.177-2.297,3.81-3.916,5.381c-1.436,1.393-2.845,2.815-4.234,4.255c-1.203,1.248-2.375,2.528-3.534,3.817
		c-0.983,1.094-2.156,2.099-2.84,3.362c-1.246,2.305-2.809,4.295-4.722,6.05c-0.895,0.821-1.783,1.651-2.638,2.513
		c-1.373,1.385-2.687,2.829-4.077,4.196c-1.456,1.431-3.146,2.621-4.247,4.413c-0.243,0.395-0.88,0.558-1.35,0.802
		c-0.308,0.16-0.681,0.218-0.954,0.419c-0.478,0.352-0.919,0.759-1.344,1.176c-1.207,1.182-2.33,2.463-3.942,3.143
		c-0.182,0.077-0.323,0.279-0.454,0.445c-1.46,1.861-3.141,3.497-4.969,4.969c0.596,0.5,1.205,0.984,1.817,1.465
		c0.503-0.398,1.006-0.796,1.51-1.193c2.917-2.298,5.957-4.44,8.93-6.668c1.003-0.752,1.971-1.552,2.946-2.34
		c0.849-0.686,1.663-1.419,2.54-2.067c0.524-0.387,1.396-0.335,1.485-1.256c0.011-0.11,0.192-0.202,0.29-0.306
		c1.406-1.493,2.833-2.967,4.21-4.486c1.74-1.92,3.281-4.019,5.441-5.544c0.945-0.667,1.521-1.685,1.777-2.853
		c0.064-0.29,0.218-0.58,0.395-0.824c2.279-3.145,4.568-6.284,6.859-9.421c0.753-1.032,1.518-2.055,2.277-3.082
		c0.064,0.015,0.129,0.03,0.194,0.045c0,0.887,0.106,1.789-0.022,2.656c-0.252,1.708-1.127,3.178-2.086,4.576
		c-2.633,3.84-5.532,7.468-8.709,10.876c-3.348,3.592-6.79,7.107-9.496,11.242c-0.097,0.148-0.262,0.278-0.425,0.35
		c-2.13,0.943-3.853,2.444-5.536,4.002c-1.892,1.751-3.783,3.53-6.254,4.434c-1.13,0.413-2.083,1.034-2.957,1.811
		c-0.527,0.469-1.022,0.973-1.516,1.478c0.878,0.65,1.767,1.287,2.674,1.899C41.293,133.113,48.448,126.748,55.016,119.698z"/>
	<path d="M24.009,125.757c0.843-0.52,1.858-0.817,2.59-1.452c2.159-1.873,4.282-3.798,6.291-5.83
		c1.841-1.863,3.448-3.957,5.285-5.823c1.16-1.178,2.456-2.294,3.875-3.121c1.156-0.674,2.238-1.345,2.767-2.553
		c0.843-1.927,2.41-3.322,3.498-5.066c0.653-1.046,1.502-1.97,2.249-2.959c5.597-7.408,9.924-15.441,12.057-24.549
		c0.329-1.404,0.595-2.823,0.886-4.212c-1.172-0.445-2.146,0.227-2.487,1.003c-0.258,0.587-0.471,1.193-0.729,1.78
		c-0.159,0.364-0.295,0.782-0.838,0.724c-0.528-0.057-1.02-0.218-1.176-0.77c-0.138-0.49-0.156-1.014-0.211-1.412
		c0.343-0.222,0.61-0.323,0.773-0.513c0.911-1.06,1.745-2.19,2.704-3.202c1.057-1.115,2.067-2.224,2.598-3.712
		c0.318-0.89,0.717-1.772,1.217-2.572c0.853-1.366,2.016-2.275,3.775-2.063c0.324,0.039,0.67-0.017,0.993-0.087
		c0.768-0.167,1.123-0.722,1.199-1.559c0.076-0.836-0.355-1.168-1.07-1.285c-0.631-0.103-1.272-0.254-1.901-0.226
		c-0.409,0.018-0.987,0.204-1.176,0.509c-0.76,1.224-1.714,2.207-2.868,3.073c-3.371,2.53-5.869,5.84-8.048,9.394
		c-2.091,3.41-4.091,6.875-6.144,10.309c-0.15,0.251-0.416,0.431-0.595,0.669c-0.182,0.242-0.4,0.498-0.46,0.778
		c-0.067,0.313-0.021,0.673,0.061,0.991c0.218,0.852-0.126,1.335-0.853,1.789c-1.481,0.925-2.891,1.982-3.668,3.617
		c-1.491,3.135-3.459,5.965-5.442,8.796c-2.446,3.49-4.812,7.036-7.228,10.548c-0.149,0.216-0.412,0.381-0.655,0.499
		c-1.855,0.903-3.317,2.225-4.322,4.031c-0.32,0.575-0.526,1.203-1.206,1.515c-0.21,0.097-0.401,0.453-0.421,0.704
		c-0.064,0.788-0.611,1.192-1.144,1.619c-0.502,0.402-1.024,0.78-1.527,1.181c-1.096,0.872-1.871,1.944-2.179,3.344
		c-0.064,0.292-0.347,0.548-0.561,0.793c-0.38,0.437-1.045,0.81-1.124,1.286c-0.177,1.065-0.878,1.552-1.64,2.071
		c0.257,0.314,0.525,0.618,0.787,0.928c1.45-1.365,2.869-2.765,4.294-4.157c0.631-0.616,1.183-1.322,1.855-1.885
		c2.478-2.077,4.626-4.469,6.703-6.928c3.677-4.354,7.365-8.699,10.999-13.089c2.818-3.403,6.043-6.489,8.173-10.435
		c0.508-0.941,1.143-1.815,1.628-2.767c1.933-3.792,3.825-7.605,5.758-11.398c0.096-0.188,0.433-0.354,0.659-0.356
		c0.809-0.01,1.235,0.571,1.29,1.56c0.018,0.319,0.174,0.63,0.267,0.945c0.07,0.012,0.14,0.024,0.21,0.037
		c-2.153,4.682-4.712,9.137-7.554,13.432c-5.366,8.108-11.634,15.52-17.807,23.004c-0.141,0.171-0.444,0.324-0.653,0.302
		c-0.692-0.071-1.192,0.241-1.658,0.674c-1.659,1.54-3.317,3.082-4.973,4.625c-0.068,0.064-0.137,0.144-0.167,0.23
		c-0.605,1.758-1.847,3.093-2.965,4.515c-0.377,0.48-0.744,0.823-1.415,0.735c-0.22-0.029-0.531,0.099-0.696,0.261
		c-0.822,0.803-1.633,1.617-2.45,2.425c0.476,0.529,0.968,1.041,1.458,1.557c0.185-0.161,0.37-0.324,0.557-0.485
		C22.233,126.862,23.125,126.302,24.009,125.757z"/>
	<path d="M139.48,99.299c-0.135-7.42-1.309-14.693-2.975-21.898c-2.212-9.561-5.297-18.848-8.903-27.966
		c-0.495-1.252-0.926-2.485-0.789-3.863c0.021-0.212-0.173-0.509-0.354-0.668c-0.901-0.792-1.78-1.562-2.494-2.574
		c-1.48-2.099-3.046-4.152-4.738-6.083c-2.127-2.427-4.747-4.234-7.844-5.33c0.055,0.073,0.105,0.151,0.166,0.218
		c2.413,2.638,4.849,5.256,7.236,7.917c2.18,2.43,4.314,4.901,6.45,7.369c0.185,0.214,0.309,0.539,0.332,0.823
		c0.063,0.779-0.227,1.645,0.665,2.175c0.075,0.045,0.074,0.218,0.106,0.333c1.982,6.972,4.052,13.921,5.918,20.925
		c1.514,5.681,2.542,11.474,3.291,17.307c0.342,2.668,0.658,5.352,0.742,8.037c0.124,3.981,0.034,7.968,0.03,11.953
		c-0.001,0.453-0.008,0.908-0.059,1.357c-0.35,3.045-1.204,5.959-2.304,8.811c-1.258,3.259-2.493,6.526-3.716,9.798
		c-0.095,0.255-0.163,0.523-0.23,0.812c1.606-1.644,3.141-3.356,4.593-5.14c0.684-1.714,1.339-3.44,1.999-5.164
		C138.962,112.277,139.599,105.852,139.48,99.299z"/>
	<path d="M150.605,74.374c-0.621-2.072-1.208-4.154-1.845-6.22c-1.815-5.893-3.927-11.671-6.728-17.179
		c-0.103-0.203-0.274-0.542-0.396-0.535c-0.596,0.035-0.689-0.431-0.883-0.785c-5.163-9.398-11.934-17.377-20.773-23.526
		c-1.328-0.924-2.844-1.622-4.033-2.691c-2.817-2.535-5.978-4.479-9.417-6.001c-7.364-3.261-15.204-5.013-22.924-7.125
		c-3.15-0.862-6.43-0.689-9.669-0.378c-1.068,0.103-2.126,0.306-3.188,0.463c0.248,0.367,0.478,0.624,0.764,0.729
		c1.987,0.731,4.057,0.978,6.163,1.02c2.097,0.042,4.205-0.009,6.288,0.191c5.339,0.512,10.524,1.789,15.398,4.009
		c5.322,2.424,10.514,5.134,15.761,7.725c0.143,0.071,0.308,0.177,0.373,0.31c0.424,0.861,1.2,1.32,1.955,1.828
		c0.608,0.409,1.205,0.86,1.716,1.38c0.844,0.858,1.557,1.849,2.429,2.675c1.484,1.405,2.978,2.819,4.601,4.055
		c1.432,1.091,2.886,2.156,3.922,3.622c1.702,2.409,3.291,4.899,4.898,7.374c1.513,2.328,3.119,4.567,5.384,6.246
		c0.165,0.123,0.303,0.31,0.399,0.495c1.085,2.112,2.368,4.153,3.192,6.363c1.584,4.251,2.938,8.589,4.323,12.912
		c0.739,2.306,2.046,4.468,1.818,7.039c-0.046,0.516,0.222,0.982,0.79,1.246c0.197,0.091,0.382,0.234,0.549,0.397
		c0.076-1.382,0.121-2.772,0.121-4.172c-0.153-0.316-0.358-0.609-0.666-0.861C150.764,74.844,150.67,74.591,150.605,74.374z"/>
	<path d="M70.568,138.793c1.512-2.957,3.56-5.512,5.715-8.001c2.045-2.361,4.07-4.739,5.514-7.54c0.963-1.87,1.651-3.83,1.998-6.076
		c-0.386,0.237-0.631,0.378-0.866,0.534c-2.7,1.786-4.656,4.27-6.46,6.895c-2.223,3.236-4.347,6.52-7.082,9.4
		c-3.318,3.495-6.734,6.869-10.244,10.171c-1.613,1.518-3.295,2.929-5.028,4.256c1.201,0.358,2.413,0.686,3.638,0.985
		c2.991-2.093,5.89-4.326,8.839-6.482C68.16,141.79,69.669,140.551,70.568,138.793z"/>
	<path d="M0.934,65.658c1.361-1.685,2.698-3.389,4.088-5.049c1.494-1.784,2.89-3.63,3.47-5.925c0.555-2.195,1.852-3.783,3.859-4.675
		c1.499-0.666,2.602-1.718,3.665-2.877c0.5-0.544,0.964-1.124,1.495-1.636c1.961-1.892,3.75-3.991,6.358-5.097
		c0.618-0.262,1.233-0.696,1.658-1.209c0.645-0.779,1.269-1.472,2.346-1.578c0.171-0.017,0.385-0.146,0.48-0.289
		c0.411-0.623,1.073-0.717,1.71-0.894c0.456-0.127,0.902-0.296,1.346-0.462c3.113-1.167,5.67-3.188,8.149-5.326
		c0.666-0.574,1.287-1.164,2.256-1.23c0.362-0.025,0.71-0.353,1.05-0.564c0.431-0.267,0.823-0.61,1.277-0.822
		c0.534-0.25,1.119-0.391,1.679-0.588c1.64-0.575,3.326-1.066,4.48-2.514c0.11-0.137,0.31-0.224,0.485-0.285
		c3.273-1.145,6.511-2.408,9.835-3.383c2.967-0.87,6.024-1.411,9.164-1.185c0.673,0.049,1.376-0.089,2.04-0.247
		c0.248-0.059,0.598-0.428,0.59-0.645c-0.011-0.311-0.236-0.706-0.494-0.901c-1.107-0.839-2.322-0.716-3.527-0.228
		c-1.31,0.53-2.621,1.022-4.076,0.831c-0.09-0.012-0.217-0.014-0.275,0.038c-0.904,0.791-1.984,0.494-3.013,0.492
		c-0.522-0.001-1.078-0.147-1.557-0.012c-0.659,0.186-1.259,0.582-1.888,0.879c-1.333,0.63-2.659,1.277-4.008,1.873
		c-1.405,0.621-2.799,1.302-4.26,1.758c-2.205,0.687-4.229,1.734-6.12,2.991c-1.413,0.939-2.794,1.812-4.419,2.386
		c-3.828,1.352-7.056,3.715-10.086,6.37c-0.291,0.255-0.73,0.425-1.119,0.47c-1.19,0.137-2.227,0.47-2.869,1.592
		c-0.097,0.169-0.382,0.269-0.599,0.324c-4.837,1.228-8.781,3.905-11.952,7.666c-2.192,2.6-4.137,5.409-6.189,8.127
		c-1.371,1.817-2.666,3.699-4.132,5.433c-0.488,2.191-0.877,4.417-1.171,6.675c0.02-0.004,0.03-0.015,0.05-0.018
		C0.795,65.91,0.86,65.75,0.934,65.658z"/>
	<path d="M74.308,0.962c-1.643-0.049-3.287-0.089-4.931-0.102c-0.62-0.005-1.384,0.009-1.633,0.641
		c-0.279,0.708-0.699,0.723-1.279,0.653c-0.259-0.031-0.525-0.022-0.786-0.005c-0.513,0.033-0.595,0.363-0.552,0.802
		c0.047,0.493,0.356,0.415,0.67,0.339c2.359-0.573,4.75-0.612,7.166-0.545c3.242,0.091,6.494-0.056,9.731,0.106
		c3.207,0.161,6.421,0.439,9.595,0.915c5.146,0.771,10.073,2.407,14.939,4.216c0.213,0.079,0.454,0.202,0.58,0.378
		c0.962,1.352,2.325,2.166,3.778,2.857c3.087,1.469,6.182,2.922,9.268,4.394c0.247,0.118,0.532,0.284,0.657,0.507
		c0.548,0.975,1.393,1.61,2.307,2.191c0.863,0.548,1.857,0.988,2.527,1.719c0.883,0.964,2.01,1.553,2.957,2.384
		c0.782,0.686,1.542,1.398,2.304,2.107c-3.997-4.347-8.488-8.232-13.396-11.551c-0.215-0.078-0.433-0.152-0.643-0.234
		c-0.817-0.32-1.572-0.561-2.161-1.327c-0.175-0.228-0.376-0.42-0.588-0.597c-0.569-0.343-1.151-0.667-1.73-0.995
		c-0.421-0.181-0.85-0.349-1.265-0.534c-1.084-0.48-2.146-1.011-3.204-1.548c-0.719-0.365-1.378-0.877-2.127-1.149
		c-1.628-0.592-3.291-1.093-4.95-1.593c-1.932-0.582-3.866-1.143-5.579-2.258c-1.449-0.399-2.912-0.765-4.395-1.079
		c-0.82-0.098-1.641-0.178-2.463-0.214C84.175,1.23,79.241,1.11,74.308,0.962z"/>
	<path d="M113.306,15.911c-0.536-0.256-1.137-0.445-1.578-0.817c-2.427-2.051-5.242-3.374-8.212-4.367
		c-3.471-1.16-6.985-2.19-10.467-3.316c-0.917-0.297-1.764-0.967-2.684-1.061c-1.299-0.133-2.64,0.082-3.956,0.218
		c-0.282,0.029-0.534,0.353-0.8,0.541c0.267,0.3,0.495,0.654,0.813,0.881c0.207,0.148,0.545,0.14,0.826,0.152
		c0.547,0.025,1.104-0.042,1.643,0.03c3.953,0.525,7.806,1.47,11.547,2.852c3.843,1.42,7.676,2.938,11.135,5.12
		c7.93,5.001,15.231,10.816,21.71,17.629c5.335,5.61,9.889,11.785,13.559,18.605c0.529,0.983,1.166,1.953,1.459,3.01
		c0.327,1.181,0.807,2.282,1.344,3.354c-0.674-2.931-1.505-5.802-2.509-8.592c-0.453-0.981-0.913-1.958-1.416-2.913
		C138.356,33.243,127.608,22.735,113.306,15.911z"/>
	<path d="M25.068,21.51c0.146-0.178,0.433-0.287,0.672-0.334c1.486-0.293,2.818-0.909,3.903-1.962
		c0.631-0.613,1.283-1.063,2.169-1.256c0.583-0.127,1.128-0.492,1.648-0.818c0.492-0.309,0.875-0.75,1.538-0.799
		c0.286-0.021,0.633-0.358,0.795-0.641c0.204-0.357,0.44-0.414,0.798-0.414c0.892-0.001,1.686-0.251,2.281-0.98
		c0.124-0.152,0.334-0.267,0.527-0.324c5.265-1.556,10.519-3.153,15.809-4.619c1.515-0.42,3.129-0.546,4.708-0.65
		c1.562-0.104,3.139,0.033,4.705-0.032c0.42-0.018,0.979-0.286,1.201-0.621c0.32-0.481,0.684-0.615,1.179-0.62
		c1.377-0.012,2.756-0.061,4.131-0.012c2.357,0.085,4.711,0.238,7.066,0.353c1.38,0.068,2.761,0.154,4.141,0.16
		c0.58,0.002,1.222-0.106,1.206-0.946c-0.375-0.232-0.727-0.6-1.132-0.674c-1.449-0.263-2.912-0.531-4.379-0.603
		c-1.992-0.098-3.994-0.012-5.991-0.017c-0.619-0.002-1.241-0.086-1.857-0.053c-0.491,0.026-0.98,0.154-1.462,0.273
		c-0.562,0.139-1.107,0.428-1.67,0.461C61.618,6.704,56.265,7.548,50.986,8.86c-8.556,2.127-16.662,5.326-24.079,10.159
		c-1.154,0.752-2.309,1.508-3.512,2.177c-0.124,0.069-0.243,0.144-0.366,0.214c-1.709,1.659-3.339,3.397-4.886,5.209
		C20.634,25.143,23.185,23.805,25.068,21.51z"/>
	<path d="M11.188,40.889c0.838-1.124,2.18-1.885,3.333-2.759c1.03-0.781,1.994-1.591,2.73-2.689
		c1.524-2.275,3.336-4.279,5.766-5.643c0.215-0.121,0.377-0.333,0.57-0.496c0.696-0.584,1.017-1.475,1.89-1.957
		c3.749-2.07,7.447-4.232,11.173-6.343c0.29-0.164,0.651-0.248,0.987-0.277c0.798-0.071,1.591-0.087,1.917-1.04
		c0.039-0.114,0.296-0.194,0.461-0.217c1.135-0.156,1.503-0.666,1.244-1.998c-0.839,0.258-1.693,0.439-2.474,0.784
		c-0.714,0.316-0.958,1.358-1.931,1.35c-0.019,0-0.036,0.03-0.056,0.042c-0.334,0.196-0.652,0.429-1.005,0.58
		c-0.851,0.365-1.784,0.582-2.566,1.055c-1.87,1.13-3.672,2.375-5.502,3.57c-0.317,0.207-0.617,0.496-0.966,0.585
		c-1.473,0.378-2.677,1.191-3.815,2.157c-1.087,0.922-2.124,1.96-3.35,2.651c-2.588,1.459-4.662,3.36-6.071,5.98
		c-0.119,0.221-0.273,0.466-0.478,0.589c-0.714,0.427-1.115,1.464-2.219,1.162c-0.069-0.019-0.193,0.124-0.276,0.207
		c-0.429,0.428-0.856,0.857-1.285,1.285c-1.221,2.232-2.336,4.529-3.332,6.89c0.198-0.222,0.394-0.446,0.604-0.657
		C8.106,44.115,9.828,42.712,11.188,40.889z"/>
	<path d="M149.068,88.415c-1.915-7.062-3.998-14.078-5.965-21.126c-0.566-2.028-1.292-4.022-1.422-6.166
		c-0.032-0.527-0.518-1.029-0.805-1.537c-0.147-0.26-0.367-0.49-0.464-0.766c-0.55-1.562-1.073-3.133-1.629-4.774
		c-0.133,0.106-0.178,0.129-0.205,0.166c-0.056,0.076-0.105,0.158-0.151,0.241c-0.741,1.34-0.467,2.7,0.206,3.895
		c0.867,1.538,1.56,3.032,1.317,4.872c-0.057,0.434,0.306,1.113,0.685,1.363c0.389,0.256,0.536,0.501,0.638,0.894
		c0.94,3.659,1.792,7.344,2.858,10.965c1.831,6.218,3.949,12.36,4.94,18.784c0.298-1.125,0.566-2.262,0.812-3.407
		C149.634,90.679,149.374,89.541,149.068,88.415z"/>
	<path d="M55.137,17.599c-0.167-0.004-0.334-0.009-0.501-0.002c-2.665,0.114-5.158,0.919-7.508,2.094
		c-4.872,2.435-9.696,4.966-14.54,7.458c-2.778,1.429-5.52,2.93-7.949,4.909c-1.449,1.181-2.779,2.508-4.162,3.77
		c0.055,0.075,0.11,0.15,0.164,0.224c0.212-0.082,0.43-0.15,0.634-0.248c1.372-0.66,2.808-1.217,4.097-2.012
		c4.315-2.663,8.568-5.428,12.866-8.118c1.529-0.957,3.074-1.912,4.697-2.689c1.97-0.944,4.029-1.703,6.052-2.536
		c2.172-0.895,4.348-1.782,6.522-2.673c-0.01-0.052-0.02-0.104-0.03-0.155C55.366,17.613,55.252,17.602,55.137,17.599z"/>
	<path d="M14.44,89.927c-0.054-0.072-0.109-0.144-0.163-0.216c-0.793,0.455-1.639,0.839-2.368,1.38
		c-1.733,1.286-2.815,3.114-3.689,5.018c-0.945,2.059-2.25,3.832-3.708,5.492c0.223,0.615,0.467,1.218,0.705,1.825
		c0.247-0.253,0.48-0.514,0.752-0.75C9.939,99.23,12.182,94.553,14.44,89.927z"/>
	<path d="M42.719,8.065c4.353-1.573,8.782-2.787,13.448-2.948c0.255-0.009,0.653-0.3,0.72-0.535
		c0.193-0.687,0.687-0.727,1.221-0.717c1.308,0.025,2.616,0.092,3.924,0.105c0.398,0.004,0.811-0.068,1.191-0.187
		c0.562-0.176,0.654-0.688,0.173-1.022c-1.509-1.046-4.263-1.149-5.407,0.049c-0.414,0.433-1.077,0.734-1.677,0.86
		c-0.994,0.209-2.026,0.286-3.045,0.308c-0.507,0.011-1.016-0.024-1.525-0.058c-3.087,1.033-6.093,2.243-8.989,3.648
		c-0.068,0.149-0.131,0.302-0.168,0.482C42.676,8.061,42.7,8.072,42.719,8.065z"/>
	<path d="M85.327,15.703c-0.437-0.162-0.843-0.411-1.253-0.64c-0.439-0.245-0.836-0.634-1.303-0.747
		c-2.154-0.524-4.347-0.459-6.531-0.221c-0.86,0.094-1.708,0.306-2.573,0.467c0.286,0.962,0.879,1.585,2.023,1.702
		c1.694,0.174,3.409,0.142,5.115,0.191c2.246,0.064,4.529-0.341,6.711,0.54c0.102,0.041,0.241-0.012,0.363-0.022
		c0.023-0.063,0.046-0.126,0.069-0.189c-0.347-0.216-0.673-0.488-1.047-0.633C86.394,15.954,85.836,15.892,85.327,15.703z"/>
	<path d="M54.616,12.708c-0.757,0.078-1.528,0.051-2.276,0.172c-0.668,0.108-1.326,0.321-1.965,0.553
		c-0.687,0.25-1.334,0.606-2.019,0.861c-0.865,0.322-1.776,0.53-2.621,0.895c-0.738,0.319-1.248,0.904-1.353,1.836
		c0.211-0.04,0.374-0.047,0.52-0.101c1.357-0.504,2.714-1.007,4.064-1.528c1.84-0.711,3.656-1.472,5.717-1.203
		c0.545,0.071,1.144-0.068,1.685-0.225c1.268-0.368,1.469-1.245,0.533-2.242C56.311,12.448,55.474,12.62,54.616,12.708z"/>
	<path d="M66.403,12.465c0.75-0.034,1.512-0.365,2.214-0.682c0.484-0.219,0.841-0.665,0.775-1.33
		c-0.69-0.089-1.345-0.213-2.005-0.251c-1.851-0.107-3.71-0.222-5.483,0.508c-0.682,0.281-1.223,0.707-1.453,1.758
		C62.527,12.478,64.469,12.551,66.403,12.465z"/>
	<path d="M94.439,108.843c-1.683-0.202-2.351,0.372-2.375,2.006c-0.001,0.095-0.008,0.192,0.009,0.285
		c0.087,0.481-0.081,0.828-0.423,1.193c-0.431,0.461-0.816,0.999-1.088,1.567c-0.414,0.863-0.223,1.515,0.453,2.071
		c1.269-0.716,2.171-1.861,2.756-3.491c0.071-0.196,0.131-0.507,0.266-0.551c0.785-0.256,0.597-0.879,0.574-1.422
		C94.589,109.962,94.503,109.425,94.439,108.843z"/>
	<path d="M70.093,14.395c-0.554-0.101-1.111-0.222-1.671-0.253c-1.331-0.075-2.664-0.117-3.997-0.144
		c-0.611-0.012-1.134,0.174-1.59,0.658c-0.291,0.309-0.759,0.572-1.174,0.618c-0.823,0.092-1.668-0.022-2.498,0.035
		c-0.372,0.026-0.731,0.257-1.178,0.426c0.698,0.817,1.431,0.948,2.213,0.809c1.487-0.263,2.905-0.966,4.476-0.695
		c0.061,0.011,0.132-0.05,0.201-0.063c0.862-0.166,1.722-0.341,2.587-0.491c0.99-0.172,1.983-0.322,2.975-0.481
		c-0.002-0.071-0.005-0.142-0.007-0.213C70.318,14.53,70.213,14.417,70.093,14.395z"/>
	<path d="M76.138,23.155c0.734,0.243,1.488,0.499,2.25,0.567c1.737,0.155,3.484,0.201,5.178,0.289
		c-0.727-0.579-1.681-0.736-2.647-0.837c-1.787-0.187-3.576-0.356-5.381-0.535C75.682,22.768,75.875,23.067,76.138,23.155z"/>
	<path d="M91.578,26.514c-0.745-1.51-2.26-1.235-3.586-1.73C88.651,26.397,89.924,26.979,91.578,26.514z"/>
</g>
</svg>