<!-- Generator: Adobe Illustrator 19.2.1, SVG Export Plug-In  -->
<svg version="1.1"
	 xmlns="http://www.w3.org/2000/svg" xmlns:xlink="http://www.w3.org/1999/xlink" xmlns:a="http://ns.adobe.com/AdobeSVGViewerExtensions/3.0/"
	 x="0px" y="0px" width="151.876px" height="151.874px" viewBox="0 0 151.876 151.874"
	 style="enable-background:new 0 0 151.876 151.874;" xml:space="preserve">
<defs>
</defs>
<path d="M18.215,31.457c1.577-0.815,3.288-1.064,5.03-1.165c0.321-0.019,0.771-0.102,0.859,0.329
	c0.078,0.383-0.358,0.459-0.621,0.553c-3.626,1.293-7.323,2.338-11.084,3.152c-0.673,1.025-1.321,2.067-1.945,3.125
	c0.276-0.043,0.553-0.085,0.83-0.126c0.496-0.072,0.816,0.173,0.931,0.591c0.142,0.517-0.328,0.625-0.674,0.694
	c-0.601,0.12-1.194,0.111-1.785,0.05c-0.333,0.589-0.657,1.184-0.975,1.783c2.083,0.256,4.167,0.516,6.278,0.422
	c0.388-0.017,0.904-0.158,1.115,0.28c0.217,0.449-0.249,0.733-0.5,1.027c-0.308,0.361-0.665,0.682-1.024,0.995
	c-0.636,0.554-1.305,0.614-2.069,0.2c-0.927-0.503-1.903-0.915-2.846-1.388c-0.518-0.26-0.979-0.475-1.426-0.641
	c-0.241,0.469-0.474,0.942-0.705,1.417c0.253,0.103,0.502,0.227,0.743,0.381c1.293,0.826,2.577,1.666,3.86,2.507
	c1.325,0.868,2.345,0.772,3.46-0.371c0.332-0.34,0.675-0.699,0.898-1.111c1.065-1.965,2.74-2.794,4.921-2.937
	c1.192-0.078,2.377-0.174,3.57-0.119c0.652,0.03,1.286,0.167,1.873,0.464c1.37,0.695,1.449,1.571,0.187,2.422
	c-0.533,0.359-1.113,0.685-1.717,0.896c-3.992,1.391-7.6,3.52-11.17,5.73c-0.261,0.161-0.539,0.296-0.793,0.468
	c-2.377,1.607-4.877,2.02-7.536,0.758c-0.61-0.29-1.219-0.457-1.827-0.54c-0.202,0.589-0.397,1.181-0.585,1.777
	c0.839,0.106,1.673,0.301,2.502,0.571c0.438,0.143,0.988,0.289,1.031,0.865c0.042,0.578-0.399,0.941-0.849,1.182
	c-1.033,0.554-2.14,0.898-3.331,0.821c-0.12-0.008-0.234-0.005-0.347-0.001c-0.07,0.267-0.14,0.534-0.208,0.803
	c0.337,0.03,0.582,0.314,0.662,0.83c0.105,0.675-0.099,1.29-0.471,1.841c-0.303,0.45-0.441,0.91-0.235,1.624
	c0.697-1.224,1.377-2.302,1.499-3.585c0.052-0.55,0.26-0.776,0.729-0.939c1.253-0.437,2.535-0.814,3.601-1.665
	c0.368-0.293,0.771-0.208,1.146,0.029c0.94,0.593,1.754,1.283,2.104,2.407c0.385,1.237,0.832,2.455,0.873,3.771
	c0.017,0.535,0.321,0.965,0.555,1.416c0.362,0.696,0.347,1.374-0.036,2.05c-0.33,0.583-0.813,0.799-1.465,0.596
	c-0.325-0.101-0.644-0.232-0.976-0.297c-1.517-0.298-1.802-0.155-2.703,1.323c0.552-0.032,0.81-0.498,1.213-0.706
	c0.449-0.232,0.953-0.274,1.371-0.005c0.444,0.286,0.049,0.702-0.117,0.868c-0.757,0.754-0.244,1.172,0.333,1.606
	c0.408-0.616,1.825-0.885,2.803-0.315c0.819,0.478,1.862,0.53,2.514,1.427c0.149,0.206,1.026,0.208,1.473,0.574
	c0.601,0.493,1.061,1.056,0.992,1.908c-0.035,0.432-0.164,0.683-0.629,0.438c-1.779-0.937-3.678-1.646-5.356-2.772
	c-0.613-0.412-1.226-0.741-1.982-0.694c-0.582,0.036-1.03-0.25-1.509-0.532c-2.488-1.461-5.074-2.659-7.992-2.911
	c-0.05,0.368-0.099,0.737-0.144,1.106c1.081,0.028,2.087,0.337,3.081,0.809c2.339,1.111,4.724,2.124,7.069,3.222
	c1.782,0.835,3.314,2.146,5.244,2.714c-1.023,0.179-1.929-0.08-2.778-0.551c-1.247-0.693-2.277-1.41-3.991-0.664
	c-1.324,0.577-2.995,1.067-4.65,0.538c-0.603-0.193-1.318-0.031-1.988-0.031c2.108,1.393,4.446,1.089,6.817,0.782
	c-0.45,0.626-0.915,1.069-1.381,1.512c-0.682,0.648-1.462,0.74-2.255,0.284c-1.429-0.82-3.011-1.282-4.487-1.978
	c-0.422-0.199-0.81-0.307-1.18-0.312C0.024,73.529,0.009,74.018,0,74.508c0.442-0.09,0.919-0.012,1.421,0.113
	c1.264,0.315,2.212,1.192,3.3,1.818c2.376,1.368,2.926,1.267,4.558-0.875c0.521-0.684,1.091-1.318,1.933-1.619
	c0.189-0.068,0.421-0.136,0.555,0.073c0.107,0.167-0.041,0.322-0.142,0.457c-0.325,0.437-0.786,0.824-0.962,1.314
	c-0.831,2.312-2.829,3.526-4.573,4.968c-0.998,0.825-1.367,0.782-2.262-0.141c-1.095-1.13-2.32-2.024-3.815-2.537
	c0.009,0.343,0.025,0.684,0.039,1.025c1.181,0.58,2.231,1.385,3.171,2.354c0.555,0.571,0.379,0.958-0.425,1.083
	c-0.745,0.115-1.497,0.085-2.246,0.008c-0.094-0.01-0.189-0.014-0.284-0.02c0.075,0.874,0.164,1.744,0.268,2.609
	c0.021-0.161,0.043-0.323,0.074-0.488c0.113-0.6,0.305-0.929,0.936-0.976c0.925-0.068,1.803-0.335,2.664-0.682
	c3.102-1.25,5.693-3.184,7.826-5.755c1.338-1.613,4.741-2.393,6.637-1.544c0.184,0.082,0.359,0.199,0.512,0.329
	c0.654,0.552,0.639,0.897-0.153,1.118c-2.213,0.618-3.958,1.959-5.583,3.489c-1.522,1.432-3.25,2.317-5.383,2.394
	c-0.738,0.027-1.479,0.252-2.196,0.464c-0.56,0.165-1.134,0.379-1.647,1.158c1.441-0.344,2.607-0.757,3.803-0.881
	c2.74-0.285,5.026-1.413,6.954-3.34c1.47-1.47,3.265-2.326,5.28-2.734c1.586-0.321,3.121-0.119,4.577,0.59
	c0.286,0.139,0.672,0.306,0.405,0.768c-0.623,1.078-2.902,1.505-3.885,0.731c-1.42-1.118-2.063-0.926-2.443,0.773
	c-0.189,0.844-0.594,1.174-1.452,0.863c-0.788-0.286-1.592-0.396-2.387-0.008c-0.178,0.087-0.43,0.171-0.379,0.415
	c0.057,0.276,0.328,0.206,0.504,0.153c0.868-0.262,1.652-0.108,2.463,0.291c0.923,0.454,1.419,0.172,1.779-0.837
	c0.424-1.189,0.679-1.273,1.709-0.557c0.439,0.305,0.83,0.827,1.437,0.613c0.919-0.323,1.968-0.228,2.755-1
	c0.959-0.941,2.122-1.245,3.475-0.94c0.824,0.186,1.691,0.184,2.538,0.271c0.26,0.027,0.602-0.041,0.674,0.311
	c0.066,0.322-0.223,0.494-0.454,0.614c-1.011,0.524-1.861,1.252-2.693,2.014c-0.379,0.346-0.857,0.535-1.363,0.671
	c-1.545,0.415-3.081,0.861-4.832,1.355c3.826,0.625,6.523-1.269,9.129-3.262c0.825-0.631,1.603-1.067,2.594-0.846
	c1.22,0.272,2.416,0.66,3.617,1.014c0.288,0.085,0.629,0.181,0.698,0.529c0.084,0.419-0.268,0.604-0.554,0.769
	c-1.682,0.971-3.358,1.957-5.069,2.876c-0.942,0.506-2.002,0.799-3.059,0.529c-1.843-0.472-3.17,0.285-4.355,1.565
	c-1.739,1.879-3.49,3.744-5.827,4.921c-0.381,0.192-0.704,0.346-1.147,0.163c-0.785-0.324-1.592-0.595-2.396-0.872
	c-0.687-0.237-1.369-0.511-2.137-0.412c1.055,0.548,2.14,1.012,3.221,1.485c0.212,0.093,0.522,0.148,0.541,0.408
	c0.025,0.346-0.348,0.371-0.573,0.491c-0.835,0.446-1.274-0.198-1.706-0.697c-0.567-0.655-1.176-1.194-2.097-0.973
	c-1.906,0.457-3.837,0.588-5.786,0.579c-0.183-0.001-0.417-0.07-0.531,0.197c0.196,0.332,0.536,0.235,0.816,0.237
	c1.056,0.008,2.113,0.04,3.167-0.101c1.311-0.175,2.592-0.078,3.768,0.603c0.263,0.152,0.609,0.333,0.624,0.635
	c0.02,0.388-0.427,0.352-0.683,0.477c-0.552,0.269-1.114,0.517-1.667,0.782c-1.075,0.515-2.103,0.597-3.219-0.004
	c-1.579-0.85-3.094-0.177-4.59,0.388c0.783,0.122,1.561,0.133,2.338,0.12c0.911-0.016,1.793,0.088,2.46,0.78
	c0.579,0.602,1.167,0.57,1.844,0.204c1.611-0.87,3.46-1.02,5.146-1.669c0.362-0.139,0.711-0.054,0.889,0.278
	c0.172,0.323-0.183,0.471-0.369,0.641c-0.485,0.445-1.045,0.77-1.695,0.905c-2.658,0.551-5.249,1.514-8.046,1.223
	c-0.587-0.061-1.213,0.146-1.809,0.281c-0.856,0.193-1.71,0.332-2.567,0.305c0.192,0.594,0.391,1.185,0.598,1.773
	c0.772-0.039,1.546-0.062,2.323-0.052c1.091,0.014,1.391,0.248,1.26,1.354c-0.128,1.082-0.232,2.173-0.575,3.216
	c-0.175,0.532-0.328,1.086-0.567,1.586c0.196,0.434,0.4,0.863,0.604,1.293c0.821-0.8,1.194-1.86,1.314-3.03
	c0.069-0.678,0.091-1.36,0.147-2.039c0.162-1.943,0.67-2.45,2.594-2.968c3.737-1.005,7.571-1.376,11.394-1.807
	c1.325-0.149,2.668-0.437,4.062-0.097c-1.417,1.921-3.281,2.59-5.564,2.302c1.216,0.701,2.382,0.696,3.535,0.056
	c0.868-0.482,1.65-1.085,2.411-1.722c0.703-0.588,1.442-0.542,1.94,0.107c0.53,0.69,0.002,1.137-0.429,1.568
	c-1.464,1.464-3.295,1.51-5.161,1.228c-4.066-0.615-4.073-0.647-6.982,2.315c-1.045,1.064-2.151,1.928-3.676,2.262
	c-1.254,0.274-2.349,1.828-2.303,2.906c0.6-0.581,1.195-1.185,1.82-1.755c0.675-0.614,1.616-0.48,2.394-0.801
	c0.466-0.193,0.921-0.461,1.309-0.782c0.815-0.674,1.548-1.433,2.128-2.333c0.649-1.006,1.547-1.741,2.792-1.543
	c1.683,0.268,3.348,0.632,5.067,0.572c0.403-0.014,0.655,0.205,0.387,0.554c-1.132,1.476-0.947,4.089-3.684,4.188
	c1.765,0.395,2.023,0.256,2.785-1.232c0.697-1.361,1.198-2.879,2.371-3.911c1.084-0.953,2.122-1.906,2.891-3.143
	c0.485-0.78,1.281-1.091,2.173-1.161c0.444-0.035,0.663,0.139,0.492,0.605c-0.507,1.376-0.671,2.859-1.309,4.193
	c-0.471,0.984-1.112,1.799-2.183,2.181c-1.849,0.659-3.267,1.67-3.402,3.865c-0.047,0.77-0.561,1.071-1.306,0.779
	c-0.72-0.282-1.519-0.372-2.125-0.946c-0.299-0.283-0.736-0.416-1.151-0.295c-1.276,0.371-2.093-0.259-2.752-1.225
	c-0.349-0.512-0.8-0.774-1.464-0.733c0.558,0.342,0.752,0.953,1.149,1.381c0.651,0.703,1.438,1.35,2.475,1.197
	c0.785-0.116,1.393-0.012,1.934,0.58c0.28,0.306,0.681,0.43,1.095,0.509c0.591,0.112,0.739,0.351,0.478,1.002
	c-0.642,1.598-2.214,2.464-2.972,3.962c-0.158,0.312-0.613,0.393-0.997,0.455c-0.338,0.055-0.667,0.167-0.999,0.254
	c1.284,0.114,2.511,0.083,3.076-1.343c0.141-0.355,0.419-0.616,0.751-0.815c0.608-0.364,0.995-0.903,1.297-1.538
	c0.269-0.566,0.529-1.168,1.159-1.502c0.259,0.473-0.102,0.945,0.19,1.357c0.342-0.257,0.354-0.65,0.421-1
	c0.122-0.63,0.511-0.951,1.112-1.021c1.056-0.122,2.129-0.216,3.115,0.277c0.794,0.397,1.609,0.518,2.476,0.485
	c0.595-0.023,1.192-0.004,2.01-0.004c-0.626,0.434-1.031,0.738-1.46,1.004c-0.455,0.281-0.676,0.759-1.027,1.125
	c-0.439,0.458-0.912,0.336-1.359-0.039c-0.251-0.21-0.283-0.626-0.731-0.732c0.061,0.477-0.12,0.708-0.605,0.633
	c-0.37-0.058-0.745-0.084-1.118-0.124c0.977,0.68,0.158,1.243-0.029,1.801c-0.232,0.692-0.908,0.863-1.731,1.186
	c1.123,0.127,1.722-0.232,2.079-0.984c0.191-0.403,0.362-0.811,0.701-1.115c0.614-0.55,1.143-0.088,1.685,0.154
	c0.341,0.152,0.457,0.401,0.24,0.738c-0.791,1.228-1.477,2.54-3.019,3.054c-0.564,0.188-0.975,0.164-1.379-0.267
	c-0.403-0.43-0.816-0.859-1.463-0.942c0.29,0.435,0.665,0.771,1.013,1.132c0.203,0.21,0.56,0.413,0.404,0.754
	c-0.161,0.351-0.568,0.309-0.907,0.338c-0.801,0.07-1.046-0.737-1.481-0.9c-1.326,0.912-1.548,2.97-3.611,3.079
	c0.974,0.301,1.7,0.195,2.227-0.805c0.6-1.136,1.115-1.282,2.139-0.831c-1.416,1.145-2.827,2.228-4.515,2.819
	c-0.853,0.299-1.658,0.652-2.353,1.197c-0.583,0.457-1.186,0.879-1.806,1.269c0.181,0.219,0.366,0.434,0.55,0.651
	c0.986-0.815,2.009-1.587,3.373-1.601c0.919-0.009,1.832,0.179,2.572-0.245c-0.551,1.858-2.443,1.869-4.115,2.654
	c1.065,0.095,1.745-0.434,2.62-0.307c-1.046,0.666-1.381,1.627-1.623,2.651c0.155,0.163,0.313,0.324,0.469,0.486
	c0.239-1.06,0.685-2.083,1.547-2.559c1.581-0.874,2.117-2.508,3.231-3.699c0.377-0.403,0.934-0.832,0.896-1.445
	c-0.072-1.174,0.692-1.539,1.572-1.821c0.46-0.147,0.983-0.505,1.388,0.08c0.351,0.506,0.002,0.913-0.299,1.282
	c-0.727,0.89-0.966,1.811-0.474,2.927c0.409,0.929,0.255,1.947,0.18,2.933c-0.043,0.572-0.344,0.914-0.924,1.068
	c-0.979,0.26-0.901,0.957-0.754,1.908c0.206-0.26,0.324-0.343,0.314-0.404c-0.192-1.137,0.724-1.144,1.397-1.319
	c0.493-0.129,0.765,0.133,0.679,0.692c-0.199,1.299-0.628,1.681-1.929,1.685c-0.341,0.001-0.683-0.008-1.023,0.014
	c-0.889,0.057-2.012,0.676-2.924,1.481c0.174,0.162,0.347,0.326,0.523,0.487c1.26-0.968,2.758-1.347,4.438-1.208
	c1.193,0.099,2.384,0.096,3.576,0.148c1.102,0.048,2.009-0.351,2.759-1.111c1.351-1.369,2.894-2.506,4.494-3.54
	c2.727-1.762,5.933-2.347,8.945-3.404c0.439-0.154,1.062-0.57,1.411-0.096c0.341,0.463-0.228,0.932-0.468,1.359
	c-1.284,2.282-2.847,4.417-3.434,7.049c-0.312,1.398-0.794,2.756-1.6,3.965c-0.547,0.82-1.231,1.494-2.27,1.579
	c-0.787,0.064-1.553,0.205-2.313,0.401c-1.281,0.331-2.322,0.046-3.159-1.057c-0.533-0.703-1.233-1.275-2.015-1.716
	c-1.032-0.581-2.154-0.753-3.074,0.041c-0.74,0.638-1.554,1.175-2.36,1.722c0.293,0.225,0.584,0.452,0.88,0.673
	c0.246-0.154,0.49-0.31,0.729-0.472c1.58-1.075,4.099-0.396,5.017,1.093c0.499,0.809,0.278,1.38-0.648,1.582
	c-0.531,0.116-1.08,0.148-1.617,0.24c-0.001,0-0.003,0-0.004,0.001c0.42,0.279,0.842,0.555,1.268,0.825
	c2.077-0.394,4.122-0.93,6.151-1.538c0.261-0.078,0.524-0.167,0.792-0.194c0.327-0.033,0.718-0.163,0.953,0.166
	c0.245,0.342-0.012,0.659-0.197,0.933c-0.388,0.574-0.66,1.194-0.823,1.862c-0.192,0.788-0.384,1.575-0.575,2.363
	c0.305,0.155,0.612,0.306,0.919,0.457c0.329-1.15,0.694-2.291,1.072-3.428c0.398-1.197,0.754-1.372,1.996-1.067
	c2.245,0.552,4.167,1.635,5.719,3.383c0.472,0.532,0.506,0.826-0.065,1.297c-0.931,0.767-1.846,1.558-2.627,2.481
	c0.617,0.238,1.237,0.467,1.861,0.69c0.373-0.412,0.76-0.813,1.165-1.205c1.363-1.316,1.349-1.329,2.076,0.466
	c0.051,0.126,0.002,0.351,0.271,0.324c0.022-0.103,0.055-0.2,0.06-0.299c0.007-0.136,0.04-0.301-0.021-0.404
	c-0.839-1.41-0.145-2.549,0.556-3.749c0.405-0.694,0.547-1.53,1.181-2.117c0.358-0.332,0.577-0.455,0.991-0.029
	c0.736,0.756,0.946,1.539,0.465,2.498c-0.126,0.251-0.348,0.518-0.089,0.881c0.3-0.146,0.466-0.403,0.569-0.682
	c0.319-0.867,0.774-0.706,1.273-0.183c0.635,0.666,1.249,1.352,1.885,2.016c0.846,0.884,0.902,1.857,0.376,2.915
	c-0.392,0.788-0.862,1.523-1.36,2.24c0.414,0.089,0.828,0.176,1.244,0.259c0.576-1.005,1.149-2.013,1.616-3.077
	c0.303-0.69,0.374-1.448-0.266-1.988c-1.875-1.58-3.215-3.596-4.669-5.527c-0.41-0.544-0.48-0.92,0.057-1.378
	c1.153-0.983,1.719-2.32,1.905-3.755c0.351-2.708,1.486-5.083,2.837-7.39c0.154-0.263,0.266-0.591,0.612-0.64
	c1.327-0.185,2.648-0.483,4.176-0.381c-0.862,1.235-1.7,2.264-2.288,3.456c-0.527,1.069-0.694,2.073-0.005,3.189
	c0.604,0.978,0.853,2.135,0.328,3.233c-0.428,0.897-0.571,1.806-0.584,2.769c-0.032,2.214,0.083,4.428-0.208,6.64
	c-0.237,1.806-0.322,3.616-0.208,5.431c0.413,0.063,0.829,0.118,1.244,0.174c-0.249-3.7,0.023-7.361,0.768-11.014
	c0.311-1.524,0.31-3.106,0.868-4.599c0.211-0.565,0.152-1.211-0.116-1.8c-0.315-0.691,0.097-0.813,0.624-0.69
	c0.691,0.161,1.212,0.597,1.572,1.219c0.998,1.725,1.48,3.662,2.265,5.474c0.245,0.565-0.209,0.807-0.558,1.058
	c-0.9,0.648-1.794,1.299-2.577,2.081c0.068,0.077,0.135,0.154,0.202,0.231c0.919-0.637,1.859-1.248,2.751-1.922
	c0.535-0.404,0.865-0.322,1.259,0.192c1.171,1.529,2.603,2.794,4.209,3.846c0.578,0.379,0.825,0.796,0.797,1.502
	c-0.057,1.43,0.047,2.867-0.034,4.295c-0.015,0.273-0.048,0.539-0.089,0.801c0.309-0.007,0.617-0.017,0.925-0.027
	c0.135-1.432,0.272-2.863,0.345-4.298c0.015-0.286-0.039-0.675,0.317-0.794c0.291-0.097,0.499,0.185,0.685,0.368
	c0.509,0.501,1.086,0.967,1.468,1.556c0.615,0.948,1.145,1.946,1.788,2.876c0.529-0.05,1.056-0.106,1.582-0.166
	c-0.935-1.38-1.832-2.753-2.58-4.218c-0.551-1.08-1.297-2.002-2.333-2.662c-0.388-0.247-0.601-0.529-0.331-1.01
	c0.294-0.524,0.691-0.49,1.126-0.254c1.449,0.788,2.564,1.895,3.281,3.4c0.344,0.722,0.648,1.479,1.326,2.253
	c0.082-0.925-0.245-1.554-0.446-2.206c-0.078-0.253-0.258-0.51,0.007-0.754c0.236-0.217,0.513-0.191,0.763-0.052
	c0.807,0.448,1.951-0.135,2.592,0.866c0.085,0.133,0.234-0.17,0.464-0.323c-0.038,1.687-0.987,2.832-1.974,3.926
	c-0.261,0.289-0.496,0.578-0.668,0.885c0.17-0.022,0.339-0.048,0.509-0.071c0.081-0.131,0.175-0.255,0.288-0.371
	c1.014-1.045,2.113-2.031,2.476-3.535c0.104-0.43,0.325-0.357,0.564-0.103c0.14,0.148,0.285,0.293,0.409,0.453
	c0.414,0.532,1.247,1.037,1.15,1.587c-0.104,0.589-1.111,0.5-1.703,0.757c-0.502,0.218-0.919,0.508-1.242,0.918
	c1.857-0.306,3.691-0.679,5.5-1.118c-0.604-0.623-1.079-1.388-1.52-2.16c-0.377-0.662,0.681-1.691,1.447-1.516
	c1.069,0.244,2.109,0.668,3.272,0.416c-1.197-0.341-2.395-0.681-3.592-1.022c-0.314-0.089-0.741-0.01-0.856-0.427
	c-0.12-0.435,0.31-0.544,0.547-0.766c1.596-1.488,3.278-2.875,4.996-4.218c0.57-0.446,1.233-1.222,1.951-0.726
	c0.703,0.485,0.145,1.357-0.093,1.974c-0.887,2.294-1.247,4.65-1.266,7.089c0.338-0.106,0.673-0.217,1.009-0.328
	c0.071-0.713,0.124-1.429,0.163-2.147c0.086-1.578,0.707-3.019,1.437-4.647c0.399,1.18,0.708,2.153,0.707,3.225
	c-0.001,0.94,0.076,1.835,0.286,2.661c0.389-0.144,0.776-0.291,1.162-0.442c-0.204-1.064-0.172-2.333-0.019-3.892
	c1.122,0.816,1.816,1.831,2.08,3.055c0.385-0.164,0.767-0.333,1.149-0.503c-0.688-1.453-1.629-2.686-3.106-3.508
	c-0.652-0.363-1.501-3.452-1.283-4.154c0.095-0.305,0.35-0.393,0.577-0.536c0.684-0.429,0.904-1.091,0.851-1.849
	c-0.059-0.84-0.553-1.21-1.389-1.058c-0.953,0.173-1.793,0.637-2.649,1.062c-0.396,0.197-0.804,0.374-1.216,0.534
	c-0.361,0.14-0.741,0.196-1.05-0.118c-0.303-0.308-0.251-0.685-0.147-1.057c0.037-0.131,0.079-0.268,0.154-0.378
	c1.109-1.61,1.436-3.439,1.476-5.339c0.019-0.893,0.439-1.429,1.239-1.803c0.813-0.379,1.657-0.615,2.517-0.833
	c0.738-0.188,1.146,0.054,1.359,0.8c0.515,1.802,1.085,3.589,1.62,5.386c0.109,0.366,0.186,0.775,0.528,0.961
	c0.986,0.536,1.316,1.397,1.391,2.448c0.072,1.008,0.867,1.551,1.588,2.022c0.922,0.602,1.21,1.433,1.214,2.419
	c0.003,0.857,0.387,1.394,1.119,1.787c0.271,0.145,0.539,0.295,0.808,0.444c0.174-0.095,0.347-0.194,0.52-0.291
	c-0.11-0.064-0.217-0.131-0.328-0.194c-0.855-0.489-1.421-1.062-1.422-2.158c-0.001-1.112-0.541-2.013-1.532-2.619
	c-0.772-0.473-1.203-1.185-1.284-2.099c-0.057-0.646,0.229-0.898,0.851-0.745c2.166,0.533,4.286,1.209,6.029,2.662
	c0.923,0.77,1.155,1.889,1.312,2.999c0.191-0.121,0.383-0.242,0.574-0.365c-0.108-0.429-0.232-0.853-0.393-1.27
	c-0.111-0.289,0.195-0.4,0.449-0.402c0.447-0.005,0.987-0.02,1.065,0.543c0.017,0.123,0.028,0.245,0.036,0.367
	c0.47-0.315,0.935-0.637,1.397-0.962c-0.743-0.5-0.828-1.096-0.223-1.839c0.367-0.45,0.835-0.796,1.373-1.045
	c1.083-0.501,2.148-1.02,3.03-1.868c0.489-0.47,1.11-0.638,1.785-0.253c0.08,0.046,0.16,0.09,0.24,0.135
	c0.28-0.244,0.557-0.491,0.833-0.739c-0.066-0.033-0.128-0.073-0.194-0.105c-0.82-0.402-0.759-1.059,0.122-1.398
	c1.259-0.484,2.323-1.266,3.477-1.912c0.092-0.051,0.186-0.093,0.283-0.129c0.248-0.254,0.496-0.508,0.74-0.766
	c-0.775-0.045-1.555,0.192-2.348,0.832c-0.492,0.397-1.132,0.627-1.729,0.875c-2.418,1.004-4.724,0.356-6.145-1.739
	c2.526,0.123,5.02,0.428,7.692,0.352c-0.335-0.453-0.588-0.455-0.817-0.449c-2.223,0.06-4.415-0.338-6.627-0.432
	c-0.516-0.022-1.009-0.064-1.442-0.413c-0.796-0.643-1.619-1.252-2.423-1.884c-0.23-0.181-0.572-0.331-0.425-0.722
	c0.15-0.398,0.516-0.422,0.86-0.385c0.608,0.065,1.232,0.102,1.814,0.271c1.14,0.329,2.02,0.069,2.63-0.962
	c0.334-0.565,0.801-0.762,1.452-0.716c1.407,0.101,2.775-0.099,4.137-0.507c1.656-0.496,3.313-0.497,4.814,0.536
	c0.696,0.479,1.423,0.885,2.168,1.249c0.612-0.746,1.208-1.505,1.792-2.275c-0.357,0.135-0.767,0.099-1.159-0.142
	c-2.347-1.445-5.014-1.284-7.598-1.615c-1.755-0.225-3.484-0.666-5.257-0.833c-0.397-0.037-0.576-0.431-0.765-0.766
	c-0.617-1.096-1.304-1.411-2.437-0.946c-1.035,0.425-1.971,0.331-2.951-0.111c-1.458-0.658-2.846-1.469-4.377-1.973
	c-0.727-0.239-0.773-0.624-0.192-1.165c2.78-2.587,1.981-2.604,4.999-0.449c0.831,0.593,1.64,1.212,2.642,1.527
	c0.34,0.107,0.733,0.337,0.907,0.628c0.741,1.236,1.908,1.566,3.214,1.649c1.249,0.079,2.499,0.145,3.748,0.216
	c0.008-0.095,0.017-0.189,0.025-0.284c-1.171-0.13-2.343-0.251-3.513-0.392c-0.847-0.102-1.721-0.161-2.23-1.014
	c-0.101-0.17-0.291-0.336-0.168-0.548c0.121-0.209,0.366-0.165,0.557-0.134c1.883,0.303,3.735,0.351,5.482-0.597
	c0.214-0.116,0.403-0.061,0.497,0.179c0.399,1.019,1.372,1.481,2.09,2.193c0.811,0.804,1.555,1.674,2.434,2.432
	c-0.503-1.229-1.28-2.264-2.288-3.109c-1.902-1.594-2.167-1.63-0.536-4.183c0.886-1.386,0.837-1.823-0.465-2.932
	c-0.843-0.719-1.38-1.597-1.382-2.733c-0.001-0.668,0.228-1.16,0.968-1.364c0.791-0.219,0.778,0.448,1.052,0.819
	c1.486,2.013,3.397,3.561,5.647,4.57c1.269,0.569,2.763,0.095,4.154,0.174c1.092,0.062,1.172,0.112,0.956,1.195
	c-0.172,0.861-0.436,1.569-1.427,1.893c-0.806,0.264-1.239,0.915-1.28,1.888c-0.048,1.154-0.165,2.306-0.157,3.465
	c0.003,0.379-0.069,0.745-0.182,1.098c0.512-0.707,1.015-1.422,1.502-2.147c-0.008-0.46-0.05-0.923-0.14-1.392
	c-0.108-0.565,0.119-1.164,0.543-1.594c0.489-0.496,1.003-0.828,1.621-0.194c0.756-1.254,1.474-2.532,2.158-3.832
	c-0.955-1.308-2.26-1.807-3.977-1.478c-0.066,0.013-0.141-0.004-0.203,0.018c-2.13,0.765-3.802-0.127-5.386-1.44
	c-0.626-0.519-1.329-0.948-2.005-1.406c-0.497-0.337-0.827-0.781-1.037-1.348c-0.188-0.509-0.133-0.854,0.426-1.033
	c2.185-0.702,3.927-2.151,5.732-3.473c0.699-0.512,1.245-0.607,1.864,0.012c0.264,0.264,0.598,0.488,0.778,0.8
	c1.572,2.733,3.32,5.389,3.874,8.583c0.026,0.151,0.064,0.301,0.098,0.451c0.347-0.667,0.687-1.338,1.015-2.016
	c-0.23-1.567-1.074-2.867-1.862-4.216c-0.574-0.982-1.079-2.004-1.649-3.073c0.561-0.05,0.758,0.285,1.049,0.431
	c1.387,0.694,2.631,1.704,4.317,1.695c0.145-0.001,0.265,0.017,0.396,0.026c0.21-0.531,0.412-1.066,0.61-1.603
	c-0.408,0.002-0.816,0.004-1.224,0.001c-0.829-0.006-1.523-0.279-1.799-1.081c-0.471-1.367-1.435-2.088-2.781-2.421
	c-0.293-0.073-0.563-0.24-0.844-0.365c-0.19-0.085-0.354-0.174-0.355-0.434c-0.001-0.969,1.118-1.958,2.095-1.887
	c1.531,0.111,3.018,0.636,4.558,0.555c0.811-0.042,1.454,0.173,1.994,0.626c0.072-0.246,0.143-0.493,0.213-0.74
	c-0.285-0.252-0.629-0.424-1.013-0.395c-1.903,0.148-3.692-0.642-5.574-0.619c-0.287,0.003-0.716,0.064-0.699-0.378
	c0.015-0.389,0.284-0.703,0.732-0.711c0.269-0.005,0.544,0.036,0.81,0.088c1.721,0.336,3.439,0.38,5.186,0.161
	c0.36-0.045,0.72-0.083,1.08-0.116c0.051-0.205,0.101-0.41,0.15-0.616c-2.001,0.332-4.009,0.42-6.025-0.039
	c-1.008-0.229-1.092-0.283-0.574-1.129c0.374-0.61,0.784-1.198,1.179-1.795c1.259-1.901,2.284-1.504,3.815-0.136
	c0.25,0.224,0.408,0.547,0.644,0.79c0.173,0.178,0.352,0.452,0.702,0.241c-0.053-0.504-0.486-0.806-0.655-1.244
	c-0.191-0.496-0.32-0.966,0.239-1.378c0.356,0.345,0.19,0.799,0.32,1.165c0.134,0.38,0.246,0.464,0.828,0.62
	c-0.568-1.15-0.62-1.361-0.572-2.324c0.041-0.814,0.685-1.393,1.408-1.489c0.084-0.565,0.163-1.132,0.234-1.701
	c-0.158,0.159-0.347,0.257-0.599,0.226c-0.753-0.094-1.121-0.831-1.292-1.558c-0.147-0.627-0.232-1.269-0.334-1.848
	c-0.016-0.563,0.22-0.696,0.621-0.42c0.625,0.431,1.238,0.881,1.85,1.33c0.035-0.367,0.068-0.734,0.098-1.102
	c-0.002-0.001-0.003-0.002-0.004-0.003c-0.429-0.337-0.841-0.699-1.29-1.007c-0.748-0.513-1.541-0.841-2.497-0.617
	c-0.492,0.115-1.012,0.1-1.509-0.105c-0.695-0.286-0.862-0.66-0.222-1.172c0.639-0.511,1.278-1.026,1.954-1.487
	c1.498-1.02,1.507-1.007,2.548,0.459c0.338,0.475,0.752,0.785,1.198,0.93c0.007-0.168,0.013-0.337,0.019-0.505
	c-0.397-0.098-0.62-0.441-1.089-1.238c-0.366-0.623-0.224-0.973,0.438-1.11c0.232-0.048,0.466-0.084,0.7-0.125
	c0-0.052,0.002-0.103,0.002-0.155c0-0.769-0.015-1.534-0.038-2.298c-0.28,0.252-0.532,0.56-0.748,0.94
	c-0.094,0.165-0.288,0.317-0.469,0.382c-2.163,0.77-3.871,2.27-5.712,3.554c-0.591,0.413-1.116,0.417-1.649-0.097
	c-0.711-0.687-1.434-1.362-2.167-2.026c-0.641-0.58-0.482-1.024,0.253-1.265c2.051-0.675,3.904-1.785,5.887-2.61
	c0.869-0.361,1.646-0.439,2.519,0.09c0.676,0.41,1.479,0.433,2.053,0.13c-0.021-0.506-0.047-1.011-0.078-1.514
	c-0.598,0.79-0.746,0.744-1.729-0.002c-0.901-0.683-1.642-0.581-2.609-0.054c-2.304,1.257-4.725,2.282-7.199,3.171
	c-0.616,0.222-1.2,0.249-1.675-0.319c-0.459-0.548-0.946-1.075-1.392-1.633c-0.204-0.254-0.504-0.561-0.222-0.905
	c0.259-0.316,0.65-0.184,0.953-0.047c0.62,0.281,1.211,0.625,1.825,0.922c0.278,0.135,0.543,0.37,1.111,0.252
	c-0.606-0.403-1.057-0.694-1.498-0.998c-0.44-0.304-0.871-0.621-1.329-0.95c0.355-0.336,0.844-0.576,1.069-0.414
	c0.941,0.677,2.114,0.396,3.097,0.884c1.117,0.554,3.669,0.003,4.511-0.901c-0.167,0.024-0.302,0.029-0.428,0.063
	c-1.513,0.405-2.965,0.813-4.568,0.078c-0.714-0.328-1.638-0.274-2.389-0.729c-0.374-0.227-0.805-0.056-1.186,0.099
	c-0.505,0.206-0.985,0.477-1.498,0.656c-0.49,0.172-1.203,0.616-1.469,0.032c-0.299-0.654,0.559-0.807,1-1.013
	c1.848-0.865,3.832-1.46,5.407-2.849c0.165-0.145,0.439-0.219,0.667-0.231c1.06-0.053,1.987-0.485,2.866-1.013
	c0.812-0.488,1.56-0.988,1.973,0.404c0.042,0.141,0.214,0.278,0.36,0.348c1.435,0.687,2.676,1.599,3.55,2.958
	c0.009,0.014,0.112-0.034,0.221-0.069c-0.497-0.935-0.878-1.921-1.944-2.408c-0.409-0.187-1.088-0.37-0.984-0.873
	c0.086-0.42,0.775-0.222,1.192-0.305c0.601-0.12,1.18-0.203,1.714-0.148c-0.033-0.234-0.063-0.468-0.098-0.701
	c-0.104,0.007-0.21,0.019-0.319,0.037c-0.537,0.093-1.064,0.266-1.604,0.315c-0.573,0.053-1.167,0.313-1.746-0.085
	c0.858-0.18,1.8-0.106,2.552-0.515c0.332-0.18,0.668-0.324,1.006-0.45c-0.056-0.352-0.114-0.705-0.175-1.056
	c-1.188,0.427-2.473,0.292-3.682,0.573c-0.271,0.063-0.465-0.034-0.575-0.293c-0.135-0.316-0.1-0.597,0.157-0.839
	c0.388-0.365,0.876-0.514,1.377-0.634c0.801-0.192,1.61-0.318,2.423-0.415c-0.036-0.185-0.069-0.371-0.107-0.555
	c-0.713,0.092-1.426,0.182-2.137,0.296c-1.607,0.257-2.944,1.031-4.109,2.139c-0.771,0.733-1.662,1.304-2.547,1.882
	c-0.33,0.216-0.727,0.357-1.061,0.146c-0.432-0.274-0.124-0.703-0.017-1.02c0.569-1.682,1.541-3.097,2.888-4.265
	c0.93-0.806,0.965-1.249,0.302-2.288c-0.44-0.689-0.864-1.388-1.306-2.076c-0.29-0.452-0.151-0.672,0.35-0.78
	c1.885-0.407,3.642,0.628,4.118,2.482c0.244,0.95,0.409,1.92,0.625,2.953c0.631-0.384,0.572-0.973,0.492-1.514
	c-0.17-1.161-0.603-2.247-1.211-3.239c-0.85-1.385-3.391-2.038-4.96-1.29c-0.779,0.371-1.587,0.613-2.418,0.805
	c-0.457,0.105-0.736-0.039-0.744-0.548c-0.001-0.068-0.001-0.137-0.005-0.205c-0.105-1.728-0.105-1.727,1.569-1.97
	c1.258-0.183,2.509-0.502,3.613-1.079c1.287-0.673,2.528-0.685,3.777-0.423c-0.287-0.811-0.583-1.617-0.896-2.415
	c-1.251-0.128-2.499,0.03-3.754,0.488c-0.383,0.14-0.809,0.172-1.177,0.339c-2.405,1.084-4.467,0.505-6.414-1.14
	c-1.196-1.011-2.464-1.942-3.604-3.02c-1.074-1.015-2.284-1.567-3.793-1.409c-0.851,0.089-1.698-0.024-2.537-0.214
	c-0.479-0.109-0.657-0.3-0.41-0.776c0.452-0.87,0.915-1.703,2.107-1.623c0.381,0.026,0.778-0.062,1.025-0.374
	c0.839-1.057,1.652-2.135,2.387-3.281c-0.859,0.328-1.336,1.073-1.926,1.675c-0.399,0.407-0.786,0.767-1.377,0.768
	c-1.159,0.002-1.943,0.642-2.459,1.569c-0.684,1.231-1.602,1.696-3.016,1.469c-0.995-0.16-2.034,0.048-3.031-0.309
	c-0.577-0.207-0.752-0.502-0.544-1.069c0.152-0.415,0.251-0.85,0.398-1.267c0.424-1.206,0.153-2.203-0.846-3.011
	c-0.714-0.579-0.985-1.37-0.997-2.261c-0.01-0.781-0.002-1.562-0.002-2.445c0.849,0.419,1.371-0.221,1.98-0.637
	c0.517-0.353,1.07-1.12,1.624-0.78c0.408,0.25-0.239,1.016-0.291,1.577c-0.084,0.899-0.624,1.561-1.143,2.242
	c-0.3,0.394-0.625,0.79-0.672,1.492c0.505-0.609,0.914-1.09,1.309-1.583c0.282-0.353,0.516-0.445,0.701,0.071
	c0.034,0.096,0.057,0.218,0.127,0.276c1.347,1.117,2.004,2.594,2.24,4.304c-0.048-1.506,0.035-3.023-1.38-4.068
	c-1.139-0.841-0.535-3.406,0.116-4.282c0.296-0.399,0.702-0.108,1.01,0.075c0.674,0.4,1.315,0.855,1.987,1.259
	c0.334,0.201,0.637,0.511,1.278,0.439c-0.891-0.974-1.934-1.528-2.883-2.198c-0.275-0.194-0.688-0.363-0.77-0.627
	c-0.16-0.513-0.757-1.008-0.516-1.473c0.242-0.468,0.936-0.178,1.427-0.207c1.929-0.113,3.891-0.276,4.909,2.05
	c0.037-0.859-0.499-1.328-0.821-1.883c0.101-0.057,0.132-0.09,0.16-0.088c2.076,0.179,2.101,0.183,1.785,2.255
	c-0.257,1.682-0.598,3.351-0.872,5.031c-0.218,1.332-0.944,2.137-2.277,2.419c-0.352,0.075-0.736,0.152-1.007,0.453
	c1.444,0.543,3.415-0.46,3.808-1.984c0.529-2.046,0.954-4.116,1.26-6.208c0.189-1.292,0.71-1.66,1.945-1.286
	c0.26,0.079,0.548,0.145,0.755,0.306c1.437,1.115,3.049,1.635,4.754,1.839c-1-1.365-2.044-2.695-3.132-3.988
	c-0.003-0.002-0.005-0.003-0.008-0.005c-0.814-0.622-1.715-1.113-2.755-1.289c-2.292-0.388-4.602-0.624-6.919-0.468
	c-0.793,0.053-1.214-0.175-1.562-0.802c-0.616-1.109-1.457-1.919-2.723-2.32c-0.935-0.296-1.805-0.802-2.697-1.229
	c-0.412-0.197-0.835-0.462-0.716-0.994c0.275-1.228-0.14-2.44-0.028-3.662c0.107-1.16-0.41-1.778-1.513-2.325
	c-1.807-0.897-3.832-1.832-3.529-4.48c-0.278,0.157-0.034,0.825-0.528,0.667c-0.29-0.093-0.661-0.416-0.589-0.861
	c0.033-0.202,0.258-0.472,0.556-0.736c-4.856-2.54-10.02-4.57-15.423-6.02c-1.826-0.273-3.682-0.414-5.458-0.874
	c-0.797-0.206-1.568-0.473-2.322-0.781C83.987,0.323,79.996,0,75.929,0c-3.608,0-7.155,0.257-10.628,0.744
	c-1.227,2.013-2.932,3.144-5.458,3.208c-3.356,0.085-6.697,0.327-10.031,0.658c-4.518,1.655-8.833,3.729-12.902,6.171
	c4.703-0.16,9.406-0.355,14.086-0.939c1.211-0.151,2.453-0.061,3.68-0.071c0.196-0.002,0.462-0.024,0.532,0.205
	c0.077,0.254-0.104,0.48-0.31,0.593c-0.537,0.293-1.086,0.57-1.65,0.808c-0.918,0.386-1.758,0.819-2.418,1.637
	c-0.705,0.873-2.372,0.849-3.168,0.086c-0.753-0.722-1.574-1.12-2.68-0.872c-0.906,0.203-1.725-0.172-2.487-0.683
	c-0.41-0.275-0.795-0.756-1.492-0.449c1.384,1.004,2.65,2.033,4.463,1.606c0.234-0.055,0.543,0.063,0.776,0.182
	c0.409,0.209,1.043,0.33,1.02,0.866c-0.02,0.455-0.67,0.345-1.002,0.557c-1.146,0.733-2.504,0.552-3.746,0.873
	c-0.582,0.151-0.83-0.237-1.08-0.698c-0.565-1.039-1.588-1.535-2.662-1.086c-1.053,0.44-1.834,0.126-2.647-0.438
	c-0.135-0.093-0.284-0.165-0.5-0.289c0.732,1.307,1.654,1.721,2.928,1.336c0.407-0.123,0.807-0.203,1.201-0.058
	c0.609,0.225,1.337,0.457,1.348,1.222c0.011,0.685-0.739,0.696-1.214,0.907c-1.158,0.515-2.58,0.497-3.396,1.698
	c-2.516,0.632-4.975,1.47-7.351-0.641c-0.194-0.172-0.416-0.336-0.651-0.491c-0.166,0.133-0.332,0.265-0.496,0.4
	c0.746,0.553,1.537,1.042,2.409,1.415c0.188,0.08,0.401,0.11,0.575,0.21c0.305,0.175,0.907,0.177,0.815,0.611
	c-0.088,0.412-0.715,0.539-1.041,0.384c-1.215-0.575-2.536,0.143-3.768-0.396c-0.323-0.141-0.794,0.42-1.383,0.354
	c-0.18-0.02-0.35-0.05-0.517-0.084c-0.148,0.134-0.296,0.268-0.443,0.403c0.154,0.053,0.308,0.108,0.48,0.141
	c1.686,0.321,3.379-0.036,5.123,0.189c-0.751,0.241-1.447,0.335-2.164,0.18c-0.307-0.066-0.651-0.105-0.897,0.078
	c-0.673,0.501-1.352,0.288-2.041,0.104c-0.322-0.086-0.645-0.172-0.967-0.258c-0.711,0.663-1.412,1.336-2.097,2.026
	c0.884,0.374,1.767,0.739,2.728,0.86c0.466,0.059,0.45,0.822,1.05,0.563c0.591-0.254,1.158-0.021,1.665,0.252
	c0.617,0.332,1.68,0.348,1.582,1.315c-0.1,0.993-1.117,1.053-1.899,1.258c-0.384,0.101-0.858-0.036-1.186,0.42
	c1.846,0.254,2.555-0.04,3.496-1.457c0.204-0.308,0.393-0.343,0.663-0.149c0.227,0.163,0.426,0.356,0.403,0.668
	c-0.028,0.376-0.333,0.505-0.619,0.601c-1.298,0.439-2.64,0.692-4.004,0.778c-3.304,0.209-6.651,0.322-9.745,1.588
	c-0.028,0.011-0.056,0.021-0.084,0.032c-1.075,1.371-2.104,2.781-3.084,4.226C14.836,32.954,16.555,32.315,18.215,31.457z
	 M14.634,68.003c-0.948-0.606-1.864-1.221-3.082-0.631c-0.228,0.11-0.832,0.274-0.885-0.269c-0.04-0.408,0.366-0.631,0.789-0.619
	c0.701,0.021,1.259-0.208,1.65-0.816c0.162-0.253,0.418-0.437,0.652-0.112c0.629,0.872,1.423,1.637,1.875,2.745
	C15.143,68.35,14.883,68.162,14.634,68.003z M16.98,68.541c-0.645-1.129-1.641-2.055-2.466-3.084
	c-0.199-0.248-0.306-0.57-0.062-0.842c0.223-0.249,0.506-0.098,0.757,0.008c0.915,0.386,1.776,0.864,2.559,1.483
	c0.447,0.354,0.849,0.783,1.556,1.032c-0.399-0.861-0.946-1.432-1.625-1.845c-0.988-0.601-1.985-1.183-3.084-1.59
	c-0.966-0.358-1.363-1.283-1.457-2.185c-0.193-1.857-0.736-3.607-1.414-5.313c-0.368-0.925-0.13-1.456,0.619-1.98
	c2.222-1.553,4.672-2.668,7.11-3.814c1.573-0.739,3.132-1.511,4.679-2.304c2.211-1.134,4.552-1.026,6.905-0.749
	c0.843,0.099,1.668,0.344,2.505,0.503c0.771,0.147,0.987,0.48,0.531,1.197c-0.767,1.205-1.102,1.318-2.625,0.74
	c-1.413-0.536-2.208-0.204-2.897,1.166c-0.198,0.393-0.464,0.756-0.73,1.109c-0.506,0.672-1.203,0.812-1.75,0.201
	c-1.487-1.66-3.148-1.276-4.861-0.556c-0.768,0.323-1.506,0.714-2.213,1.184c0.849,0.059,1.612-0.247,2.318-0.572
	c1.516-0.699,2.84-0.46,4.101,0.534c0.321,0.253,0.648,0.499,0.973,0.749c0.691,0.532,1.243,0.374,1.728-0.312
	c0.246-0.348,0.377-0.808,0.835-0.991c0.195,1.027-1.114,2.231-2.139,1.904c-0.889-0.284-1.701-0.649-2.593,0.021
	c-0.321,0.241-0.638-0.087-0.834-0.385c-0.235-0.357-0.45-0.727-0.747-1.05c-0.012,0.761,0.364,1.352,0.788,1.918
	c0.319,0.426,0.734,0.297,1.111,0.124c0.717-0.331,1.406-0.412,2.152-0.052c0.434,0.21,0.926,0.207,1.388-0.019
	c0.186-0.091,0.407-0.166,0.557,0.04c0.167,0.23,0.051,0.46-0.096,0.657c-0.52,0.696-1.24,0.855-2.008,0.591
	c-0.732-0.252-1.401-0.197-2.08,0.113c-0.673,0.308-1.36,0.553-2.151,0.345c0.444,0.474,0.961,0.624,1.503,0.516
	c1.145-0.229,2.283-0.254,3.45-0.178c1.464,0.096,2.231-0.705,2.196-2.163c-0.013-0.537,0.097-0.998,0.387-1.448
	c0.232-0.36,0.549-0.733,0.257-1.217c-0.114-0.188-0.193-0.384,0.068-0.509c0.234-0.112,0.388,0.049,0.514,0.215
	c0.4,0.526,0.406,1.031,0.005,1.589c-0.57,0.792-0.678,1.376-0.559,2.463c0.54-0.42,0.312-1.107,0.646-1.532
	c0.193-0.245,0.28-0.797,0.673-0.604c0.382,0.188,0.095,0.595-0.07,0.889c-0.217,0.386-0.404,0.794-0.66,1.153
	c-0.657,0.92-1.077,1.806-0.145,2.828c0.304,0.333,0.235,0.835,0.142,1.283c-0.084,0.407-0.08,0.807,0.239,1.258
	c0.399-1.025,0.653-2.111,0.253-2.978c-0.586-1.269,0.198-1.879,0.903-2.915c0.283,2.602,2.412,3.387,3.917,4.73
	c0.75,0.669,1.623,0.987,2.641,0.83c0.167-0.026,0.342-0.025,0.511-0.007c0.428,0.046,0.997-0.051,1.131,0.477
	c0.118,0.465-0.408,0.652-0.709,0.905c-0.764,0.641-1.532,1.285-2.652,0.936c-0.293-0.091-0.568-0.174-0.801-0.411
	c-1.104-1.124-1.774-1.153-3.193-0.117c0.664,0.108,1.191-0.174,1.742-0.266c0.343-0.057,0.702,0.035,0.74,0.369
	c0.059,0.527-0.426,0.294-0.666,0.314c-2.49,0.215-4.964,0.125-7.427-0.347c-0.591-0.113-1.274-0.176-1.825,0.008
	c-2.461,0.821-3.91-0.859-5.368-2.226c-0.999-0.937-1.75-2.083-3.274-2.214c-0.421-0.036-0.713-0.385-0.991-0.687
	c-0.619-0.674-1.226-1.358-1.989-1.909c0.225,0.838,0.821,1.399,1.314,2.033c0.701,0.901,1.401,1.725,2.693,1.806
	c0.635,0.04,1.037,0.632,1.335,1.179c0.883,1.621,2.639,2.201,3.94,3.322c0.298,0.257,0.73,0.174,1.074-0.016
	c1.962-1.083,3.357,0.201,4.835,1.144c0.224,0.143,0.161,0.328,0.081,0.535c-0.781,2.025-2.762,2.563-4.441,1.214
	c-0.397-0.319-0.811-0.633-1.259-0.868c-0.934-0.489-1.686-1.14-2.182-2.084c-0.221-0.42-0.501-0.807-1.204-0.982
	c0.684,1.552,1.303,2.899,2.836,3.536c0.835,0.347,1.412,1.012,2.026,1.771c-0.774,0.294-1.482,0.477-2.231,0.531
	c-0.523,0.037-0.884-0.156-1.236-0.552c-1.109-1.248-2.285-2.437-3.264-3.798c-0.166-0.231-0.349-0.493-0.921-0.603
	c0.418,0.624,0.71,1.096,1.038,1.543c0.726,0.99,1.459,1.975,2.209,2.946c0.308,0.399,0.212,0.523-0.205,0.821
	C19.022,69.97,17.978,70.288,16.98,68.541z M40.677,33.394c0.055,0.082,0.086,0.187,0.101,0.286
	c0.008,0.057-0.041,0.121-0.139,0.381c-0.657-1.015-1.141-2.112-2.472-2.199c-1.181-0.077-2.264,0.33-3.597,0.681
	c0.523-0.778,1.031-1.25,1.603-1.659c0.998-0.714,1.944-1.479,2.824-2.344c0.753-0.74,1.853-0.789,2.822-1.068
	c0.396-0.114,0.309,0.272,0.238,0.48c-0.354,1.029-0.594,2.129-1.221,3.018C40.246,31.802,40.109,32.543,40.677,33.394z
	 M41.443,31.794c0.597-1.373,1.205-2.742,1.807-4.114c0.168-0.383,0.396-0.702,0.789-0.898c1.072-0.534,1.313-0.426,1.54,0.759
	c0.218,1.134,0.549,2.25,0.614,3.625c-0.196,0.968-0.431,2.133-0.668,3.298c-0.099,0.489-0.364,0.604-0.814,0.389
	c-0.589-0.281-1.221-0.419-1.866-0.507C41.48,34.159,40.885,33.078,41.443,31.794z M46.782,27.316
	c-0.038-0.234-0.07-0.471-0.08-0.708c-0.004-0.088,0.063-0.178,0.186-0.497c1.806,2.338,3.858,2.943,6.31,1.29
	c-0.534-0.231-1.022-0.005-1.527,0.157c-1.526,0.489-3.124-0.13-3.895-1.461c-0.227-0.391-0.004-0.464,0.288-0.557
	c2.564-0.818,5.128-1.637,7.69-2.464c0.453-0.146,0.639,0.01,0.632,0.47c-0.023,1.674,0.3,3.321,0.399,4.986
	c0.085,1.421-0.194,2.71-1.43,3.629c-0.353,0.262-0.683,0.576-0.957,0.92c-1.612,2.021-3.649,2.981-6.258,2.613
	c-0.447-0.063-0.865,0.152-1.292,0.267c-0.541,0.147-0.793-0.1-0.696-0.645c0.078-0.435,0.137-0.893,0.321-1.287
	C47.497,31.826,47.151,29.575,46.782,27.316z M58.263,36.179c0.31,0.376,0.297,0.624-0.218,0.823
	c-1.714,0.661-3.426,1.33-5.115,2.051c-0.868,0.37-1.641,0.265-2.435-0.166c-0.952-0.517-1.858-1.093-2.663-1.927
	c1.104-0.064,2.097-0.563,3.182-0.564c1.161-0.001,2.117-0.449,2.899-1.281c0.816-0.868,1.59-1.776,2.421-2.63
	c0.921-0.946,1.357-2.1,1.589-3.36c0.055-0.297,0.034-0.618,0.328-0.918c1.796,2.103,1.853,3.693,0.181,5.78
	C57.849,34.715,57.616,35.394,58.263,36.179z M66.036,52.316c-0.107,1.219-0.272,2.675-0.351,4.136
	c-0.05,0.915-0.424,1.621-1.044,2.254c-1.052,1.074-1.953,2.214-2.478,3.689c-0.642,1.801-3.679,3.336-5.63,3.048
	c-0.843-0.125-1.298-0.691-1.58-1.435c-0.398-1.051-0.782-2.108-1.183-3.159c-0.109-0.286-0.295-0.547-0.376-0.838
	c-0.156-0.56-1.073-0.779-0.828-1.41c0.354-0.913,0.877-1.779,1.696-2.389c1.453-1.081,3.002-2.015,4.601-2.856
	c1.869-0.984,3.754-1.944,5.672-2.826c1.424-0.655,1.532-0.538,1.503,1.033C66.033,51.733,66.036,51.904,66.036,52.316z
	 M40.275,55.447c1.046,0.645,1.4,1.6,1.395,2.774c-0.002,0.506,0.146,1.012,0.168,1.52c0.022,0.528-0.17,0.843-0.723,0.431
	c-0.448-0.334-0.964-0.339-1.469-0.321c-1.048,0.036-1.591-0.477-1.71-1.481c-0.165-1.386-0.336-2.771-0.463-4.161
	c-0.068-0.747-0.061-1.519-0.334-2.213c-0.297-0.758,0.134-0.84,0.658-0.868c0.785-0.041,1.45,0.326,2.103,0.702
	c2.712,1.563,5.235,3.459,8.202,4.573c0.7,0.263,1.341,0.702,1.41,1.714c-0.557-0.097-1.015-0.178-1.59-0.278
	c0.246,0.377,0.543,0.416,0.809,0.511c1.032,0.366,1.135,0.716,0.355,1.465c-1.142,1.098-2.583,1.767-3.898,2.615
	c-0.147,0.095-0.33,0.171-0.477,0.045c-0.94-0.805-2.166-1.379-2.327-2.827c-0.076-0.677-0.167-1.352-0.231-2.03
	c-0.152-1.617-0.802-2.387-2.492-2.908C39.675,55.123,40.014,55.286,40.275,55.447z M35.177,66.498
	c1.303-1.962,3.593-2.01,5.893-1.264c-1.157,0.755-2.303,1.26-2.956,2.359c-0.129,0.218-0.419,0.285-0.641,0.146
	c-0.935-0.589-1.891-0.657-2.919-0.254c-0.223,0.087-0.529-0.041-0.933-0.084C34.3,67.193,34.854,66.985,35.177,66.498z
	 M32.977,66.973c-0.771,0.097-1.549,0.15-2.363,0.225c-0.197-0.088-0.749,0.231-0.638-0.255c0.116-0.507-0.118-1.463,0.791-1.405
	c1.166,0.074,2.289-0.095,3.427-0.232c0.154-0.019,0.385-0.001,0.465,0.096c0.151,0.181-0.015,0.379-0.122,0.548
	C34.174,66.527,33.652,66.888,32.977,66.973z M37.114,59.513c-0.168-0.096-0.388-0.194-0.578-0.334
	c-0.932-0.685-1.857-1.381-2.783-2.075c-0.807-0.605-0.947-1.537-1.161-2.424c-0.058-0.241,0.084-0.47,0.279-0.625
	c0.264-0.209,0.431,0.034,0.618,0.164c0.838,0.583,1.649,1.208,2.518,1.74c1.225,0.751,1.275,2.006,1.493,3.201
	C37.545,59.41,37.44,59.556,37.114,59.513z M46.485,49.587c1.382,0.453,1.805,1.871,2.343,3.072c0.271,0.605-0.17,0.588-0.6,0.466
	c-2.431-0.69-4.854-1.394-6.857-3.054c-0.416-0.345-0.895-0.614-1.401-0.955c0.379-0.439,0.851-0.566,1.269-0.786
	c0.502-0.264,1.012-0.251,1.441,0.092c0.446,0.357-0.115,0.738-0.062,1.279C43.914,47.935,45.253,49.183,46.485,49.587z
	 M49.809,62.26c0.735-0.564,1.375-1.228,1.791-2.068c0.338-0.683,0.634-0.554,0.993-0.017c0.573,0.858,0.898,1.831,1.312,2.762
	c0.221,0.497,0.391,1.017,0.608,1.516c0.706,1.618,0.694,1.675-1.005,2.057c-0.928,0.208-1.871,0.346-2.66,0.49
	c-0.948-0.031-1.621-0.287-2.046-1.007c-0.086-0.145-0.254-0.378-0.206-0.446C49.294,64.557,48.71,63.103,49.809,62.26z
	 M59.999,67.239c1.347-0.187,2.473-0.725,3.059-2.185c0.501-1.248,1.315-2.371,2.123-3.781c-0.156,1.862-0.266,3.489-0.453,5.108
	c-0.033,0.284-0.361,0.566-0.607,0.79c-1.972,1.794-4.177,3.275-6.403,4.724c-1.241,0.807-2.575,0.766-3.931,0.342
	c-1.509-0.472-2.999-0.474-4.508,0.048c-0.992,0.343-2.031,0.526-3.136,0.425c0.686-0.368,1.35-0.786,2.062-1.095
	C52.055,69.942,55.738,67.831,59.999,67.239z M46.627,74.13c0.291,0.079,0.606,0.068,1.037,0.112
	c0.586-0.086,1.296-0.163,1.994-0.299c0.765-0.148,1.487-0.04,2.195,0.243c0.249,0.1,0.548,0.174,0.591,0.496
	c0.05,0.381-0.266,0.541-0.53,0.669c-0.671,0.326-1.346,0.654-2.047,0.904c-1.589,0.565-3.009,1.412-4.333,2.44
	c-0.728,0.565-1.507,1.044-2.365,1.394c-0.879,0.358-1.504,0.085-1.972-0.71c-0.389-0.66-0.508-1.4-0.707-2.119
	c-0.089-0.32,0.08-0.505,0.305-0.689c0.446-0.366,0.897-0.73,1.315-1.128C43.391,74.219,44.848,73.646,46.627,74.13z M51.737,81.592
	c1.351-1.146,2.739-2.243,4.128-3.342c2.183-1.727,4.788-2.563,7.313-3.56c1.074-0.424,1.314-0.167,1.134,0.935
	c-0.298,1.823-0.398,3.651-0.188,5.492c0.256,2.242-0.363,4.327-1.244,6.338c-0.496,1.132-1.382,1.472-3.584,1.451
	c-2.074-0.062-4.461-0.494-6.664-1.542C49.971,86.098,49.466,83.518,51.737,81.592z M63.845,97.271
	c0.252-0.597,0.523-1.176,1.058-1.838c0.455,1.682,0.22,3.233,0.441,4.742c0.053,0.359-0.294,0.593-0.516,0.848
	c-1.614,1.854-1.819,2.843-0.279,4.876c1.952,2.578,0.662,5.167,0.508,7.789c-2.251-2.478-4.399-4.902-3.37-8.652
	C62.398,102.446,62.793,99.769,63.845,97.271z M65.693,44.526c-3.462,2.98-6.978,5.886-10.899,8.262
	c-0.82,0.497-1.628,0.999-2.576,1.209c-0.946,0.21-2.113-0.303-2.347-1.16c-0.678-2.487-2.26-3.904-4.753-4.511
	c-1.519-0.37-1.569-0.805-0.594-2.088c0.671-0.883,1.481-1.339,2.639-1.488c3.347-0.432,6.641-1.153,9.776-2.464
	c0.272-0.114,0.536-0.287,0.911-0.209c-0.16,0.835-0.923,1.444-0.858,2.464c0.634-0.548,0.873-1.254,1.245-1.852
	c0.535-0.86,1.161-1.551,2.116-1.984c1.115-0.505,2.167-1.145,3.138-1.905c0.525-0.411,1.116-0.64,1.8-0.602
	c0.993,0.055,1.601,0.645,1.551,1.628c-0.053,1.052-0.198,2.1-0.285,3.151C66.503,43.633,66.186,44.101,65.693,44.526z
	 M45.465,40.225c0.273-0.772,0.183-1.976,1.053-2.145c0.658-0.128,1.055,0.929,1.083,1.613c0.048,1.173-1.155,0.44-1.488,0.908
	C45.726,40.576,45.311,40.662,45.465,40.225z M42.276,37.104c0.367,0.122,0.611,0.613,0.911,0.937
	c0.112,0.121,0.224,0.243,0.337,0.364c-0.026-0.722-0.478-1.184-0.86-1.688c-0.266-0.352-0.698-0.774-0.444-1.162
	c0.275-0.42,0.8-0.105,1.204,0.04c2.196,0.789,2.307,2.209,0.902,4.144c-1.254,1.727-2.876,1.745-4.692,1.953
	c0.234-1.348,0.273-2.691,1.573-3.495c0.084-0.052,0.131-0.169,0.217-0.212C41.825,37.783,41.612,36.883,42.276,37.104z
	 M41.307,45.935c0.336-0.078,0.942-0.465,1.015,0.061c0.073,0.525-0.114,1.275-0.944,1.334c-0.502,0.036-1.009,0.007-1.565,0.18
	c0.234,0.123,0.468,0.246,0.766,0.402c-1.559,1.614-3.898,1.102-5.604,2.252c0.09-0.953,0.546-1.551,1.211-2.084
	C37.697,46.87,39.483,46.358,41.307,45.935z M35.363,51.804c0.213,0.996,1.179-0.447,1.453,0.457
	c0.193,0.636,0.084,1.281,0.172,1.962c-0.168,0.537,0.438,1.26-0.119,1.646c-0.185,0.128-0.916-0.529-1.394-0.831
	c-0.43-0.272-0.878-0.522-1.277-0.834c-0.338-0.265-0.961-0.457-0.559-1.088C34.047,52.476,34.553,51.93,35.363,51.804z
	 M24.675,75.598c-2.042-1.244-3.785-2.733-5.35-4.442c-0.153-0.167-0.209-0.376-0.069-0.558c0.428-0.554,0.95-0.942,1.687-1.03
	c0.671-0.08,1.002,0.279,1.277,0.79c0.792,1.467,1.592,2.929,2.376,4.4C24.702,74.957,24.855,75.168,24.675,75.598z M38.04,76.85
	c-0.068,0.129-0.253,0.256-0.398,0.275c-2.523,0.325-5.053,0.922-7.597,0.498c-2.06-0.343-3.876-1.134-4.74-3.377
	c-0.495-1.285-1.388-2.419-2.11-3.616c-0.657-1.088-0.66-1.074,0.549-1.271c0.4-0.065,0.82-0.141,1.174-0.322
	c0.658-0.338,1.283-0.421,1.946-0.055c0.444,0.244,0.927,0.247,1.175-0.208c0.781-1.436,2.142-1.107,3.344-1.096
	c0.766,0.007,1.53,0.311,2.293,0.487c0.201,0.046,0.416,0.111,0.427,0.365c0.01,0.224-0.14,0.376-0.321,0.487
	c-0.494,0.302-1.051,0.27-1.593,0.261c-1.796-0.03-3.292,0.638-4.735,2.008c0.652-0.079,0.986-0.368,1.348-0.579
	c0.84-0.49,1.723-0.816,2.715-0.765c0.344,0.018,0.766-0.014,0.858,0.385c0.098,0.426-0.412,0.349-0.623,0.532
	c-0.123,0.107-0.277,0.178-0.392,0.25c-0.005,0.198,0.127,0.23,0.189,0.18c1.602-1.274,2.995,0.313,4.503,0.376
	c0.48,0.02,0.76,0.792,0.726,1.436c-0.025,0.471-0.28,0.633-0.694,0.73c-0.568,0.134-1.085,0.194-1.428-0.411
	c-0.067-0.119-0.143-0.232-0.217-0.347c-1.254-1.921-2.401-2.092-4.223-0.484c0.588-0.139,1.189-0.239,1.76-0.428
	c0.622-0.205,1.072-0.045,1.398,0.491c0.728,1.196,1.53,2.186,3.19,1.747C37.019,74.281,38.27,76.416,38.04,76.85z M38.033,71.911
	c-0.323-0.437-0.666-0.863-0.95-1.324c-0.379-0.613-0.081-1.121,0.477-1.327c1.979-0.732,3.807-1.796,5.768-2.562
	c0.222-0.087,0.439-0.187,0.66-0.276c2.045-0.828,2.728-0.596,3.837,1.292c0.146,0.248,0.251,0.503,0.024,0.748
	c-0.196,0.211-0.441,0.148-0.662,0.038c-0.846-0.421-1.688-0.85-2.531-1.277c-0.038,0.066-0.075,0.131-0.113,0.197
	c0.808,0.546,1.616,1.093,2.434,1.646c-0.225,0.43-0.628,0.485-0.897,0.358c-0.697-0.328-1.507-0.209-2.156-0.525
	c-1.518-0.738-2.828-0.125-4.224,0.359c0.178,0.372,0.397,0.187,0.538,0.132c1.934-0.751,3.714-0.068,5.485,0.596
	c0.457,0.171,0.856,0.158,1.28-0.021c0.534-0.225,1.063-0.46,1.603-0.67c0.313-0.122,0.727-0.298,0.915,0.077
	c0.209,0.416-0.24,0.58-0.524,0.727c-0.422,0.219-0.875,0.378-1.309,0.575c-1.206,0.548-2.485,0.959-3.483,1.893
	c-0.317,0.297-0.73,0.315-1.138,0.383c-0.903,0.151-1.74,0.443-2.229,1.308c0.371,0.345,0.666-0.049,0.99,0.114
	c-0.05,0.076-0.079,0.172-0.143,0.214c-1.435,0.93-1.385,0.904-2.17-0.644C39.14,73.205,38.531,72.586,38.033,71.911z
	 M38.377,87.139c3.001-1.76,6.062-3.406,9.236-4.833c0.479-0.215,1.185-0.638,1.199,0.468c0.008,0.588-0.066,1.1-0.855,0.61
	c-0.191-0.119-0.417-0.18-0.727-0.31c0.066,0.52,0.417,0.702,0.656,0.947c0.319,0.327,0.516,0.672,0.576,1.152
	c0.086,0.687-0.092,0.85-0.748,0.629c-1.37-0.463-2.791-0.61-4.231-0.577c-0.319,0.007-0.666-0.046-1.099,0.358
	c0.978,0.198,1.788,0.364,2.6,0.525c0.501,0.099,1.009,0.166,1.504,0.289c2.502,0.62,2.82,0.652,2.952,3.785
	c0.056,1.325-0.079,2.662,0.242,3.968c0.127,0.518,0.327,1.019,0.492,1.525c0.463-0.108,0.332-0.393,0.31-0.594
	c-0.233-2.106-0.147-4.222-0.181-6.333c-0.016-0.99,0.196-1.1,1.092-0.642c1.031,0.526,2.019,1.126,3.084,1.598
	c1.587,0.704,3.241,1.019,4.955,1.114c0.306,0.017,0.622,0.011,0.914,0.088c0.457,0.121,1.016,0.245,1.086,0.793
	c0.082,0.648-0.578,0.556-0.945,0.695c-2.039,0.768-4.14,1.384-6.061,2.443c-0.4,0.221-0.889,0.362-1.06,0.896
	c0.379,0.194,0.675-0.042,0.976-0.145c1.966-0.676,3.925-1.37,5.891-2.046c0.239-0.082,0.509-0.322,0.752-0.052
	c0.214,0.238,0.053,0.516-0.02,0.774c-0.715,2.542-1.312,3.043-3.956,3.064c-1.927,0.015-3.724,0.507-5.383,1.416
	c-3.316,1.816-6.707,1.365-10.137,0.502c-0.677-0.17-0.834-0.49-0.403-1.084c0.423-0.582,0.892-1.113,1.429-1.594
	c0.824-0.738,0.894-1.384,0.325-2.352c-0.466-0.792-0.909-1.597-1.379-2.387c-0.316-0.53-0.146-0.732,0.431-0.767
	c0.972-0.059,1.898,0.116,2.8,0.467c0.613,0.239,0.869,0.754,1.019,1.323c0.304,1.152,0.639,2.3,0.682,3.504
	c0.007,0.192-0.014,0.404,0.246,0.604c0.497-0.556,0.483-1.179,0.388-1.815c-0.169-1.123-0.579-2.176-1.046-3.196
	c-0.687-1.501-3.39-2.335-5.019-1.575c-0.743,0.347-1.489,0.66-2.289,0.864c-0.585,0.149-0.836-0.02-0.867-0.609
	c-0.038-0.714-0.095-1.426-0.153-2.139C37.606,87.88,37.847,87.45,38.377,87.139z M39.583,92.067
	c1.139,0.342,2.117,1.103,2.701,2.357c0.494,1.061-0.146,1.743-0.794,2.422c-0.188,0.197-0.475,0.329-0.594,0.556
	c-0.685,1.306-1.471,0.982-2.414,0.274c-0.762-0.572-1.657-0.959-2.605-1.142c-0.52-0.101-0.607-0.322-0.409-0.773
	c0.163-0.374,0.293-0.763,0.425-1.149C36.52,92.77,37.458,92.087,39.583,92.067z M29.807,96.076
	c-0.641,0.763-1.467,0.568-2.274,0.617c-2.228-0.102-4.381-0.456-6.251-1.831c-0.597-0.439-0.628-0.775,0.08-1.051
	c1.6-0.625,3.053-1.702,3.853-3.045c1.665-2.797,4.312-2.302,6.748-2.525c1.113-0.102,2.218-0.267,3.328-0.382
	c0.565-0.059,0.787,0.101,0.95,0.619c0.534,1.696,0.136,2.946-1.417,3.809C32.968,93.319,31.186,94.436,29.807,96.076z
	 M32.779,96.483c-0.73,0.011-1.444,0.356-2.24,0.11c0.954-1.653,2.57-2.371,4.185-3.266c0.064,0.338,0.128,0.564,0.146,0.793
	C34.989,95.693,34.338,96.46,32.779,96.483z M31.644,109.739c-1.258-0.303-2.465-0.817-3.796-0.413
	c-0.291,0.088-0.605-0.005-0.531-0.389c0.132-0.694,0.153-1.489,0.822-1.916c0.913-0.583,1.735-1.337,2.832-1.601
	c0.837-0.202,1.276-0.743,1.562-1.571c0.545-1.576,1.244-3.099,1.705-4.707c0.172-0.599,0.559-0.775,1.163-0.714
	c1.348,0.136,2.432,0.834,3.508,1.564c0.357,0.242,0.284,0.564,0.175,0.912c-0.279,0.891-0.682,1.689-1.369,2.356
	c-0.645,0.626-1.21,1.335-1.81,2.008c0.099,0.078,0.198,0.157,0.297,0.235c1.065-1.468,3.158-2.062,3.393-4.244
	c0.044-0.407,0.304-0.555,0.741-0.355c1.548,0.707,3.226,0.84,4.885,0.971c0.731,0.058,0.839,0.294,0.699,0.942
	c-0.355,1.643-0.47,1.778-2.159,2.063c-1.235,0.209-2.209,0.865-3.014,1.79c-0.495,0.568-1.099,1.023-1.613,1.561
	C36.976,110.491,34.354,110.392,31.644,109.739z M32.277,116.248c0.604-0.947,1.195-1.904,1.773-2.867
	c0.237-0.394,0.501-0.849,0.985-0.772c1.198,0.188,1.875-0.614,2.674-1.232c0.27-0.209,0.526-0.742,0.911-0.43
	c0.419,0.34-0.028,0.743-0.196,1.085c-0.575,1.174-1.535,2.079-2.248,3.159c-0.263,0.398-0.712,0.49-1.165,0.545
	c-0.39,0.048-0.815,0.007-1.208,0.411c1.297,0.058,2.392,0.078,3.139-1.219c0.621-1.079,1.491-2.014,2.316-3.1
	c0.256,0.502,0.022,0.841-0.231,1.118c-1.216,1.324-2.075,2.864-2.766,4.505c-0.284,0.674-0.711,0.906-1.442,0.724
	c-0.556-0.138-1.145-0.141-1.719-0.204C32.086,117.863,31.732,117.103,32.277,116.248z M41.411,123.925
	c-1.403,0.507-2.627,1.199-3.548,2.449c-0.786,1.066-1.866,1.877-2.871,2.747c-1.362,1.178-2.974,0.994-4.565,0.932
	c-0.581-0.022-0.408-0.427-0.251-0.737c0.297-0.585,0.549-1.169,0.256-1.984c1.004,0.413,1.852,0.663,2.624,1.148
	c-0.165-0.485-0.559-0.716-0.997-0.911c-0.59-0.262-1.2-0.488-1.674-0.957c-0.247-0.244-0.53-0.499-0.435-0.871
	c0.232-0.915-0.043-1.764-0.326-2.595c-0.258-0.759-0.113-1.375,0.332-2.01c0.358-0.511,0.906-0.924,0.859-1.68
	c-0.026-0.404,0.37-0.299,0.626-0.288c0.747,0.032,1.496,0.121,2.241,0.103c0.928-0.023,1.097,0.303,0.607,1.059
	c-0.087,0.134-0.136,0.294-0.193,0.421c0.142,0.142,0.227,0.089,0.289,0.005c1.021-1.391,1.08-1.457,2.335-0.319
	c1.562,1.415,3.362,2.143,5.426,2.33c0.319,0.029,0.694-0.056,0.977,0.358C42.635,123.573,41.995,123.714,41.411,123.925z
	 M47.79,121.483c-2.337,0.817-4.312,0.56-6.387-0.623c-1.495-0.852-2.902-1.929-4.658-2.269c-0.486-0.094-0.314-0.377-0.19-0.69
	c0.668-1.694,1.509-3.278,2.818-4.574c0.782-0.774,1.002-1.579,0.252-2.517c-0.417-0.521-0.396-1.047,0.102-1.551
	c1.502-1.519,3.105-2.871,5.278-3.315c0.297-0.061,0.646-0.201,0.895-0.106c0.951,0.362,1.277-0.11,1.504-0.924
	c0.222-0.795,0.31-1.723,1.402-1.919c0.208-0.037,0.276-0.315,0.252-0.516c-0.118-1.008,0.567-1.241,1.327-1.476
	c1.946-0.601,3.818-1.502,5.667-1.394c2.807-0.062,2.977,0.124,2.2,2.448c-1.211,3.624-1.88,7.386-2.866,11.066
	c-0.167,0.623-0.457,1.216-0.595,1.844C53.955,118.767,51.151,120.309,47.79,121.483z M54.275,139
	c-0.58,0.994-0.953,2.107-1.431,3.163c-0.12,0.264-0.186,0.601-0.596,0.667c-0.087-0.08-0.208-0.156-0.28-0.264
	c-0.998-1.484-2.58-2.185-4.045-3.049c-0.586-0.346-1.146-0.739-1.699-1.136c-0.531-0.382-0.642-0.834-0.196-1.387
	c0.552-0.684,0.745-1.502,0.889-2.359c0.443-2.651,2.005-4.814,3.212-7.127c0.274-0.525,0.632-0.484,0.802,0.135
	c0.054,0.197,0.117,0.396,0.133,0.598c0.214,2.712,1.159,5.247,1.897,7.831c0.191,0.67,0.474,1.288,1.068,1.696
	C54.529,138.109,54.63,138.391,54.275,139z M59.831,126.576c-0.76,1.712-1.415,3.47-2.116,5.208
	c-0.361,0.896-0.566,1.821-0.486,3.041c0.219,0.789-0.252,1.513-1.008,2.158c-0.4,0.341-0.649,0.319-1.031-0.032
	c-0.878-0.807-1.28-1.846-1.507-2.957c-0.437-2.135-0.838-4.278-1.218-6.425c-0.142-0.803-0.281-1.653,0.157-2.405
	c1.977-3.397,3.312-7.099,5.068-10.6c0.196-0.39,0.456-0.765,0.756-1.082c0.871-0.92,1.607-0.955,2.583-0.166
	c0.822,0.665,1.589,1.409,2.465,1.99c0.778,0.515,0.737,1.038,0.447,1.8C62.717,120.328,61.227,123.431,59.831,126.576z
	 M67.409,125.758c-1.388,0.02-2.747,0.267-4.311,0.617c1.043-1.887,1.984-3.605,2.947-5.311c0.155-0.275,2.544-0.735,2.792-0.584
	c0.195,0.118,0.233,0.323,0.287,0.52c0.457,1.687,0.012,3.153-1.092,4.457C67.87,125.648,67.661,125.754,67.409,125.758z
	 M77.941,91.355c-0.846-0.61-1.13-1.601-0.646-2.633c1.925-4.101,2.396-8.517,2.664-12.939c0.131-2.161-0.25-4.349,0.065-6.528
	c0.106-0.734,0.232-1.449,0.562-2.378c0.532,1.457,0.538,2.755,0.756,4.007c0.89,5.112,1.399,10.262,1.411,15.454
	c0.004,1.533-0.028,3.071-0.157,4.597c-0.159,1.89,0.007,3.73,0.427,5.572c0.307,1.346-0.243,1.697-1.498,2.068
	c-2.377,0.702-3.557-1.197-5.215-2.055c-0.401-0.207-0.276-0.555-0.077-0.88c0.36-0.589,0.955-0.84,1.527-1.151
	C79.085,93.77,79.16,92.234,77.941,91.355z M100.699,54.081c-0.307-0.327-0.367-0.601,0.124-0.747
	c0.794-0.236,1.465-0.706,2.189-1.075c0.796-0.406,1.406-0.084,1.245,0.758c-0.317,1.658,0.044,2.898,1.502,3.858
	c0.596,0.393-0.194,0.718-0.338,1.06c-0.178,0.42-0.509,0.705-1.056,0.364c-1.038-0.647-2.087-1.28-3.166-1.855
	c-0.652-0.347-1.475-0.364-2.021-0.92c-0.339-0.345-1.097-0.635-0.596-1.273c0.409-0.521,0.969-0.41,1.522,0.018
	c0.631,0.488,1.356,0.854,2.04,1.273C101.883,54.748,101.163,54.574,100.699,54.081z M127.044,65.77
	c-1.163-0.02-2.148-0.511-3.237-1.472c1.531-0.038,2.461-0.784,3.39-1.444c1.746-1.24,3.485-2.502,4.977-4.058
	c0.827-0.863,1.926-1.274,2.968-1.758c0.743-0.346,0.721,0.232,0.581,0.687c-0.441,1.429-0.928,2.844-1.387,4.267
	c-0.313,0.97-0.614,1.944-0.907,2.92c-0.178,0.593-0.508,0.886-1.178,0.872C130.516,65.748,128.779,65.8,127.044,65.77z
	 M130.891,70.312c0.109,0.169-0.02,0.322-0.183,0.411c-0.632,0.347-1.312,0.575-2.009,0.737c-0.331,0.077-0.53-0.075-0.438-0.638
	c0.099-0.237,0.203-0.691,0.455-1.037c0.276-0.379,0.742-0.761,1.204-0.614C130.392,69.321,130.615,69.886,130.891,70.312z
	 M128.579,67.713c0.289,0.108,0.628,0.112,0.743,0.446c0.142,0.41-0.266,0.498-0.477,0.684c-0.542,0.478-1.108,0.957-1.218,1.712
	c-0.13,0.895-0.458,1.424-1.384,1.074c-0.287,0.024-0.493,0.026-0.693,0.062c-0.988,0.175-2.053,0.65-2.443-0.903
	c-0.082-0.328-0.591-0.416-0.953-0.528c-1.658-0.517-3.315-1.039-4.971-1.565c-0.291-0.092-0.59-0.181-0.854-0.328
	c-0.385-0.213-0.886-0.454-0.884-0.912c0.003-0.501,0.597-0.457,0.952-0.576c1.331-0.447,2.337-1.381,3.411-2.213
	c1.091-0.846,1.475-0.911,2.479,0.047C124.067,66.413,126.398,66.894,128.579,67.713z M111.855,83.577
	c-1.056-0.853-2.375-0.988-3.599-1.383c-3.513-1.134-6.766-2.891-10.192-4.235c-1.94-0.761-3.883-1.473-5.955-1.799
	c-2.125-0.334-3.747-1.546-5.168-3.083c-0.322-0.348-0.418-0.782-0.49-1.214c-0.19-1.142-0.304-2.298-0.533-3.432
	c-0.146-0.72,0.143-0.986,0.776-1.15c0.807-0.21,1.62-0.211,2.438-0.177c0.647,0.027,0.72,0.382,0.303,0.77
	c-0.7,0.653-0.581,1.391-0.369,2.171c0.508,1.867,1.436,3.426,3.248,4.327c-0.955-1.087-1.721-2.272-2.349-3.568
	c-0.591-1.218-0.314-2.224,0.489-3.203c0.235-0.287,0.51-0.314,0.819-0.284c1.11,0.111,2.155,0.369,2.873,1.332
	c0.326,0.437,0.647,0.878,0.983,1.306c1.428,1.82,2.434,2.075,4.095,0.769c0.855-0.672,1.805-1.225,2.734-1.797
	c2.025-1.248,4.271-0.673,5.403,1.394c0.638,1.166,1.199,2.374,1.828,3.545c0.824,1.535,1.94,1.895,3.5,1.134
	c1.032-0.503,2.105-0.758,3.256-0.716c0.715,0.026,1.433,0.036,2.146-0.009c0.671-0.042,1.337-0.165,2.021-0.255
	c0.058,0.471-0.192,0.778-0.382,1.078c-1.313,2.079-2.422,4.268-3.53,6.458c-0.34,0.672-0.752,1.295-1.298,1.826
	C113.779,84.476,113.051,84.542,111.855,83.577z M112.792,90.957c-1.617-0.959-3.024-2.103-4.112-3.602
	c-0.168-0.232-0.305-0.524-0.077-0.74c0.291-0.276,0.679-0.519,1.098-0.36c0.339,0.129,0.692,0.333,0.928,0.601
	C111.668,88.038,112.254,89.475,112.792,90.957z M99.146,87.898c-1.134-0.59-2.182-0.461-3.298,0.153
	c-1.241,0.683-2.564,0.217-3.005-0.929c-0.254-0.661-0.176-1.27,0.393-1.763c0.537-0.465,0.982-0.496,1.608-0.013
	c0.751,0.579,1.655,0.486,2.521,0.072c2.551-1.219,3.89-0.933,5.654,1.166c0.192,0.228,0.423,0.435-0.031,0.594
	c-1.06,0.373-2.214,0.395-3.162,0.905C99.537,88.007,99.322,87.989,99.146,87.898z M103.164,91.765
	c0.326,0.121,0.761,0.067,0.955,0.526c-0.405,0.37-0.859,0.078-1.266,0.091c-1.293,0.041-2.588,0.017-3.883,0.017
	c-0.485,0-0.931-0.104-0.912-0.703c0.023-0.718,0.543-0.501,0.977-0.472C100.424,91.317,101.831,91.27,103.164,91.765z
	 M103.415,108.087c-0.073-0.499-0.075-1.009-0.107-1.514c-0.072-0.371,0.085-0.555,0.423-0.322c0.499,0.344,0.993,0.712,1.424,1.135
	c0.288,0.283,0.276,0.741,0.037,1.037c-0.386,0.476-1.011,0.613-1.564,0.543C103.201,108.911,103.459,108.392,103.415,108.087z
	 M104.737,112.342c0,0.006,0.001,0.012,0.001,0.018c0.136,0,0.272,0,0.408,0c1.74-0.005,1.743-0.005,1.804,1.678
	c0.01,0.276,0.052,0.529,0.19,0.779c0.515,0.933,0.027,1.949-1.077,2.113c-1.586,0.237-3.104-0.194-4.607-0.633
	c-0.445-0.13-0.557-0.432-0.36-0.874c0.346-0.775,0.673-1.56,0.987-2.349c0.171-0.43,0.453-0.649,0.922-0.658
	C103.583,112.407,104.16,112.369,104.737,112.342z M106.594,108.221c-0.201,0.011-0.433,0.102-0.501-0.178
	c-0.067-0.276,0.089-0.479,0.345-0.54c0.504-0.12,1.023-0.146,1.503,0.082c1.042,0.494,2.072,1.013,3.24,1.587
	c-1.071,0.481-2.12,0.417-3.116,0.582c-0.566,0.094-1.156,0.056-1.735,0.054c-0.257-0.001-0.632,0.114-0.718-0.212
	c-0.102-0.384,0.208-0.628,0.542-0.752c0.647-0.241,1.306-0.45,2.236-0.766C107.562,107.921,107.09,108.194,106.594,108.221z
	 M108.445,119.813c0.732,0.352,1.451,0.622,2.21,0.059c0.194-0.144,0.458-0.243,0.644-0.009c0.144,0.182-0.022,0.386-0.101,0.568
	c-0.467,1.064-0.798,1.193-1.889,0.72c-0.844-0.366-1.687-0.735-2.519-1.126c-0.2-0.094-0.469-0.238-0.333-0.54
	c0.1-0.223,0.347-0.166,0.572-0.173C107.527,119.356,107.985,119.592,108.445,119.813z M98.01,115.312
	c-1.649-0.39-3.407-0.663-4.108-2.585c-0.058-0.159-0.136-0.312-0.183-0.474c-0.025-0.087-0.004-0.187-0.004-0.335
	c0.877,0.227,1.724,0.45,2.573,0.665c1.41,0.357,2.809,0.356,4.239,0.024c0.983-0.228,1.094-0.032,0.754,0.904
	C100.541,115.545,100.111,115.809,98.01,115.312z M102.868,109.16c-0.039,0.474-0.292,0.658-0.735,0.654
	c-2.712-0.028-5.381-0.327-7.898-1.41c-0.852-0.367-1.542-0.963-2.089-1.75c-2.309-3.324-3.691-7.053-4.84-10.89
	c-0.178-0.593,0.049-0.885,0.641-0.797c1.548,0.229,3.121,0.305,4.642,0.711c0.593,0.158,1.024,0.49,0.842,1.165
	c-0.264,0.98,0.147,1.837,0.412,2.719c0.192,0.64,0.219,1.19-0.39,1.639c-0.344,0.254-0.55,0.644-0.477,1.075
	c0.361,2.152,1.174,4.057,3.05,5.348c0.073,0.05,0.186,0.04,0.551,0.11c-1.162-1.273-2.032-2.438-2.567-3.826
	c-0.329-0.853-0.385-1.635,0.226-2.402c0.522-0.656,0.434-1.411,0.18-2.145c-0.228-0.657-0.323-1.32-0.246-2.012
	c0.064-0.575,0.379-0.736,0.834-0.431c1.449,0.969,3.091,1.552,4.618,2.363c0.7,0.372,1.12,0.922,1.252,1.75
	c0.21,1.317,0.745,2.521,1.295,3.745C102.777,106.124,102.993,107.639,102.868,109.16z M86.779,92.525
	c-0.005-0.477-0.001-0.955-0.001-1.432c0.047-2.133,0.047-2.132,2.061-2.672c0.395-0.106,0.788-0.217,1.18-0.334
	c1.714-0.51,1.868-0.468,2.775,1.102c0.579,1.002,1.117,2.029,1.628,3.067c0.349,0.709-0.85,2.066-1.83,1.93
	c-1.785-0.246-3.549-0.648-5.322-0.988C86.901,93.129,86.783,92.863,86.779,92.525z M95.637,92.55
	c-0.62-1.051-1.385-2.018-1.829-3.08c-0.068-0.399,0.066-0.544,0.38-0.48c0.532,0.108,1.091,0.159,1.586,0.362
	c1.429,0.586,1.56,2.197,0.295,3.167C95.916,92.636,95.742,92.727,95.637,92.55z M102.906,85.636
	c-1.655-1.579-3.813-2.02-5.814-0.931c-0.854,0.465-1.517,0.4-2.208-0.261c-0.928-0.888-1.543-0.875-2.374,0.164
	c-1.204,1.506-2.891,2.228-4.55,3.02c-0.613,0.293-0.865,0.059-0.741-0.546c0.493-2.394,0.431-4.812,0.378-7.233
	c-0.026-1.16,0.972-0.779,1.4-1.02c3.127,0.288,6.002,0.993,8.758,2.132c3.212,1.328,6.4,2.714,9.593,4.088
	c0.262,0.113,0.709,0.145,0.675,0.51c-0.032,0.341-0.476,0.414-0.748,0.41c-0.825-0.013-1.479,0.493-2.196,0.741
	C103.85,87.133,103.465,86.169,102.906,85.636z M83.392,56.141c-0.103-0.378-0.027-0.705,0.378-0.821
	c1.112-0.319,2.232-0.609,3.155-0.858c0.677-0.088,0.956,0.203,1.211,0.54c0.517,0.684,0.899,1.443,1.272,2.21
	c0.238,0.489,0.473,0.986,0.772,1.437c1.041,1.567,1.043,1.553-0.188,3.031c-0.211,0.253-0.417,0.322-0.706,0.246
	c-0.361-0.095-0.728-0.175-1.079-0.298c-1.588-0.559-1.887-0.345-1.742,1.281c0.053,0.595-0.003,1.163-0.416,1.634
	c-0.15,0.171-0.273,0.449-0.551,0.381c-0.226-0.055-0.223-0.325-0.257-0.513C84.742,61.628,84.138,58.869,83.392,56.141z
	 M83.731,102.628c-0.257,0.205-0.523,0.178-0.713-0.08c-0.381-0.515-1.182-0.858-0.836-1.698c0.32-0.777,0.712-1.526,1.355-2.321
	c0.299,0.922,0.539,1.663,0.78,2.404c0.01,0.032,0.024,0.064,0.033,0.097C84.539,101.716,84.246,102.218,83.731,102.628z
	 M91.732,62.747c1.03,1.058,2.454,1.422,3.754,2.199c-0.748,0.535-1.461,0.463-2.166,0.339c-0.737-0.129-1.466-0.347-2.219-0.292
	c-0.892,0.065-1.166-0.356-1.034-1.165c0.038-0.234,0.066-0.472,0.137-0.697C90.635,61.773,90.745,61.733,91.732,62.747z
	 M87.14,63.142c0.015-0.263-0.335-0.812,0.142-0.989c0.61-0.226,1.262,0.103,1.875,0.275c0.511,0.143,0.189,0.563,0.198,0.867
	c0.006,0.204-0.011,0.408-0.014,0.612c-0.013,0.833-1.317,1.628-2.1,1.288c-0.275-0.12-0.193-0.324-0.138-0.511
	C87.241,64.211,87.168,63.738,87.14,63.142z M114.716,73.47c-0.867-0.058-1.707,0.012-2.54,0.12
	c-1.148,0.149-1.796-0.295-2.193-1.334c-0.403-1.053-0.947-2.04-1.583-2.975c-1.391-2.046-4.034-2.892-6.324-1.958
	c-1.23,0.501-2.42,1.101-3.622,1.669c-1.008,0.477-2.989-0.53-3.166-1.614c-0.041-0.253,0.058-0.448,0.286-0.439
	c1.426,0.058,2.927-0.465,4.408,0.644c-0.306-0.628-0.308-0.924,0.403-0.949c2.339-0.081,4.666-0.681,7.017-0.138
	c0.464,0.107,0.925,0.239,1.372,0.402c0.866,0.315,1.577,0.769,1.651,1.832c0.03,0.438,0.206,0.858,0.764,1.115
	c0.059-0.709-0.561-1.372-0.12-1.853c0.385-0.419,1.108,0.039,1.663-0.127c0.885-0.264,1.568-0.126,2.067,0.758
	c0.252,0.446,0.801,0.608,1.305,0.743c1.778,0.475,3.554,0.955,5.331,1.435c0.263,0.071,0.525,0.149,0.786,0.229
	c0.478,0.147,0.742,0.499,0.795,0.97c0.065,0.578-0.455,0.631-0.815,0.738C119.757,73.469,117.241,73.64,114.716,73.47z
	 M102.04,62.191c1.439,0.235,2.983,0.365,4.3,1.139c0.459,0.269,0.845,0.661,1.365,1.078c-0.694,0.415-1.29,0.214-1.85,0.255
	c-1.965,0.144-3.933,0.235-5.902,0.316c-0.421,0.017-0.982,0.103-1.163-0.406c-0.174-0.489,0.354-0.682,0.656-0.913
	C100.253,63.042,101.13,62.043,102.04,62.191z M98.881,56.344c2.039,0.258,3.471,1.337,4.996,2.209
	c0.209,0.119,0.404,0.253,0.244,0.565c-0.32,0.625-1.804,1.207-2.404,0.833C100.392,59.124,99.484,57.943,98.881,56.344z
	 M107.796,63.324c0.103-0.412,0.542-0.351,0.851-0.434c0.292-0.078,0.606-0.072,0.744-0.085c1.547-0.008,3.673,1.829,3.794,3.116
	c0.031,0.329-0.153,0.422-0.409,0.461c-0.343,0.053-0.705,0.053-0.997-0.127c-1.176-0.725-2.43-1.33-3.512-2.201
	C108.04,63.872,107.708,63.674,107.796,63.324z M118.566,64.236c-0.806,0.626-1.53,1.345-2.843,1.515
	c0.6-0.843,0.974-1.595,1.124-2.442c0.066-0.374,0.286-0.523,0.664-0.377c0.286,0.11,0.57,0.228,0.863,0.312
	C119.1,63.454,119.296,63.67,118.566,64.236z M116.052,63.3c-0.289,0.953-0.825,1.702-1.622,2.255
	c-0.351,0.006-0.384-0.277-0.484-0.476c-0.339-0.669-0.676-1.338-1.144-1.93c-1.035-1.31-2.313-1.938-4.026-1.583
	c-1.282,0.266-2.579,0.176-3.85-0.142c-0.545-0.136-0.78-0.368-0.259-0.891c0.668-0.671,1.282-1.399,1.899-2.119
	c0.442-0.516,0.91-0.619,1.53-0.296c2.446,1.276,4.899,2.54,7.365,3.776C116.107,62.22,116.254,62.636,116.052,63.3z M100.19,61.071
	c-1.301,0.718-2.381,1.694-3.384,2.754c-0.438,0.462-0.87,0.575-1.444,0.294c-0.913-0.448-1.883-0.793-2.705-1.408
	c-1.046-0.783-0.933-1.575,0.153-2.246c0.99-0.612,2.072-0.569,3.138-0.702c0.403-0.05,0.836,0.049,1.217-0.057
	C98.546,59.324,99.415,60.006,100.19,61.071z M97.664,59.03c-0.477,0.018-0.954,0.005-1.658,0.005
	c-0.886-0.103-1.935,0.024-2.909,0.66c-0.576,0.376-1.157,0.17-1.515-0.378c-0.614-0.94-1.179-1.913-1.734-2.89
	c-0.325-0.573-0.237-0.866,0.54-0.784c1.045,0.11,1.871,0.64,2.636,1.261c0.924,0.749,1.914,1.125,3.11,0.998
	c0.576-0.061,1.16,0.034,1.701,0.271c0.233,0.102,0.392,0.308,0.378,0.562C98.194,59.084,97.884,59.022,97.664,59.03z M97.106,57.33
	c-1.373-0.231-2.876,0.016-4.011-1.091c-0.252-0.246-0.749-0.4-0.555-0.847c0.164-0.378,0.62-0.345,1.107-0.348
	c0.723,0.157,1.563,0.216,2.413,0.219c0.465,0.001,1.457,1.343,1.395,1.803C97.428,57.278,97.296,57.362,97.106,57.33z
	 M95.884,54.566c-0.102,0.096-0.314,0.073-0.426,0.095c-0.222-0.064-0.399-0.086-0.547-0.163c-1.076-0.556-2.083-0.37-3.12,0.166
	c-1.203,0.621-2.308,0.365-2.898-0.565c-0.562-0.886-0.431-1.583,0.403-2.21c0.392-0.294,0.739-0.407,1.177-0.023
	c0.709,0.621,1.589,0.693,2.401,0.335c0.754-0.333,1.237-0.091,1.702,0.433c0.407,0.458,0.807,0.924,1.192,1.401
	C95.887,54.181,96.087,54.376,95.884,54.566z M92.642,51.423c-0.276,0.463-0.85,0.303-1.306,0.128
	c-0.152-0.058-0.28-0.191-0.408-0.302c-1.201-1.046-1.768-1.057-2.746,0.206c-1.197,1.546-2.961,2.121-4.603,2.923
	c-0.343,0.168-0.593,0.083-0.694-0.313c-0.928-3.616-2.173-7.153-2.783-10.897c0.646,0.002,1.053,0.354,1.436,0.644
	c3.078,2.332,6.551,4.04,9.725,6.218c0.253,0.174,0.53,0.32,0.754,0.525C92.29,50.802,92.93,50.938,92.642,51.423z M77.766,99.655
	c0.664,0.549,0.543,0.957-0.037,1.476c-0.692,0.619-1.518,0.872-2.375,1.117c-0.517,0.147-1.15,0.221-1.195,1.009
	c-0.363,0.931-0.654,1.712-0.895,2.389c1.836-2.847,2.327-2.953,2.835-3.02c0.884-0.116,1.622-0.575,2.184-1.227
	c0.467-0.541,0.766-0.532,1.302-0.079c1.231,1.043,1.26,1.011,0.452,2.332c-0.213,0.349-0.477,0.671-0.651,1.038
	c-0.396,0.835-0.891,1.137-1.866,0.788c-1.177-0.421-2.573,0.476-3.14,1.829c-0.297,0.708-1.157,1.492-2.024,1.942
	c0.068,0.315,0.308,0.272,0.551,0.229c0.996-0.174,1.708-0.694,1.962-1.69c0.294-1.154,1.235-1.493,2.188-1.734
	c0.858-0.217,1.404,0.389,1.135,1.233c-0.351,1.098-0.796,2.168-1.221,3.242c-0.229,0.581-0.403,1.149-0.186,1.778
	c0.269,0.783-0.294,1.244-0.787,1.616c-0.496,0.373-0.764-0.245-1.078-0.49c-1.446-1.124-2.847-2.3-4.047-3.828
	c0.005-0.008,0.009-0.015,0.013-0.023c-0.407-0.097-0.628-0.49-0.653-0.938c-0.143-2.549-0.274-5.098-0.416-7.647
	c-0.028-0.495,0.168-0.827,0.589-1.094c0.92-0.584,1.834-1.181,2.716-1.82c0.696-0.505,1.371-0.499,2.1-0.12
	C76.129,98.436,76.972,98.999,77.766,99.655z M72.928,94.35c-0.913,0.763-1.855,1.492-2.802,2.213
	c-0.436,0.332-0.513,0.005-0.528-0.35c-0.046-1.087-0.283-2.162-0.242-3.257c0-0.272-0.013-0.545,0.003-0.816
	c0.025-0.403-0.328-0.928,0.287-1.154c0.525-0.193,1.084-0.239,1.546,0.165c0.614,0.537,1.228,1.079,1.786,1.672
	C73.435,93.31,73.475,93.892,72.928,94.35z M69.788,113.217c0.208-0.527,0.399-0.538,0.769-0.155
	c1.179,1.224,2.419,2.383,3.739,3.455c0.312,0.253,0.496,0.516,0.046,0.783c-1.022,0.605-2.054,1.195-3.091,1.773
	c-0.17,0.095-0.389,0.102-0.665,0.169c-0.952-0.352-1.593-1.162-2.247-1.919c-0.422-0.489,0.081-0.956,0.267-1.402
	C68.982,115.014,69.426,114.132,69.788,113.217z M74.137,119.537c-0.661,0.706-1.589,1.115-2.132,1.929
	c-0.096-0.055-0.139-0.065-0.151-0.089c-0.266-0.535-0.776-1.107-0.705-1.594c0.047-0.326,0.923-0.529,1.426-0.791
	c0.299-0.156,0.581-0.355,0.894-0.474c0.321-0.122,0.717-0.552,0.988-0.165C74.724,118.735,74.422,119.232,74.137,119.537z
	 M78.026,143.478c-0.057,0.246-0.326,0.189-0.517,0.101c-0.644-0.297-1.286-0.598-1.92-0.913c-0.147-0.073-0.303-0.209-0.251-0.398
	c0.051-0.187,0.244-0.21,0.416-0.221c0.641-0.043,1.282-0.084,1.922-0.126c0.2-0.043,0.497-0.076,0.503,0.163
	C78.189,142.548,78.131,143.024,78.026,143.478z M78.712,139.019c-0.117,1.752-0.459,2.069-2.587,2.077
	c-0.613-0.017-1.402-0.05-2.07-0.536c-0.509-0.37-0.666-0.733-0.001-1.16c1.096-0.704,2.205-1.349,3.534-1.493
	C78.429,137.815,78.769,138.162,78.712,139.019z M78.402,135.502c-1.484,1.26-3.151,2.269-4.703,3.434
	c-0.494,0.371-0.647,0.068-0.796-0.319c-0.49-1.271-1.003-2.535-1.459-3.818c-0.636-1.789-1.755-3.141-3.484-3.941
	c-0.536-0.248-0.577-0.565-0.391-1.061c0.579-1.545,1.424-2.967,2.352-4.292c1.202-1.717,2.663-3.252,4.012-4.866
	c-0.15,0.997-0.766,1.626-1.392,2.257c-0.931,0.94-0.957,1.626-0.171,2.697c0.556,0.756,1.323,1.432,0.94,2.584
	c0.705-0.53,0.85-0.996,0.531-1.603c-0.078-0.149-0.193-0.28-0.299-0.413c-1.462-1.835-1.462-1.834-0.024-3.685
	c0.021-0.027,0.039-0.056,0.063-0.08c0.447-0.463,0.722-1.381,1.266-1.374c0.616,0.008,0.449,0.989,0.729,1.505
	c0.51,0.942,1.197,1.739,1.895,2.529c1.142,1.293,1.199,1.718,0.428,3.281c-0.283,0.573-0.794,1.02-0.987,1.944
	c0.928-0.704,1.314-1.564,1.991-2.269c-0.499,1.93,0.058,3.755,0.352,5.612C79.371,134.35,78.987,135.005,78.402,135.502z
	 M79.082,126.809c-0.214-0.98-0.936-1.603-1.506-2.311c-1.316-1.635-2.007-3.46-1.813-5.579c0.021-0.229-0.056-0.527,0.209-0.637
	c0.266-0.111,0.43,0.145,0.593,0.305c1.295,1.27,2.615,2.551,2.846,4.472C79.561,124.309,79.342,125.56,79.082,126.809z
	 M80.021,139.233c0.041-0.299,0.047-0.683,0.154-1.037c0.132-0.434-0.156-1.133,0.403-1.265c0.626-0.147,1.245,0.266,1.827,0.539
	c0.382,0.179,0.169,0.435,0.003,0.664c-0.418,0.575-0.894,1.107-0.951,1.885c-0.036,0.495-0.47,0.531-0.862,0.483
	C79.788,140.405,80.08,139.775,80.021,139.233z M80.512,130.216c-0.145-0.855-0.005-1.692,0.153-2.529
	c0.032-0.167,0.033-0.366,0.231-0.408c0.192-0.04,0.301,0.13,0.401,0.264c0.55,0.737,1.146,1.478,1.418,2.348
	c0.458,1.462,1.328,2.668,2.167,3.898c0.368,0.539,0.409,0.938-0.116,1.401c-0.377,0.333-0.657,0.776-0.981,1.17
	c-0.225,0.273-0.48,0.486-0.965,0.403c-0.591-0.169-1.281-0.352-1.96-0.566c-0.492-0.155-0.443-0.582-0.337-0.934
	C81.032,133.575,80.798,131.897,80.512,130.216z M87.94,143.931c-0.232,0.258-0.323,0.672-0.398,1.032
	c-0.095,0.455-0.314,0.66-0.777,0.581c-0.804-0.121-1.577-0.451-2.417-0.342c-0.101,0.013-0.27-0.1-0.324-0.2
	c-0.609-1.121-1.738-1.592-2.739-2.225c-0.287-0.182-0.667-0.383-0.628-0.744c0.048-0.444,0.514-0.378,0.83-0.389
	c0.672-0.024,0.953-0.381,1.068-1.004c0.13-0.7,0.313-1.38,0.723-2.001c0.4-0.607,0.812-0.662,1.333-0.232
	c0.534,0.441,1.114,0.78,1.796,0.93c0.17,0.037,0.399,0.103,0.388,0.276c-0.065,1.079,0.817,1.683,1.22,2.524
	C88.303,142.74,88.489,143.32,87.94,143.931z M89.328,142.002c-0.202,0.316-0.391,0.137-0.515-0.125
	c-0.262-0.557-0.546-1.099-0.998-1.534c-0.069-0.066-0.124-0.172-0.138-0.267c-0.063-0.431,0.013-0.879,0.399-1.08
	c0.523-0.272,1.07-0.746,1.696-0.471c0.41,0.181,0.507,0.695,0.57,1.134C90.191,140.531,89.787,141.283,89.328,142.002z
	 M96.401,140.288c-0.433,0.514-0.979,0.94-1.505,1.367c-0.95,0.771-1.955,1.477-2.875,2.281c-0.862,0.753-1.532,0.22-2.173-0.255
	c-0.735-0.545-0.098-1.05,0.213-1.463c0.877-1.166,1.261-2.372,0.664-3.796c-0.21-0.502,0.513-0.945,1.599-0.896
	c0.671,0.055,1.37,0.496,2.098,0.858c0.483,0.24,0.925,0.536,1.493,0.618C96.722,139.117,96.935,139.656,96.401,140.288z
	 M96.778,130.118c-0.325,1.904-0.968,3.682-1.856,5.388c-0.349,0.671-0.763,0.999-1.546,0.649c-0.742-0.332-1.534-0.325-2.304-0.088
	c-0.567,0.174-0.84,0.05-1.058-0.552c-0.547-1.508-1.69-2.126-3.221-1.757c-0.633,0.152-1.026,0.018-1.387-0.503
	c-0.928-1.342-1.813-2.698-2.314-4.274c-0.158-0.496,0.026-0.688,0.449-0.621c0.779,0.122,1.578,0.325,2.047,1.02
	c0.774,1.147,1.788,1.846,3.177,1.978c0.503,0.048,0.933,0.318,1.451,0.609c-0.013-0.716-0.436-0.878-0.863-0.955
	c-1.512-0.274-2.722-0.925-3.548-2.311c-0.419-0.704-1.303-0.825-2.093-0.906c-1.601-0.164-2.793-1.379-2.619-2.975
	c0.407-3.723-1.083-6.632-3.677-9.105c-0.56-0.534-0.914-0.954-0.191-1.633c0.376-0.353,0.512-0.905,0.515-1.416
	c0.018-2.927,1.134-5.489,2.575-7.95c0.034-0.059,0.063-0.125,0.11-0.172c0.412-0.416,0.701-1.547,1.054-1.265
	c0.621,0.495,1.538,0.992,1.535,2.082c-0.002,0.916-0.287,1.747-0.601,2.571c-0.412,1.083-0.883,2.143-1.343,3.207
	c-0.498,1.153-0.378,2.229,0.235,3.325c1.122,2.008,2.741,3.538,4.481,4.99c2.151,1.795,2.176,2.165,0.728,4.519
	c-0.178,0.29-0.342,0.589-0.499,0.891c-0.043,0.084-0.038,0.192-0.056,0.298c0.892-0.261,2.532-2.274,2.627-3.343
	c0.111-1.251-0.545-2.084-1.578-2.757c-1.805-1.176-3.529-2.453-4.459-4.52c-0.454-1.009-0.609-2.003-0.255-3.072
	c0.557-1.682,1.117-3.359,1.947-4.935c0.52-0.986,0.991-1.974-0.148-2.937c-0.512-0.433,0.208-0.484,0.373-0.687
	c0.278-0.342,0.494-0.228,0.671,0.147c0.423,0.899,0.699,1.845,0.953,2.8c0.52,1.953,1.09,3.857,2.698,5.278
	c1.183,1.046,1.797,2.454,2.175,3.978c0.314,1.266,0.834,2.461,1.575,3.534c1.721,2.493,2.713,5.342,3.974,8.059
	C97.016,127.784,96.979,128.943,96.778,130.118z M99.774,123.845c-0.533,0.166-0.926-0.145-1.273-0.48
	c-1.601-1.547-2.047-3.651-2.687-5.658c-0.103-0.321,0.07-0.431,0.396-0.336c2.505,0.731,5.182,0.947,7.419,2.484
	c1.254,0.862,2.826,1.004,4.114,1.793c0.246,0.15,0.679,0.173,0.63,0.559c-0.035,0.276-0.402,0.338-0.644,0.45
	c-0.93,0.432-1.875,0.822-3.184,0.864C103.087,123.022,101.426,123.331,99.774,123.845z M117.363,127.567
	c0.669,0.111,1.186,0.454,1.646,0.942c1.004,1.063,2.175,1.973,2.953,3.242c0.197,0.322,0.392,0.643,0.372,1.042
	c0.012,0.471-0.258,0.738-0.647,0.95c-0.688,0.374-1.377,0.751-2.038,1.17c-0.721,0.457-1.254,1.068-1.232,1.989
	c0.014,0.579-0.279,0.609-0.717,0.462c-0.814-0.272-1.599-0.612-2.274-1.144c-1.87-1.472-4.002-2.33-6.336-2.666
	c-1.41-0.203-2.293-0.855-2.635-2.291c-0.338-1.42-1.158-2.685-1.366-4.164c-0.096-0.68,0.013-1.057,0.758-1.093
	c1.741-0.082,3.172-0.969,4.61-1.817c0.567-0.334,1.046-0.352,1.591,0.051c0.767,0.566,1.587,1.057,2.288,1.715
	C115.197,126.761,116.176,127.369,117.363,127.567z M119.889,118.424c0.38-0.212,0.652-0.045,0.872,0.252
	c0.281,0.381,0.56,0.765,0.811,1.166c0.254,0.407,0.696,0.602,1.089,0.931c-1.76,0.289-2.588-0.171-2.957-1.56
	C119.621,118.901,119.531,118.623,119.889,118.424z M119.886,121.972c0.415-0.268,1.151,0.389,1.724,0.662
	c0.232,0.11-0.004,0.357-0.079,0.532c-0.241,0.566-0.646,0.823-1.283,0.779c-0.84-0.057-1.678-0.096-2.591-0.348
	C118.279,122.802,119.159,122.441,119.886,121.972z M118.61,120.955c0.775,0.53,0.797,0.833,0.043,1.34
	c-0.802,0.539-1.807,0.794-2.275,1.79c-0.158,0.337-0.508,0.138-0.677-0.074c-0.551-0.688-1.314-1.057-2.058-1.464
	c-0.453-0.248-0.964-0.502-0.765-1.147c0.195-0.633,0.51-1.208,1.298-1.248c0.305-0.015,0.611-0.002,0.917-0.002
	C116.311,120.21,117.541,120.224,118.61,120.955z M112.486,116.701c1.102,0.496,2.203,0.995,3.421,1.544
	c-0.688,0.516-1.202,0.349-1.722,0.047c-0.861-0.499-1.532-0.379-2.233,0.417c-0.573,0.65-1.549,0.629-2.366,0.841
	c-0.121,0.031-0.372-0.103-0.425-0.221c-0.105-0.236,0.147-0.339,0.305-0.448c0.635-0.44,1.275-0.872,1.913-1.306
	c-0.052-0.073-0.103-0.146-0.155-0.218c-0.748,0.39-1.488,0.797-2.249,1.161c-0.292,0.14-0.678,0.333-0.929-0.025
	c-0.222-0.316,0.105-0.555,0.27-0.8c0.019-0.028,0.044-0.052,0.065-0.078C109.982,115.698,110.166,115.657,112.486,116.701z
	 M109.079,114.481c-0.349,0.281-0.796,0.315-1.124-0.023c-0.46-0.473-0.517-1.106-0.426-1.723c0.067-0.459,0.5-0.385,0.827-0.402
	c1.225-0.061,2.417-0.336,3.755-0.379C111.102,112.8,110.103,113.657,109.079,114.481z M128.742,109.949
	c0.852,0.548,0.838,1.145,0.348,1.977c-0.942,1.599-1.953,3.048-4.037,3.138c-1.615,0.069-3.176-0.316-4.74-0.633
	c-0.437-0.089-0.57-0.395-0.36-0.859c0.504-1.114,0.855-1.299,2.054-1.037c0.28,0.061,0.568,0.266,0.881,0.069
	c-1.275-1.099-2.178-1.016-3.115,0.278c-0.766,1.058-0.918,1.098-1.958,0.383c-0.589-0.405-1.168-0.83-1.709-1.295
	c-0.629-0.54-0.541-0.892,0.239-1.117c0.226-0.065,0.491-0.155,0.699-0.096c1.321,0.373,2.299-0.226,3.242-1.037
	c1.174-1.008,2.607-1.71,3.366-3.196c0.292-0.571,1.067-0.495,1.68-0.533c1.599-0.099,1.673-0.109,1.82,1.498
	C127.258,108.643,127.849,109.375,128.742,109.949z M128.645,100.893c-0.218,1.746-0.402,1.95-2.109,2.301
	c-0.433,0.089-0.863,0.195-1.294,0.297c-0.19,0.045-0.43,0.221-0.549-0.004c-0.074-0.139,0.017-0.389,0.081-0.573
	c0.433-1.24,0.8-1.581,2.42-2.235c-1.056-0.208-1.835,0.032-2.339,0.898c-0.255,0.439-0.489,0.912-0.615,1.4
	c-0.218,0.846-0.755,1.233-1.603,1.343c0.183-0.461,0.709-0.655,0.88-1.401c-1.173,1.043-2.257,1.827-3.42,2.491
	c-0.311,0.177-0.654,0.535-1.013,0.282c-0.293-0.206-0.149-0.64-0.13-0.969c0.055-0.972,0.107-1.946,0.458-2.982
	c-0.677,0.179-0.707,0.627-0.752,1.055c-0.075,0.711-0.236,1.431-0.181,2.134c0.084,1.084-0.43,1.616-1.362,1.964
	c-0.669,0.25-1.298,0.602-1.951,0.896c-0.203,0.092-0.459,0.325-0.636,0.078c-0.115-0.16-0.092-0.458-0.056-0.682
	c0.079-0.491,0.377-0.856,0.742-1.188c0.37-0.337,0.837-0.589,1.073-1.09c-1.499,0.333-2.221,1.122-2.38,2.575
	c-0.138,1.261-1.387,1.891-2.461,1.175c-1.727-1.152-3.516-2.092-5.656-2.132c-0.359-0.007-0.634-0.211-0.903-0.433
	c-2.192-1.815-3.148-3.865-3.184-6.994c0.749,0.589,1.43,1.125,2.111,1.66c0.071-0.066,0.143-0.133,0.214-0.199
	c-0.508-0.688-0.932-1.46-1.76-1.874c-1.521-0.76-3.045-1.518-4.601-2.202c-0.783-0.345-1.634-0.672-1.592-1.624
	c0.04-0.906,0.987-1.311,1.677-1.441c1.695-0.318,3.44-0.459,5.169-0.351c1.194,0.075,2.414,0.315,2.724,1.898
	c0.767-1.315-0.269-1.942-0.749-2.705c-0.577-0.916-1.207-1.821-2.331-2.201c-0.203-0.069-0.774,0.071-0.55-0.476
	c0.176-0.428,0.474-0.374,0.913-0.213c2.402,0.878,4.565,2.229,6.867,3.529c0.026-0.507-0.279-0.594-0.477-0.712
	c-1.686-1.011-3.204-2.318-5.165-2.849c-0.447-0.121-1.203-0.383-0.908-0.977c0.225-0.453,0.966-0.546,1.566-0.303
	c0.432,0.175,0.786,0.532,1.311,0.575c-0.053-0.448-0.596-0.456-0.678-0.836c1.006-0.704,1.756-0.68,2.58,0.159
	c1.436,1.463,3.008,2.77,4.567,4.092c0.818,0.694,1.748,0.934,2.835,0.914c1.632-0.03,3.267,0.099,4.901,0.168
	c0.561,0.024,0.932,0.385,1.272,0.776c0.537,0.62,1.176,1.04,2.024,1.041c0.444,0,0.763,0.246,1.104,0.475
	c0.48,0.322,0.985,0.607,1.465,0.93c0.552,0.371,1.441,0.227,1.72,0.972C128.346,98.468,128.804,99.62,128.645,100.893z
	 M135.564,99.937c-1.302,1.485-2.886,2.468-4.928,2.728c-0.358,0.079-0.521-0.162-0.555-0.506c-0.146-1.481-0.048-2.994-0.677-4.409
	c-0.158-0.355,0.211-0.37,0.439-0.315c1.922,0.467,3.782,1.116,5.576,1.95C135.691,99.512,135.784,99.686,135.564,99.937z
	 M142.619,91.478c-0.104,0.175-0.278,0.314-0.359,0.496c-0.517,1.165-1.304,1.641-2.583,1.16c-0.799-0.3-1.392,0.095-1.796,0.782
	c-0.38,0.646-0.74,1.305-1.094,1.965c-0.447,0.833-1.123,1.156-2.043,0.941c-4.387-1.024-8.459-2.637-11.544-6.124
	c-0.557-0.63-1.048-1.245-0.953-2.161c0.069-0.67-0.388-0.819-0.926-0.749c-0.607,0.08-1.228,0.157-1.803,0.351
	c-0.831,0.281-1.437,0.025-2.029-0.543c-0.465-0.446-1.01-0.808-1.503-1.227c-0.251-0.213-0.809-0.318-0.454-0.828
	c0.272-0.39,0.595-0.771,1.185-0.444c0.864,0.479,1.74,0.938,2.621,1.385c0.327,0.166,0.685,0.271,1.029,0.404
	c0.049-0.076,0.098-0.152,0.147-0.228c-1.079-0.695-2.131-1.439-3.248-2.068c-0.71-0.4-0.615-0.732-0.172-1.242
	c0.938-1.08,1.871-2.167,2.757-3.289c0.365-0.462,0.562-0.292,0.872,0.022c0.993,1.006,1.157,2.277,1.184,3.591
	c0.015,0.717-0.004,1.425,0.286,2.11c0.39,0.924,0.917,1.673,1.987,1.866c0.823,0.149,0.981,0.624,0.827,1.419
	c-0.393,2.036-0.177,2.298,1.766,2.952c0.861,0.29,1.677,0.716,2.603,1.119c-0.015-0.5-0.384-0.611-0.634-0.755
	c-0.47-0.271-0.959-0.537-1.474-0.699c-2.042-0.643-2.261-0.933-1.661-2.894c0.279-0.912-0.26-1.348-1.091-1.633
	c-1.654-0.566-2.157-1.527-1.74-3.428c1.163,1.63,2.925,1.858,4.55,2.423c1.593,0.554,2.874-0.186,4.178-0.799
	c0.875-0.411,1.244-0.157,1.212,0.697c-0.042,1.112,0.633,1.522,1.521,1.715c0.787,0.172,1.38,0.577,2.035,1.04
	c1.105,0.781,2.478,1.143,3.648,2.138c-0.032-0.586-0.342-0.738-0.574-0.868c-1.66-0.931-3.007-2.423-4.985-2.79
	c-0.416-0.077-0.771-0.283-0.922-0.721c-0.135-0.39-0.32-0.851,0.015-1.157c0.39-0.357,0.686,0.114,0.936,0.332
	c0.912,0.792,2.257,0.946,3.014,1.891c1.166,1.454,2.472,2.304,4.439,1.952c0.525-0.094,1.48-0.253,1.677,0.275
	C143.718,90.391,142.944,90.928,142.619,91.478z M135.178,73.49c0.988,0.514,1.223,1.356,0.653,2.342
	c-0.161,0.278-0.219,0.573-0.193,0.884c0.084,1.012,0.174,2.024,0.287,3.322c0.459-1.076,0.383-1.902,0.407-2.71
	c0.016-0.547,0.126-1.018,0.665-1.275c0.538-0.257,0.993-0.073,1.41,0.282c1.374,1.172,2.742,2.353,4.123,3.518
	c0.846,0.713,0.859,1.738,1.044,2.696c0.064,0.332,0.038,0.68,0.069,1.02c0.203,2.233,0.974,3.2,3.347,4.074
	c-0.517-0.697-1.117-1.116-1.678-1.563c-0.535-0.427-0.923-0.934-0.965-1.616c-0.061-0.989-0.184-1.967-0.37-2.939
	c-0.051-0.266-0.101-0.557,0.178-0.743c0.251-0.168,0.456-0.01,0.642,0.141c0.634,0.514,1.409,0.475,2.146,0.508
	c0.892,0.04,1.385,0.449,1.534,1.322c0.2,1.172,0.559,2.322,0.469,3.534c-0.027,0.371,0.006,0.736-0.177,1.094
	c-0.787,1.544-0.973,1.655-2.595,1.052c-0.759-0.282-1.369-0.361-1.83,0.449c-0.219,0.385-0.583,0.354-0.987,0.32
	c-1.015-0.086-2.028-0.252-3.053-0.14c-0.613,0.067-1.09-0.231-1.376-0.717c-0.538-0.914-1.264-1.545-2.227-2.006
	c-0.822-0.394-1.56-0.959-2.248-1.585c-0.935-0.851-2.015-1.073-2.987-0.274c-2.168,1.783-4.323,0.72-6.477,0.191
	c-0.757-0.186-1.11-0.98-1.472-1.634c-0.804-1.45-1.281-3.103-2.685-4.172c-0.225-0.171-0.322-0.48-0.196-0.747
	c0.397-0.84,0.844-1.886,1.782-1.963c1.367-0.112,2.388-1.055,3.74-1.164c1.351-0.109,2.157,0.188,2.67,1.462
	c0.522,1.296,1.036,2.597,1.499,3.915c0.457,1.299,1.258,2.113,2.66,2.384c1.316,0.254,2.574,0.802,3.974,0.721
	c-1.212-0.407-2.419-0.833-3.639-1.215c-0.976-0.306-1.677-0.918-2.087-1.829c-0.798-1.771-1.55-3.562-2.333-5.339
	c-0.235-0.534-0.058-0.857,0.462-1.021c0.877-0.277,1.764-0.513,2.685-0.604c0.673-0.067,1.075,0.16,1.279,0.854
	c0.297,1.01,0.341,1.991,0.104,3.021c-0.166,0.721-0.478,1.498,0.19,2.201c0.205-1.747,1.05-3.416,0.505-5.24
	c-0.081-0.269-0.322-0.583,0-0.848C134.474,73.164,134.838,73.314,135.178,73.49z M136.824,67.745
	c-0.683,0.46-1.437,0.768-2.207,1.048c-0.702,0.256-1.405,0.515-2.086,0.822c-0.767,0.346-1.566-0.063-1.653-0.889
	c-0.037-0.349,0.183-0.493,0.467-0.563c0.775-0.19,1.509-0.429,1.912-1.213c0.101-0.196,0.323-0.24,0.534-0.241
	c1.09-0.006,2.179-0.013,3.269-0.008c0.187,0.001,0.437-0.035,0.43,0.582C137.385,67.357,137.107,67.555,136.824,67.745z
	 M139.031,55.897c1.65-0.176,2.804-0.008,3.798,1.332c0.612,0.825,0.639,1.884-0.172,2.47c-1.601,1.156-2.287,2.834-2.905,4.57
	c-0.275,0.775-0.671,1.153-1.552,1.127c-1.049-0.032-2.103,0.106-3.155,0.17c-1.183,0.068-1.19,0.042-0.794-1.062
	c0.758-2.113,1.529-4.219,2.373-6.301C137.098,57.031,137.44,56.067,139.031,55.897z M125.038,45.666
	c3.201,0.256,5.995,1.391,8.416,3.52c0.734,0.646,1.633,1.109,2.471,1.634c1.765,1.107,2.006,3.708,0.168,4.648
	c-3.743,1.914-6.483,5.068-9.842,7.436c-0.687,0.485-1.392,0.844-2.253,0.846c-0.438,0.001-0.805-0.064-1.014-0.515
	c-0.305-0.657-0.855-0.804-1.532-0.732c-1.111,0.119-2.182-0.049-3.164-0.606c-0.38-0.215-1.03-0.24-0.893-0.92
	c0.138-0.689,0.402-1.287,1.236-1.441c0.726-0.134,1.491-0.107,2.179-0.548c-1.067-0.194-2.131-0.281-3.194,0.026
	c-0.547,0.158-0.885,0.529-1.018,1.05c-0.152,0.598-0.386,0.702-0.918,0.358c-1.132-0.733-2.295-1.42-3.699-2.282
	c1.64-0.088,2.976,0.369,4.597,0.027c-1.336-0.581-2.525-0.663-3.66-0.733c-2.188-0.135-4.062-0.974-5.901-2.069
	c-1.432-0.852-1.266-2.111-1.119-3.414c0.158-1.4-0.815-2.206-2.156-1.77c-0.161,0.053-0.326,0.112-0.468,0.202
	c-3.158,2-6.018,1.34-8.815-0.84c-2.825-2.203-5.881-4.08-8.915-5.982c-0.953-0.598-1.907-1.196-2.843-1.82
	c-3.032-2.023-3.514-3.103-3.116-6.735c0.092-0.84,0.633-0.9,1.241-0.803c1.188,0.188,2.335,0.566,3.36,1.183
	c2.727,1.643,5.74,2.296,8.842,2.644c0.773,0.087,1.332,0.374,1.769,1.028c0.453,0.679,0.977,1.313,1.507,1.936
	c1.229,1.446,2.613,2.539,4.551,3.096c1.868,0.537,3.358,1.946,4.529,3.521c1.042,1.402,2.307,2.668,2.693,4.517
	c0.179,0.859,1.082,0.849,1.8,0.565c0.685-0.271,1.324-0.656,2.154-1.078c-0.779-0.317-1.356-0.012-1.928,0.158
	c-1.261,0.376-1.276,0.371-1.614-0.864c-0.089-0.326-0.147-0.718-0.362-0.944c-1.687-1.772-2.466-4.28-4.608-5.681
	c-0.095-0.062-0.139-0.204-0.192-0.287c0.134-0.237,0.321-0.215,0.483-0.214c2.969,0.015,5.925,0.119,8.796,1.011
	c0.993,0.308,1.426,1.141,1.586,1.969c0.178,0.919,0.527,1.641,1.127,2.322c0.332,0.377,0.571,0.851,0.787,1.312
	c0.362,0.774,0.834,1.137,1.686,0.674c0.44-0.239,0.865-0.118,1.229,0.202c0.877,0.77,1.936,1.107,3.055,1.327
	c2.539,0.501,3.578,1.712,3.751,4.324c0.021,0.325-0.046,0.685,0.254,0.949c0.795-2.876-0.664-5.386-3.529-6.037
	c-0.908-0.206-1.747-0.556-2.584-0.947c-0.557-0.26-0.66-0.512-0.208-0.97c0.481-0.487,0.94-1.002,1.595-1.253
	c1.085-0.415,1.839-1.147,2.238-2.238C123.847,45.732,124.313,45.608,125.038,45.666z M84.264,19.226
	c2.582-1.434,2.524-1.434,4.583,0.662c1.676,1.707,3.641,2.959,6.105,3.213c0.616,0.064,1.215-0.067,1.883-0.131
	c-1.338,0.991-1.722,2.501-2.199,3.945c-0.375,1.136-1.217,1.588-2.367,1.198c-0.867-0.294-1.53-0.896-2.16-1.51
	c-2.049-1.995-4.132-3.958-6.01-6.123C83.622,19.93,83.473,19.665,84.264,19.226z M82.263,18.294
	c-0.138-0.181-0.362-0.324-0.33-0.701c1.26,0.149,2.489,0.587,3.538-0.449c0.297-0.294,0.62-0.052,0.752,0.227
	c0.181,0.383-0.254,0.299-0.419,0.402c-0.49,0.306-1.007,0.568-1.496,0.876C83.142,19.384,83.094,19.385,82.263,18.294z
	 M89.894,14.435c1.007-0.401,1.994-0.838,2.925-1.402c0.371-0.225,0.572-0.02,0.602,0.379c0.109,1.452-0.804,2.402-2.324,2.42
	c-0.684,0.06-1.042-0.425-1.414-0.866C89.457,14.698,89.636,14.537,89.894,14.435z M98.949,24.158
	c3.094-1.363,6.267-0.879,9.128,0.322c1.698,0.713,3.538,0.996,5.228,1.846c-1.325,0.823-3.415,0.661-4.616-0.334
	c-0.635-0.526-1.328-0.936-2.067-1.298c-1.318-0.644-2.536-0.497-3.599,0.463c-1.76,1.59-3.973,2.016-6.163,2.505
	c-0.412,0.092-0.953,0.257-1.268-0.101c-0.354-0.402,0.069-0.839,0.233-1.215c0.659-1.506,1.261-3.107,3.582-3.016
	c-0.785,0.432-1.55,0.564-1.932,1.359C97.966,24.514,98.472,24.368,98.949,24.158z M113.079,37.927
	c-0.006,0.515-0.224,0.583-0.64,0.366c-3.488-1.817-7.248-2.723-11.101-3.331c-1.327-0.21-2.653-0.03-3.979-0.058
	c-0.375-0.008-0.758,0.009-1.121-0.064c-0.503-0.102-1.245,0.084-1.394-0.574c-0.158-0.697,0.016-1.441,0.607-1.958
	c0.277-0.242,0.605-0.487,0.951-0.58c2.547-0.687,4.646-2.246,6.905-3.493c0.977-0.539,1.914-1.201,3.322-1.253
	c1.239,0.503,2.658,1.138,3.572,2.411c1.314,1.83,2.258,3.883,3.207,5.923c0.181,0.389,0.262,0.751-0.062,1.135
	C112.988,36.876,113.085,37.422,113.079,37.927z M112.884,42.752c-0.034,0.096-0.068,0.193-0.102,0.289
	c-1.259-0.261-2.517-0.529-3.777-0.782c-1.582-0.318-3.187-0.253-4.784-0.231c-2.577,0.035-4.463-1.173-6.128-3.443
	C103.483,38.966,108.385,40.135,112.884,42.752z M120.056,45.389c0.846,0.272,1.528-0.086,2.288-0.027
	c0.685,0.053,0.963,0.15,0.528,0.874c-0.399,0.663-0.861,1.213-1.563,1.554c-0.643,0.312-1.226,0.698-1.776,1.175
	c-1.007,0.872-2.553,0.604-3.253-0.533c-0.588-0.955-1.109-1.952-1.653-2.934c-0.159-0.287-0.478-0.568-0.272-0.921
	c0.206-0.353,0.614-0.186,1.108-0.254C116.875,44.734,118.52,44.895,120.056,45.389z M117.297,37.379
	c1.064,0.949,1.227,2.937,0.415,4.112c-0.169,0.245-0.363,0.288-0.609,0.16c-1.216-0.63-2.311-1.432-3.294-2.382
	c-0.239-0.231-0.18-0.571-0.204-1.015c-0.038-0.366,0.153-0.8,0.461-1.178c0.438-0.538,0.477-1.123,0.207-1.723
	c-0.82-1.825-1.44-3.756-2.779-5.31c-0.504-0.586-0.404-0.982,0.386-1.111c0.603-0.098,1.212-0.233,1.817-0.224
	c0.682,0.011,1.066,0.497,1.323,1.104c0.715,1.685,0.91,3.48,1.124,5.267C116.255,36.005,116.591,36.749,117.297,37.379z
	 M122.066,24.683c0.124,0.188,0.391,0.352,0.264,0.611c-0.127,0.259-0.419,0.165-0.644,0.162c-0.975-0.014-1.865-0.104-2.274-1.254
	c-0.387-1.088-1.561-1.417-2.315-2.192C118.898,22.651,120.896,22.909,122.066,24.683z M116.601,27.67
	c0.904,0.333,1.864,0.328,2.8,0.459c0.532,0.075,0.866,0.331,1.055,0.819c0.111,0.286,0.178,0.567-0.254,0.572
	c-0.689,0.008-1.091,0.48-1.55,0.876c-0.963,0.832-1.41,0.767-2.089-0.328c-0.338-0.545-0.703-1.087-0.717-1.861
	C115.788,27.719,115.984,27.443,116.601,27.67z M109.249,13.81c0.185-0.71,0.181-1.477,0.396-2.198
	c0.158-0.531,0.38-0.614,0.731-0.153c0.041,0.054,0.084,0.108,0.115,0.168c0.741,1.416,1.874,2.417,3.247,3.209
	c0.615,0.355,1.131,0.881,1.321,1.623c0.123,0.48,0.056,0.825-0.554,0.715c-0.83-0.088-1.6-0.22-2.243-0.848
	c-0.507-0.496-1.173-0.788-1.903-0.916C109.48,15.257,108.971,14.879,109.249,13.81z M109.725,15.681
	c0.538,0.273,1.429,0.133,1.645,0.681c0.428,1.09,1.448,1.076,2.217,1.324c1.123,0.363,1.742,0.9,1.876,2.085
	c0.086,0.762,0.009,1.49-0.113,2.228c-0.06,0.361-0.219,0.64-0.654,0.723c-0.159-0.068-0.353-0.133-0.529-0.228
	c-2.828-1.535-5.807-2.648-8.969-3.273c-0.336-0.066-0.956,0.019-0.885-0.597c0.057-0.495,0.585-0.577,0.968-0.582
	c1.488-0.02,2.502-0.764,3.199-2.001C108.799,15.471,109.164,15.396,109.725,15.681z M108.478,12.88
	c0.109,0.095,0.088,0.381,0.069,0.575c-0.233,2.327-0.967,3.166-3.257,3.797c-0.695,0.192-1.499,0.193-1.793,1.11
	c-0.149,0.465-0.611,0.341-0.974,0.248c-1.963-0.505-3.925-0.7-5.954-0.333c-1.888,0.341-3.493-0.384-4.933-1.577
	c0.248-0.392,0.601-0.369,0.87-0.455c0.896-0.286,1.5-0.761,1.528-1.783c0.007-0.265,0.111-0.532,0.197-0.79
	c0.181-0.542,0.473-0.8,1.062-0.445c0.871,0.524,1.803,0.924,2.657,1.501c0.933,0.63,1.977,1.109,3.224,0.635
	c0.652-0.248,1.4-0.271,2.11-0.328c1.753-0.142,3.298-0.747,4.611-1.93C108.055,12.963,108.231,12.666,108.478,12.88z M80.527,4.33
	c0.156-0.342,0.514-0.282,0.812-0.301c2.167-0.143,4.146,0.712,6.186,1.208c3.24,0.788,6.387,1.992,9.718,2.366
	c2.433,0.273,4.888,0.354,7.335,0.481c0.614,0.032,1.111,0.102,1.456,0.706c0.355,0.621,1.022,0.882,1.663,1.121
	c0.568,0.212,0.659,0.521,0.289,0.993c-0.545,0.696-1.056,1.42-1.632,2.089c-0.581,0.675-1.329,1.009-2.252,1.015
	c-0.883,0.006-1.768,0.101-2.646,0.202c-0.892,0.103-1.58-0.002-1.474-1.202c-0.237,1.592-0.676,1.762-1.968,0.795
	c-0.68-0.508-1.343-1.038-2.025-1.543c-1.31-0.97-2.647-0.946-3.994-0.074c-0.858,0.555-1.708,1.117-2.648,1.537
	c-0.484,0.216-0.819,0.165-1.165-0.228c-2.457-2.784-4.926-5.558-7.385-8.341C80.595,4.929,80.377,4.66,80.527,4.33z M81.042,14.117
	c1.46,0.129,2.638,0.993,3.733,1.983c0.459,0.415,0.002,0.655-0.302,0.849c-1.259,0.804-4.05-0.174-4.53-1.577
	C79.709,14.685,80.164,14.119,81.042,14.117z M79.401,25.302c0.083-1.295,0.151-2.211,0.196-3.128
	c0.029-0.594,0.274-0.644,0.691-0.307c3.465,2.802,7.078,5.437,10.032,8.818c0.634,0.725,0.949,1.647,1.348,2.511
	c0.157,0.34,0.15,0.676-0.357,0.515c-4.076-1.287-8.098-2.67-11.02-6.07C79.598,26.836,79.269,25.973,79.401,25.302z M69.944,73.428
	c1.322-6.685,2.963-13.31,3.852-20.078c0.172-1.313,0.312-2.63,0.467-3.946c1.157,1.281,1.656,2.803,2.208,4.295
	c0.438,1.183,0.707,2.439,1.242,3.573c1.028,2.177,0.801,4.321-0.009,6.44c-1.218,3.187-1.477,6.496-1.436,9.853
	c0.011,0.884-0.012,1.807,0.228,2.641c0.695,2.404,0.018,4.659-0.578,6.927c-0.485,1.846-1.049,3.668-1.304,5.571
	c-0.173,1.286-0.863,1.727-2.089,1.333c-0.777-0.249-1.519-0.336-2.307-0.149c-0.731,0.174-1.044-0.103-1.09-0.881
	C68.825,83.782,68.925,78.581,69.944,73.428z M68.726,19.667c0.002,0.238,0,0.477,0,0.715c-0.057,2.624-0.514,5.211-0.724,7.82
	c-0.029,0.355-0.182,0.751-0.401,1.032c-2.039,2.612-4.176,5.127-7.167,6.73c-0.55,0.295-1.037,0.635-1.566-0.113
	c-0.471-0.667-0.247-1.095,0.221-1.6c1.49-1.61,1.695-3.611,0.513-5.497c-0.636-1.015-1.179-2.069-1.642-3.167
	c-0.689-1.634-0.269-3.381,1.02-4.554c1.643-1.495,3.393-2.828,5.347-3.905C67.365,15.455,68.701,16.208,68.726,19.667z
	 M51.705,14.012c0.333-0.593,0.901-0.901,1.547-1.096c1.46-0.443,2.876-0.935,3.321-2.672c0.131-0.513,0.639-0.469,1.038-0.405
	c1.3,0.21,2.587-0.042,3.877-0.089c1.134-0.042,2.198-0.413,3.156-1.072c0.701-0.482,1.434-0.932,2.287-1.105
	c0.261-0.053,0.58-0.118,0.77,0.123c0.205,0.261-0.016,0.519-0.138,0.753c-0.337,0.648-0.859,1.148-1.392,1.623
	c-3.238,2.887-6.596,5.616-10.407,7.732c-1.817,1.009-4.177,1.705-5.733,1.629c1.078-1.019,2.392-1.022,3.463-1.591
	c-0.016-0.273-0.267-0.312-0.43-0.254c-1.174,0.415-2.502,0.49-3.43,1.464c-0.628,0.659-1.488,0.622-2.272,0.793
	c-0.439,0.096-0.493-0.267-0.463-0.597c0.06-0.666,0.458-1.138,0.983-1.483C49.407,16.765,50.791,15.637,51.705,14.012z
	 M31.744,20.794c1.257-1.064,2.557-2.053,4.34-2.044c0.313,0.001,0.681-0.169,0.931-0.373c1.998-1.634,4.349-2.367,6.85-2.656
	c1.411-0.163,2.605-1.02,4.021-1.122c0.572-0.041,1.14-0.14,2.019-0.252c-1.017,1.276-2.072,2.018-3.29,2.455
	c-0.977,0.351-1.294,0.951-1.293,1.924c0.004,2.458,0.277,1.838-1.889,2.686c-1.333,0.522-2.666,1.038-3.952,1.676
	C36.95,24.343,34.445,23.953,32,22.83C30.344,22.069,30.345,21.978,31.744,20.794z M37.756,28.817
	c-0.719,0.605-1.216,1.045-1.736,1.456c-0.649,0.512-1.205,1.094-1.633,1.808c-0.72,1.201-1.63,1.531-3.032,1.177
	c-0.342-0.086-0.698-0.318-1.07-0.056c0.758,0.919,2.356,1.22,3.479,0.644c1.188-0.609,2.377-1.175,3.77-1.128
	c0.902,0.031,1.579,0.321,1.929,1.213c0.161,0.41,0.38,0.791,0.843,0.973c1.234,0.486,1.632,2.031,0.587,2.822
	c-1.097,0.83-1.341,1.908-1.485,3.098c-0.079,0.652-0.342,1.064-1.018,1.217c-0.529,0.12-1.014,0.356-1.45,0.717
	c-1.343,1.109-2.893,1.187-4.343,0.224c-0.451-0.3-0.901-0.636-1.256-1.039c-1.041-1.181-2.149-2.246-3.563-3.004
	c-1.137-0.61-1.652-1.696-1.277-2.947c0.399-1.333-0.524-1.828-1.682-1.348c-0.875,0.362-1.78,0.616-2.732,0.677
	c-0.008,0.004-0.016,0.007-0.024,0.011c-0.001,0-0.002,0.001-0.003,0.001c0.533,0.805,1.255,0.264,1.845,0.176
	c1.892-0.282,1.94-0.32,1.73,1.646c-0.064,0.593,0.542,1.321-0.028,1.672c-0.396,0.244-1.113-0.071-1.685-0.067
	c-1.833,0.012-3.675-0.167-5.493,0.207c-1.581,0.325-2.778-0.311-3.773-1.477c-0.126-0.148-0.379-0.242-0.296-0.479
	c0.084-0.238,0.343-0.166,0.536-0.193c1.882-0.267,3.787-0.404,5.607-1.019c0.513-0.173,1.039-0.311,1.559-0.465
	c-0.002-0.003-0.005-0.005-0.007-0.008c0.011-0.001,0.022-0.003,0.033-0.004C27.148,33.027,31.999,30.227,37.756,28.817z"/>
</svg>