<!-- Generator: Adobe Illustrator 19.2.1, SVG Export Plug-In  -->
<svg version="1.1"
	 xmlns="http://www.w3.org/2000/svg" xmlns:xlink="http://www.w3.org/1999/xlink" xmlns:a="http://ns.adobe.com/AdobeSVGViewerExtensions/3.0/"
	 x="0px" y="0px" width="18.777px" height="39.285px" viewBox="0 0 18.777 39.285"
	 style="enable-background:new 0 0 18.777 39.285;" xml:space="preserve">
<style type="text/css">
	.st0{fill:#FFFFFF;}
</style>
<defs>
</defs>
<path id="Facebook_1_" class="st0" d="M4.059,7.912c0,1.029,0,5.623,0,5.623H0v6.878h4.059v18.872h8.336V20.413h5.594
	c0,0,0.524-3.297,0.778-6.903c-0.728,0-6.341,0-6.341,0s0-4.001,0-4.701c0-0.703,0.911-1.647,1.807-1.647c0.899,0,2.791,0,4.543,0
	c0-0.937,0-4.171,0-7.161c-2.34,0-5.003,0-6.177,0C3.852,0,4.059,6.885,4.059,7.912z"/>
</svg>