<!-- Generator: Adobe Illustrator 19.2.1, SVG Export Plug-In  -->
<svg version="1.1"
	 xmlns="http://www.w3.org/2000/svg" xmlns:xlink="http://www.w3.org/1999/xlink" xmlns:a="http://ns.adobe.com/AdobeSVGViewerExtensions/3.0/"
	 x="0px" y="0px" width="40.19px" height="26.075px" viewBox="0 0 40.19 26.075" style="enable-background:new 0 0 40.19 26.075;"
	 xml:space="preserve">
<style type="text/css">
	.st0{fill:#FFFFFF;}
</style>
<defs>
</defs>
<g>
	<path class="st0" d="M20.095,18.588l-0.384-0.102c-2.846-0.754-14.316-4.009-19.656-8.703C0.024,10.858-0.002,11.936,0,13.03
		c-0.005,2.767,0.088,5.376,0.285,7.98l0.004,0.113c0,2.565,2.124,4.653,4.735,4.653c4.797,0.21,9.694,0.317,15.065,0.295
		c5.358,0.011,10.271-0.085,15.006-0.294c2.679-0.001,4.804-2.089,4.804-4.654l0.004-0.114c0.199-2.591,0.295-5.272,0.286-7.972
		c0.004-1.095-0.022-2.178-0.052-3.258c-5.339,4.696-16.812,7.951-19.659,8.706L20.095,18.588z"/>
	<path class="st0" d="M35.162,0.285C30.598,0.093,25.94,0,20.856,0h-1.524C14.316,0,9.524,0.096,5.088,0.284
		C2.413,0.285,0.289,2.376,0.289,4.945c0,3.553,11.674,8.331,19.806,10.538C28.226,13.274,39.9,8.495,39.9,4.945
		C39.9,2.376,37.775,0.285,35.162,0.285z"/>
</g>
</svg>