<!-- Generator: Adobe Illustrator 19.2.1, SVG Export Plug-In  -->
<svg version="1.1"
	 xmlns="http://www.w3.org/2000/svg" xmlns:xlink="http://www.w3.org/1999/xlink" xmlns:a="http://ns.adobe.com/AdobeSVGViewerExtensions/3.0/"
	 x="0px" y="0px" width="150.628px" height="150.628px" viewBox="0 0 150.628 150.628"
	 style="enable-background:new 0 0 150.628 150.628;" xml:space="preserve">
<style type="text/css">
	.st0{fill:#FFFFFF;stroke:#000000;stroke-miterlimit:10;}
	.st1{fill:#FFFFFF;}
</style>
<defs>
</defs>
<g>
	<circle class="st0" cx="75.314" cy="75.314" r="74.814"/>
	<g>
		<polygon points="95.617,90.265 85.447,91.189 66.945,89.793 62.993,77.908 95.444,84.913 		"/>
		<path d="M67.702,100.191c-0.668-6.548-3.365-11.933-0.644-11.057s14.959,1.945,19.218,2.091c4.259,0.145,2.158,4.153,1.58,6.4
			C87.278,99.87,67.773,100.891,67.702,100.191z"/>
		<path d="M15.797,92.711c-0.953,1.371-7.497-7.904-5.222-24.861c0.258-1.92,0.49-3.731,2.885-5.291c0.102-2.813,0.87-6.614,0-7.766
			c-1.109-1.47-1.528-0.632-2.746-0.305c-1.218,0.327,6.603-5.925,18.55-7.464c2.184-0.281,17.524-6.131,21.204-6.673
			c3.68-0.542,34.206-3.414,36.742-2.97s9.798-1.036,14.892-0.549s29.835,4.554,32.769,8.257c2.753,3.475,3.745,15.366,3.158,18.119
			c-0.587,2.753-0.749,2.095-1.534,2.978c-0.785,0.883,6.313,4.182,3.276,7.367c-2.388,2.505-2.709,1.365-3.276,3.233
			c-0.567,1.867-1.131,1.926-3.834,1.215c-2.703-0.711,0.504,1.075-0.978,1.711c-2.359,1.012-9.698,5.805-13.22,5.149
			c-2.47-0.46-7.969-2.495-9.023-3.484c-4.574-4.291-12.313,5.582-18.63,4.521c-6.355-1.067-25.522-5.339-28.204-6.823
			c-2.683-1.483-8.087-5.276-17.615-7.011c-6.927-1.261-12.718-1.082-15.624-1.272c-7.894-0.515-11.706,6.33-13.228,9.302
			C15.498,81.347,16.465,91.75,15.797,92.711z"/>
		<g id="bKmMxY_1_">
			<g>
				<path class="st1" d="M137.557,66.901c1.732,1.195,3.129,2.649,3.664,4.636c0.521,1.933-0.768,3.927-2.679,4.574
					c-0.217,0.074-0.438,0.138-0.642,0.201c-0.03,2.334-1.776,3.601-5.177,2.091c0.517,1.705-0.337,2.223-1.81,2.552
					c-1.044,0.233-2.043,0.879-2.942,1.511c-3.143,2.212-6.591,3.282-10.421,2.875c-0.847-0.09-1.653-0.587-2.471-0.913
					c-0.857-0.341-1.707-0.702-2.828-1.166c-0.045,0.506-0.212,0.949-0.088,1.282c0.316,0.846-0.002,1.21-0.781,1.428
					c-3.033,0.848-5.961,0.91-8.669-1.02c-0.29-0.207-0.685-0.422-1.012-0.396c-1.568,0.126-3.133,0.306-4.692,0.523
					c-0.855,0.119-1.253,0.652-1.162,1.555c0.07,0.697-0.035,1.421,0.103,2.1c0.315,1.555-0.641,2.054-1.833,2.13
					c-3.655,0.233-7.332,0.648-10.971,0.449c-4.213-0.23-8.391-1.058-12.591-1.575c-0.665-0.082-1.42-0.031-2.037,0.208
					c-1.162,0.449-1.652-0.086-1.99-1.05c-0.786-2.24-1.615-4.466-2.338-6.727c-0.285-0.893-0.647-1.552-1.547-1.987
					c-3.726-1.802-7.337-3.874-11.154-5.448c-2.314-0.954-4.928-1.179-7.407-1.73c-2.424-0.539-4.832-1.179-7.279-1.58
					c-1.67-0.274-3.399-0.341-5.092-0.268c-1.904,0.082-3.793,0.562-5.695,0.617c-2.156,0.063-3.914,0.731-5.27,2.425
					c-1.28,1.599-2.553,3.205-3.88,4.764c-1.143,1.343-1.252,2.986-1.279,4.577c-0.053,3.078,0.103,6.159,0.134,9.24
					c0.004,0.414-0.215,0.83-0.33,1.245c-0.403-0.181-0.914-0.262-1.192-0.559c-1.828-1.954-2.93-4.331-3.641-6.867
					c-0.898-3.202-1.461-6.471-1.204-9.819c0.103-1.345,0.341-2.679,0.524-4.018c0.206-1.508,0.707-3.042,0.569-4.517
					c-0.272-2.902,1.354-4.588,3.056-5.97c0-1.582-0.012-2.942,0.007-4.303c0.006-0.465,0.102-0.928,0.135-1.394
					c0.116-1.635-0.339-2.078-2.467-1.886c0.594-0.783,0.88-1.5,1.403-1.789c2.396-1.328,4.794-2.691,7.315-3.745
					c2.78-1.162,5.591-2.227,8.707-2.46c1.683-0.125,3.273-1.245,4.948-1.783c2.79-0.896,5.614-1.689,8.425-2.519
					c2.764-0.817,5.484-1.903,8.306-2.375c4.43-0.742,8.922-1.149,13.401-1.548c5.212-0.465,10.434-0.828,15.659-1.121
					c3.244-0.182,6.453-0.676,9.768-0.185c2.042,0.303,4.236-0.464,6.367-0.697c4.948-0.543,9.865-0.299,14.754,0.629
					c4.852,0.92,9.711,1.806,14.563,2.73c0.633,0.12,1.245,0.361,1.86,0.566c1.93,0.645,3.93,1.141,5.767,1.988
					c2.832,1.305,4.541,3.747,5.059,6.728c0.621,3.572,0.724,7.232,1.225,10.829C139.051,62.423,139.051,64.77,137.557,66.901z
					 M82.048,58.967c0.14-0.003,0.28-0.005,0.42-0.008l-0.048-0.045c0.115,0.107,0.23,0.214,0.345,0.322
					c0.272,0.088,0.545,0.177,0.817,0.265c0.272,0.099,0.545,0.198,1.107,0.401c-0.452-0.43-0.668-0.636-0.885-0.841
					c-0.07-0.215-0.14-0.43-0.21-0.645c0.21-0.023,0.42-0.047,0.63-0.07c0.437,0.105,0.873,0.211,1.31,0.316
					c0.564,0.304,1.127,0.607,1.691,0.911c0.071-0.117,0.143-0.235,0.214-0.352c-0.564-0.503-1.265-0.918-1.661-1.53
					c-0.633-0.976-1.353-1.117-2.319-0.665c-0.154-0.008-0.309-0.016-0.463-0.025c-0.234-0.3-0.468-0.601-0.702-0.901l0.007,0
					c-0.233-0.054-0.466-0.108-0.7-0.163c-0.577-0.986-1.153-1.973-1.659-2.838c-0.027,0.276-0.075,0.757-0.123,1.239
					c-0.247-1.727-0.062-3.466-0.299-5.145c-0.24-1.706-0.897-3.354-1.371-5.027c-0.134,0.03-0.268,0.061-0.402,0.091
					c-0.073,0.482-0.147,0.965-0.22,1.447c-0.32-0.272-0.639-0.544-0.959-0.815c0.157-0.57,0.315-1.14,0.519-1.879
					c-0.656-0.36-1.485-0.814-2.314-1.268c0.095-0.14,0.19-0.279,0.285-0.419c1.204,0.834,2.409,1.668,3.529,2.443
					c0.285-0.831,0.607-1.773,0.929-2.713c-0.313-0.083-0.687-0.082-0.928-0.262c-1.956-1.458-4.052-0.861-6.192-0.603
					c-2.181,0.263-4.401,0.204-6.604,0.286c0.092-0.287,0.204-0.411,0.316-0.411c1.185,0.002,2.378,0.111,3.554,0.018
					c1.573-0.124,3.129-0.527,4.7-0.579c1.629-0.054,3.339-0.38,4.838,0.754c0.321,0.243,0.973,0.246,1.398,0.116
					c1.642-0.502,3.253-1.104,4.877-1.667c0.76-0.264,1.521-0.524,2.282-0.786c-0.027-0.113-0.054-0.225-0.081-0.338
					c-2.678,0.176-5.356,0.334-8.032,0.53c-7.546,0.555-15.091,1.126-22.637,1.691c-2.631,0.197-7.157,2.262-8.988,4.018
					c1.038,0,2.236,0,3.433,0c0.005,0.143,0.011,0.287,0.016,0.43c-1.273,0.085-2.546,0.169-3.326,0.221
					c-0.619,1.604-0.931,2.865-1.57,3.93c-0.527,0.88-0.507,1.506,0.029,2.291c0.974,1.428,1.845,2.93,2.862,4.325
					c0.945,1.297,1.903,2.627,3.071,3.708c2.358,2.182,4.961,4.016,7.823,5.569c2.898,1.573,5.87,2.807,9.051,3.547
					c2.874,0.668,5.542,2.197,8.652,1.923c1.565-0.138,3.157,0.044,4.737,0.057c2.321,0.019,4.643-0.021,6.963,0.042
					c0.957,0.026,1.909,0.255,2.864,0.391c-3.346-3.015-7.379-3.472-11.529-3.735c-3.198-0.203-6.401-0.589-9.556-1.149
					c-2.344-0.416-4.188-1.96-6.266-3.496c2.458,1.156,4.608,2.336,6.879,3.195c3.171,1.2,6.55,0.826,9.862,0.923
					c4.007,0.117,7.862,0.955,10.984,3.584c1.845,1.554,3.71,1.249,5.64,0.775c0.709-0.174,1.271-0.942,1.741-1.313
					c-1.432,0.02-2.831,0.108-4.222,0.037c-1.051-0.054-1.334-0.797-0.941-1.687c0.439-0.995-0.046-1.465-0.847-1.812
					c-3.243-1.404-6.457-2.884-9.751-4.157c-1.622-0.627-3.509-0.614-5.072-1.334c-2.672-1.231-5.246-1.124-7.862-0.132
					c-5.245,1.99-10.03,0.455-14.544-2.087c-3.252-1.832-5.186-4.876-6.128-8.504c-0.394-1.518-0.664-3.04,0.04-4.545
					c0.121,0.491-0.025,0.982,0.03,1.449c0.1,0.857,0.059,1.914,0.543,2.503c0.836,1.017,3.787,0.089,4.44-1.117
					c0.194-0.359,1.154-0.737,1.345-0.584c0.673,0.539,1.465,1.234,1.647,2.003c0.214,0.905,0.375,1.325,1.375,1.509
					c0.896,0.165,1.65,0.984,1.323,1.964c-0.181,0.542-0.994,0.912-1.584,1.253c-0.147,0.085-0.66-0.177-0.773-0.398
					c-0.115-0.225,0.054-0.596,0.114-1.005c0.456,0.409,0.715,0.821,1.011,0.849c0.24,0.023,0.738-0.411,0.742-0.647
					c0.006-0.41-0.176-1.07-0.465-1.195c-1.243-0.539-2.547-0.943-3.846-1.338c-0.211-0.064-0.538,0.128-0.767,0.273
					c-1.094,0.692-2.173,1.408-3.451,2.243c0.338,0.224,0.622,0.413,0.905,0.602c0.205,0.51,0.312,1.094,0.631,1.518
					c1.681,2.226,4.307,3.026,6.652,4.226c0.447,0.229,1.137-0.017,1.924-0.054c-1.298-2.062-2.974-3.04-4.766-3.842
					c-1.466-0.656-2.968-1.233-4.455-1.845c-0.016-0.044-0.051-0.091-0.043-0.13c0.007-0.033,0.069-0.083,0.097-0.078
					c3.343,0.668,6.513,1.718,8.771,4.464c0.409,0.498,0.432,1.313,0.73,2.302c2.082,0.58,4.61,0.58,7.625-0.25
					c-1.51-1.201-2.609-2.462-3.995-3.069c-1.426-0.625-3.132-0.612-4.931-0.914c3.853-1.063,7.226,1.047,9.069,4.031
					c0.463-0.282,0.923-0.562,1.032-0.629c-0.378-1.068-0.68-1.921-0.983-2.775c0.077-0.244,0.154-0.488,0.231-0.732
					c0.216-0.506,0.37-1.4,0.659-1.446c0.864-0.138,0.763-0.647,0.77-1.201c0.036-2.712-0.877-3.698-3.584-3.938
					c-2.399-0.212-4.795-0.461-7.523-0.725c0.638-0.139,0.98-0.292,1.312-0.272c2.094,0.125,4.188,0.268,6.278,0.446
					c2.862,0.244,3.99,1.437,4.002,4.308c0.004,0.97,0.376,1.462,1.225,1.942c0.899,0.509,1.98,1.228,2.308,2.107
					c0.735,1.97,2.19,2.664,4.042,3.103c-0.751-0.919-0.049-1.137,0.601-1.381c0.204,0.203,0.408,0.405,0.612,0.608L82.048,58.967z
					 M70.688,70.179c-0.098,0.19-0.195,0.38-0.293,0.57c0.256,0.498,0.511,0.995,0.767,1.493c-0.096,0.087-0.193,0.174-0.289,0.261
					c-0.551-0.608-1.319-1.126-1.615-1.84c-1.141-2.759-3.839-2.951-6.23-4.252c0,1.412-0.092,2.492,0.019,3.552
					c0.222,2.122,0.54,4.222,3.074,4.971c0.389,0.115,0.661,0.602,1.004,0.896c0.546,0.468,1.078,0.96,1.666,1.37
					c1.089,0.759,2.214,1.466,3.324,2.195c-0.118,0.169-0.236,0.337-0.354,0.506c-0.53-0.363-1.061-0.727-1.625-1.113
					c0.251,0.592,0.464,1.094,0.833,1.962c-1.589-0.702-2.78-1.228-3.97-1.754c-0.044,0.106-0.087,0.212-0.131,0.318
					c0.613,0.27,1.226,0.539,1.839,0.809c-0.037,0.088-0.075,0.175-0.112,0.263c-0.522-0.191-1.043-0.383-1.565-0.574
					c0.272,0.526,0.667,1.086,1.098,1.116c1.916,0.132,3.413,1.41,5.334,1.727c1.583,0.261,3.165,1.123,4.881,1.346
					c1.285,0.167,2.542,0.537,3.818,0.785c1.392,0.27,2.791,0.504,4.332,0.779c0.326-0.78,0.929-0.672,1.655-0.08
					c0.255,0.207,0.807,0.444,0.95,0.329c0.881-0.711,1.672-0.202,2.501,0.042c1.402,0.413,2.675,0.261,3.845-0.941
					c-1.192-0.241-2.255-0.361-3.257-0.678c-2.132-0.674-2.88-0.538-2.817-3.018c0.028-1.093-0.632-2.204-0.98-3.307
					c0.451,0.742,1.05,1.435,1.313,2.239c0.296,0.906,0.289,1.911,0.419,2.912c1.676,0.406,3.33,0.703,4.912,1.218
					c1.558,0.507,2.619-0.232,3.336-1.318c0.726-1.1,0.822-2.342-0.174-3.581c-0.943-1.173-1.515-2.64-2.423-3.848
					c-1.002-1.332-2.082-2.659-3.354-3.716c-0.844-0.7-2.063-0.993-3.156-1.334c-0.926-0.289-1.893,0.621-2.882,0.055
					c-0.023-0.013-0.347,0.498-0.531,0.765c-0.466-0.094-0.933-0.189-1.399-0.283c-0.783-0.079-1.567-0.159-2.404-0.243
					c0.066,0.428,0.101,0.652,0.136,0.875c-0.262-0.238-0.495-0.539-0.801-0.682c-0.123-0.057-0.408,0.233-0.619,0.364
					c-0.274-0.155-0.549-0.311-0.885-0.501c0,0.428,0,0.736,0,1.044c-0.371-0.173-0.742-0.346-1.113-0.518
					c-0.509-0.131-1.018-0.261-1.527-0.392c0.053,0.408,0.106,0.815,0.144,1.11c-1.227-0.52-2.507-1.063-3.846-1.631
					c-0.07,0.331-0.125,0.591-0.18,0.85c-0.18-0.082-0.359-0.164-0.539-0.245c-0.279-0.196-0.557-0.393-0.836-0.589
					c-0.074,0.173-0.149,0.345-0.223,0.518c-0.292-0.201-0.584-0.402-0.877-0.603C70.825,70.302,70.761,70.237,70.688,70.179z
					 M59.531,67.221c0.021,0.004,0.043,0.007,0.064,0.011c-0.028-0.011-0.056-0.021-0.084-0.032
					c0.008-0.087,0.016-0.173,0.019-0.208C59.53,67.034,59.53,67.128,59.531,67.221z M104.411,65.507
					c0.015,0.337,0.029,0.674,0.044,1.011c-0.893,0.619-1.632,1.311-1.209,2.553c0.042,0.242,0.084,0.483,0.126,0.725
					c0.462,0.52,0.925,1.04,1.489,1.674c0.061-0.667,0.101-1.115,0.142-1.564c0.057,0.001,0.114,0.003,0.171,0.004
					c0.025,0.494,0.051,0.989,0.09,1.747c0.18-0.45,0.272-0.678,0.488-1.218c-0.064,0.939-0.106,1.546-0.148,2.152
					c0.099-0.008,0.197-0.017,0.296-0.025c0.24-1.185,0.479-2.37,0.719-3.556c0.372,1.587-0.952,3.178,0.228,4.88
					c0.774-0.832,1.404-1.552,2.082-2.224c0.507-0.502,1.188-0.79,1.663-0.102c0.187,0.27-0.068,0.972-0.304,1.368
					c-0.189,0.317-0.654,0.468-0.997,0.693c-0.069-0.088-0.139-0.175-0.208-0.263c0.345-0.455,0.691-0.91,1.036-1.366
					c-0.14-0.125-0.28-0.251-0.421-0.376c-0.633,0.585-1.267,1.17-2.086,1.927c1.843,0.821,0.942,1.679,0.494,2.508
					c5.582-0.333,5.582-0.333,6.657,0.487c-0.606,0.06-1.268,0.126-1.93,0.192c-0.365,0.071-0.8-0.141-1.239-0.151
					c-0.946-0.023-1.898,0.014-2.838,0.119c-0.345,0.039-0.965,0.44-0.943,0.505c0.286,0.862,0.663,1.694,1.018,2.534
					c0.113-0.049,0.225-0.099,0.338-0.148c-0.139-0.561-0.277-1.123-0.416-1.684c0.121-0.031,0.242-0.061,0.363-0.092
					c0.104,0.397,0.234,0.789,0.307,1.192c0.263,1.434,0.666,2.768,2.203,3.365c0.115-0.042,0.229-0.083,0.344-0.125
					c0.2,0.091,0.4,0.182,0.676,0.307c0-0.287,0-0.49,0-0.654c0.623,0.244,1.171,0.458,1.699,0.665
					c-0.164-1.716-0.311-3.263-0.459-4.81c0.168-0.008,0.336-0.015,0.503-0.023c0,0.347-0.045,0.701,0.008,1.039
					c0.2,1.278,0.215,2.64,0.698,3.806c0.959,2.311,3.112,2.21,5.263,2.2c-0.174-0.293-0.29-0.488-0.362-0.609
					c2.708,1.369,4.451-1.085,6.708-1.728c-0.114-0.533-0.238-1.11-0.362-1.688c0.054-0.01,0.108-0.02,0.162-0.03
					c0.174,0.419,0.349,0.839,0.686,1.65c0.442-0.727,0.744-1.224,0.984-1.618c0.19,0.046,0.736,0.328,0.885,0.188
					c0.42-0.394,0.677-0.962,0.965-1.41c0.094,0.128,0.327,0.444,0.559,0.76c-0.047-0.975-0.482-1.77-0.565-2.601
					c-0.155-1.547-2.461-4.276-3.967-4.427c-0.241-0.024-0.534,0.104-0.75,0.244c-1.765,1.142-2.424,1.169-3.896,0.116
					c-1.448-1.037-2.035-2.596-1.675-4.239c0.104-0.475,0.016-0.993,0.016-1.491c-0.127-0.019-0.253-0.039-0.38-0.058
					c-0.817,2.239-0.591,5.09-3.473,6.124c1.159-1.353,2.491-2.594,2.334-4.624c-0.075-0.965,0.904-2.147-0.649-2.761
					c0.332-0.643,0.663-1.287,0.995-1.93c-0.097-0.204-0.195-0.409-0.292-0.613c-0.937,2.163-2.461,1.616-3.911,1.397
					c-0.311-0.047-0.718-0.297-0.906-0.178c-0.684,0.433-1.294,0.983-1.997,1.541c1.337,1.217,2.462,1.428,3.689,0.925
					c0.844-0.346,1.648-0.789,2.47-1.188c-1.839,2.261-3.94,2.596-6.156,0.94c-0.315,0.7-0.625,1.387-0.934,2.073
					c-0.146-0.066-0.292-0.131-0.438-0.197c0.353-0.831,0.619-1.713,1.074-2.484c1.87-3.17,4.948-3.456,8.104-3.012
					c1.341,0.189,2.627,1.026,3.849,1.724c1.163,0.664,0.926,1.925,0.968,3.034c0.004,0.107,0.171,0.208,0.342,0.402
					c1.201-0.979,1.976-2.223,2.122-3.723c0.149-1.533-0.172-2.926,0.954-4.483c1.29-1.786,1.685-4.218,2.564-6.632
					c0.164,0.605,0.238,0.878,0.312,1.15c0.051-0.012,0.103-0.025,0.154-0.037c0.018-0.379,0.036-0.758,0.07-1.46
					c0.113,0.695,0.174,1.064,0.272,1.669c0.153-0.444,0.212-0.617,0.277-0.806c0.179,0.217,0.338,0.412,0.498,0.606
					c-1.037,2.324-2.14,4.622-3.093,6.98c-0.876,2.166-0.975,4.682-2.978,6.326c-0.194,0.159-0.237,0.501-0.351,0.758
					c0.451,0.036,0.692-0.104,0.9-0.284c2.045-1.765,2.272-4.409,3.265-6.69c0.959-2.204,1.844-4.515,3.236-6.435
					c1.39-1.916,2.493-3.898,3.242-6.097c0.652-1.914-0.801-5.381-2.679-6.14c-2.771-1.119-5.564-2.277-8.454-2.986
					c-3.71-0.911-7.57-1.209-11.286-2.1c-6.365-1.527-12.73-2.096-19.225-1.082c-2.65,0.414-5.37,0.358-7.896,1.504
					c-0.918,0.416-1.964,0.579-2.968,0.774c-3.098,0.602-4.636,2.759-4.116,5.887c0.13,0.784,0.358,1.552,0.541,2.328
					c0.124-0.029,0.248-0.058,0.372-0.087c0.028-0.407,0.057-0.815,0.085-1.222c0.212,0.514,0.204,1.028,0.214,1.541
					c0.027,1.466-0.082,2.953,0.133,4.391c0.195,1.299,2.032,2.479,3.267,2.373c0.659-0.057,1.317-0.12,2.009-0.183
					c-0.274,1.189,1.513,2.853,2.8,2.506c1.284-0.346,1.974,0.301,2.362,1.162c0.734,1.631,2.043,2.33,3.626,2.461
					c1.721,0.142,2.956,0.806,3.593,2.458c0.856-0.824,1.198-1.593,0.687-2.672c-0.334-0.706-0.513-1.529-0.562-2.312
					c-0.033-0.515,0.124-1.276,0.481-1.54c1.147-0.849,1.457-1.991,1.551-3.283c0.026-0.348,0.052-0.697,0.078-1.045
					c0.533,1.855-0.116,3.374-1.131,4.833c-0.295,0.424-0.401,1.111-0.319,1.635c0.145,0.929,0.5,1.826,0.856,3.042
					c0.828-0.993,1.5-2.031,2.398-2.809c0.874-0.757,1.978-1.247,2.982-1.854c0.066,0.103,0.131,0.206,0.197,0.309
					c-0.579,0.379-1.214,0.696-1.728,1.149c-1.449,1.278-2.874,2.586-4.25,3.941c-0.413,0.406-0.606,1.027-0.955,1.509
					c-0.424,0.585-0.821,1.479-1.382,1.617c-1.36,0.334-1.363,1.221-1.44,2.189c2.593,1.475,4.741,0.303,6.556-2.319
					c0.955-1.379,2.032-2.195,3.509-2.695c0,0.092,0,0.185,0,0.277C105.33,64.109,104.871,64.808,104.411,65.507z M56.607,65.416
					c-0.639-1.01-1.302-2.005-1.907-3.035c-0.422-0.717-0.934-0.597-1.514-0.284c-1.289-2.021-2.579-4.043-4.002-6.274
					c0.289,3.46,0.55,6.586,0.811,9.713c-0.996-2.137-1.692-4.285-2.44-6.414c-0.344-0.978-0.539-2.166-2.081-1.934
					c-0.266,0.04-0.639-0.199-0.866-0.412c-1.141-1.071-2.092-2.451-3.407-3.207c-2.233-1.283-1.951-3.605-2.739-5.466
					c0.517,0.924,0.838,1.929,1.215,2.913c0.176,0.46,0.384,0.95,0.712,1.302c0.82,0.882,1.766,1.648,2.573,2.541
					c1.963,2.172,4.224,2.353,5.972,0.378c-0.898-1.404-1.747-2.857-2.725-4.219c-0.692-0.964-0.736-1.741-0.137-2.812
					c0.341-0.611,0.352-1.736-0.007-2.299c-0.275-0.432-1.357-0.384-2.089-0.475c-0.308-0.039-0.64,0.112-0.96,0.177
					c-0.029-0.127-0.058-0.253-0.087-0.38c0.824-0.181,1.715-0.639,2.451-0.46c0.667,0.161,1.166,1.017,1.781,1.607
					c0.024-0.308,0.17-0.707,0.061-1.016c-0.549-1.554,0.485-2.127,1.56-2.759c0.994-0.584,1.929-1.267,2.89-1.906
					c-0.497-0.188-0.869-0.165-1.217-0.059c-2.581,0.782-5.159,1.571-7.733,2.377c-2.175,0.681-4.354,1.351-6.509,2.091
					c-2.14,0.735-4.387,1.307-6.348,2.385c-3.793,2.086-7.407,4.495-11.12,6.73c-1.068,0.643-2.218,1.149-3.331,1.717
					c2.08-1.547,4.261-2.877,6.476-4.148c2.185-1.254,4.405-2.448,6.609-3.668c-3.248-0.646-13.479,3.273-15.656,5.577
					c1.593,0.973,1.881,2.109,1.521,4.32c-0.194,1.187,0.044,2.447,0.11,3.673c0.016,0.308,0.12,0.611,0.18,0.897
					c-2.216,0.953-3.635,3.349-3.159,5.015c0.833-1.11,1.639-2.364,2.653-3.419c0.291-0.303,1.521-0.276,1.742,0.025
					c0.923,1.257,1.914,2.582,1.419,4.343c-0.466,1.657-0.954,3.31-1.349,4.984c-0.128,0.54-0.225,1.362,0.068,1.671
					c0.697,0.735,0.396,1.353,0.134,2.051c-0.243,0.65-0.488,1.301-0.732,1.951c0.105,0.046,0.21,0.092,0.316,0.137
					c0.122-0.182,0.242-0.364,0.366-0.544c2.899-4.245,5.892-8.293,11.923-7.855c1.35,0.098,2.732-0.258,4.1-0.405
					c-3.597-1.692-7.184-0.509-10.787-0.313c1.199-0.361,2.412-0.634,3.64-0.784c2.169-0.265,4.354-0.777,6.503,0.128
					c1.069,0.45,2.079,1.212,3.342,0.492c0.159-0.09,0.504,0.129,0.756,0.223c1.175,0.439,2.314,1.052,3.528,1.295
					c3.5,0.701,7.03,1.251,10.547,1.868c0.612,0.107,1.26,0.154,1.819,0.395c1.28,0.553,2.51,1.222,3.781,1.8
					c0.09,0.041,0.34-0.271,0.515-0.42c0.454,0.485,0.908,0.97,1.59,1.699c0.035-0.651,0.046-0.872,0.058-1.093
					c0.634,0.455,1.268,0.911,1.846,1.326c-0.219-0.656-0.482-1.444-0.745-2.232c0.617,1.105,1.235,2.21,1.852,3.314
					c0.129-0.404,0.028-0.696-0.093-0.979c-0.771-1.81-1.546-3.618-2.319-5.426c1.106,2.069,2.211,4.137,3.398,6.358
					c-0.028-0.407-0.044-0.637-0.06-0.866c0.092-0.876,0.183-1.752,0.275-2.627c0.416,0.515,0.832,1.031,1.389,1.722
					c-0.212-0.992-0.372-1.741-0.532-2.489c0.093-0.053,0.185-0.106,0.278-0.16c-0.08-0.065-0.159-0.13-0.239-0.196
					c-0.041-0.104-0.082-0.208-0.123-0.312l-0.019-0.098l-0.067,0.058c-0.291-0.318-0.649-0.598-0.859-0.963
					c-0.473-0.821-0.873-1.684-1.303-2.529c-0.061,0.029-0.121,0.058-0.182,0.087c0.08,0.256,0.161,0.512,0.241,0.767
					c-0.721-0.992-1.442-1.985-2.163-2.977C57.535,66.878,57.071,66.147,56.607,65.416z M102.366,73.358
					c0.408,0.443,0.817,0.886,1.225,1.33c0.246,0.62,0.493,1.241,0.72,1.815c-0.205,0.317-0.472,0.732-0.833,1.292
					c-1.749-0.135-3.655-0.281-5.971-0.459c0.724,1.161,1.311,1.925,1.705,2.778c0.479,1.039,1.206,1.187,2.17,0.899
					c1.281-0.383,2.587-0.704,3.831-1.184c0.55-0.213,1.196-0.657,1.411-1.161c0.46-1.081,0.667-2.269,0.999-3.492
					c-0.78-0.687-1.643-1.448-2.506-2.209c0.434,0.832,1.083,1.423,1.671,2.069c0.096,0.106-0.079,0.458-0.129,0.696
					c-1.14-1.28-2.28-2.559-3.42-3.839c-0.467-0.446-0.918-0.91-1.404-1.333c-0.698-0.608-1.062-0.39-1.107,0.498
					c-0.513,0-1.025,0-1.437,0c1.384,1.75,2.676,3.383,3.879,4.904C102.909,75.118,102.638,74.238,102.366,73.358z M136.461,58.302
					c-1.462-0.746-1.941-0.532-2.829,0.658c-0.452,0.607-1.239,1.222-1.946,1.319c-1.002,0.137-1.233,0.589-1.524,1.426
					c-0.775,2.232-1.478,4.546-2.668,6.556c-0.686,1.159-0.791,2.005-0.259,3.036c0.424,0.823,0.931,1.628,1.539,2.321
					c0.377,0.429,1.01,0.633,1.529,0.937c0.146-0.133,0.292-0.265,0.437-0.398c-0.397-0.728-0.794-1.456-1.207-2.214
					c1.048,0.019,1.501,0.67,1.722,1.675c0.156,0.708,0.337,1.463,0.731,2.045c0.187,0.275,1.035,0.406,1.333,0.214
					c0.276-0.178,0.371-0.913,0.265-1.331c-0.115-0.456-0.554-0.83-0.874-1.27c0.946,0.138,1.688,0.281,2.436,0.345
					c0.852,0.073,1.042-0.302,0.763-1.113c-0.37-1.072-0.621-2.186-0.968-3.445c0.659,0.106,1.023,0.164,1.154,0.185
					c0.3-2.107,0.587-4.118,0.874-6.129c0.126,0.005,0.253,0.009,0.379,0.014c0.122,0.353,0.244,0.706,0.366,1.059
					c0.143-0.015,0.286-0.03,0.429-0.045c-0.379-4.92-0.758-9.841-1.137-14.761c-0.141-0.043-0.282-0.086-0.424-0.129
					c-0.547,4.255-4.164,6.833-5.782,10.698c1.371-0.125,2.145-0.507,2.683-1.597c0.539-1.09,1.643-1.236,2.795-0.822
					c0.726,0.261,0.837,0.663,0.41,1.27c-0.537,0.764-1.285,1.463-1.553,2.313c-0.377,1.194-0.977,2.921-0.439,3.664
					c0.917,1.265,0.331,1.986-0.152,2.855c-0.428,0.772-0.664,1.419-0.306,2.328c0.447,1.135-0.136,1.97-1.208,2.7
					c0-0.91,0.216-1.703-0.044-2.283c-0.583-1.303-0.026-2.203,0.628-3.225c0.348-0.543,0.688-1.374,0.519-1.915
					c-0.63-2.02-0.069-3.66,1.173-5.216C135.736,59.493,136.076,58.885,136.461,58.302z M14.425,92.726
					c0.139-0.054,0.278-0.109,0.416-0.163c-0.077-0.924-0.218-1.848-0.219-2.773c-0.003-2.381,0.036-4.762,0.097-7.142
					c0.039-1.533-0.049-3.11,0.291-4.582c0.243-1.051,0.818-1.928-0.008-2.972c-0.194-0.245-0.07-0.822,0.039-1.209
					c0.228-0.806,0.545-1.586,0.823-2.378c0.914-2.611,1.21-5.16-1-7.857c-0.705,1.288-1.434,2.343-1.872,3.507
					c-0.343,0.914-0.2,2.001-0.488,2.945c-1.981,6.494-1.331,12.908,0.534,19.28C13.375,90.533,13.957,91.613,14.425,92.726z
					 M137.4,67.607c-0.209,0.059-0.419,0.118-0.628,0.177c0.209,0.736,0.418,1.473,0.654,2.305c-0.475,0-0.981,0-1.486,0
					c0.352,1.785,0.682,3.453,1.011,5.121c0.103-0.01,0.206-0.02,0.309-0.03c0.139-0.707,0.278-1.415,0.437-2.225
					c0.134,0.736,0.245,1.34,0.355,1.944c0.088-0.018,0.176-0.036,0.265-0.054c-0.058-0.951-0.115-1.903-0.173-2.854
					c0.044-0.004,0.089-0.008,0.133-0.012c0.196,0.881,0.393,1.763,0.589,2.644c0.055-0.017,0.11-0.035,0.165-0.052
					c-0.015-0.325-0.03-0.65-0.048-1.048c0.257,0.332,0.443,0.573,0.436,0.564c0.283-0.73,0.755-1.438,0.804-2.173
					C140.369,69.795,138.643,68.843,137.4,67.607z M123.779,69.317c-0.118-0.494-0.302-0.826-0.249-1.116
					c0.28-1.541-0.622-2.379-1.796-2.983c-0.525-0.27-1.515-0.577-1.716-0.352c-0.533,0.596-0.75,1.474-1.093,2.24
					c0.139,0.069,0.277,0.139,0.416,0.208c0.362-0.171,0.723-0.341,1.176-0.555c-0.043,0.331-0.071,0.55-0.1,0.772
					c0.794,0.037,1.492,0.069,2.111,0.098c-0.084,0.577-0.178,1.224-0.3,2.063C122.896,69.531,123.285,69.437,123.779,69.317z
					 M67.356,89.483c1.269-0.056,1.926-0.613,2.051-1.73c0.202-1.799-1.346-2.054-2.446-2.649c-0.255-0.138-0.717,0.105-1.167,0.188
					C66.355,86.799,66.84,88.099,67.356,89.483z M51.653,49.523c0.294,0.81,0.536,1.476,0.867,2.389
					c0.934-0.531,1.779-0.907,2.502-1.446c1.111-0.829,2.142-1.743,3.441-0.267c0.33-1.562-0.257-2.355-1.674-2.574
					C55.694,49.699,53.835,49.774,51.653,49.523z M71.931,85.394c-0.528-3.007-0.967-3.45-3.511-3.446
					c0.402,1.31,0.805,2.622,1.169,3.805C70.368,85.633,71.099,85.521,71.931,85.394z M63.942,79.536c0.48,1.466,0.91,2.783,1.308,4
					c0.831,0.173,1.537,0.32,2.249,0.468c-0.437-0.947-0.88-1.908-1.324-2.87c0.092-0.042,0.183-0.084,0.275-0.126
					c0.138,0.248,0.275,0.497,0.512,0.925C66.702,80.206,65.977,79.632,63.942,79.536z M92.757,86.9
					c0.204,0.616,0.496,1.219,0.594,1.853c0.212,1.38,0.89,1.418,1.95,0.812c-0.067-1.101-0.132-2.162-0.2-3.264
					C94.246,86.519,93.493,86.712,92.757,86.9z M87.318,90.651c-0.233-0.76-0.553-1.439-0.632-2.145
					c-0.156-1.379-0.6-2.454-2.178-2.776c-0.223,1.563,0.273,2.671,1.724,3.002c-0.328,0.633-0.615,1.187-0.994,1.919
					C86.218,90.651,86.758,90.651,87.318,90.651z M87.785,89.652c0.33,1.151,0.852,1.241,2.04,0.638
					c-0.243-0.84-0.53-1.603-0.677-2.391c-0.212-1.135-0.892-1.701-1.946-1.99c-0.544,1.903,0.394,2.892,1.911,3.618
					C88.708,89.565,88.303,89.603,87.785,89.652z M73.826,89.631c0.051-0.102,0.103-0.204,0.154-0.306
					c-0.757-0.723-1.498-1.464-2.276-2.163c-0.568-0.51-1.28-0.441-1.389,0.282c-0.084,0.556,0.265,1.544,0.691,1.733
					C71.847,89.55,72.875,89.503,73.826,89.631z M90.955,89.458c-0.03,0.104-0.124,0.429-0.218,0.754
					c0.463,0.039,0.926,0.077,1.528,0.128c-0.326-1.297-0.505-2.405-0.915-3.42c-0.14-0.346-0.86-0.457-1.315-0.675
					c-0.07,0.365-0.289,0.784-0.181,1.085C90.096,88.001,90.503,88.613,90.955,89.458z M48.699,56.566
					c-0.605,0.267-1.006,0.444-1.43,0.631c0.695,1.786,1.349,3.469,2.004,5.151c0.056-0.026,0.113-0.052,0.169-0.079
					C49.203,60.439,48.965,58.608,48.699,56.566z M75.544,85.705c0.062-1.336-0.84-2.097-2.567-2.301
					c0.158,2.257,0.364,2.528,2.126,2.766c0.03-0.359,0.059-0.717,0.111-1.338C75.393,85.304,75.469,85.505,75.544,85.705z
					 M79.406,87.203c0.625,0.219,1.189,0.417,1.787,0.628c-0.312-1.285-0.047-2.905-2.21-2.92
					C79.139,85.756,79.279,86.514,79.406,87.203z M136.957,76.988c-0.098-1.506-0.358-1.749-2.817-2.667
					C135.086,75.268,134.946,77.119,136.957,76.988z M75.008,87.265c-0.272,0.078-0.544,0.156-0.815,0.234
					c0.1,0.611,0.067,1.294,0.346,1.808c0.185,0.34,0.817,0.437,1.249,0.643c0.083-0.115,0.165-0.23,0.248-0.345
					C75.693,88.824,75.35,88.044,75.008,87.265z M77.329,84.544c-1.553,0.648-0.456,1.731-0.433,2.689
					C78.718,86.646,77.653,85.525,77.329,84.544z M131.353,77.596c0.425-2.036-0.152-2.705-1.929-2.397
					C130.068,76,130.621,76.687,131.353,77.596z M132.225,76.783c0.123,1.44,1.318,1.209,2.207,1.53
					C134.529,76.782,134.036,76.457,132.225,76.783z M82.467,88.436c1.355-0.401,0.816-1.252,0.572-1.907
					c-0.147-0.395-0.593-0.678-0.905-1.011c-0.116,0.099-0.232,0.198-0.348,0.297C82.002,86.645,82.218,87.476,82.467,88.436z
					 M78.549,88.128c-1.228,0.451-1.626,0.997-1.006,1.71c0.176,0.202,0.662,0.135,1.006,0.191
					C78.549,89.396,78.549,88.762,78.549,88.128z M81.553,90.29c0.069-0.127,0.139-0.253,0.208-0.38
					c-0.602-0.406-1.204-0.812-1.996-1.346C80.03,90.444,80.03,90.444,81.553,90.29z M131.709,80.093
					c0.146-0.06,0.291-0.12,0.437-0.179c0.207-1.656-0.036-2.06-1.342-2.106C131.115,78.594,131.412,79.344,131.709,80.093z
					 M117.398,64.291c-1.055,0.171-1.91,0.31-2.765,0.449C115.569,64.986,116.603,65.844,117.398,64.291z M120.357,68.115
					c0.032,0.433,0.058,0.79,0.088,1.197c0.451,0,0.844,0,1.295,0C121.902,68.231,121.568,67.781,120.357,68.115z M98.819,76.264
					c0.163-0.117,0.326-0.233,0.489-0.35c-0.579-0.787-1.158-1.574-1.736-2.36c-0.118,0.084-0.236,0.168-0.354,0.252
					C97.752,74.626,98.285,75.445,98.819,76.264z M96.399,73.036c0.084-0.098,0.168-0.195,0.252-0.293
					c-0.628-0.403-1.256-0.807-1.884-1.21c-0.061,0.106-0.123,0.212-0.184,0.319C95.188,72.246,95.793,72.641,96.399,73.036z
					 M72.199,56.327c-0.029,0.008-0.072,0.008-0.083,0.027c-0.02,0.033-0.021,0.077-0.029,0.117c0.05-0.011,0.1-0.022,0.15-0.032
					C72.225,56.401,72.212,56.364,72.199,56.327z"/>
				<path class="st1" d="M61.579,74.699c-0.092,0.876-0.183,1.752-0.275,2.627c-0.838-1.784-1.689-3.563-2.509-5.355
					c-0.397-0.868-0.736-1.762-1.102-2.644c0.59,1.001,1.179,2.002,1.904,3.232c0.032-0.549,0.045-0.773,0.058-0.998
					c0.474,0.478,0.947,0.955,1.421,1.433C61.243,73.562,61.411,74.131,61.579,74.699z"/>
				<path class="st1" d="M79.877,71.876c1.366,1.895,3.424,2.821,5.395,3.88c1.007,0.541,1.969,1.166,2.952,1.752
					c-3.269-1.083-6.295-2.608-8.84-4.967c-0.308-0.285-0.418-0.783-0.62-1.183C79.135,71.531,79.506,71.704,79.877,71.876z"/>
				<path class="st1" d="M83.457,57.026c0.966-0.451,1.686-0.311,2.319,0.665c0.396,0.612,1.097,1.027,1.661,1.53
					c-0.071,0.117-0.143,0.235-0.214,0.352c-0.564-0.304-1.127-0.607-1.691-0.911C84.841,58.117,84.149,57.571,83.457,57.026z"/>
				<path class="st1" d="M85.85,71.303c1.24,0.816,2.481,1.633,3.721,2.45c-0.046,0.067-0.092,0.134-0.138,0.2
					c-1.58-0.787-3.166-1.565-4.733-2.377c-0.141-0.073-0.169-0.365-0.249-0.556C84.917,71.114,85.383,71.208,85.85,71.303z"/>
				<path class="st1" d="M77.525,45.705c0.89,0.342,0.806,0.97,0.518,1.684c-0.18,0.446-0.309,0.912-0.344,1.017
					c-0.285-0.761-0.669-1.752-1.025-2.754c-0.084-0.237-0.074-0.507-0.108-0.763C76.886,45.162,77.206,45.433,77.525,45.705z"/>
				<path class="st1" d="M111.627,82.373c-0.702-1.474-1.405-2.948-2.107-4.421c0.12-0.052,0.24-0.104,0.36-0.155
					c0.697,1.484,1.394,2.968,2.091,4.452C111.856,82.289,111.742,82.331,111.627,82.373z"/>
				<path class="st1" d="M105.819,64.411c-0.157,0.281-0.314,0.561-0.469,0.844c0.02-0.003,0.037-0.007,0.055-0.012
					c-0.026-0.012-0.051-0.024-0.077-0.036c-0.142,0.263-0.285,0.526-0.427,0.789c-0.163-0.163-0.327-0.326-0.49-0.489
					c0.459-0.699,0.919-1.398,1.378-2.096c1.169,0.316-0.317,0.707,0.029,1.047l-0.083-0.018L105.819,64.411z"/>
				<path class="st1" d="M83.581,59.501c-0.272-0.088-0.545-0.177-0.817-0.265c-0.115-0.107-0.23-0.214-0.345-0.322l0.048,0.045
					c-0.109-0.096-0.218-0.191-0.328-0.287c-0.322-0.578-0.643-1.156-0.965-1.735l0.095-0.02l0.003-0.097
					c0.108,0.071,0.217,0.142,0.324,0.211c0.097-0.015,0.196-0.028,0.295-0.041c0.099,0.19,0.198,0.38,0.297,0.571
					c-0.067,0.021-0.134,0.042-0.202,0.064c0.067,0.059,0.133,0.118,0.2,0.176c0.089,0.108,0.178,0.215,0.268,0.323l-0.03-0.042
					c0.107,0.107,0.215,0.214,0.322,0.321l-0.045-0.044c0.107,0.107,0.214,0.213,0.321,0.32l-0.043-0.042
					c0.111,0.111,0.222,0.223,0.332,0.334l-0.048-0.044C83.369,59.118,83.475,59.31,83.581,59.501z"/>
				<path class="st1" d="M96.399,73.036c-0.605-0.395-1.211-0.79-1.816-1.184c0.061-0.106,0.123-0.212,0.184-0.319
					c0.628,0.403,1.256,0.807,1.884,1.21C96.567,72.84,96.483,72.938,96.399,73.036z"/>
				<path class="st1" d="M104.411,65.507c0.163,0.163,0.327,0.326,0.49,0.489l0.047-0.046c-0.101,0.196-0.202,0.391-0.303,0.587
					c-0.063-0.005-0.127-0.011-0.19-0.018C104.441,66.181,104.426,65.844,104.411,65.507z"/>
				<path class="st1" d="M82.421,57.784c0.203,0.016,0.406,0.032,0.608,0.048l-0.047-0.039c0.107,0.108,0.214,0.216,0.321,0.325
					l-0.04-0.039c0.091,0.093,0.182,0.185,0.274,0.278l0.055,0.06c0.07,0.215,0.14,0.43,0.21,0.645
					c-0.18-0.045-0.359-0.09-0.539-0.135l0.048,0.044c-0.111-0.111-0.222-0.223-0.332-0.334l0.043,0.042
					c-0.107-0.107-0.214-0.213-0.321-0.32l0.044,0.044c-0.107-0.107-0.215-0.214-0.322-0.321l0.03,0.042
					C82.443,58.01,82.432,57.897,82.421,57.784z"/>
				<path class="st1" d="M82.978,57.517c0.415,0.276,0.83,0.552,1.245,0.829c-0.21,0.023-0.42,0.047-0.63,0.07l-0.055-0.06
					c-0.091-0.093-0.182-0.185-0.274-0.278l0.04,0.039c-0.107-0.108-0.214-0.216-0.321-0.325l0.047,0.039
					C83.012,57.727,82.995,57.622,82.978,57.517z"/>
				<path class="st1" d="M72.869,71.604c-0.018-0.184-0.036-0.369-0.054-0.553c0.18,0.082,0.359,0.164,0.539,0.245
					c0.135,0.292,0.271,0.584,0.406,0.877C73.464,71.983,73.167,71.793,72.869,71.604z"/>
				<path class="st1" d="M103.246,69.071c0.042,0.242,0.085,0.483,0.127,0.725C103.33,69.554,103.288,69.313,103.246,69.071z"/>
				<path class="st1" d="M82.292,56.1c0.234,0.3,0.468,0.601,0.702,0.901l0.03-0.041c-0.2-0.098-0.401-0.196-0.601-0.293
					l0.045,0.055C82.409,56.514,82.351,56.307,82.292,56.1z"/>
				<path class="st1" d="M70.998,56.14c0.077-0.244,0.154-0.488,0.23-0.732C71.152,55.652,71.075,55.896,70.998,56.14z"/>
				<path class="st1" d="M59.53,67.222c0-0.094,0-0.188,0-0.23c-0.003,0.034-0.011,0.121-0.019,0.208L59.53,67.222z"/>
				<path class="st1" d="M72.199,56.327c0.013,0.037,0.025,0.074,0.038,0.112c-0.05,0.011-0.1,0.022-0.15,0.032
					c0.009-0.04,0.009-0.084,0.029-0.117C72.128,56.335,72.171,56.335,72.199,56.327z"/>
				<path class="st1" d="M82.292,56.1c0.058,0.207,0.117,0.414,0.175,0.621c-0.056-0.207-0.112-0.414-0.168-0.621L82.292,56.1z"/>
				<path class="st1" d="M62.436,73.932c0.013-0.118,0.026-0.237,0.039-0.355c0.08,0.065,0.159,0.13,0.239,0.196
					C62.621,73.826,62.528,73.879,62.436,73.932z"/>
				<path class="st1" d="M71.98,70.462c0.026,0.197,0.052,0.394,0.079,0.592c-0.101-0.024-0.201-0.049-0.302-0.073
					C71.831,70.807,71.905,70.634,71.98,70.462z"/>
				<polygon class="st1" points="62.351,73.265 62.265,73.225 62.332,73.167 				"/>
				<path class="st1" d="M82.419,58.914c0.115,0.107,0.23,0.214,0.345,0.322C82.649,59.129,82.534,59.021,82.419,58.914z"/>
				<path class="st1" d="M82.14,58.672c0.109,0.096,0.218,0.191,0.328,0.287c-0.14,0.003-0.28,0.005-0.42,0.008
					c0.046-0.11,0.092-0.22,0.137-0.331L82.14,58.672z"/>
				<path class="st1" d="M82.185,58.637c-0.046,0.11-0.092,0.22-0.137,0.331l-0.117-0.007
					C82.016,58.853,82.101,58.745,82.185,58.637z"/>
				<path class="st1" d="M59.512,67.2c0.028,0.011,0.056,0.021,0.084,0.032c-0.021-0.004-0.043-0.007-0.065-0.01L59.512,67.2z"/>
				<path class="st1" d="M40.75,61.927c-1.687-2.002-2.132-4.527-2.729-7.008c-0.353-1.469-0.808-2.917-1.288-4.351
					c-0.339-1.014-0.798-1.988-1.351-3.342c2.76,3.547,2.955,7.539,4.024,11.245C39.747,59.654,40.296,60.777,40.75,61.927z"/>
				<path class="st1" d="M35.906,62.42c-1.788-0.567-3.229-1.025-4.488-1.425c1.518-0.522,3.216-0.634,4.898,0.765
					c-0.521-0.111-0.888-0.188-1.509-0.32C35.215,61.805,35.43,61.996,35.906,62.42z"/>
				<path class="st1" d="M55.483,73c0.206,0.804,0.412,1.607,0.606,2.367c-0.038-0.011-0.204-0.057-0.37-0.103
					c-0.996-1.606-1.992-3.212-2.988-4.818c0.133-0.076,0.266-0.151,0.398-0.227c0.506,1.016,1.012,2.032,1.435,2.881
					C54.93,73.061,55.206,73.031,55.483,73z"/>
				<path class="st1" d="M51.492,69.517c0.148-0.833,0.234-1.312,0.372-2.088c-0.364,0.507-0.542,0.754-0.674,0.937
					c-0.089-1.008-0.18-2.039-0.259-2.924C52.198,66.426,52.532,67.894,51.492,69.517z"/>
				<path class="st1" d="M77.68,57.084c-0.126-2.347-0.253-4.694-0.379-7.041c0.114-0.006,0.229-0.012,0.343-0.018
					c0,0.922-0.052,1.847,0.012,2.764c0.098,1.404,0.275,2.802,0.419,4.203C77.943,57.022,77.811,57.053,77.68,57.084z"/>
				<path class="st1" d="M81.199,56.97c-0.154,0-0.309,0-0.463,0.001C80.89,56.971,81.044,56.971,81.199,56.97z"/>
				<path class="st1" d="M115.923,46.272c-0.03,0.085-0.053,0.241-0.092,0.245c-2.309,0.252-2.973,2.29-4.112,3.798
					c-1.057,1.4-2.135,2.792-3.078,4.268c-0.365,0.572-0.382,1.366-0.275,2.252c1.501-0.933,3.001-1.867,4.502-2.8
					c-1.378,1.783-3.801,2.317-4.7,4.615c0.283-0.179,0.604-0.319,0.844-0.544c2.155-2.022,4.977-2.754,7.566-3.936
					c0.127-0.058,0.276-0.145,0.398-0.124c3.018,0.53,5.56-1.048,8.28-1.842c0.425-0.124,0.889-0.112,1.41,0.096
					c-1.124,0.386-2.221,0.938-3.377,1.122c-1.99,0.317-3.748,1.738-5.935,1.181c-0.405-0.103-0.938,0.333-1.421,0.495
					c-1.046,0.35-2.098,0.683-3.148,1.022c-0.043,0.014-0.108-0.01-0.137,0.015c-1.688,1.395-3.449,2.713-5.027,4.224
					c-0.796,0.762-1.257,1.873-1.87,2.826c1.271-2.409,1.869-4.975,2.025-7.698c0.136-2.377,2.259-3.639,3.428-5.44
					c0.678-1.045,1.656-1.921,2.193-3.022c0.255-0.523-0.207-1.394-0.344-2.108l0.06-0.064
					C113.873,45.68,114.544,46.677,115.923,46.272z"/>
				<path class="st1" d="M85.018,47.933c0.099-1.262,0.022-2.352,0.305-3.337c0.309-1.076,0.728-2.294,1.502-3.021
					c1.169-1.097,2.811-1.124,4.388-0.837c0.045,0.008,0.088,0.033,0.132,0.046c2.4,0.695,2.4,0.695,3.726-1.393
					c-0.176-0.34-0.359-0.692-0.508-0.98c3.791,0.759,7.755,0.162,11.773,1.52c-2.377-0.125-4.399-0.192-6.413-0.356
					c-0.85-0.069-1.684-0.34-2.523-0.525c-1.071-0.236-1.769,0.236-2.283,1.14c-1.086,1.91-1.162,1.854-3.308,1.378
					c-1.136-0.252-2.36-0.254-3.529-0.167c-0.975,0.073-1.564,0.561-1.676,1.794c-0.126,1.382-0.763,2.72-1.198,4.07
					C85.331,47.5,85.156,47.701,85.018,47.933z"/>
				<path class="st1" d="M133.718,46.555c-1.096-1.308-2.329-2.116-4.204-1.804c-1.104,0.184-2.288-0.181-3.433-0.151
					c-0.929,0.024-1.872,0.194-2.774,0.431c-1.052,0.276-2.028,1.34-3.156,0.153c-0.097-0.102-0.366-0.12-0.522-0.072
					c-1.257,0.387-2.506,0.8-3.757,1.205c0.555-0.375,1.088-0.793,1.676-1.107c0.309-0.165,0.752-0.072,1.071-0.227
					c0.974-0.475,1.856-0.604,2.576,0.54c1.911-1.33,3.9-1.883,6.16-1.202c0.627,0.189,1.39,0.055,2.066-0.066
					c1.714-0.305,3.529,0.467,4.489,1.992C133.846,46.349,133.782,46.452,133.718,46.555z"/>
				<path class="st1" d="M133.718,46.555c0.064-0.103,0.128-0.206,0.191-0.308c1.355,2.781,0.68,5.204-1.259,7.439
					c-0.415,0.479-0.686,1.083-1.024,1.629c0-0.94,0-1.88,0-2.82c0.076-0.004,0.153-0.007,0.229-0.011
					c0.033,0.389,0.065,0.778,0.129,1.546c0.534-1.468,0.937-2.576,1.294-3.554c-0.033-0.055,0.054,0.089,0.142,0.233
					c0.099,0.002,0.198,0.004,0.298,0.007C133.718,49.328,133.718,47.942,133.718,46.555z"/>
				<path class="st1" d="M106.788,40.351c0.533,1.517,2.797,1.753,2.715,3.824c-1.056-1.24-2.051-2.408-3.046-3.577
					C106.567,40.516,106.678,40.434,106.788,40.351z"/>
				<path class="st1" d="M113.054,44.919c-0.204-0.405-0.409-0.811-0.663-1.316c-0.766,0.611-1.648,1.315-2.531,2.02
					c-0.066-0.096-0.133-0.193-0.199-0.289c1.02-0.771,2.04-1.541,3.276-2.476c0.086,0.966,0.132,1.482,0.178,1.997L113.054,44.919z
					"/>
				<path class="st1" d="M82.574,41.639c-0.059,1.276-0.118,2.551-0.197,4.243c-0.45-0.715-0.716-1.138-0.981-1.561
					c0.106-0.062,0.213-0.124,0.319-0.186c0.093,0.203,0.186,0.406,0.274,0.598c0.104-1.068,0.204-2.1,0.304-3.131
					C82.386,41.614,82.48,41.627,82.574,41.639z"/>
				<path class="st1" d="M123.159,54.301c0.132,0.064,0.638,0.293,1.126,0.555c0.365,0.195,0.683,0.492,1.063,0.642
					c1.671,0.658,1.906,1.451,0.763,2.774c-0.692,0.801-1.351,1.645-2.144,2.333c-0.237,0.206-0.93,0.074-1.317-0.109
					c-1.579-0.747-3.08-1.674-4.693-2.331c-0.862-0.351-1.01-0.697-0.604-1.42c0.552-0.982,1.294-1.651,2.507-1.772
					C120.848,54.873,121.818,54.582,123.159,54.301z M117.583,57.297c2.221,0,4.363,0,6.506,0c-0.002,0.091-0.005,0.182-0.007,0.274
					c-1.53,0.087-3.059,0.175-4.499,0.257c1.268,0.784,2.625,1.623,3.753,2.32c0.796-0.769,1.485-1.481,2.224-2.137
					c0.653-0.579,1.11-1.435,0.124-1.727c-1.4-0.414-2.586-2.281-4.367-0.891c-0.118,0.092-0.368,0.039-0.551,0.016
					C119.257,55.22,118.302,55.971,117.583,57.297z"/>
				<path class="st1" d="M116.178,83.649c-0.382-1.79-0.764-3.58-1.146-5.37c0.103-0.025,0.207-0.051,0.31-0.076
					c0.366,1.774,0.732,3.549,1.098,5.323C116.353,83.567,116.265,83.608,116.178,83.649z"/>
				<path class="st1" d="M104.646,66.537c0.101-0.196,0.202-0.391,0.303-0.587c-0.006,0.18-0.012,0.36-0.018,0.54
					c-0.094,0.017-0.188,0.033-0.282,0.049L104.646,66.537z"/>
				<polygon class="st1" points="105.819,64.411 105.737,64.439 105.819,64.457 				"/>
				<path class="st1" d="M101.55,71.336c0.002-0.101,0.005-0.203,0.007-0.304C101.555,71.133,101.552,71.234,101.55,71.336z"/>
				<path class="st1" d="M105.328,65.207c0.026,0.012,0.051,0.024,0.077,0.036c-0.017,0.004-0.035,0.009-0.055,0.012
					C105.348,65.254,105.328,65.207,105.328,65.207z"/>
				<path class="st1" d="M82.979,58.637c0.111,0.111,0.222,0.223,0.332,0.334C83.2,58.859,83.09,58.748,82.979,58.637z"/>
				<path class="st1" d="M82.701,58.359c0.107,0.107,0.214,0.213,0.321,0.32C82.915,58.572,82.808,58.466,82.701,58.359z"/>
				<path class="st1" d="M82.424,58.082c0.107,0.107,0.215,0.214,0.322,0.321C82.638,58.296,82.531,58.189,82.424,58.082z"/>
				<path class="st1" d="M82.423,56.667c0.2,0.098,0.401,0.196,0.601,0.293c-0.001,0.202-0.002,0.404-0.003,0.606
					C82.821,57.266,82.622,56.967,82.423,56.667z"/>
				<path class="st1" d="M83.264,58.078c0.091,0.093,0.182,0.185,0.274,0.278C83.447,58.264,83.356,58.171,83.264,58.078z"/>
				<path class="st1" d="M82.983,57.793c0.107,0.108,0.214,0.216,0.321,0.325C83.197,58.009,83.09,57.901,82.983,57.793z"/>
			</g>
		</g>
		<path d="M62.958,105.797c1.856-0.515,5.137-6.933,6.968-8.339c1.831-1.406,8.626,1.207,11.392,1.214
			c2.766,0.007,8.289-17.176,8.753-19.677c0.464-2.501,3.866-13.915,6.154-14.278c2.287-0.362,2.933,0.4,2.275,1.476
			s-4.944,10.561,0.974,17.179c5.918,6.619,11.602-11.838,12.462-13.563c0.86-1.725,0.391-7.642,4.469-5.339
			s1.937,4.271,2.971,4.563c1.034,0.292,2.771,0.267,0.946,4.306c-1.825,4.039-4.513,12.583-4.441,17.566
			c0.124,8.613,11.143,3.607,12.507,0.537c1.364-3.07,0.179,6.6-3.341,10.588c-10.854,12.294-15.373,5.135-28.654,12.245
			c-4.964,2.658-10.342,1.579-16.463,8.348c-26.287,2.777-45.182-15.857-51.993-23.691c-2.978-3.425,2.417-1.548,14.19,4.631
			c4.298,2.256,9.111,1.311,11.057-0.308C55.996,100.918,59.477,106.762,62.958,105.797z"/>
		<g>
			<path class="st1" d="M67.058,89.133c-0.295,0.379-0.595,0.765-1.082,1.391c1.501,0,2.64,0,3.779,0
				c0.035-0.104,0.071-0.208,0.106-0.312c-0.823-0.359-1.647-0.717-2.849-1.241c0.768-0.068,1.266-0.272,1.59-0.115
				c2.055,0.99,4.264,1.16,6.464,1.522c0.939,0.154,1.861,0.514,2.867,0.538c0.282,0.007,0.553,0.541,0.883,0.892
				c0.698-0.492,1.548-1.876,2.18,0.133c0.516-0.227,0.956-0.42,1.395-0.613c0.034,0.057,0.067,0.114,0.101,0.171
				c-0.515,0.489-1.03,0.977-1.545,1.466c0.064,0.124,0.128,0.248,0.192,0.372c0.606-0.041,1.212-0.082,1.96-0.132
				c-0.096-0.629-0.171-1.116-0.222-1.45c1.079-0.168,2.158-0.337,3.396-0.53c1.692-4.04,2.738-8.411,3.339-12.908
				c0.633-4.74,2.442-8.993,5.557-12.638c1.423-1.666,2.525-1.687,4.499-0.247c-0.282,0.457-0.551,0.932-0.856,1.383
				c-2.966,4.369-2.748,8.858-0.411,13.364c0.622,1.2,1.371,2.436,2.362,3.318c1.207,1.072,2.466,0.93,3.432-0.352
				c2.66-3.532,5.559-6.958,6.706-11.378c0.476-1.835,0.694-3.74,1.241-5.55c0.205-0.678,0.905-1.465,1.56-1.702
				c2.357-0.851,4.433,0.197,5.628,2.545c0.329,0.646,0.736,1.309,1.271,1.778c0.759,0.667,0.924,1.378,0.563,2.245
				c-0.873,2.097-1.858,4.153-2.634,6.284c-0.519,1.427-0.895,2.939-1.092,4.445c-0.374,2.86-0.442,5.763-0.883,8.609
				c-0.382,2.46,1.25,3.738,2.681,5.045c1.103,1.007,2.45,0.516,3.78-0.109c1.774-0.834,3.037-2.119,4.161-3.633
				c0.434-0.585,0.899-1.148,1.62-2.063c0.653,2.575,0.749,4.805,0,6.899c-0.477,1.332-1.568,2.447-2.4,3.649
				c-0.425,0.614-0.937,1.172-1.318,1.81c-2.015,3.376-4.687,5.891-8.651,6.774c-4.726,1.053-9.437,2.18-14.181,3.149
				c-2.107,0.431-4.003,1.069-5.822,2.323c-1.675,1.155-3.733,1.754-5.622,2.598c-0.085-0.149-0.17-0.298-0.255-0.447
				c0.356-0.259,0.711-0.519,1.098-0.801c-0.589-0.065-1.166-0.128-2.02-0.222c1.558-0.137,2.827-0.169,4.062-0.393
				c0.596-0.108,1.174-0.514,1.669-0.902c0.3-0.236,0.425-0.696,0.743-1.257c0.292,0,0.962,0,1.621,0
				c-0.522-2.662-2.541-2.775-4.429-3.136c1.945-0.293,3.564,0.276,4.944,1.676c0.297,0.301,0.865,0.609,1.225,0.532
				c4.991-1.077,9.969-2.219,14.949-3.35c4.264-0.968,7.88-2.854,9.978-6.953c0.336-0.656,0.786-1.332,1.358-1.775
				c2.781-2.152,2.698-5.234,2.676-8.403c-0.579,0.685-1.144,1.382-1.741,2.051c-1.547,1.732-3.198,3.308-5.741,3.297
				c-2.609-0.012-5.316-3.283-5.025-5.885c0.335-2.999,0.432-6.027,0.817-9.018c0.236-1.834,0.337-3.995,1.371-5.335
				c1.236-1.602,1.378-3.488,2.331-5.098c0.664-1.122,0.324-2.02-1.1-2.37c-0.564-0.139-1.118-0.482-1.577-0.854
				c-0.979-0.793-1.912-1.207-3.118-0.396c-0.364,0.245-0.959,0.148-1.809,0.251c2.593-1.612,4.646-1.485,6.579,0.949
				c-0.729-3.104-2.714-4.442-5.353-4.049c-0.946,0.141-1.362,0.715-1.425,1.604c-0.371,5.184-2.44,9.678-5.558,13.754
				c-0.766,1.001-1.431,2.083-2.241,3.045c-1.645,1.955-3.835,2.064-5.325-0.015c-1.144-1.596-1.838-3.535-2.615-5.371
				c-1.58-3.733-0.971-7.304,0.983-10.732c0.208-0.365,0.449-0.712,0.658-1.077c0.092-0.161,0.14-0.346,0.208-0.521
				c-1.933-0.914-1.982-0.955-3.358,0.704c-3.038,3.661-4.621,7.953-5.279,12.619c-0.792,5.621-2.354,11-5.116,15.984
				c-1.676,3.024-4.238,5.178-7.247,6.849c1.1-0.961,2.199-1.922,3.61-3.156c-2.805-0.474-5.287-0.975-7.793-1.287
				c-1.659-0.207-3.319,0.094-4.491,1.441c-1.606,1.845-3.177,3.729-4.638,5.69c-1.064,1.428-1.75,1.674-3.416,1.115
				c-0.961-0.322-2.056-0.232-3.04-0.506c-0.557-0.155-1.128-0.582-1.492-1.045c-1.203-1.53-1.479-1.638-3.264-0.822
				c-0.297,0.136-0.622,0.229-0.887,0.411c-1.672,1.143-3.393,1.977-5.493,1.198c-0.275-0.102-0.637,0.033-0.811,0.047
				c1.501,1.637,3.13,3.262,4.581,5.032c1.802,2.198,4.107,4.039,4.735,7.107c0.154,0.753,1.355,1.372,2.181,1.878
				c0.519,0.318,1.237,0.313,1.867,0.447c0.715,0.153,1.429,0.319,2.149,0.44c0.312,0.053,0.646-0.029,0.961,0.013
				c2.751,0.367,5.5,0.748,8.322,1.135c-0.238-0.16-0.456-0.305-1.01-0.676c1.351,0,2.538,0.323,3.406-0.065
				c2.047-0.915,3.468,1.012,5.339,0.903c0.566-0.033,1.434,0.24,2.139,0.438c1.229,0.345,1.114-0.296,0.951-1.083
				c0.431-0.1,0.885-0.205,1.338-0.31c-0.005-0.111-0.009-0.223-0.014-0.334c-1.136-0.233-2.272-0.467-3.809-0.783
				c1.78-0.262,3.195,0.786,4.535,0.176c-0.003-0.165-0.005-0.329-0.008-0.494c-0.531-0.042-1.062-0.084-1.593-0.126
				c-0.003-0.042-0.006-0.083-0.009-0.125c0.939-0.061,1.878-0.123,2.818-0.184c-0.011-0.144-0.022-0.288-0.034-0.432
				c-0.572,0-1.143,0-1.985,0c1.461-0.3,2.651-0.498,3.816-0.797c1.118-0.287,2.21-0.68,3.313-1.026
				c0.054,0.174,0.109,0.348,0.163,0.522c-0.658,0.23-1.3,0.538-1.977,0.675c-2.238,0.451-3.821,1.701-4.973,3.657
				c-0.696,1.181-1.758,1.881-3.267,1.723c-2.158-0.225-4.327-0.338-6.486-0.55c-2.098-0.206-4.197-0.724-6.283-0.666
				c-3.701,0.103-7.218-0.711-10.565-2.012c-8.015-3.115-15.596-7.123-22.166-12.728c-2.703-2.305-4.935-5.169-7.329-7.825
				c-0.603-0.668-0.556-1.326,0.491-1.687c1.448-0.499,2.662-0.224,3.932,0.629c2.119,1.423,4.271,2.84,6.559,3.952
				c1.314,0.639,2.78,0.69,4.046,1.827c0.849,0.763,2.459,1.519,3.999,0.804c0.274-0.127,0.675-0.133,0.967-0.04
				c1.972,0.627,3.516-0.353,5.099-1.268c2.115-1.223,3.611-1.537,4.811,0.808c0.144,0.281,0.64,0.454,1.004,0.536
				c1.107,0.248,2.304,0.249,3.326,0.679c1.227,0.516,1.931,0.164,2.594-0.811c0.991-1.457,2.023-2.885,3.018-4.339
				c0.13-0.191,0.225-0.478,0.191-0.698c-0.477-3.066-0.983-6.128-1.475-9.192C65.553,89.143,65.896,88.923,67.058,89.133z
				 M38.402,108.241c-0.004,0.156-0.007,0.313-0.011,0.469l-0.039-0.038 M42.662,111.896c3.903,2.005,7.817,3.988,11.895,6.058
				c0.039-2.402-1.03-3.884-2.308-5.265c-1.329-1.436-2.817-2.754-3.96-4.324c-1.454-1.996-3.297-3.204-5.641-3.784
				c-0.392-0.097-0.891-0.253-1.091-0.549c-0.731-1.086-1.849-1.195-2.968-1.519c-1.412-0.408-2.786-1.038-4.076-1.753
				c-1.298-0.719-2.463-1.674-3.703-2.501c-1.063-0.71-2.164-0.416-3.446-0.232c0.295,0.439,0.414,0.705,0.608,0.892
				c1.49,1.427,4.529,4.726,4.678,4.835 M74.317,94.037c-0.127-0.572-0.354-1.143-0.362-1.717c-0.018-1.351-0.793-1.73-2.044-1.754
				c0.698,1.102,1.359,2.148,2.118,3.347c-1.255-0.239-2.185-0.416-3.208-0.611c0,1.298,0,2.488,0,3.783
				c0.957-0.117,1.823-0.223,2.62-0.32c0.31-0.992,0.588-1.881,0.869-2.758c0.124,0.58,0.343,1.158,0.351,1.739
				c0.016,1.121,0.487,1.512,1.616,1.217c0.06-0.421,0.121-0.842,0.181-1.263c0.088-0.008,0.176-0.017,0.264-0.025
				c0.107,0.5,0.215,1,0.342,1.591c0.531,0.106,1.096,0.22,1.786,0.358c-0.121-1.309-0.226-2.441-0.332-3.597
				c-0.65,0-1.192,0-1.744,0c-0.074,0.303-0.162,0.659-0.249,1.015c-0.086-0.01-0.172-0.02-0.258-0.03
				c-0.092-0.717-0.184-1.433-0.277-2.16C75.422,93.254,74.87,93.645,74.317,94.037z M69.944,92.538
				c-0.481,0.134-0.856,0.14-1.095,0.323c-0.7,0.539-1.863,1.112-1.908,1.739c-0.102,1.423,0.355,2.886,0.615,4.517
				c0.96-0.659,1.707-1.134,2.405-1.673c0.216-0.167,0.434-0.52,0.416-0.77C70.278,95.332,70.104,93.995,69.944,92.538z
				 M81.831,98.437c0.375-0.614,0.759-1.138,1.034-1.715c1.01-2.121,0.897-2.294-1.556-2.495c0.06,0.845,0.119,1.677,0.179,2.51
				c-0.083,0.006-0.165,0.012-0.248,0.019c-0.178-0.872-0.356-1.744-0.55-2.69c-0.558-0.038-1.135-0.077-1.717-0.117
				C78.943,97.537,79.035,97.681,81.831,98.437z M76.426,92.9c1.348,0,2.684,0,4.242,0c-0.148-0.609-0.255-1.051-0.396-1.633
				c-0.677,0.504-1.187,0.884-1.49,1.108c-0.553-0.451-1.011-1.135-1.461-1.129C76.256,91.259,76.184,92.091,76.426,92.9z
				 M75.391,121.528c0.031-0.182,0.063-0.364,0.094-0.546c-1.336-0.219-2.671-0.438-4.007-0.656
				c-0.028,0.164-0.057,0.327-0.085,0.491C72.726,121.053,74.059,121.291,75.391,121.528z"/>
			<path class="st1" d="M91.477,111.27c-1.119,0-2.257-0.127-3.355,0.026c-2.512,0.348-4.998,0.882-7.508,1.251
				c-3.933,0.578-7.666-0.281-11.291-1.754c-0.131-0.053-0.214-0.224-0.599-0.647c1.281,0.422,2.192,0.689,3.079,1.02
				c3.687,1.375,7.387,1.159,11.146,0.278c2.994-0.702,6.033-1.211,9.054-1.794c0.213-0.041,0.445,0.017,0.721,0.262
				c-0.692,0.227-1.385,0.454-2.292,0.751c0.49,0.108,0.776,0.171,1.063,0.234C91.49,111.021,91.484,111.145,91.477,111.27z"/>
			<path class="st1" d="M92.881,75.005c-1.478,3.276-1.108,6.712-1.039,10.097c0.045,2.226-0.474,4.208-1.663,6.094
				c-1.771,2.81-3.429,5.691-5.373,8.424c1.226-2.213,2.187-4.637,3.739-6.593c2.63-3.315,3.017-7.023,2.768-10.959
				C91.155,79.552,91.594,77.185,92.881,75.005z"/>
			<path class="st1" d="M105.474,93.013c-1.201-1.616-0.509-3.28-0.359-4.834c0.278-2.899,1.631-5.292,3.889-7.178
				c0.747-0.624,1.29-1.343,0.886-2.511c-0.152-0.44-0.496-1.345,0.562-1.703c0.257-0.087,0.247-0.961,0.448-1.451
				c0.312,2.199,0.301,4.304-1.559,5.948c-3.14,2.776-4.413,6.238-3.759,10.394c0.043,0.275,0.039,0.559,0.033,0.839
				C105.612,92.64,105.548,92.762,105.474,93.013z"/>
			<path class="st1" d="M106.272,92.736c1.353,1.247,3.069,0.977,4.571,0.53c0.658-0.196,1.242-1.429,1.42-2.283
				c0.329-1.573,0.335-3.215,0.48-4.882c0.909,2.162,0.212,6.278-1.476,7.614c-0.574,0.454-1.622,0.309-2.327,0.417
				c0.02,0.009,0.206,0.096,0.409,0.191C107.867,94.707,106.598,94.019,106.272,92.736z"/>
			<path class="st1" d="M117.922,98.273c2.088,0.439,4.679,0.598,4.949,3.126c0.163,1.528-1.39,2.806-2.867,3.656
				c0.605-0.79,1.158-1.628,1.828-2.36c0.856-0.935,0.843-1.756-0.213-2.427c-0.797-0.507-1.69-0.859-2.531-1.299
				C118.688,98.759,118.31,98.506,117.922,98.273z"/>
			<path class="st1" d="M86.085,101.246c-1.201,1.797-2.612,3.389-4.353,4.663c-0.106-0.102-0.212-0.204-0.319-0.306
				c1.446-1.567,2.892-3.133,4.337-4.7C85.862,101.017,85.973,101.132,86.085,101.246z"/>
			<path class="st1" d="M66.926,103.066c0.259,2.071,0.517,4.143,0.776,6.214c-0.113,0.014-0.225,0.027-0.338,0.041
				c-0.256-2.057-0.513-4.114-0.769-6.172C66.705,103.121,66.816,103.094,66.926,103.066z"/>
			<line class="st1" x1="38.851" y1="108.941" x2="38.884" y2="108.907"/>
			<line class="st1" x1="38.352" y1="108.672" x2="38.392" y2="108.71"/>
			<path class="st1" d="M38.402,108.241"/>
			<path class="st1" d="M38.851,108.941c0.094-0.005,0.189-0.009,0.283-0.014c-0.013,0.026-0.025,0.053-0.038,0.079
				c-0.068-0.036-0.136-0.073-0.208-0.104C38.884,108.907,38.851,108.941,38.851,108.941z"/>
			<path class="st1" d="M40.075,109.974"/>
		</g>
	</g>
</g>
</svg>