<!-- Generator: Adobe Illustrator 19.2.1, SVG Export Plug-In  -->
<svg version="1.1"
	 xmlns="http://www.w3.org/2000/svg" xmlns:xlink="http://www.w3.org/1999/xlink" xmlns:a="http://ns.adobe.com/AdobeSVGViewerExtensions/3.0/"
	 x="0px" y="0px" width="64.46px" height="46.74px" viewBox="0 0 64.46 46.74" style="enable-background:new 0 0 64.46 46.74;"
	 xml:space="preserve">
<style type="text/css">
	.st0{fill:#211915;}
</style>
<defs>
</defs>
<g>
	<polygon class="st0" points="0,44.914 18.916,18.866 0,1.376 	"/>
	<polygon class="st0" points="64.46,44.914 64.46,1.376 45.544,18.866 	"/>
	<polygon class="st0" points="64.299,46.74 64.46,46.74 64.46,46.586 	"/>
	<polygon class="st0" points="0,46.74 0.16,46.74 0,46.586 	"/>
	<polygon class="st0" points="63.359,46.74 63.244,46.586 44.091,20.21 32.23,31.177 20.368,20.21 1.215,46.586 1.101,46.74 	"/>
	<polygon class="st0" points="20.111,17.221 20.836,17.892 21.564,18.564 32.23,28.427 42.896,18.564 43.623,17.892 44.349,17.221 
		62.972,0 1.487,0 	"/>
</g>
</svg>