<!-- Generator: Adobe Illustrator 19.2.1, SVG Export Plug-In  -->
<svg version="1.1"
	 xmlns="http://www.w3.org/2000/svg" xmlns:xlink="http://www.w3.org/1999/xlink" xmlns:a="http://ns.adobe.com/AdobeSVGViewerExtensions/3.0/"
	 x="0px" y="0px" width="35.366px" height="32.479px" viewBox="0 0 35.366 32.479"
	 style="enable-background:new 0 0 35.366 32.479;" xml:space="preserve">
<style type="text/css">
	.st0{fill:#FFFFFF;}
</style>
<defs>
</defs>
<path class="st0" d="M7.785,32.479H0.888V10.413h6.897V32.479z M4.161,7.655H4.112C1.617,7.655,0,5.967,0,3.831
	C0,1.651,1.664,0,4.21,0c2.542,0,4.108,1.648,4.157,3.826C8.367,5.964,6.753,7.655,4.161,7.655z M35.366,32.479H27.55V21.062
	c0-2.99-1.224-5.027-3.914-5.027c-2.057,0-3.195,1.375-3.733,2.705c-0.199,0.471-0.168,1.136-0.168,1.797v11.942h-7.743
	c0,0,0.097-20.226,0-22.067h7.743v3.467c0.459-1.518,2.931-3.674,6.883-3.674c4.895,0,8.747,3.175,8.747,10.005V32.479z"/>
</svg>