<!-- Generator: Adobe Illustrator 19.2.1, SVG Export Plug-In  -->
<svg version="1.1"
	 xmlns="http://www.w3.org/2000/svg" xmlns:xlink="http://www.w3.org/1999/xlink" xmlns:a="http://ns.adobe.com/AdobeSVGViewerExtensions/3.0/"
	 x="0px" y="0px" width="52.596px" height="53.713px" viewBox="0 0 52.596 53.713"
	 style="enable-background:new 0 0 52.596 53.713;" xml:space="preserve">
<style type="text/css">
	.st0{fill:#FFFFFF;}
</style>
<defs>
</defs>
<g id="s4YGWG_2_">
	<g>
		<path class="st0" d="M33.88,32.555c-1.78,0-3.56-0.014-5.34,0.005c-1.177,0.013-1.876-0.394-1.857-1.711
			c0.036-2.439,0.03-4.879,0.004-7.318c-0.014-1.277,0.604-1.738,1.828-1.735c7.252,0.02,14.505,0.028,21.757-0.009
			c1.316-0.007,1.952,0.553,2.096,1.805c1.866,16.18-7.846,29.323-24.045,30.09c-14.01,0.663-25.841-9.533-27.996-22.79
			C-2.194,15.39,10.232,0.289,25.934,0.005c6.527-0.118,12.33,1.67,17.456,5.74c1.249,0.992,1.304,1.726,0.141,2.807
			c-1.786,1.659-3.485,3.414-5.181,5.167c-0.688,0.711-1.233,0.919-2.188,0.303c-11.075-7.141-23.62-1.278-25.045,11.829
			c-0.617,5.673,2.731,12.956,9.876,15.896c6.145,2.528,13.717,0.881,17.718-3.952c0.854-1.032,1.45-2.193,1.926-3.431
			c0.459-1.194,0.027-1.776-1.217-1.784c-1.846-0.013-3.692-0.003-5.538-0.003C33.88,32.569,33.88,32.562,33.88,32.555z"/>
	</g>
</g>
</svg>