<!-- Generator: Adobe Illustrator 19.2.1, SVG Export Plug-In  -->
<svg version="1.1"
	 xmlns="http://www.w3.org/2000/svg" xmlns:xlink="http://www.w3.org/1999/xlink" xmlns:a="http://ns.adobe.com/AdobeSVGViewerExtensions/3.0/"
	 x="0px" y="0px" width="44.252px" height="44.428px" viewBox="0 0 44.252 44.428"
	 style="enable-background:new 0 0 44.252 44.428;" xml:space="preserve">
<style type="text/css">
	.st0{fill:#FFFFFF;}
</style>
<defs>
</defs>
<g>
	<path class="st0" d="M44.247,44.399C44.622,19.96,23.697-0.476,0.041,0.008c0,2.807,0,5.615,0,8.414
		C0.1,8.443,0.129,8.462,0.159,8.463c0.148,0.007,0.296,0.01,0.445,0.013c3.424,0.085,6.781,0.591,10.049,1.633
		C25.47,14.833,35.494,28.342,35.724,43.91c0.006,0.419,0.135,0.521,0.535,0.518c2.505-0.016,5.01-0.008,7.516-0.009
		C43.921,44.419,44.067,44.407,44.247,44.399z M29.199,44.384c0.171-16.53-13.941-29.657-29.155-29.283c0,2.822,0,5.645,0,8.472
		c5.712,0.114,10.611,2.104,14.615,6.144c4.01,4.047,5.953,8.985,6.057,14.668C23.567,44.384,26.365,44.384,29.199,44.384z
		 M11.798,38.469c0.009-3.262-2.632-5.921-5.891-5.931c-3.25-0.01-5.904,2.645-5.908,5.91c-0.004,3.276,2.625,5.921,5.887,5.924
		C9.156,44.375,11.79,41.745,11.798,38.469z"/>
	<path class="st0" d="M44.247,44.399c-0.18,0.008-0.326,0.021-0.472,0.021c-2.505,0.001-5.011-0.007-7.516,0.009
		c-0.4,0.003-0.529-0.099-0.535-0.518c-0.23-15.568-10.254-29.077-25.071-33.801C7.385,9.067,4.028,8.561,0.604,8.476
		C0.456,8.473,0.307,8.47,0.159,8.463C0.129,8.462,0.1,8.443,0.041,8.422c0-2.799,0-5.606,0-8.414
		C23.697-0.476,44.622,19.96,44.247,44.399z"/>
	<path class="st0" d="M29.199,44.384c-2.834,0-5.633,0-8.483,0c-0.104-5.682-2.047-10.621-6.057-14.668
		c-4.004-4.04-8.903-6.03-14.615-6.144c0-2.827,0-5.649,0-8.472C15.258,14.727,29.37,27.854,29.199,44.384z"/>
	<path class="st0" d="M11.798,38.469c-0.009,3.276-2.643,5.906-5.911,5.903C2.625,44.369-0.004,41.724,0,38.448
		c0.004-3.265,2.658-5.92,5.908-5.91C9.166,32.548,11.807,35.208,11.798,38.469z"/>
</g>
</svg>