<!-- Generator: Adobe Illustrator 19.2.1, SVG Export Plug-In  -->
<svg version="1.1"
	 xmlns="http://www.w3.org/2000/svg" xmlns:xlink="http://www.w3.org/1999/xlink" xmlns:a="http://ns.adobe.com/AdobeSVGViewerExtensions/3.0/"
	 x="0px" y="0px" width="190.493px" height="155.843px" viewBox="0 0 190.493 155.843"
	 style="enable-background:new 0 0 190.493 155.843;" xml:space="preserve">
<style type="text/css">
	.st0{fill:#FFFFFF;stroke:#000000;stroke-miterlimit:10;}
	.st1{fill:#FFFFFF;}
</style>
<defs>
</defs>
<g>
	<circle class="st0" cx="115.179" cy="80.529" r="74.814"/>
	<g>
		<path class="st1" d="M118.464,109.838c4.232,3.319,50.712-32.22,48.635-35.034c-1.401-1.898-3.275-8.81-7.756-19.052
			c-2.162-4.941-6.068-12.832-8.381-17.019c-2.37-4.291-5.894-6.69-8.181-8.859c-6.454-6.119-10.902-6.024-12.476-7.479
			c-5.258-4.859-9.682-2.904-11.524,1.309c-3.431,7.85-1.12,24.581-1.245,27.002C117.066,59.826,114.577,106.789,118.464,109.838z"
			/>
		<g>
			<path class="st1" d="M142.15,28.704c-0.202-0.166-0.405-0.331-0.607-0.497c-1.563-1.142-3.042-2.431-4.712-3.385
				c-1.677-0.959-3.548-1.576-5.326-2.361c-0.694-0.307-1.457-0.553-2.029-1.021c-1.447-1.185-2.903-2.206-5.055-1.806
				c2.989,0.717,2.972,0.731,5.058,3.162c0.321,0.374,0.842,0.644,1.323,0.801c3.297,1.075,5.403,3.66,5.13,5.918
				c1.385,0.732,2.65,1.4,3.915,2.068c-0.083,0.207-0.166,0.414-0.25,0.621c-1.09,0.072-2.219-0.012-3.259,0.253
				c-1.565,0.399-2.421-0.394-3.136-1.514c-1.827-2.861-3.59-5.763-5.437-8.611c-0.412-0.635-1.06-1.116-1.695-1.765
				c0.12,1.389,0.209,2.413,0.308,3.548c2.197,1.477,2.916,3.15,1.788,4.5c0.667,0.443,1.463,0.77,1.965,1.35
				c0.864,0.997,1.615,2.113,2.256,3.268c0.174,0.314-0.218,0.942-0.35,1.426c-0.406-0.194-0.912-0.295-1.196-0.602
				c-0.535-0.58-0.94-1.28-1.404-1.926c-1.253-1.743-2.196-2.301-3.781-2.217c2.569,1.841,3.516,4.469,3.853,7.451
				c0.151,1.333,0.524,2.64,0.796,3.959c0.186-2.811,1.268-3.619,3.987-2.638c-0.021-0.458-0.079-0.88-0.053-1.296
				c0.203-3.171,2.714-4.968,5.792-4.159c2.71,0.713,4.428,3.046,4.399,6.069c-0.011,1.129-0.154,2.257-0.269,3.83
				c0.637-0.821,1.005-1.294,1.377-1.774c1.721,1.265,0.431,1.795-0.59,2.364c2.513,1.318,4.872,2.555,7.241,3.797
				c-1.213-1.556-2.608-3.15-3.774-4.897c-1.148-1.72-2.064-3.595-3.082-5.401c0.18-0.109,0.36-0.219,0.54-0.328
				c1.66,1.246,2.7,2.939,3.553,4.857c0.501,1.126,1.299,2.152,2.102,3.105c1.155,1.371,2.593,2.549,2.749,5.122
				c-1.537-0.556-2.823-0.775-3.818-1.433c-2.208-1.459-4.163-3.052-7.202-2.446c-2.265,0.452-2.822-0.528-2.353-2.81
				c0.293-1.424,0.448-2.876,0.665-4.316c-0.201-0.041-0.402-0.082-0.603-0.122c-0.267,0.899-0.574,1.789-0.794,2.699
				c-0.819,3.374-2.763,4.579-6.123,3.917c-0.833-0.164-1.812-0.109-2.612,0.169c-4.462,1.552-6.56,0.468-7.718-4.108
				c-0.04-0.158-0.155-0.297-0.209-0.397c-0.796,1.118-1.581,2.222-2.42,3.401c0.91,0.387,1.877,0.748,2.798,1.203
				c0.934,0.463,1.959,0.872,2.702,1.564c1.663,1.548,2.951,1.372,4.685-0.076c2.219-1.853,6.692-1.002,7.443,1.322
				c0.449,1.389,0.076,3.025,0.215,4.537c0.137,1.49,0.07,3.185,0.773,4.396c1.386,2.39,3.547,4.351,3.565,7.453
				c0.574-2.09,0.555-4.074-0.823-5.724c-2.636-3.157-2.452-6.83-2.007-10.522c0.067-0.556,1.004-1.008,1.538-1.508
				c0.422,0.525,1.151,1.022,1.203,1.581c0.109,1.188-0.135,2.407-0.235,3.618c4.116-0.429,5.462,1.165,5.689,7.071
				c-1.019-1.16-1.854-2.451-2.738-3.708c-0.197-0.28-0.565-0.44-0.855-0.656c-0.112,0.154-0.224,0.308-0.336,0.462
				c0.341,0.425,0.796,0.8,1.002,1.283c0.871,2.037,2.334,3.16,4.541,3.565c1.668,0.305,2.33,1.697,2.505,3.273
				c0.37,3.327-0.647,6.225-2.979,8.588c-2.263,2.292-6.849,3.726-9.044,1.749c-0.141,0.902-0.299,1.904-0.444,2.834
				c2.872-1.133,4.579-1,4.935,1.839c1.387-1.406,3.067-2.775,4.319-4.462c1.62-2.182,3.058-4.538,4.252-6.978
				c0.561-1.147,1.187-1.41,2.089-1.02c0.874,0.378,1.707,1,2.363,1.698c0.972,1.034,1.771,2.229,2.398,3.039
				c1.437-0.934,2.738-1.78,4.031-2.62c1.052,1.458,1.12,2.496,0.346,3.664c-1.238,1.869-4.514,2.806-7.439,2.128
				c-0.33,1.929-1.848,2.815-5.487,3.136c0.97,1.772,0.262,3.194-1.209,4.078c-1.644,0.988-3.472,1.679-5.249,2.43
				c-0.843,0.356-1.771,0.573-1.052,1.77c1.937,3.225,0.411,6.445-2.461,8.422c-0.749,0.516-1.516,1.376-1.739,2.22
				c-0.865,3.274-3.474,4.885-7.995,4.561c-0.611-0.044-1.406,0.231-1.863,0.64c-2.848,2.552-7.163,3.077-10.485,1.176
				c-2.356-1.349-3.422-4.299-2.474-6.843c0.782-2.097,3.332-3.168,6.043-2.549c0.153,0.035,0.331-0.038,0.484-0.059
				c0.083-0.643,0.16-1.233,0.24-1.858c-1.316,0.35-2.58,0.686-4.079,1.085c1.93-1.954,1.909-2.601-0.286-3.41
				c-1.856-0.685-2.801-1.829-2.967-3.739c-0.085-0.978-0.215-1.953-0.333-2.928c-0.458-3.771,1.15-7.396,0.631-11.244
				c-0.247-1.834,0.391-3.996,2.408-5.276c2.461-1.563,4.798-3.321,7.022-4.879c-1.213-0.573-2.326-1.099-3.388-1.601
				c-0.054,0.458-0.148,1.181-0.222,1.907c-0.212,2.075-1.664,3.071-3.398,3.661c-1.563,0.532-2.192,0.042-2.227-1.64
				c-0.055-2.695-0.011-5.393,0.004-8.089c0.008-1.462,0.153-2.933,0.032-4.384c-0.121-1.457-0.494-2.893-0.832-4.75
				c0.296,8.928,0.882,17.446-0.605,25.912c-0.383-0.65-0.3-1.307-0.401-1.935c-0.19-1.183-0.144-3.003-0.824-3.358
				c-0.859-0.449-1.344-1.331-1.32-1.635c0.138-1.727-0.721-2.766-1.964-3.682c-0.51-0.376-0.982-0.802-1.53-1.255
				c6.28-3.345,7.312-5.801,3.343-8.981c0.298,1.598,0.527,2.83,0.757,4.063c-0.166,0.145-0.331,0.291-0.497,0.436
				c-0.805-0.369-1.61-0.738-2.416-1.107c0.356-0.684,0.713-1.367,1.067-2.052c0.246-0.476,0.718-0.968,0.688-1.427
				c-0.084-1.316-0.283-2.644-0.638-3.912c-0.097-0.346-1.164-0.82-1.338-0.68c-1.061,0.856-2.362,1.705-2.888,2.87
				c-0.949,2.102-1.492,4.404-2.047,6.661c-0.523,2.128-0.801,2.376-2.766,1.615c-0.272-0.695-0.677-1.264-1.166-1.75
				c-0.597-0.593-1.264-1.115-2.1-1.839c-0.786,0.509-1.986,1.286-3.186,2.063c-0.08-0.121-0.161-0.242-0.241-0.362
				c0.994-0.768,1.988-1.536,3.182-2.459c-0.741-0.668-1.671-1.895-2.021-1.747c-0.834,0.353-1.421,1.333-2.052,2.104
				c-0.222,0.271-0.219,0.721-0.434,1.002c-0.239,0.313-0.571,0.613-0.927,0.766c-0.884,0.38-1.787,0.857-2.718,0.957
				c-1.207,0.13-2.643,0.292-3.616-0.235c-0.823-0.445-1.126-1.85-1.827-3.14c-0.91,1.013-1.695,1.885-2.48,2.758l0.037-0.029
				c-0.784,0-1.568,0-2.352,0c-0.022-0.139-0.044-0.279-0.066-0.418c0.403-0.21,0.806-0.421,1.498-0.781
				c-1.008-0.203-1.665-0.335-2.487-0.5c1.02-1.141,1.873-2.095,2.304-2.578c-1.056-1.578-1.87-2.795-2.76-4.124
				c0.152-0.208,0.459-0.628,0.765-1.047c0.549,0.183,1.007,0.368,1.481,0.488c0.799,0.202,2.139,0.147,2.316,0.581
				c0.617,1.513,1.304,0.95,1.989,0.287c1.615-1.562,3.209-3.152,4.703-4.827c0.268-0.3,0.008-1.064,0.005-1.614
				c-0.007-1.079-0.087-2.089-1.355-2.534c-0.125-0.044-0.017-0.751-0.017-1.151c-1.788-1.267-3.445-2.124-4.781,0.288
				c-1.055-0.275-1.968-0.513-2.881-0.751c-0.121,0.125-0.241,0.249-0.362,0.374c0.669,1.078,1.338,2.157,2.006,3.235
				c-0.741-0.11-1.345-0.869-1.504-0.785c-1.6,0.843-1.313-0.58-1.418-1.214c-0.402-2.443-0.801-2.696-3.325-1.655
				c-0.292-2.511,1.625-1.156,2.743-1.405c-0.604-0.397-0.93-0.723-1.319-0.842c-0.603-0.184-1.25-0.227-1.878-0.33
				c-0.09,0.583-0.385,1.229-0.229,1.736c0.377,1.219,0.996,2.36,1.455,3.557c0.242,0.63,0.352,1.309,0.54,2.037
				c1.758,1.347,3.651,2.798,5.779,4.429c-2.183-0.339-3.811-0.87-5.035-2.634c-1.128-1.625-2.822-2.656-5.347-1.965
				c0.844,0.956,1.688,1.911,2.863,3.241c-0.899,0.482-1.785,1.242-2.776,1.421c-1.338,0.242-2.779-0.123-4.138,0.057
				c-3.253,0.432-6.485,1.031-9.966,1.601c0.333,0.918,0.609,1.675,0.91,2.505c-0.773,0.386-1.549,0.774-2.455,1.227
				c-0.058-0.524-0.044-0.778-0.119-1.001c-0.242-0.717-0.517-1.423-0.779-2.134c-0.788,0.364-1.901,0.518-2.3,1.134
				c-1.083,1.67-2.084,3.464-2.703,5.345c-0.637,1.937-0.783,4.035-1.168,6.197c-0.911,0-1.701,0-2.492,0
				c0.27-0.2,0.539-0.401,0.809-0.601c0.687,1.145,1.115,2.66,2.114,3.355c1.982,1.379,4.328,2.221,6.432,3.442
				c2.349,1.363,5.413-0.385,6.108-2.622c0.138-0.444,0.02-0.968,0.02-1.546c-0.814,0.196-1.368,0.329-2.215,0.533
				c0.095-2.201,0.352-4.199,0.22-6.171c-0.138-2.054-1.472-4.068-0.248-5.848c3.626,1.033,7.148,2.034,10.668,3.041
				c0.456,0.13,1.306,0.375,1.295,0.425c-0.359,1.71,1.063,0.9,1.738,1.132c0,1.424-0.113,2.785,0.031,4.118
				c0.151,1.395,0.596,2.756,0.807,4.147c0.056,0.368-0.165,0.969-0.458,1.165c-1.505,1.006-3.074,1.915-4.731,2.924
				c-0.071-0.353-0.143-0.633-0.182-0.917c-0.307-2.246-1.088-2.646-3.009-1.519c-0.315,0.185-0.591,0.437-0.882,0.661
				c-1.823,1.405-2.025,3.383-1.999,5.478c0.012,0.973,0.191,2.164-1.675,2.167c1.409,1.133,0.201,2.734,1.496,4.063
				c0.841,0.863,0.721,2.82,2.503,4.038c-0.272-0.857-0.389-1.223-0.592-1.863c2.1,1.702,3.968,3.215,5.837,4.729
				c0.149-0.146,0.298-0.292,0.448-0.438c0-0.483,0-0.967,0-1.515c1.61,1.037,3.095,1.992,4.58,2.948l-0.067-0.069
				c0.511,0.628,0.449,0.939-0.392,1.292c-1.294,0.543-2.513,1.282-3.719,2.011c-1.366,0.826-2.38,1.845-1.189,3.597
				c-1.883,1.116-1.581,2.572-0.623,3.957c1.112,1.609,2.389,3.103,3.62,4.679c-0.496,1.592-1.025,3.289-1.549,4.97
				c-1.134-0.669-4.168,0.711-6.042,2.852c0.38,0.584,0.868,1.138,1.141,1.784c1.625,3.842,3.001,7.804,4.866,11.523
				c1.186,2.365,3.044,4.401,4.658,6.541c0.824,1.093,1.672,2.206,2.694,3.1c1.075,0.94,2.302,1.771,3.59,2.38
				c0.942,0.446,2.09,0.456,3.282,0.686c0.132-0.22,0.468-0.784,0.804-1.347c0.23,0.039,0.459,0.077,0.689,0.116
				c0.056,0.969,0.112,1.938,0.182,3.148c-0.782-0.34-1.079-0.47-1.377-0.6c-0.085,0.122-0.17,0.244-0.255,0.366
				c0.89,0.683,1.738,1.431,2.681,2.031c1.134,0.722,2.364,1.289,3.524,1.972c3.844,2.264,7.937,2.879,12.242,1.768
				c1.123-0.29,2-0.331,3.108,0.242c2.056,1.065,3.653-0.002,3.384-2.286c-0.199-1.688,0.145-3.092,0.863-4.558
				c0.388-0.792,0.541-1.742,0.617-2.637c0.17-2.005-0.381-4.353,0.492-5.939c0.938-1.704,1.314-3.181,1.129-5.047
				c0.507,0.925,1.069,1.882,1.041,2.822c-0.071,2.409-0.705,4.829-0.562,7.211c0.229,3.826,2.013,6.971,5.56,8.746
				c5.566,2.785,11.151,2.411,16.659-0.258c1.157-0.561,2.315-1.138,3.402-1.821c3.143-1.978,6.294-3.949,9.353-6.052
				c1.606-1.104,2.943-2.6,4.551-3.7c2.632-1.801,4.395-4.277,5.819-7.018c3.345-6.438,6.388-12.902,6.891-20.409
				c0.346-5.158,1.507-10.225-0.713-15.23c-0.202-0.455-0.108-1.094-0.01-1.622c0.693-3.754,0.155-7.321-1.486-10.755
				c-0.227-0.475-0.295-1.065-0.295-1.602c-0.001-3.68-1.967-6.727-3.252-9.977c-0.973-2.461-2.346-4.761-3.421-7.185
				c-1.56-3.517-2.709-4.477-4.206-8.022c-0.932-1.162-2.166-4.929-3.097-6.092c-1.551-3.389-3.509-6.488-6.385-8.929
				C145.012,31.566,143.581,30.135,142.15,28.704z M56.417,32.023c-0.566,0.431-1.131,0.863-1.448,1.105
				c1.522,2.011,3.063,3.954,4.496,5.974c0.81,1.14,1.876,1.33,2.866,0.678c1.341-0.883,2.917-1.637,2.997-3.718
				c0.033-0.846,0.617-1.789,1.206-2.465c0.754-0.865,1.766-1.505,2.818-2.366c-2.935-1.557-5.687,0.39-8.455-0.866
				c-0.418,0.209-1.224,0.644-2.065,0.996c-0.116,0.048-0.405-0.318-0.614-0.492c0.84-0.494,1.677-0.992,2.521-1.479
				c1.347-0.777,1.756-1.85,1.226-3.347c-0.875,0.581-1.746,1.16-2.617,1.74c-0.125-0.186-0.251-0.371-0.376-0.557
				c2.171,0.923,1.899-0.359,2.993-1.183C59.558,26.269,57.166,28.349,56.417,32.023z M103.055,48.576
				c0.669-1.19,1.465-2.332,1.938-3.594c0.168-0.449-0.291-1.507-0.738-1.726c-0.709-0.347-1.714-0.456-2.476-0.244
				c-1.185,0.329-2.272,1.012-3.401,1.545c-0.071-0.161-0.142-0.322-0.213-0.483c0.798-0.371,1.595-0.741,2.214-1.029
				c0-0.757,0-1.356,0-2.122c-0.382,0.208-0.677,0.369-0.972,0.53l0.022,0.046c0.116-0.542,0.232-1.085,0.317-1.481
				c-0.502,0-1.039,0-1.522,0c-0.871,1.001-1.774,2.04-2.841,3.267c-0.17-1.81,0.572-2.935,2.55-4.283
				c-0.089-0.141-0.178-0.281-0.267-0.422c-0.756,0.593-1.511,1.186-2.267,1.779c-0.172-0.134-0.345-0.268-0.517-0.403
				c0.729-1.03,1.437-2.075,2.194-3.084c0.516-0.687,0.311-3.06-0.549-3.362c-0.57-0.2-1.753,0.199-2.087,0.707
				c-0.787,1.196-1.61,2.583-1.733,3.955c-0.259,2.889-0.079,5.818-0.079,8.742c-0.262,0.14-0.697,0.373-1.132,0.605
				c0.436,0.331,0.831,0.744,1.314,0.98c2.841,1.388,5.876,0.529,8.824,0.668c0.482,0.023,0.985-0.407,1.478-0.628L103.055,48.576z
				 M58.233,94.818c-0.897,0.915-1.839,1.792-2.673,2.761c-0.398,0.462-0.592,1.1-0.878,1.658c0.679,0.176,1.391,0.584,2.03,0.49
				c3.793-0.553,7.439-1.559,10.637-3.823c0.335-0.237,0.952-0.075,1.831-0.117c0-2.963,0-6.028,0-8.866
				c-0.886-0.177-1.302-0.259-1.717-0.342c0.323-0.507,0.647-1.015,1.119-1.756c-0.412-0.312-0.887-0.97-1.41-1.011
				c-1.521-0.121-3.074-0.099-4.588,0.084c-0.666,0.081-1.513,0.535-1.857,1.084c-1.322,2.111-3.403,2.01-5.649,2.153
				c1.547,1.662,1.88,4.239,4.458,4.482c-0.37,1.101-0.656,1.952-0.942,2.803C58.474,94.553,58.353,94.686,58.233,94.818z
				 M6.263,10.629c-1.475-0.07-3.001-0.254-4.51-0.161c-0.616,0.038-1.342,0.565-1.723,1.086c-0.161,0.221,0.346,1.076,0.712,1.503
				c0.596,0.696,1.283,1.334,2.008,1.897c1.711,1.327,3.622,2.36,4.708,4.449c0.302,0.581,1.914,0.977,2.695,0.73
				c3.533-1.117,6.985-2.49,10.462-3.781c1.255-0.466,1.841-1.44,1.195-2.598c-1.22-2.186-2.568-4.316-4.072-6.312
				c-0.314-0.416-1.553-0.256-2.338-0.151c-0.465,0.062-0.874,0.535-1.019,0.631c-0.723-1.224-1.211-2.495-2.077-3.408
				C11.089,3.23,9.659,2.116,8.191,1.121C7.352,0.552,6.257,0.361,5.276,0C4.988,1.084,4.675,2.161,4.428,3.254
				C4.366,3.531,4.499,3.86,4.576,4.156C5.124,6.278,5.681,8.397,6.263,10.629z M25.683,53.78c-0.081-0.667-0.151-1.25-0.233-1.926
				c0.44-0.05,0.878-0.1,1.408-0.16c-0.09-1.23-0.17-2.333-0.273-3.74c2.983,2.535,3.026,2.541,3.497,1.088
				c-1.385,0.676-1.994-0.533-3.139-1.65c1.53,0,2.645,0,3.92,0c-0.291-1.014-0.52-1.811-0.654-2.28
				c0.657-0.962,1.166-1.708,1.675-2.453c-0.079-0.055-0.159-0.111-0.238-0.166c-0.371,0.417-0.743,0.834-1.114,1.251
				c-0.212-0.105-0.425-0.21-0.637-0.315c2.635-2.579,2.945-5.895,3.582-9.165c-0.842,0.167-1.489,0.4-1.985,0.814
				c-2.799,2.337-5.56,4.72-8.338,7.082c-0.35,0.298-0.868,0.886-1.069,0.797c-2.273-1-1.046,0.981-1.42,1.656
				c-3.863-0.267-7.593-0.065-10.064,3.791c2.9,0.782,5.63,1.771,8.443,2.166c1.306,0.184,1.962,0.614,2.732,1.517
				C22.716,53.191,23.887,54.125,25.683,53.78z M124.484,97.72c3.689,1.53,6.033-0.092,5.629-3.477
				c-0.144-1.208-0.447-2.42-0.852-3.569c-0.646-1.834-0.414-3.265,1.166-4.589c1.149-0.964,2.328-2.129,2.93-3.459
				c1.29-2.849-0.391-5.003-2.163-7.092c-1.132-1.334-2.224-2.761-3.014-4.31c-1.045-2.048-0.735-2.655,1.241-3.933
				c2.689-1.739,3.665-4.401,2.625-7.478c-1.189-3.515-1.671-6.856,2.242-9.629c-2.179,0.492-2.62,0.857-3.828,2.862
				c-1.375,2.282-2.889,2.802-5.354,1.743c-1.291-0.554-2.529-1.232-3.791-1.854c0.4,0.701,0.916,1.232,1.538,1.567
				c1.834,0.988,3.703,1.911,5.569,2.837c2.593,1.286,3.84,3.663,3.016,5.792c-0.967,2.497-4.278,4.579-6.226,4.062
				c0.706,1.853,1.164,3.978,2.267,5.687c1.102,1.706,2.852,2.992,4.312,4.467c0.172,0.174,0.324,0.371,0.463,0.573
				c1.813,2.638,1.219,5.094-1.613,6.62c-0.701,0.378-1.409,0.768-2.156,1.031c-1.288,0.453-1.478,1.337-1.136,2.49
				c0.314,1.059,0.668,2.106,0.96,3.171c0.324,1.18,0.739,2.36,0.859,3.565c0.178,1.799-0.757,2.773-2.546,2.914
				C126.079,97.756,125.528,97.72,124.484,97.72z M148.079,67.482c-4.265,4.312-9.113,4.257-11.184-2.129
				c-0.228,2.937-1.225,4.983-3.298,5.928c0.395,0.888,1.097,1.697,1.013,2.414c-0.293,2.507,0.53,4.578,1.908,6.561
				c1.293,1.862,1.061,4.594-0.457,6.275c-0.426,0.472-0.855,0.941-1.282,1.411c0.061,0.066,0.123,0.132,0.184,0.199
				c1.288-0.498,2.576-0.996,3.962-1.531c-0.73-2.155-0.961-4.358,0.893-6.349c-0.44-0.101-0.736-0.146-1.017-0.237
				c-2.626-0.845-3.839-2.836-3.392-5.551c0.33-2.005,2.093-3.245,4.7-3.285c0.552-0.009,1.11,0.099,1.658,0.058
				C145.082,71.001,147.117,70.599,148.079,67.482z M123.45,73.992c0.191,1.704,0.381,3.39,0.538,4.789
				c0.726-0.152,1.575-0.33,2.122-0.445C125.326,77.056,124.395,75.535,123.45,73.992z M118.781,25.179c-0.099,0-0.197,0-0.296,0
				c-0.498,3.589-0.997,7.179-1.495,10.768c0.161,0.018,0.321,0.037,0.482,0.055C117.908,32.394,118.344,28.786,118.781,25.179z
				 M120.413,28.306c0.174,0.036,0.349,0.071,0.523,0.107c0.887-1.317-0.365-2.688-0.523-4.03
				C120.413,25.69,120.413,26.998,120.413,28.306z M84.133,51.765c0.526,1.45,0.634,1.47,1.805,0.57
				c-2.781-0.227-2.781-0.227-3.592,0.807C82.893,52.72,83.44,52.299,84.133,51.765z"/>
			<path d="M138.839,28.929 M141.543,28.207c1.816,1.067,3.952,6.633,7.368,8.886C147.962,33.852,142.281,29.432,141.543,28.207
				c9.751,9.026,9.734,10.331,11.285,13.72c-0.451-0.177-0.902-0.353-1.354-0.53c-0.171,0.189-0.342,0.378-0.512,0.567
				c1.569,2.129,2.574,4.91,4.144,7.039c0.146-0.089-0.218-0.271-0.072-0.36c-0.162-0.89-2.044-5.827-2.206-6.717
				c1.498,3.544,5.744,10.597,7.303,14.114c1.075,2.425,2.448,4.724,3.421,7.185c1.285,3.249,3.251,6.296,3.252,9.977
				c0,0.537,0.068,1.127,0.295,1.602c1.641,3.434,2.179,7,1.486,10.755c-0.097,0.528-0.192,1.167,0.01,1.622
				c2.22,5.005,1.059,10.072,0.713,15.23c-0.503,7.507-3.546,13.971-6.891,20.409c-1.424,2.74-3.187,5.217-5.819,7.018
				c-1.608,1.1-2.945,2.596-4.551,3.7c-3.059,2.103-6.21,4.074-9.353,6.052c-1.086,0.683-2.245,1.261-3.402,1.821
				c-5.509,2.669-11.094,3.043-16.659,0.258c-3.547-1.775-5.331-4.92-5.56-8.746c-0.142-2.382,0.492-4.802,0.562-7.211
				c0.028-0.94-0.535-1.896-1.041-2.822c0.185,1.865-0.19,3.343-1.129,5.047c-0.873,1.586-0.322,3.935-0.492,5.939
				c-0.076,0.894-0.229,1.844-0.617,2.637c-0.718,1.466-1.062,2.87-0.863,4.558c0.269,2.285-1.327,3.352-3.384,2.286
				c-1.107-0.574-1.984-0.532-3.108-0.242c-4.305,1.111-8.399,0.495-12.242-1.768c-1.16-0.683-2.39-1.25-3.524-1.972
				c-0.943-0.6-1.791-1.349-2.681-2.031c0.085-0.122,0.17-0.244,0.255-0.366c0.298,0.13,0.595,0.259,1.377,0.6
				c-0.07-1.21-0.126-2.179-0.182-3.148c-0.23-0.039-0.459-0.077-0.689-0.116c-0.336,0.563-0.672,1.127-0.804,1.347
				c-1.192-0.23-2.34-0.24-3.282-0.686c-1.288-0.609-2.516-1.44-3.59-2.38c-1.021-0.893-1.87-2.007-2.694-3.1
				c-1.614-2.14-3.472-4.176-4.658-6.541c-1.865-3.719-3.241-7.682-4.866-11.523c-0.273-0.645-0.76-1.2-1.141-1.784
				c1.874-2.14,4.907-3.52,6.042-2.852c0.524-1.68,1.053-3.378,1.549-4.97c-1.23-1.576-2.508-3.07-3.62-4.679
				c-0.957-1.385-1.259-2.841,0.623-3.957c-1.192-1.752-0.178-2.771,1.189-3.597c1.206-0.729,2.425-1.468,3.719-2.011
				c0.841-0.353,0.903-0.664,0.392-1.293c1.843,1.035,3.687,2.072,5.902,3.317c-2.027-2.826-6.103-5.516-8.16-5.535
				c0.802,0.789,1.563,1.538,2.325,2.288c-1.485-0.956-2.97-1.912-4.58-2.948c0,0.549,0,1.032,0,1.515
				c-0.149,0.146-0.298,0.292-0.448,0.438c-1.868-1.514-3.737-3.028-5.837-4.729c0.204,0.64,0.32,1.006,0.592,1.863
				c-1.782-1.219-1.662-3.176-2.503-4.038c-1.295-1.329-0.088-2.93-1.496-4.063c1.866-0.003,1.687-1.194,1.675-2.167
				c-0.026-2.096,0.176-4.073,1.999-5.478c0.291-0.224,0.567-0.477,0.882-0.661c1.921-1.127,2.701-0.727,3.009,1.519
				c0.039,0.284,0.111,0.564,0.182,0.917c1.657-1.01,3.226-1.919,4.731-2.924c0.293-0.196,0.513-0.797,0.458-1.165
				c-0.21-1.392-0.656-2.753-0.807-4.147c-0.144-1.333-0.031-2.695-0.031-4.118c-0.675-0.233-2.097,0.578-1.738-1.132
				c0.01-0.05-0.84-0.295-1.295-0.425c-3.52-1.007-7.042-2.008-10.668-3.041c-1.224,1.78,0.11,3.794,0.248,5.848
				c0.133,1.972-0.124,3.97-0.22,6.171c0.847-0.204,1.401-0.337,2.215-0.533c0,0.577,0.118,1.101-0.02,1.546
				c-0.695,2.237-3.759,3.985-6.108,2.622c-2.104-1.221-4.45-2.063-6.432-3.442c-0.999-0.695-1.428-2.211-2.114-3.355
				c-0.27,0.2-0.539,0.401-0.809,0.601c0.79,0,1.58,0,2.492,0c0.385-2.162,0.531-4.26,1.168-6.197
				c0.618-1.881,1.62-3.675,2.703-5.345c0.4-0.616,1.513-0.77,2.3-1.134c0.262,0.71,0.537,1.416,0.779,2.134
				c0.075,0.223,0.061,0.476,0.119,1.001c0.906-0.453,1.682-0.84,2.455-1.227c-0.302-0.83-0.577-1.588-0.91-2.505
				c3.481-0.571,6.713-1.169,9.966-1.601c1.359-0.18,2.799,0.185,4.138-0.057c0.991-0.179,1.878-0.939,2.776-1.421
				c-1.175-1.33-2.019-2.285-2.863-3.241c2.525-0.691,4.218,0.34,5.347,1.965c1.224,1.763,2.852,2.294,5.035,2.634
				c-2.128-1.631-4.021-3.081-5.779-4.429c-0.188-0.727-0.298-1.407-0.54-2.037c-0.459-1.197-1.079-2.338-1.455-3.557
				c-0.157-0.507,0.139-1.153,0.229-1.736c0.628,0.103,1.275,0.146,1.878,0.33c0.389,0.119,0.715,0.445,1.319,0.842
				c-1.118,0.248-3.035-1.106-2.743,1.405c2.524-1.041,2.924-0.788,3.325,1.655c0.104,0.634-0.183,2.057,1.418,1.214
				c0.159-0.084,0.763,0.675,1.504,0.785c-0.669-1.078-1.338-2.157-2.006-3.235c0.121-0.125,0.241-0.249,0.362-0.374
				c0.913,0.238,1.826,0.476,2.881,0.751c1.336-2.412,2.993-1.555,4.781-0.288c0,0.399-0.108,1.107,0.017,1.151
				c1.268,0.444,1.348,1.454,1.355,2.534c0.004,0.55,0.263,1.314-0.005,1.614c-1.494,1.675-3.087,3.266-4.703,4.827
				c-0.686,0.663-1.372,1.226-1.989-0.287c-0.177-0.434-1.518-0.379-2.316-0.581c-0.474-0.12-0.932-0.304-1.481-0.488
				c-0.306,0.419-0.613,0.839-0.765,1.047c0.889,1.329,1.704,2.546,2.76,4.124c-0.431,0.483-1.284,1.437-2.304,2.578
				c0.822,0.165,1.479,0.297,2.487,0.5c-0.692,0.361-1.095,0.571-1.498,0.781c0.022,0.139,0.044,0.279,0.066,0.418
				c0.784,0,1.568,0,2.351,0.001c-2.514,2.32-1.009,5.406-1.876,8.346c1.172-0.318,1.975-0.536,2.453-0.665
				c-0.069-2.452-0.119-4.674-0.211-6.895c-0.011-0.258-0.262-0.506-0.401-0.758c0.785-0.873,1.569-1.745,2.48-2.758
				c0.701,1.289,1.004,2.695,1.827,3.14c0.973,0.526,2.409,0.365,3.616,0.235c0.931-0.1,1.833-0.577,2.718-0.957
				c0.357-0.153,0.689-0.453,0.927-0.766c0.214-0.281,0.212-0.732,0.434-1.002c0.631-0.772,1.218-1.752,2.052-2.104
				c0.35-0.148,1.28,1.079,2.021,1.747c-1.194,0.923-2.188,1.691-3.182,2.459c0.08,0.121,0.161,0.242,0.241,0.362
				c1.2-0.777,2.4-1.554,3.186-2.063c0.835,0.724,1.502,1.246,2.1,1.839c0.489,0.485,0.894,1.055,1.166,1.75
				c1.965,0.762,2.242,0.513,2.766-1.615c0.555-2.257,1.099-4.559,2.047-6.661c0.526-1.165,1.827-2.014,2.888-2.87
				c0.174-0.14,1.241,0.334,1.338,0.68c0.355,1.267,0.554,2.596,0.638,3.912c0.029,0.459-0.442,0.952-0.688,1.427
				c-0.354,0.685-0.711,1.368-1.067,2.052c0.805,0.369,1.61,0.738,2.416,1.107c0.166-0.145,0.331-0.291,0.497-0.436
				c-0.23-1.233-0.459-2.465-0.757-4.063c3.969,3.18,2.937,5.636-3.343,8.981c0.549,0.452,1.021,0.879,1.53,1.255
				c1.243,0.916,2.102,1.955,1.964,3.682c-0.024,0.304,0.461,1.186,1.32,1.635c0.679,0.355,0.634,2.175,0.824,3.358
				c0.101,0.628,0.018,1.285,0.401,1.935c1.487-8.466,0.902-16.984,0.605-25.912c0.338,1.858,0.711,3.294,0.832,4.75
				c0.12,1.45-0.024,2.921-0.032,4.384c-0.015,2.696-0.059,5.394-0.004,8.089c0.034,1.682,0.664,2.172,2.227,1.64
				c1.734-0.59,3.185-1.586,3.398-3.661c0.074-0.725,0.169-1.449,0.222-1.907c1.063,0.502,2.175,1.027,3.388,1.601
				c-2.224,1.557-4.561,3.316-7.022,4.879c-2.017,1.281-2.655,3.443-2.408,5.276c0.519,3.848-1.089,7.473-0.631,11.244
				c0.118,0.975,0.248,1.95,0.333,2.928c0.166,1.91,1.111,3.054,2.967,3.739c2.195,0.809,2.216,1.456,0.286,3.41
				c1.5-0.399,2.764-0.735,4.079-1.085c-0.081,0.624-0.157,1.215-0.24,1.858c-0.153,0.021-0.331,0.094-0.484,0.059
				c-2.71-0.619-5.261,0.452-6.043,2.549c-0.948,2.544,0.118,5.494,2.474,6.843c3.322,1.902,7.637,1.376,10.485-1.176
				c0.457-0.409,1.252-0.684,1.863-0.64c4.52,0.324,7.13-1.287,7.995-4.561c0.223-0.844,0.99-1.704,1.739-2.22
				c2.871-1.977,4.398-5.197,2.461-8.422c-0.719-1.197,0.209-1.414,1.052-1.77c1.777-0.751,3.605-1.442,5.249-2.43
				c1.471-0.884,2.179-2.306,1.209-4.078c3.639-0.32,5.157-1.206,5.487-3.136c2.925,0.679,6.202-0.258,7.439-2.128
				c0.773-1.168,0.706-2.207-0.346-3.664c-1.293,0.84-2.594,1.686-4.031,2.62c-0.627-0.809-1.427-2.005-2.398-3.039
				c-0.656-0.698-1.489-1.32-2.363-1.698c-0.902-0.391-1.527-0.127-2.089,1.02c-1.194,2.439-2.633,4.796-4.252,6.978
				c-1.252,1.687-2.932,3.056-4.319,4.462c-0.356-2.838-2.063-2.972-4.935-1.839c0.146-0.93,0.303-1.932,0.444-2.834
				c2.195,1.977,6.781,0.543,9.044-1.749c2.333-2.363,3.35-5.261,2.979-8.588c-0.175-1.576-0.838-2.967-2.505-3.273
				c-2.207-0.404-3.67-1.528-4.541-3.565c-0.206-0.482-0.661-0.858-1.002-1.283c0.112-0.154,0.224-0.308,0.336-0.462
				c0.289,0.215,0.657,0.375,0.855,0.656c0.884,1.257,1.72,2.548,2.738,3.708c-0.227-5.906-1.573-7.5-5.689-7.071
				c0.1-1.211,0.344-2.43,0.235-3.618c-0.051-0.559-0.781-1.056-1.203-1.581c-0.534,0.5-1.471,0.952-1.538,1.508
				c-0.445,3.692-0.629,7.365,2.007,10.522c1.378,1.65,1.397,3.635,0.823,5.724c-0.018-3.102-2.179-5.064-3.565-7.453
				c-0.702-1.211-0.636-2.907-0.773-4.396c-0.139-1.512,0.234-3.148-0.215-4.537c-0.751-2.325-5.225-3.175-7.443-1.322
				c-1.734,1.448-3.022,1.624-4.685,0.076c-0.744-0.692-1.768-1.101-2.702-1.564c-0.92-0.456-1.888-0.817-2.798-1.203
				c0.839-1.179,1.624-2.283,2.42-3.401c0.054,0.099,0.169,0.238,0.209,0.397c1.158,4.576,3.255,5.66,7.718,4.108
				c0.799-0.278,1.779-0.333,2.612-0.169c3.36,0.662,5.304-0.543,6.123-3.917c0.221-0.91,0.527-1.8,0.794-2.699
				c0.201,0.041,0.402,0.082,0.603,0.122c-0.217,1.44-0.372,2.892-0.665,4.316c-0.469,2.282,0.088,3.262,2.353,2.81
				c3.039-0.606,4.994,0.987,7.202,2.446c0.996,0.658,2.282,0.876,3.818,1.433c-0.156-2.573-1.594-3.751-2.749-5.122
				c-0.803-0.954-1.602-1.979-2.102-3.105c-0.852-1.918-1.893-3.612-3.553-4.857c-0.18,0.109-0.36,0.219-0.54,0.328
				c1.018,1.807,1.934,3.682,3.082,5.401c1.166,1.747,2.562,3.342,3.774,4.897c-2.369-1.242-4.728-2.479-7.241-3.797
				c1.021-0.569,2.311-1.099,0.59-2.364c-0.372,0.48-0.74,0.953-1.377,1.774c0.115-1.573,0.258-2.701,0.269-3.83
				c0.029-3.023-1.688-5.357-4.399-6.069c-3.078-0.809-5.589,0.987-5.792,4.159c-0.027,0.416,0.032,0.838,0.053,1.296
				c-2.719-0.982-3.801-0.174-3.987,2.638c-0.272-1.319-0.645-2.627-0.796-3.959c-0.338-2.982-1.285-5.61-3.853-7.451
				c1.585-0.085,2.528,0.473,3.781,2.217c0.464,0.646,0.868,1.346,1.404,1.926c0.283,0.307,0.79,0.408,1.196,0.602
				c0.132-0.484,0.525-1.112,0.35-1.426c-0.64-1.154-1.392-2.27-2.256-3.268c-0.503-0.58-1.298-0.907-1.965-1.35
				c1.128-1.35,0.409-3.023-1.788-4.5c-0.098-1.135-0.187-2.159-0.308-3.548c0.634,0.649,1.283,1.13,1.695,1.765
				c1.846,2.848,3.609,5.75,5.437,8.611c0.715,1.12,1.571,1.913,3.136,1.514c1.04-0.265,2.17-0.181,3.259-0.253
				c0.083-0.207,0.166-0.414,0.25-0.621c-1.265-0.668-2.53-1.336-3.915-2.068c0.273-2.258-1.833-4.843-5.13-5.918
				c-0.481-0.157-1.002-0.427-1.323-0.801c-2.085-2.431-2.069-2.445-5.058-3.162c2.152-0.401,3.608,0.621,5.055,1.806
				c0.572,0.469,1.335,0.715,2.029,1.021c1.778,0.786,3.649,1.403,5.326,2.361C138.501,25.776,139.98,27.065,141.543,28.207
				 M112.231,118.514c-0.357-0.056-0.714-0.111-1.594-0.248c1.506,1.174,2.589,2.017,3.671,2.861
				c0.181-0.499,0.15-1.013-0.122-1.257c-0.608-0.545-1.337-0.956-2.018-1.425c0.565,0.086,1.131,0.173,1.696,0.26
				c0.096-0.194,0.193-0.388,0.289-0.582c-1.122-0.59-2.244-1.18-3.366-1.77c-0.068,0.108-0.136,0.216-0.204,0.324
				C111.132,117.289,111.682,117.902,112.231,118.514z M63.819,49.378c0.874,0.599,1.747,1.197,2.621,1.796
				c0.11-0.149,0.221-0.298,0.331-0.446c-0.901-0.987-1.801-1.974-2.702-2.961c-0.147,0.108-0.294,0.215-0.442,0.323
				c0.086,0.451,0.171,0.902,0.254,1.35c-0.683-0.429-1.366-0.858-2.049-1.286c-0.149,0.222-0.299,0.445-0.448,0.667
				c0.921,0.766,1.842,1.533,2.763,2.299c0.085-0.103,0.17-0.206,0.255-0.309C64.207,50.333,64.013,49.855,63.819,49.378z
				 M110.52,69.713c0.537-0.298,1.074-0.597,1.611-0.895c-0.077-0.201-0.154-0.403-0.231-0.604
				c-2.142,0.521-4.285,1.042-6.427,1.563c0.03,0.169,0.06,0.338,0.09,0.507c0.822-0.098,1.644-0.194,2.466-0.293
				c0.848-0.102,1.695-0.206,2.543-0.309c-1.209,0.385-2.417,0.771-3.626,1.156c0.046,0.206,0.092,0.413,0.138,0.619
				c1.917-0.332,3.834-0.664,5.751-0.996c-0.014-0.248-0.029-0.496-0.043-0.745C112.032,69.715,111.273,69.715,110.52,69.713z
				 M68.98,49.409c-0.714-0.33-1.428-0.659-2.142-0.989c-0.145,0.243-0.29,0.486-0.435,0.729c1.022,0.839,2.044,1.678,3.066,2.517
				c-0.737,0-1.474,0-2.211,0c-0.042,0.226-0.084,0.451-0.126,0.677c2.444,0.621,4.887,1.241,7.331,1.862
				c0.051-0.174,0.102-0.347,0.153-0.521c-1.738-0.691-3.476-1.382-5.221-2.078c0.174-0.291,0.347-0.581,0.521-0.872
				c0.818,0.513,1.637,1.025,2.455,1.538c-0.54-2.022-1.312-3.7-3.59-4.082C68.868,48.723,68.924,49.066,68.98,49.409z
				 M83.028,98.064c-0.394-1.208-0.788-2.416-1.344-4.118c-0.529,0.803-0.732,1.111-0.935,1.418
				c1.271,0.445,0.325,2.861,2.346,2.638c-0.923,2.169-0.553,3.797,1.407,5.227c0-1.203,0.185-2.27-0.06-3.226
				C84.258,99.283,83.522,98.703,83.028,98.064z M83.23,121.579c-0.503-0.359-1.006-0.719-1.509-1.078
				c1.886,0.314,3.772,0.629,5.658,0.943c0.042-0.24,0.083-0.481,0.125-0.721c-2.176-0.61-4.353-1.219-6.529-1.829
				c-0.094,0.231-0.187,0.461-0.281,0.692c0.364,0.323,0.728,0.647,1.101,0.978c-0.462,0.15-1.024,0.187-1.362,0.48
				c-0.42,0.364-0.656,0.942-0.971,1.427c0.54,0.019,1.115,0.164,1.613,0.029c0.75-0.204,1.447-0.604,2.167-0.921
				c-0.748,0.662-1.496,1.325-2.275,2.015c0.44,0.615,0.813,1.137,1.238,1.732c1.27-1.185,2.189-2.043,3.275-3.056
				C84.571,121.989,83.903,121.784,83.23,121.579z M88.493,102.413c1.017,0.009,2.034,0.018,3.05,0.029
				c-0.427,0.929-0.854,1.857-1.281,2.786c0.152,0.075,0.304,0.15,0.455,0.226c1.838-1.422,3.675-2.843,5.513-4.265
				c-0.05-0.08-0.099-0.159-0.149-0.239c-1.534,0.519-3.067,1.038-4.601,1.557c1.282-0.737,2.564-1.474,3.846-2.211
				c-1.271-0.048-2.403,0.164-3.528,0.404c-0.595,0.127-1.238,0.196-1.752,0.484c-0.563,0.315-1.002,0.852-1.493,1.296
				c-1.307,0.437-2.634,0.847-3.232,2.291c0.654,0.015,1.485-0.48,1.689-0.292c1.631,1.502,1.932-0.466,2.863-0.666
				C89.282,103.212,88.887,102.813,88.493,102.413z M70.631,75.312c1.281,0.791,2.814,0.408,3.873-0.966
				c-0.066-0.172-0.131-0.345-0.197-0.517c-1.244,0.503-2.488,1.006-3.733,1.51c0.724-0.743,1.447-1.485,2.171-2.228
				c-0.161-0.216-0.322-0.432-0.482-0.648c-1.951,1.191-3.901,2.383-5.852,3.574c0.081,0.176,0.163,0.352,0.244,0.528
				C67.975,76.152,69.294,75.738,70.631,75.312z M75.039,97.523c0.234-0.278,0.657-0.551,0.664-0.835
				c0.02-0.739-0.142-1.483-0.232-2.225c-0.677,0.206-1.57,0.211-1.987,0.659c-0.99,1.062-0.317,2.007,1.59,2.371
				c-0.041,0.349-0.19,0.726-0.108,1.042c0.943,3.617,4.135,4.736,6.785,6.455c0.121-0.134,0.241-0.268,0.362-0.402
				c-1.97-1.807-3.941-3.614-6.239-5.722C75.81,98.681,77.134,97.151,75.039,97.523z M87.501,62.741
				c-0.41-0.301-0.82-0.603-1.293-0.95c-0.46,2.325,0.786,5.318,2.68,6.587c0-0.349,0-0.651,0-0.952
				c1.482-0.933,1.532-2.44,1.629-3.928c-0.957,1.156-2.124,2.231-1.587,3.966c-0.851-0.801-0.842-1.515-0.169-2.55
				c0.768-1.18,1.169-2.599,1.729-3.914c-0.239-0.11-0.478-0.22-0.717-0.329c-0.66,1.105-1.321,2.209-2.131,3.565
				c-0.083-0.668-0.137-1.107-0.195-1.55c1.347-1.272,2.502-2.622,2.031-5.083C87.709,59.189,87.49,60.92,87.501,62.741z
				 M143.158,116.099c0.055-0.206,0.151-0.602,0.269-0.99c0.373-1.23,0.898-2.435,1.1-3.692c0.355-2.203-0.809-3.273-2.891-2.508
				c-1.269,0.466-2.386,1.45-3.448,2.347c-1.262,1.066-2.216,2.601-3.612,3.384c-3.576,2.006-4.776,5.319-5.554,8.967
				c-0.593-0.166-1.143-0.32-1.753-0.49c2.12-2.08,2.761-4.575,1.713-6.732c-0.806-1.659-1.964-2.842-3.756-2.44
				c0.417-1.49,0.863-3.08,1.406-5.02c0.133,1.152,0.173,2.043,0.354,2.904c0.144,0.683,0.295,1.477,0.73,1.968
				c1.875,2.114,4.404,2.07,6.608-0.064c2.596-2.512,5.189-5.029,7.71-7.615c1.101-1.129,1.514-2.537,0.737-4.061
				c-0.688-1.349-1.738-2.057-3.308-1.636c-2.658,0.712-5.441,1.144-7.937,2.233c-3.829,1.67-7.574,2.343-11.624,1.04
				c-0.635-0.205-1.728-0.028-2.172,0.413c-1.211,1.202-0.838,4.152,0.731,5.732c0.492-1.021,0.935-1.939,1.394-2.891
				c0.216,0.754,0.432,1.505,0.654,2.279c-2.33,2.121-4.016,4.502-3.941,7.82c0.07,3.118,0.893,5.882,3.303,8.039
				c-1.864,1.501-2.093,3.413-1.488,5.52c1.334,4.642,8.319,6.637,12.245,3.325c1.702-1.436,2.95-3.411,4.388-5.155
				c0.299-0.363,0.523-0.787,0.781-1.183c0.221,0.164,0.441,0.329,0.662,0.493c-1.918,2.501-3.836,5.002-5.856,7.635
				c4.766,1.279,8.229-1.147,11.248-4.062c0.986,1.879,1.943,3.704,2.91,5.548c1.914-1.3,1.899-1.477,0.627-3.138
				c-1.11-1.452-2.247-2.885-1.674-5.005c0.342-1.265,0.258-2.644,0.366-3.972c-0.215-0.081-0.431-0.161-0.646-0.242
				c-1.284,2.917-2.911,5.542-5.666,7.203c0.395-0.689,0.984-1.237,1.38-1.899c0.716-1.199,1.454-2.416,1.933-3.717
				c0.685-1.863,0.119-3.838-1.11-4.701c-1.347-0.946-3.248-0.723-4.911,0.673c-0.652,0.547-1.24,1.202-1.739,1.893
				c-0.898,1.245-1.662,2.586-2.564,3.828c-1.373,1.891-3.075,3.253-5.07,3.211c1.564-1.429,3.435-2.953,5.073-4.696
				c1.163-1.238,1.996-2.782,3.003-4.17c1.429-1.97,2.894-3.914,4.319-5.886c0.664-0.919,1.271-1.879,1.903-2.821
				c-0.407,1.575-0.92,3.017-1.479,4.441c-0.678,1.727,0.489,2.317,1.669,3.113c1.27,0.857,1.965,0.076,2.68-0.639
				c0.775-0.776,1.436-1.67,2.116-2.536c0.78-0.992,1.527-2.009,2.288-3.016c-0.49,1.806-1.401,3.379-2.04,5.056
				c-0.555,1.457-1.319,3.18,0.088,4.49c1.471,1.37,2.869-0.04,4.179-0.656c1.15-0.541,2.189-1.319,3.278-1.992
				c0.105,0.173,0.211,0.347,0.316,0.52c-1.644,1.026-3.329,1.992-4.916,3.1c-0.985,0.687-1.991,1.465-2.68,2.423
				c-0.942,1.31-0.454,3.449,0.873,4.691c1.25,1.17,2.795,1.607,4.189,0.524c1.977-1.537,4.111-3.085,5.51-5.094
				c1.694-2.432,2.709-5.29,4.874-7.505c1.242-1.271,0.654-3.609-0.666-4.389c-1.315-0.777-2.757-0.039-3.704,1.89
				c-0.052,0.105-0.147,0.19-0.333,0.423c-3.556-1.336-5.635,1.874-8.529,2.982c0.376-0.691,0.888-1.149,1.427-1.573
				c2.32-1.821,3.491-4.086,2.782-7.092c-0.727-3.083-2.503-3.792-4.836-1.655C145.535,112.682,144.4,114.537,143.158,116.099z
				 M162.48,106.685c-1.263-1.496-2.691-2.778-4.684-2.332c-2.413,0.54-2.903,2.542-2.794,4.617
				c-0.661-1.099-1.09-2.713-2.077-3.205c-1.012-0.504-2.571,0.089-3.525,0.171c0.645-0.773,1.677-1.67,2.257-2.798
				c0.632-1.231,1.392-1.607,2.722-1.642c2.578-0.067,5.303-0.874,6.645-2.911c2.476-3.759,4.539-7.851,6.272-12.014
				c1.111-2.668-0.948-5.041-3.858-5.111c-3.169-0.077-6.153,0.417-8.323,3.542c0.497-2.601,1.813-3.963,4.646-4.84
				c1.697-0.525,3.465-0.814,5.178-1.294c0.436-0.122,0.781-0.571,1.167-0.87c-0.324-0.397-0.584-0.889-0.991-1.159
				c-0.324-0.215-0.834-0.24-1.252-0.21c-1.467,0.105-2.989,0.06-4.379,0.461c-2.201,0.634-4.331,1.395-5.869,3.421
				c-1.145,1.508-2.829,2.599-4.236,3.916c-0.678,0.635-1.703,1.294-1.822,2.059c-0.421,2.709-1.081,5.242-2.784,7.472
				c-0.403,0.527-0.671,1.878-0.431,2.049c0.956,0.679,1.23,2.34,2.949,2.009c2.115-0.408,3.651-1.754,4.121-4.033
				c0.365-1.772,0.631-3.564,0.965-5.48c3.92,2.271,7.476,0.18,11.159-1.224c-2.359,2.561-5.339,4.561-5.497,8.559
				c-0.418-0.634-0.444-1.154-0.588-1.639c-0.207-0.693-0.5-1.361-0.756-2.04c-0.756,0.404-1.577,0.726-2.245,1.244
				c-0.402,0.312-0.565,0.931-0.84,1.41c-2.073,3.6-4.14,7.203-6.23,10.792c-0.275,0.473-0.74,0.839-0.994,1.319
				c-0.277,0.524-0.412,1.123-0.69,1.921c3.763-0.303,6.483,0.679,7.638,4.666c1.515-1.349,2.938-2.206,3.776-3.456
				C158.427,108.086,159.756,106.49,162.48,106.685z M154.599,56.068c0.645,0.439,1.089,0.74,1.582,1.076
				c-1.367,1.924-3.701,3.506-1.803,6.274c1.229,1.793,5.548,4.089,7.078,3.593c0.947-0.307,2.209-0.488,2.067-2.196
				c-3.35,1.024-2.875-2.656-4.734-3.873c-0.069,1.125-0.122,1.982-0.195,3.167c-1.368-1.242-1.566-2.295-1.039-3.675
				c0.519-1.359,1.072-2.807,1.101-4.226c0.046-2.248-1.355-3.927-3.202-5.022c-1.669-0.989-2.814,0.139-3.706,1.798
				c-0.461-0.803-0.679-1.398-1.075-1.832c-1.1-1.207-2.171-2.483-3.463-3.452c-0.582-0.436-1.664-0.204-2.52-0.275
				c0.218,1.087,0.401,2.183,0.683,3.252c0.058,0.219,0.485,0.341,0.745,0.505c2.114,1.331,3.397,3.186,3.449,5.733
				c0.033,1.637,1.107,2.171,2.405,2.192C153.638,59.134,154.799,57.789,154.599,56.068z M118.227,133.427
				c0.062,2.017,0.798,3.876,2.168,5.551c4.237,5.178,16.571,4.906,21.549-0.796c0.642-0.736,0.776-1.992,0.917-3.038
				c0.038-0.281-0.959-1.055-1.146-0.958c-1.549,0.805-3.02,1.762-4.515,2.672c0.098,0.243,0.197,0.486,0.295,0.728
				c1.002-0.204,2.004-0.408,3.042-0.619c-1.755,2.732-4.062,4.649-7.434,4.219c-3.891-0.496-8.242,0.188-10.819-4.176
				C121.422,135.55,119.637,134.632,118.227,133.427z M158.76,110.753c0.842-0.233,1.546-0.427,2.251-0.622
				c-0.519,0.88-1.214,1.439-1.989,1.845c-0.972,0.51-2.058,0.81-3.007,1.355c-1.29,0.74-1.759,1.731-0.719,2.664
				c1.495-0.361,2.759-0.862,4.047-0.931c1.881-0.1,3.271-1.065,3.994-2.522c0.487-0.981,0.268-2.452-0.019-3.609
				c-0.117-0.47-1.264-0.984-1.921-0.958C159.872,108.036,159.077,109.097,158.76,110.753z M116.524,113.264
				c1.155-1.279,1.246-2.396,0.574-3.89c-0.576-1.281-0.971-2.927-0.686-4.247c0.479-2.215,1.126-4.18,0.399-6.596
				c-0.479-1.592,0.398-3.591,0.674-5.448c-0.872,0.223-1.987,0.509-3.312,0.848c1.403,1.399,1.454,2.724,0.914,4.367
				c-0.515,1.567-0.652,3.214,0.098,4.961c0.566,1.319,0.792,3.11,0.38,4.447C114.915,109.817,115.273,111.48,116.524,113.264z
				 M71.387,70.499c0.038,0.223,0.076,0.445,0.114,0.667c4.508-0.579,6.051,3.63,9.308,5.3c-0.649,0.726-1.026,1.147-1.472,1.645
				c1.302,0.539,2.459,1.019,3.617,1.499c0.193-0.217,0.387-0.435,0.58-0.652c-1.982-3.123-3.964-6.246-6.084-9.586
				c-0.338,1.491-1.225,1.328-2.3,1.168C73.922,70.359,72.644,70.499,71.387,70.499z M143.67,106.189
				c3.663-2.087,3.757-6.241,0.457-8.67c-0.599-0.441-1.545-0.409-2.331-0.596c0.115,0.837-0.054,1.896,0.395,2.472
				C143.727,101.362,144.454,103.434,143.67,106.189z M124.786,137.609c-0.024,0.183-0.048,0.365-0.072,0.548
				c3.279,1.439,6.647,2.205,10.212,0.943c0.424-0.15,0.691-0.745,1.031-1.133c-0.517-0.137-1.027-0.313-1.553-0.399
				c-0.338-0.055-0.697,0.038-1.047,0.038C130.5,137.611,127.643,137.609,124.786,137.609z M113.83,84.759
				c-0.13,0.007-0.26,0.014-0.391,0.021c0.356,0.45,0.712,0.9,1.017,1.285c0.655-0.273,1.193-0.498,1.757-0.733
				c0-3.037,0-6.124,0-9.398c-0.233,0.105-0.895,0.207-0.964,0.466c-0.468,1.751-0.857,3.527-1.175,5.313
				C113.896,82.712,113.905,83.743,113.83,84.759z M165.21,112.003c0.216-0.439,0.373-0.635,0.408-0.851
				c0.38-2.321-0.177-4.941,2.3-6.602c0.207-0.139-0.37-1.447-0.583-2.212c-0.544,0.229-1.343,0.31-1.58,0.717
				c-0.539,0.926-1.098,2.009-1.112,3.035C164.617,107.97,164.98,109.855,165.21,112.003z M163.409,103.828
				c0.347-1.495,0.708-3.045,1.068-4.596c-0.173-0.055-0.346-0.11-0.519-0.166c-1.592,1.149-3.184,2.299-5.047,3.643
				C160.433,103.089,161.677,103.398,163.409,103.828z M111.044,104.18c1.199,2.06,2.161,3.714,3.196,5.492
				c1.136-2.043,1.358-4.867,0.211-5.517C113.627,103.689,112.287,104.135,111.044,104.18z M167.964,100.034
				c-0.421-1.83-0.843-3.66-1.376-5.973c0.845,0.406,1.117,0.512,1.363,0.661c0.288,0.175,0.553,0.388,0.828,0.584
				c0.12-0.063,0.239-0.127,0.359-0.19c-0.398-1.308-0.796-2.617-1.286-4.228C165.526,94.543,165.502,98.326,167.964,100.034z
				 M100.712,138.679c0.012-0.266,0.025-0.532,0.037-0.799c-0.795-0.609-1.521-1.567-2.402-1.741
				c-1.207-0.239-1.879,0.84-1.896,1.984c-0.018,1.188,0.748,2.147,1.919,2.007C99.197,140.032,99.935,139.19,100.712,138.679z
				 M103.631,73.24c-0.222-0.004-0.445-0.009-0.667-0.013c0.286,1.579,0.572,3.159,0.862,4.757
				c-2.114,0.951-3.417,2.719-3.214,4.443c1.4-1.365,2.926-2.566,4.04-4.071c0.491-0.663,0.306-1.976,0.125-2.937
				C104.633,74.647,104.031,73.962,103.631,73.24z M93.524,123.847c-0.139,0.276-0.279,0.551-0.418,0.827
				c1.889,1.401,3.766,2.819,5.689,4.171c0.142,0.1,0.904-0.381,0.893-0.411c-0.287-0.767-0.437-1.849-1.016-2.194
				C97.054,125.278,95.253,124.623,93.524,123.847z M106.765,60.408c-1.175,0.298-2.017,0.512-2.859,0.726
				c-0.185-0.127-0.369-0.253-0.554-0.38c-0.597,2.31-1.194,4.62-1.791,6.93c0.105,0.003,0.21,0.007,0.315,0.01
				C103.437,65.367,104.999,63.04,106.765,60.408z M100.097,142.846c2.79-0.174,5.125-0.32,7.845-0.49
				C106.212,140.251,101.613,140.55,100.097,142.846z M98.898,89.177c0,1.006-0.143,2.058,0.04,3.05
				c0.184,0.993,0.694,1.927,1.06,2.886c1.386-0.765,0.515-1.899,0.477-2.897c-0.002-0.058,0.03-0.118,0.047-0.179
				c0.624,0.484,1.253,0.972,1.881,1.46c0.134-0.132,0.267-0.263,0.401-0.395c-0.536-0.684-1.015-1.423-1.623-2.036
				C100.536,90.415,99.769,89.886,98.898,89.177z M85.375,110.995c-0.401,3.003,1.113,5.261,4.446,6.408
				C88.42,115.384,87.019,113.365,85.375,110.995z M94.751,121.022c1.645,0.123,3.288,0.288,4.935,0.332
				c0.309,0.008,0.685-0.426,0.916-0.741c0.076-0.103-0.145-0.562-0.341-0.703C98.923,118.949,96.026,119.227,94.751,121.022z
				 M92.882,116.548c0.137,0.097,0.274,0.193,0.41,0.29c0.829-1.339,1.659-2.677,2.422-3.908c-0.895-0.642-1.782-1.278-2.832-2.031
				C92.882,112.616,92.882,114.582,92.882,116.548z M84.797,130.044c3.061-0.827,3.696-3.087,4.699-5.344
				C86.951,125.652,85.371,127.135,84.797,130.044z M76.44,110.265c-0.253,0.008-0.507,0.015-0.76,0.023
				c-0.444,0.693-1.359,1.507-1.218,2.048c0.189,0.728,1.191,1.244,1.844,1.851c0.519-0.561,1.494-1.162,1.449-1.675
				C77.688,111.731,76.914,111.011,76.44,110.265z M107.828,139.221c-0.531-3.063-3.103-4.82-4.654-7.231
				C104.181,134.749,104.913,137.683,107.828,139.221z M61.401,63.15c-1.855-1.399-3.762-1.314-5.859-0.486
				C57.907,64.554,59.545,64.682,61.401,63.15z M86.865,89.843c-0.106-2.093,0.858-4.441-1.404-6.502
				C84.822,86.02,85.775,87.944,86.865,89.843z M93.943,82.385c0.198-3.259-1.41-5.42-4.238-6.108
				C91.086,78.266,92.362,80.106,93.943,82.385z M77.421,51.578c0.97-1.492,1.043-2.599-1.113-5.472
				c-0.403,0.312-0.828,0.64-1.354,1.047C75.739,48.561,76.585,50.079,77.421,51.578z M99.714,112.053
				c0.782-1.02,1.667-1.713,1.552-2.129c-0.194-0.701-1.022-1.227-1.584-1.826c-0.508,0.535-1.397,1.052-1.422,1.608
				C98.233,110.322,98.998,110.971,99.714,112.053z M81.038,110.719c-0.686,1.695,2.267,4.644,4.517,4.886
				c-0.94-1.314-1.065-3.33-3.335-2.907C81.856,112.088,81.526,111.536,81.038,110.719z M101.18,105.927
				c-0.194,0.192-0.388,0.383-0.583,0.575c1.583,1.589,3.166,3.179,4.75,4.768c0.138-0.134,0.276-0.268,0.414-0.402
				C104.216,109.238,103.622,106.723,101.18,105.927z M80.965,85.934c0.199-0.129,0.398-0.257,0.598-0.386
				c-0.407-3.152-0.682-3.577-3.175-3.913C79.246,83.069,80.106,84.501,80.965,85.934z M96.325,141.426
				c-0.897-3.738-2.435-4.961-4.184-3.383C93.459,139.108,94.744,140.148,96.325,141.426z M105.615,128.118
				c-0.152,0.149-0.305,0.297-0.457,0.446c1.008,1.209,1.986,2.446,3.047,3.607c0.258,0.283,0.788,0.318,1.193,0.468
				c-0.026-0.435,0.124-1.05-0.106-1.274C108.12,130.227,106.85,129.19,105.615,128.118z M56.496,54.105
				c-1.304,1.987-2.405,3.667-3.507,5.346C56.127,57.887,57.212,56.26,56.496,54.105z M61.198,58.369
				c-1.149-1.819-2.51-1.266-3.55-1.225c-0.687,0.027-1.346,0.791-2.017,1.225c0.089,0.165,0.178,0.331,0.267,0.496
				C57.493,58.716,59.088,58.566,61.198,58.369z M116.257,92.884c0.012-0.171,0.024-0.343,0.036-0.514c-2.41,0-4.82,0-7.231,0
				C111.4,93.606,113.827,93.275,116.257,92.884z M71.924,48.204c-0.212,0.182-0.424,0.364-0.636,0.546
				c1.305,1.479,2.611,2.958,3.916,4.437c0.144-0.125,0.288-0.25,0.431-0.374C74.397,51.278,74.147,48.923,71.924,48.204z
				 M111.612,95.568c-0.101-0.27-0.201-0.54-0.302-0.81c-2.001,0.28-3.943,0.694-5.625,2.927
				C107.974,96.867,109.793,96.218,111.612,95.568z M77.264,63.221c0.296-0.033,0.591-0.066,0.887-0.1
				c-0.301-2.255-0.602-4.509-0.903-6.764c-0.211,0.025-0.423,0.051-0.634,0.076C76.83,58.696,77.047,60.959,77.264,63.221z
				 M105.79,99.507c1.899,0.975,3.295,1.635,5.059,0.607C109.321,98.187,107.794,99.162,105.79,99.507z M97.587,115.791
				c-1.983,0.869-3.339,2.363-3.29,3.624C96.5,118.713,97.596,117.506,97.587,115.791z M89.352,97.658
				c-0.028,0.272-0.057,0.544-0.085,0.817c1.987,0,3.974,0,5.961,0c0.011-0.161,0.023-0.321,0.034-0.482
				C93.292,97.881,91.322,97.77,89.352,97.658z M96.94,118.445c0.69,0.203,1.089,0.417,1.489,0.418
				c0.836,0.004,1.672-0.104,2.509-0.166c-0.114-0.374-0.178-1.044-0.351-1.073c-0.908-0.154-1.846-0.203-2.767-0.155
				C97.574,117.482,97.354,117.966,96.94,118.445z M95.249,62.266c0.161,0.018,0.323,0.036,0.484,0.054
				c0.2-1.827,0.401-3.654,0.601-5.481C94.235,58.475,95.128,60.41,95.249,62.266z M109.164,116.128
				c-0.209,0.064-0.418,0.127-0.626,0.191c0.514,1.681,1.027,3.362,1.541,5.043c0.222-0.068,0.444-0.135,0.666-0.203
				C111.27,119.161,109.94,117.729,109.164,116.128z M98.983,82.327c0.233,0.043,0.466,0.085,0.698,0.128
				c0.407-2.05,0.815-4.101,1.222-6.151c-0.33-0.059-0.66-0.118-0.989-0.177C99.604,78.193,99.294,80.26,98.983,82.327z
				 M110.885,89.534c0.599-0.828,1.188-1.297,1.221-1.804c0.024-0.357-0.703-1.061-1.099-1.065
				c-0.382-0.004-1.018,0.656-1.084,1.093C109.861,88.176,110.391,88.681,110.885,89.534z M107.894,64.777
				c-0.175-0.222-0.35-0.444-0.525-0.666c-1.502,1.196-3.004,2.392-4.506,3.588c0.132,0.168,0.265,0.336,0.397,0.504
				C104.67,66.889,106.863,66.572,107.894,64.777z M80.34,71.198c-0.266,0.132-0.532,0.264-0.798,0.396
				c1.084,1.664,2.167,3.329,3.251,4.993c0.199-0.126,0.399-0.252,0.598-0.377C82.374,74.54,81.357,72.869,80.34,71.198z
				 M108.847,71.712c0.016,0.265,0.032,0.531,0.049,0.796c1.581-0.098,3.163-0.196,4.744-0.294
				c-0.017-0.283-0.034-0.565-0.052-0.848C111.965,70.754,110.427,71.578,108.847,71.712z M70.039,70.157
				c-3.348,0.667-3.783,1.136-3.849,4.092C67.474,72.885,68.708,71.572,70.039,70.157z M107.383,87.016
				c-0.205-0.365-0.41-0.73-0.614-1.095c-0.902,0.433-1.804,0.866-2.706,1.3c0.294,0.413,0.759,1.218,0.854,1.177
				C105.776,88.022,106.57,87.497,107.383,87.016z M99.193,132.57c-0.105,2.514,1.145,4.145,3.052,4.126
				C101.163,135.232,100.178,133.901,99.193,132.57z M108.017,97.685c0.038,0.184,0.075,0.369,0.113,0.553
				c1.662-0.351,3.324-0.701,4.985-1.052c-0.062-0.258-0.124-0.516-0.186-0.774C111.014,95.661,109.639,97.193,108.017,97.685z
				 M99.652,114.445c0.098,0.164,0.196,0.329,0.294,0.493c2.674-0.255,3.424-0.765,3.371-2.634
				C102.003,113.072,100.828,113.759,99.652,114.445z M69.204,66.365c-0.679,1.122-1.196,1.695-1.354,2.354
				c-0.08,0.331,0.491,0.819,0.768,1.236c0.494-0.519,1.144-0.968,1.419-1.585C70.181,68.045,69.672,67.428,69.204,66.365z
				 M84.282,70.036c-1.957,2.132-2.081,3.307-0.745,4.922C83.808,73.168,84.045,71.602,84.282,70.036z M77.895,93.558
				c1.972-0.216,3.561-0.391,5.542-0.608C81.365,91.791,79.736,91.983,77.895,93.558z M102.487,91.268
				c0.163-0.118,0.326-0.235,0.488-0.353c-0.825-1.063-1.649-2.127-2.679-3.455C100.08,89.46,100.631,90.283,102.487,91.268z
				 M105.042,96.393c1.259-0.947,2.519-1.893,3.778-2.84C106.359,92.833,105.937,94.929,105.042,96.393z M77.768,94.109
				c-1.497,1.881-1.396,4.054,0,5.235C77.768,97.7,77.768,96.09,77.768,94.109z M58.97,66.805c0.162-0.247,0.324-0.494,0.486-0.741
				c-1.304-0.847-2.608-1.693-3.911-2.54c-0.148,0.226-0.296,0.453-0.444,0.679C56.39,65.07,57.68,65.938,58.97,66.805z
				 M77.568,127.221c0.213-0.125,0.425-0.249,0.638-0.374c-0.932-1.462-1.865-2.925-2.797-4.387
				c-0.193,0.122-0.387,0.245-0.58,0.367C75.742,124.292,76.655,125.757,77.568,127.221z M94.836,86.044
				c-0.264,0.138-0.527,0.276-0.791,0.414c0.962,1.658,1.924,3.316,2.886,4.974c0.191-0.105,0.383-0.21,0.574-0.316
				C96.615,89.426,95.725,87.735,94.836,86.044z M76.757,79.84c-0.207,0.083-0.414,0.166-0.621,0.249
				c-0.177,1.812,0.341,2.662,2.427,3.267C77.844,81.958,77.3,80.899,76.757,79.84z M103.428,65.395
				c0.187,0.203,0.374,0.405,0.56,0.608c1.184-0.955,2.368-1.91,3.551-2.865c-0.22-0.262-0.441-0.524-0.661-0.785
				C105.729,63.366,104.579,64.381,103.428,65.395z M59.651,60.761c-0.093-0.312-0.186-0.625-0.279-0.937
				c-1.434,0.507-2.868,1.015-4.302,1.522c0.066,0.197,0.133,0.394,0.199,0.592C56.73,61.545,58.191,61.153,59.651,60.761z
				 M81.396,116.492c0.113-0.215,0.226-0.43,0.339-0.645c-0.897-0.488-1.778-1.015-2.714-1.408c-0.099-0.042-0.527,0.699-0.88,1.183
				C79.437,115.968,80.416,116.23,81.396,116.492z M102.886,136.087c0.153-1.843-1.061-3.517-3.176-4.239
				C100.867,133.392,101.823,134.668,102.886,136.087z M109.065,140.398c-0.118,0.201-0.237,0.403-0.355,0.604
				c1.076,0.564,2.142,1.151,3.252,1.64c0.078,0.035,0.477-0.658,0.837-1.17C111.364,141.06,110.214,140.729,109.065,140.398z
				 M107.635,78.43c0.126,0.258,0.251,0.516,0.377,0.773c1.177-0.768,2.353-1.537,3.53-2.305c-0.181-0.273-0.362-0.547-0.543-0.82
				C109.878,76.862,108.756,77.646,107.635,78.43z M106.056,71.434c-0.1,0.211-0.2,0.423-0.3,0.634
				c1.825,0.855,3.649,1.71,5.474,2.565c0.073-0.153,0.146-0.306,0.218-0.459C109.651,73.261,107.854,72.348,106.056,71.434z
				 M104.314,114.407c1.429,2.352,2.09,2.611,3.36,1.584C106.483,115.43,105.399,114.918,104.314,114.407z M100.421,95.749
				c-0.264,0.1-0.529,0.199-0.793,0.299c0.194,1.23,0.04,2.608,1.448,3.323c0.194-0.075,0.388-0.15,0.582-0.225
				C101.246,98.013,100.833,96.881,100.421,95.749z M79.35,96.315c0.501,0.743,0.906,1.383,1.353,1.993
				c0.41,0.56,0.864,1.088,1.298,1.63C81.755,97.308,80.426,95.735,79.35,96.315z M77.862,91.019c1.18,0.284,2.36,0.567,3.54,0.851
				c0.039-0.182,0.079-0.365,0.118-0.547C80.377,90.821,79.491,89.253,77.862,91.019z M55.029,52.136
				c-0.265-0.093-0.529-0.186-0.794-0.28c-0.545,1.62-1.089,3.24-1.634,4.859c0.176,0.061,0.352,0.121,0.529,0.182
				C53.763,55.311,54.396,53.723,55.029,52.136z M60.21,56.376c0.084-0.242,0.169-0.483,0.253-0.725
				c-0.531-0.303-1.171-0.954-1.567-0.83c-0.623,0.196-1.082,0.914-1.611,1.411c0.117,0.169,0.235,0.337,0.352,0.506
				C58.495,56.618,59.353,56.497,60.21,56.376z M102.225,139.856c1.03-0.145,2.06-0.291,3.246-0.458
				C104.382,137.708,103.991,137.753,102.225,139.856z M105.191,68.553c0.04,0.177,0.08,0.354,0.12,0.531
				c1.83-0.361,3.661-0.722,5.491-1.083c-0.057-0.252-0.115-0.504-0.172-0.756C108.817,67.682,107.004,68.118,105.191,68.553z
				 M105.329,105.144c-0.206,0.025-0.412,0.049-0.618,0.074c-0.577,1.882-0.463,2.55,0.79,3.562
				C105.438,107.45,105.384,106.297,105.329,105.144z M97.835,131.961c-0.218,0.046-0.436,0.091-0.654,0.137
				c0.068,0.912,0.1,1.828,0.233,2.73c0.028,0.191,0.425,0.328,0.652,0.49c0.172-0.264,0.528-0.563,0.485-0.785
				C98.38,133.663,98.084,132.817,97.835,131.961z M96.341,132.301c-0.178-0.001-0.356-0.002-0.535-0.003c0,1.226,0,2.451,0,3.677
				c0.178,0.001,0.356,0.003,0.535,0.004C96.341,134.753,96.341,133.527,96.341,132.301z M95.503,129.706
				c0.263-0.212,0.525-0.424,0.788-0.637c-0.657-0.842-1.315-1.684-1.972-2.526c-0.228,0.172-0.455,0.345-0.683,0.517
				C94.259,127.943,94.881,128.824,95.503,129.706z M105.559,122.028c-0.107,0.143-0.214,0.285-0.321,0.428
				c1.163,0.962,2.326,1.925,3.489,2.887c0.169-0.219,0.338-0.437,0.508-0.656C108.009,123.801,106.784,122.915,105.559,122.028z
				 M111.325,121.961c-0.17,0.098-0.34,0.196-0.51,0.294c0.591,1.032,1.182,2.063,1.774,3.095c0.22-0.127,0.44-0.254,0.66-0.381
				C113.312,123.555,112.277,122.782,111.325,121.961z M158.42,126.134c0.198,0.152,0.395,0.303,0.593,0.455
				c0.807-1.268,1.615-2.535,2.422-3.803c-0.139-0.093-0.277-0.187-0.416-0.28C160.153,123.716,159.286,124.925,158.42,126.134z
				 M103.162,71.856c-0.287-0.156-0.573-0.312-0.86-0.469c-0.536,0.984-1.072,1.969-1.608,2.953c0.27,0.147,0.54,0.293,0.81,0.44
				C102.056,73.805,102.609,72.831,103.162,71.856z M93.844,131.193c-0.287-0.115-0.574-0.229-0.86-0.344
				c-0.287,1.246-0.573,2.492-0.86,3.738c0.213,0.06,0.426,0.121,0.639,0.181C93.123,133.576,93.483,132.385,93.844,131.193z
				 M93.45,90.993c-1.029,0.982-1.682,1.606-2.387,2.279C92.646,94.164,93.182,93.709,93.45,90.993z M84.827,93.919
				c-1.78,0.694-2.029,2.107-0.635,3.604C84.404,96.322,84.599,95.213,84.827,93.919z M69.392,109.442
				c-0.075,0.272-0.149,0.544-0.224,0.816c0.832,0.189,1.663,0.383,2.503,0.532c0.021,0.004,0.28-0.612,0.177-0.745
				C71.179,109.178,70.348,108.895,69.392,109.442z M78.87,55.942c-0.804,2.311,0.487,2.549,1.4,3.082
				c0.169-0.126,0.338-0.252,0.507-0.379C80.223,57.86,79.669,57.074,78.87,55.942z M78.19,119.332
				c-0.05-0.215-0.1-0.43-0.149-0.646c-1.148,0.266-2.297,0.531-3.825,0.885C76.164,121.311,77.014,119.468,78.19,119.332z
				 M82.933,115.669c-0.092,0.287-0.183,0.575-0.275,0.862c1.278,0.376,2.555,0.752,3.833,1.127
				c0.064-0.193,0.127-0.386,0.191-0.578C85.432,116.61,84.182,116.139,82.933,115.669z M104.537,112.616
				c-0.1,0.167-0.2,0.334-0.3,0.501c1.1,0.574,2.2,1.147,3.726,1.943c-0.193-1.061-0.299-1.64-0.308-1.689
				C106.329,113.049,105.433,112.833,104.537,112.616z M116.569,87.803c-0.204-0.198-0.407-0.396-0.611-0.594
				c-0.319,0.486-0.638,0.973-0.892,1.358c-0.382-0.105-0.71-0.194-1.225-0.335c0.139,0.733,0.233,1.231,0.433,2.288
				C115.225,89.394,115.897,88.599,116.569,87.803z M88.494,79.06c1.202,0.893,2.408,1.788,3.869,2.873
				C89.803,78.03,90.074,77.935,88.494,79.06z M107.539,102.838c0.129-0.168,0.258-0.335,0.386-0.503
				c-0.239-1.703-1.58-1.594-2.981-1.414C105.81,101.559,106.675,102.198,107.539,102.838z M81.408,72.173
				c0.301,0.017,0.603,0.034,0.904,0.051c0.129-1.164,0.259-2.329,0.388-3.493c-0.315-0.03-0.629-0.06-0.944-0.09
				C81.64,69.818,81.524,70.995,81.408,72.173z M96.157,102.165c-0.718,0.649-1.435,1.298-2.294,2.075
				C95.728,104.788,96.05,104.513,96.157,102.165z M107.3,128.42c1.334,1.344,2.464,1.338,3.545,0
				C109.664,128.42,108.61,128.42,107.3,128.42z M112.478,129.988c-1.406-0.088-2.368-0.148-3.471-0.217
				C110.087,131.67,110.682,131.756,112.478,129.988z M107.324,105.063c-1.757,1.566-1.216,3.388-0.926,5.167
				C106.694,108.583,106.989,106.935,107.324,105.063z M89.92,71.205c-0.306,1.506-0.53,2.609-0.839,4.131
				C90.466,73.977,91.315,72.969,89.92,71.205z M107.443,57.966c-0.22-0.226-0.441-0.452-0.661-0.678
				c-0.779,0.767-1.557,1.533-2.336,2.3c0.206,0.212,0.412,0.423,0.618,0.635C105.857,59.471,106.65,58.719,107.443,57.966z
				 M78.854,106.662c0.034-0.225,0.068-0.451,0.103-0.676c-1.08-0.26-2.155-0.549-3.245-0.754c-0.188-0.035-0.471,0.261-0.649,0.459
				c-0.051,0.056,0.093,0.433,0.182,0.448C76.445,106.335,77.65,106.494,78.854,106.662z M78.147,44.122
				c0.171-0.24,0.343-0.479,0.514-0.719c-0.951-0.649-1.901-1.298-2.852-1.946c-0.147,0.204-0.294,0.409-0.441,0.613
				C76.294,42.755,77.221,43.439,78.147,44.122z M81.041,127.99c0.084,0.168,0.168,0.336,0.251,0.505
				c1.185-0.564,2.37-1.127,3.555-1.691c-0.122-0.234-0.243-0.468-0.365-0.702C83.335,126.732,82.188,127.361,81.041,127.99z
				 M75.85,116.258c-0.313,0.679-0.575,1.249-0.948,2.059c1.185-0.317,1.995-0.533,3.018-0.806c-0.535-0.344-0.828-0.542-1.13-0.725
				C76.545,116.637,76.29,116.504,75.85,116.258z M87.759,131.736c0.254,0.024,0.507,0.049,0.761,0.073
				c0.166-1.117,0.332-2.234,0.498-3.351c-0.265-0.04-0.531-0.08-0.796-0.119C88.067,129.471,87.913,130.604,87.759,131.736z
				 M111.116,106.372c-0.116-0.063-0.232-0.126-0.347-0.189c-0.154,0.275-0.308,0.551-0.463,0.826
				c0.116,0.064,0.233,0.128,0.349,0.192C110.808,106.925,110.962,106.649,111.116,106.372z M87.69,39.514
				c-0.108-0.032-0.228-0.108-0.314-0.08c-0.076,0.025-0.115,0.165-0.171,0.254c0.101,0.032,0.218,0.112,0.297,0.084
				C87.583,39.743,87.626,39.609,87.69,39.514z"/>
			<path d="M6.263,10.629C5.681,8.397,5.124,6.278,4.576,4.156C4.499,3.86,4.366,3.531,4.428,3.254C4.675,2.161,4.988,1.084,5.276,0
				c0.98,0.361,2.076,0.552,2.915,1.121c1.468,0.995,2.898,2.109,4.114,3.391c0.866,0.913,1.354,2.184,2.077,3.408
				c0.144-0.096,0.554-0.569,1.019-0.631c0.785-0.105,2.024-0.265,2.338,0.151c1.505,1.995,2.853,4.126,4.072,6.312
				c0.646,1.158,0.06,2.133-1.195,2.598c-3.478,1.29-6.929,2.664-10.462,3.781c-0.781,0.247-2.392-0.148-2.695-0.73
				c-1.086-2.089-2.997-3.122-4.708-4.449c-0.726-0.563-1.412-1.201-2.008-1.897c-0.366-0.427-0.874-1.282-0.712-1.503
				c0.381-0.521,1.107-1.048,1.723-1.086C3.262,10.375,4.788,10.558,6.263,10.629z M9.537,17.011
				c0.206,0.097,0.412,0.194,0.618,0.291c0.538-0.882,1.133-1.738,1.572-2.667c0.099-0.209-0.343-0.674-0.536-1.021
				c-0.299,0.171-0.776,0.279-0.864,0.526C9.995,15.072,9.79,16.05,9.537,17.011z M12.333,6.235
				c-0.272-0.007-0.543-0.014-0.815-0.021c-0.574,1.123-1.009,2.244-0.162,3.355c0.274,0.007,0.549,0.014,0.823,0.022
				C12.23,8.472,12.281,7.354,12.333,6.235z M13.469,17.576c0.087,0.215,0.173,0.43,0.26,0.645c1.621-0.619,3.243-1.239,4.864-1.858
				c-0.097-0.24-0.194-0.48-0.291-0.72C16.691,16.287,15.08,16.931,13.469,17.576z M16.329,8.493
				c-1.947-0.169-2.777,0.721-2.779,2.587C14.576,10.282,16.478,10.608,16.329,8.493z M7.524,9.566
				c0.34-0.096,0.68-0.192,1.021-0.288c-0.32-0.995-0.639-1.991-0.959-2.986c-0.28,0.082-0.559,0.164-0.839,0.245
				C7.006,7.547,7.265,8.556,7.524,9.566z M7.955,16.28c0.269,0.014,0.537,0.028,0.806,0.042c0-0.835,0.055-1.676-0.034-2.502
				c-0.026-0.244-0.457-0.445-0.703-0.666c-0.219,0.251-0.647,0.529-0.619,0.749C7.507,14.706,7.76,15.489,7.955,16.28z
				 M18.48,13.241c-2.215-0.108-2.859,0.518-2.94,2.594C16.527,14.964,17.365,14.224,18.48,13.241z M5.479,15.21
				c-0.12,0.192-0.24,0.384-0.36,0.576c0.86,0.614,1.719,1.228,2.579,1.842C7.391,16.258,6.989,15.035,5.479,15.21z"/>
			<path d="M25.683,53.78c-1.796,0.345-2.967-0.59-3.909-1.693c-0.77-0.902-1.426-1.333-2.732-1.517
				c-2.813-0.396-5.543-1.384-8.443-2.166c2.472-3.856,6.201-4.058,10.064-3.791c0.374-0.675-0.853-2.655,1.42-1.656
				c0.202,0.089,0.719-0.5,1.069-0.797c2.778-2.362,5.54-4.745,8.338-7.082c0.496-0.414,1.143-0.647,1.985-0.814
				c-0.637,3.27-0.948,6.586-3.582,9.165c0.212,0.105,0.425,0.21,0.637,0.315c0.371-0.417,0.743-0.834,1.114-1.251
				c0.079,0.055,0.159,0.111,0.238,0.166c-0.509,0.745-1.018,1.49-1.675,2.453c0.135,0.469,0.363,1.266,0.654,2.28
				c-1.274,0-2.39,0-3.92,0c1.145,1.117,1.754,2.326,3.139,1.65c-0.471,1.453-0.514,1.447-3.497-1.088
				c0.103,1.408,0.183,2.511,0.273,3.74c-0.53,0.06-0.968,0.11-1.408,0.16C25.532,52.53,25.602,53.114,25.683,53.78z M29.608,42.191
				c-2.28-0.741-3.358-0.436-4.189,1.185C27.712,43.98,28.993,43.618,29.608,42.191z M23.279,53.155
				c0.441-0.881,1.056-1.672,0.9-1.878c-0.469-0.618-1.24-1.007-1.893-1.485c-0.19,0.202-0.379,0.403-0.569,0.605
				C22.125,51.116,22.532,51.836,23.279,53.155z M13.933,46.187c0.051,0.18,0.102,0.36,0.154,0.54
				c1.783-0.423,3.566-0.846,5.35-1.269c-0.058-0.223-0.116-0.446-0.173-0.669C17.487,45.255,15.71,45.721,13.933,46.187z
				 M24.176,41.779c1.535-0.584,3.324-0.874,3.74-2.723c-0.131-0.144-0.263-0.288-0.394-0.433
				C26.407,39.675,25.292,40.727,24.176,41.779z M18.529,49.223c0.345,0.109,0.691,0.219,1.036,0.328
				c0.261-0.918,0.523-1.835,0.784-2.753c-0.275-0.09-0.55-0.18-0.826-0.27C19.193,47.427,18.861,48.325,18.529,49.223z"/>
			<path d="M58.594,94.421c0.286-0.851,0.572-1.702,0.942-2.803c-2.578-0.243-2.911-2.82-4.458-4.482
				c2.246-0.143,4.327-0.043,5.649-2.153c0.343-0.549,1.19-1.003,1.857-1.084c1.514-0.183,3.068-0.205,4.588-0.084
				c0.523,0.041,0.998,0.699,1.41,1.011c-0.472,0.741-0.795,1.248-1.119,1.756c0.415,0.083,0.83,0.165,1.717,0.342
				c0,2.838,0,5.904,0,8.866c-0.879,0.042-1.496-0.12-1.831,0.117c-3.199,2.265-6.845,3.27-10.637,3.823
				c-0.639,0.093-1.352-0.314-2.03-0.49c0.286-0.558,0.48-1.196,0.878-1.658c0.834-0.969,1.776-1.846,2.673-2.761
				c1.524,0.322,3.049,0.644,4.571,0.968c-0.64,0.445-1.279,0.889-1.917,1.332c0.11,0.216,0.22,0.431,0.33,0.647
				c1.891-0.831,3.781-1.661,5.672-2.492c-0.061-0.152-0.123-0.303-0.184-0.455c-1.32,0.342-2.639,0.685-3.959,1.027
				c-0.423-0.251-0.818-0.594-1.276-0.734C60.529,94.825,59.554,94.645,58.594,94.421z M64.199,87.455
				c0.96,0.31,1.921,0.62,3.216,1.039c-0.252-0.776-0.462-1.575-0.771-2.333c-0.278-0.68-0.666-1.315-1.074-2.102
				c-0.353,0.389-0.72,0.793-0.923,1.016c-0.474-0.265-0.849-0.475-1.224-0.685c0.007,0.525,0.013,1.05,0.02,1.575
				c-1.946-0.072-0.457,1.882-1.413,2.395c0.724,0.39,1.447,0.78,2.596,1.399C64.41,88.592,64.304,88.024,64.199,87.455z"/>
			<path d="M103.112,48.539c-0.493,0.221-0.996,0.651-1.478,0.628c-2.948-0.139-5.983,0.721-8.824-0.668
				c-0.482-0.236-0.878-0.649-1.314-0.98c0.435-0.232,0.87-0.465,1.132-0.605c0-2.924-0.181-5.853,0.079-8.742
				c0.123-1.372,0.946-2.76,1.733-3.955c0.335-0.508,1.518-0.907,2.087-0.707c0.86,0.302,1.065,2.675,0.549,3.362
				c-0.757,1.008-1.465,2.054-2.194,3.084c0.172,0.134,0.345,0.268,0.517,0.403c0.756-0.593,1.511-1.186,2.267-1.779
				c0.089,0.141,0.178,0.281,0.267,0.422c-1.978,1.349-2.72,2.473-2.55,4.283c1.067-1.227,1.97-2.266,2.841-3.267
				c0.483,0,1.02,0,1.522,0c-0.085,0.396-0.201,0.938-0.322,1.474c-1.424-0.541-3.15,1.047-2.85,3.258
				c0.944-1.099,1.888-2.198,2.832-3.297c0.295-0.161,0.59-0.321,0.972-0.53c0,0.766,0,1.366,0,2.122
				c-0.618,0.287-1.416,0.658-2.214,1.029c0.071,0.161,0.142,0.322,0.213,0.483c1.129-0.533,2.216-1.216,3.401-1.545
				c0.763-0.212,1.767-0.103,2.476,0.244c0.447,0.219,0.906,1.278,0.738,1.726c-0.474,1.263-1.27,2.405-1.943,3.598
				c-1.073-1.255-2.197-2.37-3.993-1.76c-0.061,0.179-0.122,0.358-0.182,0.537C100.288,47.751,101.7,48.145,103.112,48.539z
				 M93.814,45.914c0.574-2.219,1.395-4.464,0.259-7.181C92.163,41.351,93.241,43.632,93.814,45.914z M104.583,45.951
				c-0.864-0.715-1.364-1.258-1.975-1.605c-0.9-0.511-1.341,0.479-0.982,2.427C102.562,46.512,103.484,46.256,104.583,45.951z
				 M93.343,37.957c0.213,0.11,0.426,0.22,0.639,0.33c0.697-1.265,1.394-2.531,2.091-3.796c-0.223-0.124-0.446-0.247-0.67-0.371
				C94.04,35.022,93.516,36.392,93.343,37.957z"/>
			<path d="M124.484,97.72c1.044,0,1.595,0.036,2.139-0.007c1.789-0.141,2.724-1.115,2.546-2.914
				c-0.119-1.205-0.535-2.385-0.859-3.565c-0.292-1.065-0.646-2.112-0.96-3.171c-0.342-1.153-0.153-2.037,1.136-2.49
				c0.747-0.263,1.455-0.653,2.156-1.031c2.832-1.526,3.426-3.982,1.613-6.62c-0.139-0.202-0.291-0.4-0.463-0.573
				c-1.46-1.475-3.211-2.762-4.312-4.467c-1.103-1.709-1.561-3.834-2.267-5.687c1.948,0.517,5.259-1.565,6.226-4.062
				c0.824-2.129-0.423-4.506-3.016-5.792c-1.866-0.926-3.736-1.849-5.569-2.837c-0.622-0.335-1.138-0.866-1.538-1.567
				c1.262,0.622,2.5,1.299,3.791,1.854c2.465,1.059,3.979,0.538,5.354-1.743c1.209-2.005,1.65-2.37,3.828-2.862
				c-3.913,2.773-3.431,6.114-2.242,9.629c1.041,3.076,0.064,5.739-2.625,7.478c-1.977,1.278-2.286,1.885-1.241,3.933
				c0.79,1.549,1.882,2.976,3.014,4.31c1.772,2.089,3.453,4.243,2.163,7.092c-0.603,1.33-1.781,2.495-2.93,3.459
				c-1.58,1.325-1.812,2.755-1.166,4.589c0.405,1.149,0.707,2.361,0.852,3.569C130.517,97.628,128.173,99.25,124.484,97.72z"/>
			<path d="M58.219,30.869c0.209,0.174,0.498,0.54,0.614,0.492c0.841-0.351,1.647-0.787,2.065-0.996
				c2.768,1.256,5.52-0.691,8.455,0.866c-1.052,0.861-2.064,1.501-2.818,2.366c-0.589,0.676-1.173,1.619-1.206,2.465
				c-0.08,2.081-1.656,2.835-2.997,3.718c-0.99,0.652-2.057,0.462-2.866-0.678c-1.434-2.019-2.974-3.963-4.496-5.974
				c0.317-0.242,0.883-0.673,1.448-1.105l-0.035-0.036c0.26,0.082,0.652,0.313,0.756,0.22c0.428-0.38,0.768-0.859,1.141-1.301
				L58.219,30.869z M62.233,38.027c-1.093-0.641-2.186-1.281-3.577-2.096C59.496,39.055,59.645,39.154,62.233,38.027z M67.867,31.61
				c-0.057-0.168-0.113-0.337-0.17-0.505c-2.884,0.198-2.884,0.198-3.473,1.494C65.594,32.227,66.731,31.918,67.867,31.61z"/>
			<path d="M148.079,67.482c-0.962,3.116-2.997,3.519-6.312,3.765c-0.548,0.041-1.106-0.067-1.658-0.058
				c-2.607,0.04-4.37,1.28-4.7,3.285c-0.447,2.716,0.766,4.706,3.392,5.551c0.281,0.09,0.577,0.136,1.017,0.237
				c-1.854,1.991-1.622,4.193-0.893,6.349c-1.386,0.536-2.674,1.034-3.962,1.531c-0.061-0.066-0.123-0.132-0.184-0.199
				c0.427-0.47,0.856-0.939,1.282-1.411c1.518-1.681,1.75-4.413,0.457-6.275c-1.377-1.983-2.201-4.054-1.908-6.561
				c0.084-0.717-0.618-1.527-1.013-2.414c2.073-0.945,3.071-2.991,3.298-5.928C138.966,71.74,143.814,71.794,148.079,67.482z"/>
			<path d="M56.417,32.023c0.748-3.674,3.234-7.63,5.549-5.981c-1.094,0.823-1.984,0.423-2.993,1.183
				c0.125,0.186,0.251,0.371,0.376,0.557c0.871-0.579,1.742-1.158,2.617-1.74c0.53,1.497,0.12,2.57-1.226,3.347
				c-0.844,0.487-1.681,0.986-2.521,1.479l0.06,0.037c0.955-0.919,1.911-1.839,2.866-2.758c-0.581-0.095-1.066,0.004-1.361,0.295
				c-1.166,1.149-2.273,2.358-3.402,3.544L56.417,32.023z"/>
			<path d="M123.45,73.992c0.945,1.543,1.876,3.063,2.66,4.344c-0.547,0.115-1.396,0.293-2.122,0.445
				C123.831,77.382,123.642,75.696,123.45,73.992z"/>
			<path d="M118.781,25.179c-0.436,3.608-0.873,7.215-1.309,10.823c-0.161-0.018-0.321-0.037-0.482-0.055
				c0.498-3.589,0.997-7.179,1.495-10.768C118.584,25.178,118.682,25.178,118.781,25.179z"/>
			<path d="M120.413,28.306c0-1.308,0-2.615,0-3.923c0.159,1.341,1.41,2.712,0.523,4.03
				C120.762,28.377,120.588,28.341,120.413,28.306z"/>
			<path d="M84.133,51.765c-0.693,0.534-1.24,0.955-1.787,1.377c0.81-1.034,0.81-1.034,3.592-0.807
				C84.767,53.235,84.659,53.215,84.133,51.765z"/>
			<path class="st1" d="M62.806,95.785c-1.524-0.322-3.049-0.644-4.573-0.967c0.12-0.133,0.241-0.265,0.361-0.398
				c0.96,0.224,1.935,0.404,2.875,0.692c0.457,0.14,0.852,0.483,1.276,0.734L62.806,95.785z"/>
			<path class="st1" d="M162.48,106.685c-2.724-0.195-4.053,1.401-5.372,3.367c-0.838,1.25-2.261,2.108-3.776,3.456
				c-1.155-3.987-3.876-4.969-7.638-4.666c0.277-0.798,0.412-1.397,0.69-1.921c0.254-0.48,0.719-0.846,0.994-1.319
				c2.09-3.59,4.157-7.193,6.23-10.792c0.275-0.478,0.438-1.098,0.84-1.41c0.668-0.518,1.489-0.839,2.245-1.244
				c0.256,0.679,0.55,1.346,0.756,2.04c0.144,0.485,0.17,1.005,0.588,1.639c0.158-3.998,3.138-5.998,5.497-8.559
				c-3.683,1.404-7.239,3.495-11.159,1.224c-0.333,1.916-0.6,3.708-0.965,5.48c-0.47,2.278-2.006,3.625-4.121,4.033
				c-1.719,0.332-1.993-1.329-2.949-2.009c-0.24-0.17,0.028-1.521,0.431-2.049c1.704-2.23,2.363-4.762,2.784-7.472
				c0.119-0.765,1.144-1.424,1.822-2.059c1.407-1.317,3.091-2.409,4.236-3.916c1.539-2.026,3.668-2.787,5.869-3.421
				c1.39-0.4,2.912-0.356,4.379-0.461c0.418-0.03,0.927-0.005,1.252,0.21c0.407,0.271,0.668,0.763,0.991,1.159
				c-0.387,0.299-0.731,0.747-1.167,0.87c-1.712,0.481-3.481,0.769-5.178,1.294c-2.833,0.877-4.149,2.238-4.646,4.84
				c2.17-3.125,5.154-3.619,8.323-3.542c2.91,0.07,4.969,2.444,3.858,5.111c-1.733,4.163-3.796,8.255-6.272,12.014
				c-1.341,2.037-4.066,2.844-6.645,2.911c-1.33,0.035-2.09,0.411-2.722,1.642c-0.58,1.129-1.612,2.025-2.257,2.798
				c0.954-0.082,2.513-0.675,3.525-0.171c0.987,0.492,1.416,2.105,2.077,3.205c-0.108-2.075,0.381-4.078,2.794-4.617
				C159.789,103.907,161.218,105.19,162.48,106.685z"/>
			<path class="st1" d="M154.599,56.068c0.201,1.721-0.96,3.066-2.629,3.039c-1.298-0.021-2.372-0.555-2.405-2.192
				c-0.052-2.547-1.335-4.401-3.449-5.733c-0.259-0.163-0.687-0.286-0.745-0.505c-0.282-1.07-0.465-2.166-0.683-3.252
				c0.855,0.071,1.938-0.161,2.52,0.275c1.293,0.968,2.364,2.245,3.463,3.452c0.396,0.434,0.614,1.029,1.075,1.832
				c0.892-1.659,2.037-2.788,3.706-1.798c1.847,1.095,3.248,2.774,3.202,5.022c-0.029,1.419-0.582,2.868-1.101,4.226
				c-0.527,1.38-0.328,2.434,1.039,3.675c0.073-1.185,0.126-2.042,0.195-3.167c1.86,1.217,1.384,4.897,4.734,3.873
				c0.142,1.708-1.12,1.889-2.067,2.196c-1.53,0.496-5.849-1.799-7.078-3.593c-1.898-2.769,0.436-4.35,1.803-6.274
				C155.687,56.809,155.243,56.507,154.599,56.068z"/>
			<path class="st1" d="M118.227,133.427c1.41,1.206,3.195,2.123,4.058,3.584c2.577,4.364,6.927,3.68,10.819,4.176
				c3.372,0.43,5.679-1.487,7.434-4.219c-1.037,0.211-2.04,0.415-3.042,0.619c-0.098-0.243-0.197-0.486-0.295-0.728
				c1.495-0.911,2.966-1.867,4.515-2.672c0.187-0.097,1.184,0.677,1.146,0.958c-0.142,1.046-0.275,2.302-0.917,3.038
				c-4.978,5.701-17.312,5.974-21.549,0.796C119.025,137.303,118.289,135.443,118.227,133.427z"/>
			<path class="st1" d="M158.76,110.753c0.317-1.657,1.112-2.717,2.637-2.778c0.657-0.026,1.805,0.489,1.921,0.958
				c0.287,1.157,0.506,2.628,0.019,3.609c-0.723,1.457-2.113,2.422-3.994,2.522c-1.287,0.069-2.552,0.57-4.047,0.931
				c-1.04-0.933-0.572-1.923,0.719-2.664c0.949-0.544,2.035-0.845,3.007-1.355c0.775-0.407,1.47-0.965,1.989-1.845
				C160.306,110.326,159.602,110.521,158.76,110.753z"/>
			<path class="st1" d="M116.524,113.264c-1.252-1.784-1.61-3.448-0.959-5.557c0.412-1.337,0.186-3.128-0.38-4.447
				c-0.749-1.747-0.613-3.394-0.098-4.961c0.54-1.644,0.489-2.968-0.914-4.367c1.325-0.339,2.44-0.625,3.312-0.848
				c-0.276,1.857-1.153,3.857-0.674,5.448c0.727,2.416,0.079,4.381-0.399,6.596c-0.285,1.32,0.11,2.966,0.686,4.247
				C117.771,110.868,117.679,111.985,116.524,113.264z"/>
			<path class="st1" d="M71.387,70.499c1.257,0,2.534-0.14,3.764,0.042c1.075,0.16,1.962,0.322,2.3-1.168
				c2.12,3.34,4.102,6.463,6.084,9.586c-0.193,0.217-0.387,0.435-0.58,0.652c-1.157-0.48-2.315-0.959-3.617-1.499
				c0.446-0.499,0.823-0.919,1.472-1.645c-3.257-1.67-4.801-5.88-9.308-5.3C71.464,70.944,71.426,70.722,71.387,70.499z"/>
			<path class="st1" d="M143.67,106.189c0.784-2.755,0.057-4.827-1.479-6.795c-0.45-0.576-0.281-1.634-0.395-2.472
				c0.786,0.187,1.732,0.155,2.331,0.596C147.427,99.948,147.333,104.102,143.67,106.189z"/>
			<path class="st1" d="M124.786,137.609c2.857,0,5.714,0.002,8.571-0.002c0.35-0.001,0.709-0.093,1.047-0.038
				c0.525,0.086,1.036,0.261,1.553,0.399c-0.34,0.388-0.607,0.983-1.031,1.133c-3.565,1.262-6.933,0.496-10.212-0.943
				C124.738,137.974,124.762,137.791,124.786,137.609z"/>
			<path class="st1" d="M113.83,84.759c0.075-1.016,0.066-2.047,0.244-3.045c0.318-1.785,0.707-3.562,1.175-5.313
				c0.069-0.26,0.731-0.361,0.964-0.466c0,3.274,0,6.361,0,9.398c-0.564,0.235-1.102,0.459-1.757,0.733
				c-0.305-0.385-0.661-0.835-1.017-1.285C113.569,84.773,113.7,84.766,113.83,84.759z"/>
			<path class="st1" d="M165.21,112.003c-0.229-2.148-0.592-4.033-0.567-5.913c0.014-1.026,0.573-2.109,1.112-3.035
				c0.237-0.408,1.036-0.488,1.58-0.717c0.213,0.765,0.79,2.073,0.583,2.212c-2.477,1.661-1.919,4.281-2.3,6.602
				C165.583,111.368,165.425,111.564,165.21,112.003z"/>
			<path class="st1" d="M88.888,67.425c0,0.302,0,0.603,0,0.953c-1.894-1.269-3.14-4.262-2.68-6.587
				c0.473,0.347,0.883,0.649,1.293,0.95L87.45,62.69c0.054,0.439,0.109,0.878,0.192,1.546c0.811-1.356,1.471-2.46,2.131-3.565
				c0.239,0.11,0.478,0.22,0.717,0.329c-0.56,1.315-0.961,2.734-1.729,3.914c-0.674,1.035-0.682,1.749,0.169,2.55L88.888,67.425z"/>
			<path class="st1" d="M163.409,103.828c-1.732-0.431-2.976-0.74-4.497-1.118c1.862-1.345,3.455-2.494,5.047-3.643
				c0.173,0.055,0.346,0.11,0.519,0.166C164.117,100.783,163.757,102.333,163.409,103.828z"/>
			<path class="st1" d="M111.044,104.18c1.243-0.044,2.584-0.491,3.407-0.025c1.147,0.649,0.925,3.474-0.211,5.517
				C113.205,107.893,112.243,106.24,111.044,104.18z"/>
			<path class="st1" d="M83.741,55.607c0.14,0.252,0.39,0.5,0.401,0.758c0.093,2.22,0.142,4.442,0.211,6.895
				c-0.477,0.13-1.281,0.347-2.453,0.665c0.867-2.94-0.638-6.026,1.876-8.346C83.778,55.578,83.741,55.607,83.741,55.607z"/>
			<path class="st1" d="M167.964,100.034c-2.462-1.708-2.438-5.49-0.111-9.146c0.49,1.611,0.888,2.919,1.286,4.228
				c-0.12,0.063-0.239,0.127-0.359,0.19c-0.275-0.196-0.54-0.409-0.828-0.584c-0.246-0.149-0.518-0.256-1.363-0.661
				C167.121,96.373,167.542,98.203,167.964,100.034z"/>
			<path class="st1" d="M100.712,138.679c-0.778,0.51-1.516,1.352-2.342,1.451c-1.171,0.14-1.937-0.818-1.919-2.007
				c0.018-1.144,0.689-2.223,1.896-1.984c0.881,0.174,1.607,1.133,2.402,1.741C100.737,138.147,100.725,138.413,100.712,138.679z"/>
			<path class="st1" d="M103.631,73.24c0.399,0.723,1.001,1.408,1.146,2.178c0.181,0.961,0.365,2.274-0.125,2.937
				c-1.114,1.505-2.64,2.706-4.04,4.071c-0.203-1.724,1.099-3.491,3.214-4.443c-0.29-1.598-0.576-3.178-0.862-4.757
				C103.186,73.231,103.409,73.235,103.631,73.24z"/>
			<path class="st1" d="M93.524,123.847c1.729,0.776,3.529,1.431,5.148,2.393c0.579,0.344,0.729,1.426,1.016,2.194
				c0.011,0.03-0.751,0.511-0.893,0.411c-1.923-1.352-3.8-2.77-5.689-4.171C93.245,124.398,93.385,124.123,93.524,123.847z"/>
			<path class="st1" d="M106.765,60.408c-1.766,2.632-3.328,4.959-4.89,7.286c-0.105-0.003-0.21-0.007-0.315-0.01
				c0.597-2.31,1.194-4.62,1.791-6.93c0.185,0.127,0.369,0.253,0.554,0.38C104.748,60.92,105.591,60.706,106.765,60.408z"/>
			<path class="st1" d="M100.097,142.846c1.516-2.295,6.115-2.595,7.845-0.49C105.221,142.525,102.887,142.671,100.097,142.846z"/>
			<path class="st1" d="M75.031,97.529c2.103-0.379,0.779,1.151,0.844,1.338c2.298,2.108,4.269,3.915,6.239,5.722
				c-0.121,0.134-0.241,0.268-0.362,0.402c-2.651-1.719-5.843-2.837-6.785-6.455c-0.083-0.317,0.066-0.694,0.108-1.042
				L75.031,97.529z"/>
			<path class="st1" d="M98.898,89.177c0.871,0.709,1.638,1.238,2.284,1.888c0.608,0.612,1.087,1.352,1.623,2.036
				c-0.134,0.132-0.267,0.263-0.401,0.395c-0.629-0.488-1.257-0.976-1.881-1.46c-0.017,0.061-0.049,0.121-0.047,0.179
				c0.038,0.999,0.91,2.133-0.477,2.897c-0.367-0.96-0.877-1.893-1.06-2.886C98.755,91.234,98.898,90.182,98.898,89.177z"/>
			<path class="st1" d="M85.375,110.995c1.644,2.369,3.045,4.389,4.446,6.408C86.488,116.256,84.975,113.999,85.375,110.995z"/>
			<path class="st1" d="M94.751,121.022c1.275-1.795,4.172-2.073,5.51-1.112c0.197,0.141,0.417,0.601,0.341,0.703
				c-0.231,0.314-0.607,0.749-0.916,0.741C98.04,121.31,96.396,121.145,94.751,121.022z"/>
			<path class="st1" d="M92.882,116.548c0-1.966,0-3.931,0-5.649c1.05,0.753,1.937,1.39,2.832,2.031
				c-0.763,1.231-1.592,2.569-2.422,3.908C93.155,116.741,93.019,116.644,92.882,116.548z"/>
			<path class="st1" d="M84.797,130.044c0.574-2.909,2.154-4.392,4.699-5.344C88.493,126.957,87.858,129.217,84.797,130.044z"/>
			<path class="st1" d="M76.44,110.265c0.474,0.746,1.247,1.466,1.315,2.247c0.044,0.513-0.931,1.114-1.449,1.675
				c-0.653-0.607-1.655-1.124-1.844-1.851c-0.14-0.541,0.774-1.355,1.218-2.048C75.934,110.28,76.187,110.273,76.44,110.265z"/>
			<path class="st1" d="M78.241,86.359c-0.762-0.75-1.524-1.499-2.325-2.288c2.057,0.019,6.133,2.709,8.16,5.535
				c-2.215-1.245-4.059-2.281-5.902-3.317C78.174,86.29,78.241,86.359,78.241,86.359z"/>
			<path class="st1" d="M107.828,139.221c-2.915-1.538-3.647-4.472-4.654-7.231C104.725,134.401,107.297,136.159,107.828,139.221z"
				/>
			<path class="st1" d="M61.401,63.15c-1.856,1.532-3.493,1.404-5.859-0.486C57.638,61.835,59.546,61.751,61.401,63.15z"/>
			<path class="st1" d="M70.613,75.324c-1.319,0.414-2.638,0.828-3.956,1.242c-0.081-0.176-0.163-0.352-0.244-0.528
				c1.951-1.191,3.901-2.383,5.852-3.574c0.161,0.216,0.322,0.432,0.482,0.648c-0.724,0.743-1.447,1.485-2.171,2.228L70.613,75.324z
				"/>
			<path class="st1" d="M81.786,120.556c-0.364-0.323-0.728-0.647-1.092-0.97c0.094-0.231,0.187-0.461,0.281-0.692
				c2.176,0.61,4.353,1.219,6.529,1.829c-0.042,0.24-0.083,0.481-0.125,0.721c-1.886-0.314-3.772-0.629-5.654-0.94
				C81.729,120.507,81.786,120.556,81.786,120.556z"/>
			<path class="st1" d="M86.865,89.843c-1.09-1.899-2.042-3.823-1.404-6.502C87.723,85.402,86.759,87.75,86.865,89.843z"/>
			<path class="st1" d="M93.943,82.385c-1.581-2.279-2.858-4.119-4.238-6.108C92.533,76.965,94.141,79.126,93.943,82.385z"/>
			<path class="st1" d="M88.553,102.476c0.493-0.44,0.931-0.977,1.494-1.292c0.514-0.288,1.157-0.357,1.752-0.484
				c1.125-0.24,2.257-0.452,3.528-0.404c-1.282,0.737-2.564,1.474-3.846,2.211l0.063-0.067c-1.017-0.009-2.034-0.018-3.051-0.026
				L88.553,102.476z"/>
			<path class="st1" d="M77.421,51.578c-0.836-1.499-1.682-3.017-2.467-4.425c0.526-0.407,0.951-0.735,1.354-1.047
				C78.464,48.979,78.391,50.087,77.421,51.578z"/>
			<path class="st1" d="M91.481,102.507c1.534-0.519,3.067-1.038,4.601-1.557c0.049,0.08,0.099,0.159,0.149,0.239
				c-1.838,1.422-3.675,2.843-5.513,4.265c-0.152-0.075-0.304-0.15-0.455-0.226c0.427-0.929,0.854-1.857,1.282-2.787
				C91.544,102.439,91.481,102.507,91.481,102.507z"/>
			<path class="st1" d="M99.714,112.053c-0.716-1.082-1.481-1.732-1.454-2.346c0.025-0.556,0.914-1.074,1.422-1.608
				c0.562,0.599,1.39,1.125,1.584,1.826C101.381,110.34,100.496,111.033,99.714,112.053z"/>
			<path class="st1" d="M83.235,121.578c0.668,0.206,1.336,0.411,2.244,0.691c-1.086,1.014-2.005,1.871-3.275,3.056
				c-0.425-0.594-0.798-1.117-1.238-1.732c0.78-0.69,1.527-1.353,2.275-2.015L83.235,121.578z"/>
			<path class="st1" d="M83.032,98.06c0.49,0.643,1.226,1.223,1.411,1.944c0.245,0.956,0.06,2.022,0.06,3.226
				c-1.959-1.431-2.33-3.059-1.407-5.227L83.032,98.06z"/>
			<path class="st1" d="M81.038,110.719c0.488,0.817,0.818,1.369,1.182,1.979c2.27-0.423,2.395,1.593,3.335,2.907
				C83.305,115.363,80.352,112.414,81.038,110.719z"/>
			<path class="st1" d="M69.403,51.61c1.738,0.691,3.476,1.382,5.214,2.073c-0.051,0.174-0.102,0.347-0.153,0.521
				c-2.444-0.621-4.887-1.241-7.331-1.862c0.042-0.226,0.084-0.451,0.126-0.677c0.737,0,1.474,0,2.208-0.002
				C69.464,51.661,69.403,51.61,69.403,51.61z"/>
			<path class="st1" d="M101.18,105.927c2.442,0.796,3.035,3.312,4.581,4.941c-0.138,0.134-0.276,0.268-0.414,0.402
				c-1.583-1.589-3.166-3.179-4.75-4.768C100.792,106.31,100.986,106.118,101.18,105.927z"/>
			<path class="st1" d="M75.075,97.493c-1.908-0.365-2.581-1.309-1.59-2.371c0.418-0.448,1.31-0.453,1.987-0.659
				c0.09,0.742,0.252,1.486,0.232,2.225c-0.008,0.284-0.431,0.557-0.668,0.838C75.031,97.529,75.075,97.493,75.075,97.493z"/>
			<path class="st1" d="M80.965,85.934c-0.859-1.433-1.718-2.866-2.578-4.299c2.493,0.336,2.769,0.761,3.175,3.913
				C81.363,85.677,81.164,85.806,80.965,85.934z"/>
			<path class="st1" d="M96.325,141.426c-1.581-1.278-2.867-2.318-4.184-3.383C93.891,136.466,95.428,137.688,96.325,141.426z"/>
			<path class="st1" d="M105.615,128.118c1.235,1.072,2.505,2.109,3.676,3.247c0.231,0.224,0.081,0.839,0.106,1.274
				c-0.405-0.149-0.934-0.185-1.193-0.468c-1.06-1.161-2.038-2.398-3.047-3.607C105.311,128.415,105.463,128.267,105.615,128.118z"
				/>
			<path class="st1" d="M56.496,54.105c0.715,2.154-0.369,3.782-3.507,5.346C54.091,57.772,55.193,56.092,56.496,54.105z"/>
			<path class="st1" d="M68.98,49.409c-0.056-0.343-0.112-0.687-0.199-1.22c2.278,0.382,3.049,2.06,3.59,4.082
				c-0.818-0.513-1.637-1.025-2.455-1.538C69.604,50.292,69.292,49.851,68.98,49.409z"/>
			<path class="st1" d="M61.198,58.369c-2.109,0.197-3.704,0.347-5.3,0.496c-0.089-0.165-0.178-0.331-0.267-0.496
				c0.671-0.434,1.329-1.198,2.017-1.225C58.688,57.103,60.049,56.55,61.198,58.369z"/>
			<path class="st1" d="M88.493,102.413c0.394,0.399,0.788,0.799,1.38,1.399c-0.931,0.2-1.232,2.168-2.863,0.666
				c-0.204-0.187-1.035,0.307-1.689,0.292c0.598-1.444,1.925-1.854,3.231-2.293C88.553,102.476,88.493,102.413,88.493,102.413z"/>
			<path class="st1" d="M116.257,92.884c-2.43,0.391-4.857,0.722-7.194-0.514c2.41,0,4.82,0,7.231,0
				C116.282,92.541,116.269,92.712,116.257,92.884z"/>
			<path class="st1" d="M71.924,48.204c2.223,0.719,2.473,3.074,3.712,4.609c-0.144,0.125-0.288,0.25-0.431,0.374
				c-1.305-1.479-2.611-2.958-3.916-4.437C71.5,48.568,71.712,48.386,71.924,48.204z"/>
			<path class="st1" d="M111.612,95.568c-1.819,0.65-3.638,1.299-5.927,2.117c1.682-2.233,3.624-2.647,5.625-2.927
				C111.41,95.028,111.511,95.298,111.612,95.568z"/>
			<path class="st1" d="M77.264,63.221c-0.217-2.263-0.433-4.525-0.65-6.788c0.211-0.025,0.423-0.05,0.634-0.076
				c0.301,2.255,0.602,4.509,0.903,6.764C77.855,63.155,77.559,63.188,77.264,63.221z"/>
			<path class="st1" d="M105.79,99.507c2.004-0.345,3.531-1.32,5.059,0.607C109.085,101.142,107.689,100.482,105.79,99.507z"/>
			<path class="st1" d="M97.587,115.791c0.009,1.715-1.087,2.922-3.29,3.624C94.248,118.154,95.604,116.66,97.587,115.791z"/>
			<path class="st1" d="M89.352,97.658c1.97,0.112,3.94,0.223,5.91,0.334c-0.011,0.161-0.023,0.321-0.034,0.482
				c-1.987,0-3.974,0-5.961,0C89.295,98.203,89.323,97.93,89.352,97.658z"/>
			<path class="st1" d="M96.94,118.445c0.415-0.479,0.635-0.963,0.879-0.976c0.921-0.048,1.859,0.001,2.767,0.155
				c0.173,0.029,0.237,0.699,0.351,1.073c-0.836,0.062-1.673,0.17-2.509,0.166C98.029,118.862,97.63,118.649,96.94,118.445z"/>
			<path class="st1" d="M95.249,62.266c-0.121-1.856-1.014-3.792,1.085-5.427c-0.2,1.827-0.401,3.654-0.601,5.481
				C95.571,62.303,95.41,62.284,95.249,62.266z"/>
			<path class="st1" d="M109.164,116.128c0.777,1.601,2.107,3.034,1.58,5.031c-0.222,0.068-0.444,0.135-0.666,0.203
				c-0.514-1.681-1.027-3.362-1.541-5.043C108.746,116.255,108.955,116.191,109.164,116.128z"/>
			<path class="st1" d="M98.983,82.327c0.31-2.067,0.621-4.134,0.931-6.201c0.33,0.059,0.66,0.118,0.989,0.177
				c-0.407,2.05-0.815,4.101-1.222,6.151C99.449,82.412,99.216,82.37,98.983,82.327z"/>
			<path class="st1" d="M87.501,62.741c-0.011-1.821,0.208-3.552,1.976-5.138c0.472,2.461-0.683,3.811-2.029,5.085
				C87.45,62.69,87.501,62.741,87.501,62.741z"/>
			<path d="M110.885,89.534c-0.494-0.853-1.024-1.358-0.962-1.775c0.066-0.437,0.702-1.097,1.084-1.093
				c0.397,0.004,1.123,0.707,1.099,1.065C112.073,88.237,111.484,88.706,110.885,89.534z"/>
			<path class="st1" d="M107.894,64.777c-1.03,1.795-3.223,2.113-4.633,3.425c-0.132-0.168-0.265-0.336-0.397-0.504
				c1.502-1.196,3.004-2.392,4.506-3.588C107.544,64.332,107.719,64.554,107.894,64.777z"/>
			<path class="st1" d="M80.34,71.198c1.017,1.671,2.034,3.342,3.051,5.012c-0.199,0.126-0.399,0.252-0.598,0.377
				c-1.084-1.664-2.167-3.329-3.251-4.993C79.808,71.462,80.074,71.33,80.34,71.198z"/>
			<path class="st1" d="M108.847,71.712c1.579-0.133,3.118-0.957,4.741-0.345c0.017,0.283,0.034,0.565,0.052,0.848
				c-1.581,0.098-3.163,0.196-4.744,0.294C108.88,72.242,108.863,71.977,108.847,71.712z"/>
			<path class="st1" d="M70.039,70.157c-1.331,1.415-2.566,2.728-3.849,4.092C66.257,71.293,66.691,70.824,70.039,70.157z"/>
			<path class="st1" d="M110.513,69.715c0.759,0,1.519,0,2.278,0c0.014,0.248,0.029,0.496,0.043,0.745
				c-1.917,0.332-3.834,0.664-5.751,0.996c-0.046-0.206-0.092-0.413-0.138-0.619c1.209-0.385,2.417-0.771,3.626-1.156
				L110.513,69.715z"/>
			<path class="st1" d="M110.572,69.68c-0.848,0.103-1.695,0.207-2.543,0.309c-0.822,0.099-1.644,0.195-2.466,0.293
				c-0.03-0.169-0.06-0.338-0.09-0.507c2.142-0.521,4.285-1.042,6.427-1.563c0.077,0.201,0.154,0.403,0.231,0.604
				c-0.537,0.298-1.074,0.597-1.615,0.896C110.513,69.715,110.572,69.68,110.572,69.68z"/>
			<path class="st1" d="M107.383,87.016c-0.813,0.481-1.607,1.005-2.466,1.382c-0.095,0.041-0.56-0.764-0.854-1.177
				c0.902-0.433,1.804-0.866,2.706-1.3C106.974,86.287,107.179,86.652,107.383,87.016z"/>
			<path class="st1" d="M99.193,132.57c0.985,1.331,1.97,2.662,3.052,4.126C100.339,136.715,99.088,135.084,99.193,132.57z"/>
			<path class="st1" d="M108.017,97.685c1.621-0.492,2.996-2.024,4.912-1.273c0.062,0.258,0.124,0.516,0.186,0.774
				c-1.662,0.351-3.324,0.701-4.985,1.052C108.093,98.053,108.055,97.869,108.017,97.685z"/>
			<path class="st1" d="M99.652,114.445c1.175-0.687,2.351-1.373,3.665-2.141c0.052,1.869-0.697,2.379-3.371,2.634
				C99.848,114.774,99.75,114.61,99.652,114.445z"/>
			<path class="st1" d="M69.204,66.365c0.468,1.063,0.977,1.68,0.832,2.005c-0.275,0.617-0.925,1.066-1.419,1.585
				c-0.277-0.417-0.848-0.905-0.768-1.236C68.008,68.06,68.524,67.487,69.204,66.365z"/>
			<path class="st1" d="M68.98,49.409c0.312,0.441,0.624,0.883,0.936,1.324c-0.174,0.29-0.347,0.581-0.517,0.874
				c0.004,0.003,0.065,0.054,0.068,0.056c-1.019-0.837-2.041-1.675-3.063-2.514c0.145-0.243,0.29-0.486,0.435-0.729
				C67.552,48.75,68.266,49.08,68.98,49.409z"/>
			<path class="st1" d="M84.282,70.036c-0.237,1.566-0.474,3.132-0.745,4.922C82.201,73.343,82.325,72.168,84.282,70.036z"/>
			<path class="st1" d="M77.895,93.558c1.841-1.575,3.47-1.767,5.542-0.608C81.456,93.168,79.867,93.342,77.895,93.558z"/>
			<path class="st1" d="M102.487,91.268c-1.856-0.985-2.407-1.808-2.191-3.808c1.03,1.328,1.855,2.392,2.679,3.455
				C102.813,91.033,102.65,91.151,102.487,91.268z"/>
			<path class="st1" d="M105.042,96.393c0.895-1.465,1.317-3.56,3.778-2.84C107.561,94.5,106.301,95.446,105.042,96.393z"/>
			<path class="st1" d="M77.768,94.109c0,1.981,0,3.591,0,5.235C76.372,98.163,76.271,95.99,77.768,94.109z"/>
			<path class="st1" d="M83.242,121.579c-0.72,0.317-1.417,0.717-2.167,0.921c-0.498,0.135-1.073-0.009-1.613-0.029
				c0.315-0.485,0.551-1.062,0.971-1.427c0.338-0.293,0.899-0.33,1.357-0.484c-0.005-0.004-0.061-0.053-0.065-0.056
				c0.499,0.356,1.002,0.716,1.507,1.075C83.235,121.578,83.242,121.579,83.242,121.579z"/>
			<path class="st1" d="M58.97,66.805c-1.29-0.867-2.58-1.734-3.87-2.601c0.148-0.226,0.296-0.453,0.444-0.679
				c1.304,0.847,2.608,1.693,3.911,2.54C59.294,66.311,59.132,66.558,58.97,66.805z"/>
			<path class="st1" d="M77.568,127.221c-0.913-1.465-1.826-2.929-2.739-4.394c0.193-0.122,0.387-0.245,0.58-0.367
				c0.932,1.462,1.865,2.925,2.797,4.387C77.994,126.972,77.781,127.097,77.568,127.221z"/>
			<path class="st1" d="M94.836,86.044c0.89,1.691,1.78,3.382,2.669,5.072c-0.191,0.105-0.383,0.21-0.574,0.316
				c-0.962-1.658-1.924-3.316-2.886-4.974C94.308,86.32,94.572,86.182,94.836,86.044z"/>
			<path class="st1" d="M76.757,79.84c0.544,1.059,1.088,2.118,1.805,3.516c-2.086-0.605-2.603-1.455-2.427-3.267
				C76.343,80.006,76.55,79.923,76.757,79.84z"/>
			<path class="st1" d="M103.428,65.395c1.15-1.014,2.301-2.029,3.451-3.043c0.22,0.262,0.441,0.524,0.661,0.785
				c-1.184,0.955-2.368,1.91-3.551,2.865C103.802,65.8,103.615,65.598,103.428,65.395z"/>
			<path class="st1" d="M59.651,60.761c-1.461,0.392-2.922,0.784-4.382,1.176c-0.066-0.197-0.133-0.394-0.199-0.592
				c1.434-0.507,2.868-1.015,4.302-1.522C59.466,60.136,59.558,60.449,59.651,60.761z"/>
			<path class="st1" d="M81.396,116.492c-0.98-0.262-1.959-0.524-3.255-0.87c0.353-0.485,0.781-1.225,0.88-1.183
				c0.937,0.393,1.817,0.92,2.714,1.408C81.622,116.062,81.509,116.277,81.396,116.492z"/>
			<path class="st1" d="M102.886,136.087c-1.062-1.418-2.019-2.695-3.176-4.239C101.825,132.569,103.039,134.243,102.886,136.087z"
				/>
			<path class="st1" d="M109.065,140.398c1.149,0.331,2.299,0.662,3.734,1.075c-0.36,0.511-0.759,1.204-0.837,1.17
				c-1.109-0.489-2.175-1.076-3.252-1.64C108.828,140.801,108.946,140.6,109.065,140.398z"/>
			<path class="st1" d="M107.635,78.43c1.121-0.784,2.243-1.568,3.364-2.352c0.181,0.273,0.362,0.547,0.543,0.82
				c-1.177,0.768-2.353,1.537-3.53,2.305C107.886,78.945,107.761,78.687,107.635,78.43z"/>
			<path class="st1" d="M106.056,71.434c1.797,0.913,3.595,1.827,5.392,2.74c-0.073,0.153-0.146,0.306-0.218,0.459
				c-1.825-0.855-3.649-1.71-5.474-2.565C105.856,71.857,105.956,71.645,106.056,71.434z"/>
			<path class="st1" d="M63.884,49.442c-0.086-0.451-0.171-0.902-0.257-1.352c0.147-0.108,0.294-0.215,0.442-0.323
				c0.901,0.987,1.801,1.974,2.702,2.961c-0.11,0.149-0.221,0.298-0.331,0.446c-0.874-0.599-1.747-1.197-2.621-1.796L63.884,49.442z
				"/>
			<path class="st1" d="M104.314,114.407c1.085,0.511,2.169,1.023,3.36,1.584C106.404,117.018,105.743,116.759,104.314,114.407z"/>
			<path class="st1" d="M100.421,95.749c0.412,1.132,0.825,2.264,1.237,3.396c-0.194,0.075-0.388,0.15-0.582,0.225
				c-1.408-0.715-1.254-2.092-1.448-3.323C99.892,95.948,100.157,95.849,100.421,95.749z"/>
			<path class="st1" d="M79.35,96.315c1.076-0.58,2.405,0.993,2.651,3.624c-0.434-0.542-0.888-1.07-1.298-1.63
				C80.256,97.698,79.851,97.058,79.35,96.315z"/>
			<path class="st1" d="M77.862,91.019c1.629-1.766,2.515-0.198,3.658,0.304c-0.039,0.182-0.079,0.365-0.118,0.547
				C80.222,91.586,79.042,91.303,77.862,91.019z"/>
			<path class="st1" d="M55.029,52.136c-0.633,1.587-1.266,3.174-1.899,4.761c-0.176-0.061-0.352-0.121-0.529-0.182
				c0.545-1.62,1.089-3.24,1.634-4.859C54.499,51.95,54.764,52.043,55.029,52.136z"/>
			<path class="st1" d="M60.21,56.376c-0.857,0.121-1.714,0.241-2.572,0.362c-0.117-0.169-0.235-0.337-0.352-0.506
				c0.528-0.497,0.987-1.215,1.611-1.411c0.396-0.125,1.036,0.527,1.567,0.83C60.379,55.893,60.294,56.135,60.21,56.376z"/>
			<path class="st1" d="M102.225,139.856c1.766-2.103,2.156-2.148,3.246-0.458C104.286,139.565,103.256,139.71,102.225,139.856z"/>
			<path class="st1" d="M105.191,68.553c1.813-0.436,3.625-0.872,5.438-1.308c0.057,0.252,0.115,0.504,0.172,0.756
				c-1.83,0.361-3.661,0.722-5.491,1.083C105.271,68.908,105.231,68.731,105.191,68.553z"/>
			<path class="st1" d="M105.329,105.144c0.055,1.153,0.109,2.306,0.172,3.636c-1.253-1.013-1.367-1.681-0.79-3.562
				C104.917,105.193,105.123,105.168,105.329,105.144z"/>
			<path class="st1" d="M97.835,131.961c0.249,0.855,0.546,1.702,0.716,2.573c0.043,0.221-0.312,0.521-0.485,0.785
				c-0.227-0.162-0.624-0.299-0.652-0.49c-0.133-0.902-0.165-1.819-0.233-2.73C97.399,132.052,97.617,132.007,97.835,131.961z"/>
			<path class="st1" d="M96.341,132.301c0,1.226,0,2.452,0,3.678c-0.178-0.001-0.356-0.003-0.535-0.004c0-1.226,0-2.451,0-3.677
				C95.985,132.299,96.163,132.3,96.341,132.301z"/>
			<path class="st1" d="M95.503,129.706c-0.622-0.882-1.245-1.764-1.867-2.645c0.228-0.172,0.455-0.345,0.683-0.517
				c0.657,0.842,1.315,1.684,1.972,2.526C96.029,129.282,95.766,129.494,95.503,129.706z"/>
			<path class="st1" d="M105.559,122.028c1.225,0.886,2.45,1.773,3.676,2.659c-0.169,0.219-0.338,0.437-0.508,0.656
				c-1.163-0.962-2.326-1.925-3.489-2.887C105.345,122.314,105.452,122.171,105.559,122.028z"/>
			<path class="st1" d="M111.325,121.961c0.953,0.82,1.987,1.593,1.923,3.007c-0.22,0.127-0.44,0.254-0.66,0.381
				c-0.591-1.032-1.182-2.063-1.774-3.095C110.984,122.158,111.155,122.059,111.325,121.961z"/>
			<path class="st1" d="M158.42,126.134c0.867-1.209,1.733-2.418,2.6-3.628c0.139,0.093,0.277,0.187,0.416,0.28
				c-0.807,1.268-1.615,2.535-2.422,3.803C158.815,126.438,158.617,126.286,158.42,126.134z"/>
			<path class="st1" d="M103.162,71.856c-0.553,0.975-1.106,1.95-1.659,2.925c-0.27-0.147-0.54-0.293-0.81-0.44
				c0.536-0.984,1.072-1.969,1.608-2.953C102.589,71.543,102.876,71.699,103.162,71.856z"/>
			<path class="st1" d="M93.844,131.193c-0.36,1.192-0.721,2.384-1.081,3.575c-0.213-0.06-0.426-0.121-0.639-0.181
				c0.287-1.246,0.573-2.492,0.86-3.738C93.27,130.964,93.557,131.078,93.844,131.193z"/>
			<path class="st1" d="M70.575,75.339c1.244-0.503,2.488-1.006,3.733-1.51c0.066,0.173,0.131,0.345,0.197,0.517
				c-1.06,1.374-2.593,1.756-3.883,0.971C70.613,75.324,70.575,75.339,70.575,75.339z"/>
			<path class="st1" d="M93.45,90.993c-0.269,2.717-0.804,3.171-2.387,2.279C91.769,92.598,92.421,91.975,93.45,90.993z"/>
			<path class="st1" d="M84.827,93.919c-0.228,1.294-0.423,2.403-0.635,3.604C82.797,96.026,83.047,94.613,84.827,93.919z"/>
			<path class="st1" d="M83.096,98.002c-2.021,0.223-1.075-2.194-2.346-2.638c0.203-0.307,0.405-0.615,0.935-1.418
				c0.555,1.702,0.949,2.91,1.345,4.116C83.032,98.06,83.096,98.002,83.096,98.002z"/>
			<path class="st1" d="M69.392,109.442c0.956-0.547,1.787-0.264,2.456,0.603c0.103,0.133-0.156,0.749-0.177,0.745
				c-0.839-0.149-1.67-0.343-2.503-0.532C69.243,109.986,69.317,109.714,69.392,109.442z"/>
			<path class="st1" d="M88.93,67.464c-0.537-1.734,0.631-2.81,1.587-3.966c-0.097,1.487-0.147,2.994-1.629,3.927L88.93,67.464z"/>
			<path class="st1" d="M78.87,55.942c0.798,1.132,1.353,1.918,1.907,2.704c-0.169,0.126-0.338,0.252-0.507,0.379
				C79.357,58.491,78.066,58.253,78.87,55.942z"/>
			<path class="st1" d="M78.19,119.332c-1.176,0.136-2.026,1.979-3.975,0.239c1.528-0.353,2.677-0.619,3.825-0.885
				C78.09,118.902,78.14,119.117,78.19,119.332z"/>
			<path class="st1" d="M112.17,118.448c0.679,0.466,1.408,0.877,2.016,1.422c0.272,0.244,0.303,0.757,0.122,1.257
				c-1.083-0.843-2.165-1.687-3.671-2.861c0.88,0.137,1.237,0.192,1.594,0.248L112.17,118.448z"/>
			<path class="st1" d="M82.933,115.669c1.25,0.47,2.499,0.941,3.749,1.411c-0.064,0.193-0.127,0.385-0.191,0.578
				c-1.278-0.376-2.555-0.752-3.833-1.127C82.749,116.244,82.841,115.956,82.933,115.669z"/>
			<path class="st1" d="M104.537,112.616c0.896,0.217,1.792,0.434,3.119,0.755c0.009,0.049,0.114,0.629,0.308,1.689
				c-1.526-0.796-2.626-1.37-3.726-1.943C104.337,112.95,104.437,112.783,104.537,112.616z"/>
			<path class="st1" d="M116.569,87.803c-0.672,0.796-1.344,1.591-2.295,2.717c-0.2-1.057-0.294-1.555-0.433-2.288
				c0.515,0.141,0.842,0.23,1.225,0.335c0.253-0.386,0.572-0.872,0.892-1.358C116.161,87.407,116.365,87.605,116.569,87.803z"/>
			<path class="st1" d="M88.494,79.06c1.58-1.125,1.31-1.029,3.869,2.873C90.902,80.848,89.696,79.952,88.494,79.06z"/>
			<path class="st1" d="M107.539,102.838c-0.865-0.639-1.73-1.278-2.595-1.917c1.401-0.179,2.742-0.288,2.981,1.414
				C107.797,102.502,107.668,102.67,107.539,102.838z"/>
			<path class="st1" d="M81.408,72.173c0.116-1.177,0.232-2.355,0.348-3.532c0.315,0.03,0.629,0.06,0.944,0.09
				c-0.129,1.164-0.259,2.329-0.388,3.493C82.011,72.207,81.709,72.19,81.408,72.173z"/>
			<path class="st1" d="M96.157,102.165c-0.107,2.349-0.428,2.624-2.294,2.075C94.722,103.463,95.439,102.814,96.157,102.165z"/>
			<path class="st1" d="M63.819,49.378c0.194,0.477,0.388,0.955,0.583,1.432c-0.085,0.103-0.17,0.206-0.255,0.309
				c-0.921-0.766-1.842-1.533-2.763-2.299c0.149-0.222,0.299-0.445,0.448-0.667c0.683,0.429,1.366,0.858,2.051,1.288
				C63.884,49.442,63.819,49.378,63.819,49.378z"/>
			<path class="st1" d="M107.3,128.42c1.309,0,2.364,0,3.545,0C109.765,129.758,108.634,129.763,107.3,128.42z"/>
			<path class="st1" d="M112.478,129.988c-1.796,1.768-2.391,1.682-3.471-0.217C110.11,129.84,111.072,129.9,112.478,129.988z"/>
			<path class="st1" d="M107.324,105.063c-0.335,1.872-0.631,3.519-0.926,5.167C106.109,108.451,105.567,106.629,107.324,105.063z"
				/>
			<path class="st1" d="M89.92,71.205c1.396,1.764,0.546,2.772-0.839,4.131C89.39,73.814,89.614,72.71,89.92,71.205z"/>
			<path class="st1" d="M107.443,57.966c-0.793,0.752-1.586,1.505-2.379,2.257c-0.206-0.212-0.412-0.423-0.618-0.635
				c0.779-0.767,1.557-1.533,2.336-2.3C107.002,57.515,107.223,57.74,107.443,57.966z"/>
			<path class="st1" d="M78.854,106.662c-1.204-0.168-2.41-0.326-3.609-0.523c-0.09-0.015-0.233-0.391-0.182-0.448
				c0.178-0.198,0.461-0.495,0.649-0.459c1.09,0.205,2.165,0.493,3.245,0.754C78.923,106.211,78.888,106.436,78.854,106.662z"/>
			<path class="st1" d="M78.147,44.122c-0.926-0.684-1.853-1.368-2.779-2.052c0.147-0.204,0.294-0.409,0.441-0.613
				c0.951,0.649,1.901,1.298,2.852,1.946C78.49,43.643,78.318,43.883,78.147,44.122z"/>
			<path class="st1" d="M81.041,127.99c1.147-0.629,2.294-1.258,3.441-1.888c0.122,0.234,0.243,0.468,0.365,0.702
				c-1.185,0.564-2.37,1.127-3.555,1.691C81.209,128.326,81.125,128.158,81.041,127.99z"/>
			<path class="st1" d="M112.231,118.514c-0.549-0.612-1.099-1.225-1.648-1.837c0.068-0.108,0.136-0.216,0.204-0.324
				c1.122,0.59,2.244,1.18,3.366,1.77c-0.096,0.194-0.193,0.388-0.289,0.582c-0.565-0.087-1.131-0.173-1.695-0.258
				C112.17,118.448,112.231,118.514,112.231,118.514z"/>
			<path class="st1" d="M75.85,116.258c0.44,0.246,0.695,0.379,0.94,0.528c0.302,0.184,0.595,0.381,1.13,0.725
				c-1.023,0.273-1.833,0.489-3.018,0.806C75.275,117.507,75.537,116.937,75.85,116.258z"/>
			<path class="st1" d="M87.759,131.736c0.154-1.132,0.308-2.265,0.462-3.397c0.265,0.04,0.531,0.08,0.796,0.119
				c-0.166,1.117-0.332,2.234-0.498,3.351C88.266,131.785,88.012,131.76,87.759,131.736z"/>
			<path class="st1" d="M111.116,106.372c-0.154,0.277-0.308,0.553-0.461,0.83c-0.116-0.064-0.232-0.128-0.349-0.192
				c0.154-0.275,0.308-0.551,0.463-0.826C110.884,106.246,111,106.309,111.116,106.372z"/>
			<path class="st1" d="M87.69,39.514c-0.064,0.095-0.107,0.229-0.187,0.258c-0.079,0.028-0.197-0.052-0.297-0.084
				c0.056-0.089,0.095-0.229,0.171-0.254C87.462,39.406,87.582,39.482,87.69,39.514z"/>
			<path class="st1" d="M9.537,17.011c0.253-0.961,0.458-1.938,0.79-2.871c0.088-0.247,0.566-0.354,0.864-0.526
				c0.193,0.347,0.635,0.812,0.536,1.021c-0.439,0.929-1.034,1.785-1.572,2.667C9.949,17.205,9.743,17.108,9.537,17.011z"/>
			<path class="st1" d="M12.333,6.235c-0.051,1.119-0.103,2.237-0.154,3.356c-0.274-0.007-0.549-0.014-0.823-0.022
				c-0.848-1.111-0.412-2.232,0.162-3.355C11.789,6.221,12.061,6.228,12.333,6.235z"/>
			<path class="st1" d="M13.469,17.576c1.611-0.644,3.222-1.289,4.833-1.933c0.097,0.24,0.194,0.48,0.291,0.72
				c-1.621,0.619-3.243,1.239-4.864,1.858C13.643,18.006,13.556,17.791,13.469,17.576z"/>
			<path class="st1" d="M16.329,8.493c0.149,2.115-1.754,1.789-2.779,2.587C13.553,9.214,14.382,8.324,16.329,8.493z"/>
			<path class="st1" d="M7.524,9.566c-0.259-1.01-0.518-2.019-0.777-3.029c0.28-0.082,0.559-0.164,0.839-0.245
				c0.32,0.995,0.639,1.991,0.959,2.986C8.204,9.374,7.864,9.47,7.524,9.566z"/>
			<path class="st1" d="M7.955,16.28c-0.196-0.791-0.449-1.574-0.549-2.377c-0.028-0.22,0.4-0.498,0.619-0.749
				c0.245,0.221,0.676,0.421,0.703,0.666c0.089,0.826,0.034,1.667,0.034,2.502C8.493,16.308,8.224,16.294,7.955,16.28z"/>
			<path class="st1" d="M18.48,13.241c-1.115,0.983-1.953,1.723-2.94,2.594C15.621,13.759,16.265,13.133,18.48,13.241z"/>
			<path class="st1" d="M5.479,15.21c1.51-0.175,1.912,1.047,2.219,2.418c-0.86-0.614-1.719-1.228-2.579-1.842
				C5.239,15.594,5.359,15.402,5.479,15.21z"/>
			<path class="st1" d="M29.608,42.191c-0.615,1.426-1.897,1.789-4.189,1.185C26.251,41.755,27.328,41.45,29.608,42.191z"/>
			<path class="st1" d="M23.279,53.155c-0.747-1.319-1.155-2.039-1.562-2.759c0.19-0.202,0.379-0.403,0.569-0.605
				c0.653,0.478,1.423,0.868,1.893,1.485C24.335,51.483,23.72,52.274,23.279,53.155z"/>
			<path class="st1" d="M13.933,46.187c1.777-0.466,3.553-0.932,5.33-1.398c0.058,0.223,0.116,0.446,0.173,0.669
				c-1.783,0.423-3.566,0.846-5.35,1.269C14.036,46.547,13.984,46.367,13.933,46.187z"/>
			<path class="st1" d="M24.176,41.779c1.115-1.052,2.231-2.104,3.346-3.156c0.131,0.144,0.263,0.288,0.394,0.433
				C27.5,40.905,25.711,41.195,24.176,41.779z"/>
			<path class="st1" d="M18.529,49.223c0.332-0.898,0.663-1.796,0.995-2.695c0.275,0.09,0.55,0.18,0.826,0.27
				c-0.261,0.918-0.523,1.835-0.784,2.753C19.22,49.442,18.875,49.332,18.529,49.223z"/>
			<path class="st1" d="M63.443,85.966c-0.007-0.525-0.013-1.05-0.02-1.575c0.375,0.21,0.75,0.419,1.224,0.685
				c0.202-0.223,0.57-0.628,0.923-1.016c0.408,0.787,0.796,1.422,1.074,2.102c0.31,0.758,0.519,1.556,0.771,2.333
				c-1.295-0.418-2.255-0.728-3.216-1.039C63.947,86.959,63.695,86.463,63.443,85.966z"/>
			<path class="st1" d="M63.443,85.966c0.252,0.496,0.504,0.993,0.756,1.489c0.105,0.568,0.211,1.136,0.428,2.304
				c-1.149-0.619-1.873-1.009-2.596-1.399C62.986,87.848,61.497,85.894,63.443,85.966z"/>
			<path class="st1" d="M62.745,95.846c1.32-0.342,2.639-0.685,3.959-1.027c0.061,0.152,0.123,0.303,0.184,0.455
				c-1.891,0.831-3.781,1.661-5.672,2.492c-0.11-0.216-0.22-0.431-0.33-0.647c0.639-0.444,1.277-0.887,1.917-1.332
				C62.806,95.785,62.745,95.846,62.745,95.846z"/>
			<path class="st1" d="M93.814,45.914c-0.573-2.282-1.651-4.563,0.259-7.181C95.209,41.45,94.388,43.695,93.814,45.914z"/>
			<path class="st1" d="M104.583,45.951c-1.099,0.305-2.021,0.562-2.957,0.822c-0.36-1.947,0.082-2.938,0.982-2.427
				C103.219,44.693,103.719,45.235,104.583,45.951z"/>
			<path class="st1" d="M93.343,37.957c0.173-1.565,0.697-2.935,2.06-3.836c0.223,0.124,0.446,0.247,0.67,0.371
				c-0.697,1.265-1.394,2.531-2.091,3.796C93.769,38.177,93.556,38.067,93.343,37.957z"/>
			<path class="st1" d="M99.408,41.452c-0.944,1.099-1.888,2.198-2.832,3.297c-0.301-2.212,1.426-3.8,2.85-3.258
				C99.429,41.497,99.408,41.452,99.408,41.452z"/>
			<path class="st1" d="M103.112,48.539c-1.412-0.394-2.824-0.787-4.236-1.181c0.061-0.179,0.122-0.358,0.182-0.537
				c1.796-0.61,2.92,0.504,3.993,1.76C103.055,48.576,103.112,48.539,103.112,48.539z"/>
			<path class="st1" d="M62.233,38.027c-2.588,1.127-2.738,1.028-3.577-2.096C60.047,36.745,61.14,37.386,62.233,38.027z"/>
			<path class="st1" d="M56.382,31.987c1.129-1.187,2.235-2.395,3.402-3.544c0.296-0.291,0.78-0.391,1.361-0.295
				c-0.955,0.919-1.911,1.839-2.866,2.758c-0.373,0.442-0.713,0.921-1.141,1.301C57.033,32.3,56.642,32.069,56.382,31.987z"/>
			<path class="st1" d="M67.867,31.61c-1.136,0.309-2.273,0.617-3.643,0.989c0.589-1.296,0.589-1.296,3.473-1.494
				C67.754,31.273,67.81,31.441,67.867,31.61z"/>
			<path d="M148.549,131.185c-0.279-0.375-0.801-1.075-1.387-1.861c0.833-0.176,1.52-0.388,2.221-0.457
				c3.577-0.35,5.124-2.94,6.579-5.744c0.473-0.911,1.354-1.611,2.333-2.104c-1.048,1.676-1.917,3.508-3.197,4.983
				c-1.161,1.337-2.765,2.291-4.184,3.402C150.165,129.99,149.396,130.549,148.549,131.185z"/>
		</g>
		<g>
			<path d="M116.996,53.141c0,0-0.059-0.666-0.161-1.832c-0.079-1.167-0.232-2.833-0.322-4.837
				c-0.089-2.004-0.211-4.343-0.217-6.855c-0.016-2.512,0.065-5.196,0.302-7.879c0.138-1.34,0.302-2.68,0.56-3.99
				c0.252-1.31,0.577-2.592,1.051-3.793c0.465-1.199,1.091-2.324,1.946-3.197c0.843-0.882,1.962-1.423,3.019-1.522
				c1.058-0.109,2.006,0.096,2.79,0.361c0.784,0.273,1.432,0.582,1.945,0.871c0.53,0.257,0.894,0.549,1.164,0.709
				c0.263,0.171,0.403,0.262,0.403,0.262s-0.15-0.075-0.43-0.215c-0.284-0.132-0.681-0.365-1.222-0.581
				c-0.528-0.241-1.19-0.49-1.963-0.688c-0.774-0.188-1.674-0.295-2.608-0.161c-0.936,0.14-1.859,0.649-2.565,1.464
				c-0.715,0.81-1.234,1.87-1.653,3.007c-0.424,1.141-0.682,2.392-0.926,3.661c-0.241,1.273-0.389,2.589-0.515,3.907
				c-0.255,2.638-0.351,5.298-0.419,7.794c-0.056,2.497-0.101,4.832-0.1,6.834c-0.019,2.004-0.034,3.674-0.045,4.843
				C117.008,52.473,116.996,53.141,116.996,53.141z"/>
		</g>
	</g>
</g>
</svg>