<!-- Generator: Adobe Illustrator 19.2.1, SVG Export Plug-In  -->
<svg version="1.1"
	 xmlns="http://www.w3.org/2000/svg" xmlns:xlink="http://www.w3.org/1999/xlink" xmlns:a="http://ns.adobe.com/AdobeSVGViewerExtensions/3.0/"
	 x="0px" y="0px" width="37.88px" height="40.788px" viewBox="0 0 37.88 40.788" style="enable-background:new 0 0 37.88 40.788;"
	 xml:space="preserve">
<style type="text/css">
	.st0{fill:#FFFFFF;}
</style>
<defs>
</defs>
<g>
	<path class="st0" d="M7.952,9.935c1.9,0,3.8-0.046,5.698,0.009c4.372,0.127,7.61,2.589,8.415,6.336
		c0.756,3.517-1.213,7.475-4.85,9.228c-1.547,0.746-1.539,1.404-0.709,2.677c1.695,2.604,3.478,5.138,5.479,7.513
		c1.194,1.417,2.541,2.648,4.38,3.213c0.54,0.166,1.156,0.418,0.962,1.171c-0.155,0.603-0.737,0.605-1.244,0.653
		c-3.193,0.301-5.839-0.673-7.854-3.26c-2.223-2.854-4.195-5.869-6.009-8.994c-0.472-0.813-0.905-1.639-2.057-1.755
		c-1.913-0.194-2.397,0.156-2.416,2.098c-0.022,2.216-0.027,4.433,0.01,6.648c0.04,2.389,0.457,2.855,2.761,3.307
		c0.592,0.116,1.492-0.012,1.479,0.827c-0.016,1.057-1.01,0.736-1.627,0.744c-2.976,0.036-5.952,0.025-8.928,0.006
		c-0.537-0.003-1.28,0.142-1.382-0.636c-0.102-0.774,0.623-0.868,1.166-0.964c1.885-0.332,2.389-1.575,2.382-3.302
		C3.582,28.617,3.578,21.778,3.612,14.94c0.009-1.752-0.52-2.946-2.425-3.234c-0.532-0.08-1.249-0.242-1.182-0.988
		c0.081-0.902,0.891-0.755,1.489-0.762c2.153-0.026,4.306-0.01,6.458-0.01C7.952,9.942,7.952,9.938,7.952,9.935z M7.752,18.238
		c0,1.513-0.002,3.025,0.001,4.538c0.002,0.834,0.214,1.54,1.215,1.574c1.571,0.054,3.153,0.214,4.695-0.245
		c2.78-0.828,4.507-3.389,4.304-6.365c-0.201-2.954-1.912-4.915-4.899-5.374c-1.295-0.199-2.638-0.096-3.96-0.108
		c-0.955-0.009-1.348,0.548-1.35,1.443C7.754,15.214,7.757,16.726,7.752,18.238z"/>
	<path class="st0" d="M25.617,8.631c-0.014-1.953-0.055-3.465,0.493-4.93c0.75-2.004,2.085-3.339,4.242-3.597
		c2.26-0.271,4.466-0.131,6.02,1.895c0.373,0.486,0.87,1.107,0.218,1.671c-0.607,0.525-1.354,0.726-2.006-0.042
		c-0.041-0.048-0.086-0.092-0.129-0.139c-1.172-1.3-2.665-1.477-4.169-0.906c-1.569,0.596-1.967,2.056-1.975,3.583
		c-0.009,1.892-0.246,3.805,0.184,5.671c0.387,1.679,1.506,2.631,3.256,2.61c1.762-0.021,2.772-1.052,3.193-2.709
		c0.267-1.051,0.012-1.745-1.229-1.786c-0.773-0.026-1.621-0.059-1.596-1.152c0.028-1.222,0.992-1.1,1.8-1.137
		c3.913-0.178,4.444,0.45,3.636,4.276c-0.712,3.372-2.455,4.847-5.751,4.87c-3.453,0.024-5.215-1.421-5.979-4.835
		C25.545,10.719,25.657,9.456,25.617,8.631z"/>
</g>
</svg>