<!-- Generator: Adobe Illustrator 19.2.1, SVG Export Plug-In  -->
<svg version="1.1"
	 xmlns="http://www.w3.org/2000/svg" xmlns:xlink="http://www.w3.org/1999/xlink" xmlns:a="http://ns.adobe.com/AdobeSVGViewerExtensions/3.0/"
	 x="0px" y="0px" width="39.998px" height="25.341px" viewBox="0 0 39.998 25.341"
	 style="enable-background:new 0 0 39.998 25.341;" xml:space="preserve">
<style type="text/css">
	.st0{fill:#FFFFFF;}
</style>
<defs>
</defs>
<g>
	<g>
		<path class="st0" d="M16.454,11.454c0.832-0.423,1.461-0.893,1.89-1.406c0.76-0.919,1.141-2.132,1.141-3.641
			c0-1.465-0.38-2.721-1.131-3.771C17.093,0.923,14.957,0.045,11.944,0H0v24.72h11.136c1.256,0,2.418-0.109,3.494-0.335
			c1.075-0.223,2.001-0.635,2.79-1.24c0.702-0.526,1.286-1.175,1.754-1.946c0.732-1.161,1.099-2.476,1.099-3.941
			c0-1.422-0.323-2.629-0.96-3.623C18.67,12.639,17.715,11.916,16.454,11.454z M4.926,4.295h5.377c1.186,0,2.16,0.128,2.922,0.384
			c0.887,0.371,1.329,1.131,1.329,2.285c0,1.036-0.334,1.76-1.003,2.168c-0.67,0.409-1.543,0.616-2.615,0.616h-6.01V4.295z
			 M13.433,19.991c-0.594,0.29-1.432,0.438-2.504,0.438H4.926v-6.592h6.087c1.061,0.011,1.882,0.151,2.471,0.418
			c1.049,0.482,1.574,1.365,1.574,2.653C15.058,18.427,14.518,19.453,13.433,19.991z"/>
		<path class="st0" d="M39.836,13.295c-0.22-1.431-0.709-2.694-1.459-3.78c-0.827-1.23-1.883-2.13-3.16-2.703
			c-1.274-0.572-2.705-0.857-4.297-0.857c-2.681,0-4.858,0.847-6.537,2.533c-1.677,1.69-2.519,4.121-2.519,7.288
			c0,3.378,0.93,5.819,2.79,7.316c1.861,1.503,4.005,2.248,6.44,2.248c2.948,0,5.239-0.888,6.877-2.662
			c1.053-1.121,1.647-2.224,1.774-3.308h-4.882c-0.284,0.537-0.614,0.958-0.983,1.259c-0.682,0.559-1.568,0.84-2.653,0.84
			c-1.029,0-1.909-0.231-2.637-0.688c-1.201-0.737-1.835-2.023-1.911-3.859h13.315C40.017,15.345,39.964,14.135,39.836,13.295z
			 M26.795,13.769c0.173-1.188,0.598-2.132,1.273-2.828c0.676-0.697,1.629-1.045,2.855-1.045c1.126,0,2.069,0.328,2.834,0.985
			c0.763,0.659,1.19,1.618,1.274,2.887H26.795z"/>
		<rect x="25.559" y="1.152" class="st0" width="10.593" height="3.076"/>
	</g>
</g>
</svg>