<!-- Generator: Adobe Illustrator 19.2.1, SVG Export Plug-In  -->
<svg version="1.1"
	 xmlns="http://www.w3.org/2000/svg" xmlns:xlink="http://www.w3.org/1999/xlink" xmlns:a="http://ns.adobe.com/AdobeSVGViewerExtensions/3.0/"
	 x="0px" y="0px" width="42.426px" height="36.652px" viewBox="0 0 42.426 36.652"
	 style="enable-background:new 0 0 42.426 36.652;" xml:space="preserve">
<style type="text/css">
	.st0{fill:#FFFFFF;}
</style>
<defs>
</defs>
<path class="st0" d="M17.678,17.682l-9.899,9.899c-0.781,0.781-2.047,0.781-2.828,0l-3.536-3.536c-0.781-0.781-0.781-2.047,0-2.828
	l3.536-3.536c0.781-0.781,0.781-2.047,0-2.828l-4.364-4.364C0.211,10.114,0,9.606,0,9.075l0-7.071C0,0.222,2.154-0.67,3.414,0.59
	l14.263,14.263C18.459,15.634,18.459,16.901,17.678,17.682z"/>
<path class="st0" d="M32.527,32.531l-3.536,3.536c-0.781,0.781-2.047,0.781-2.828,0l-3.536-3.536c-0.781-0.781-2.047-0.781-2.828,0
	l-3.536,3.536c-0.781,0.781-2.047,0.781-2.828,0l-3.536-3.536c-0.781-0.781-0.781-2.047,0-2.828l9.899-9.899
	c0.781-0.781,2.047-0.781,2.828,0l9.899,9.899C33.308,30.484,33.308,31.75,32.527,32.531z"/>
<path class="st0" d="M41.012,24.046l-3.536,3.536c-0.781,0.781-2.047,0.781-2.828,0l-9.899-9.899c-0.781-0.781-0.781-2.047,0-2.828
	L39.012,0.59c1.26-1.26,3.414-0.368,3.414,1.414v7.071c0,0.53-0.211,1.039-0.586,1.414l-4.364,4.364
	c-0.781,0.781-0.781,2.047,0,2.828l3.536,3.536C41.793,21.998,41.793,23.265,41.012,24.046z"/>
</svg>