<!-- Generator: Adobe Illustrator 19.2.1, SVG Export Plug-In  -->
<svg version="1.1"
	 xmlns="http://www.w3.org/2000/svg" xmlns:xlink="http://www.w3.org/1999/xlink" xmlns:a="http://ns.adobe.com/AdobeSVGViewerExtensions/3.0/"
	 x="0px" y="0px" width="42.381px" height="34.442px" viewBox="0 0 42.381 34.442"
	 style="enable-background:new 0 0 42.381 34.442;" xml:space="preserve">
<style type="text/css">
	.st0{fill:#FFFFFF;}
</style>
<defs>
</defs>
<g>
	<path class="st0" d="M42.381,4.076c-1.559,0.695-3.235,1.161-4.992,1.37c1.793-1.075,3.171-2.778,3.82-4.809
		c-1.679,0.995-3.54,1.721-5.519,2.111C34.102,1.056,31.842,0,29.344,0c-4.802,0-8.698,3.894-8.698,8.695
		c0,0.681,0.078,1.344,0.227,1.982C13.647,10.313,7.239,6.851,2.952,1.591C2.205,2.875,1.773,4.369,1.773,5.964
		c0,3.015,1.536,5.676,3.87,7.237c-1.426-0.044-2.768-0.437-3.94-1.089c0,0.036,0,0.073,0,0.11c0,4.211,2.998,7.725,6.975,8.526
		c-0.731,0.198-1.498,0.306-2.29,0.306c-0.561,0-1.106-0.055-1.637-0.159c1.106,3.456,4.319,5.969,8.123,6.04
		c-2.977,2.33-6.723,3.721-10.799,3.721c-0.701,0-1.394-0.042-2.075-0.12c3.85,2.466,8.421,3.905,13.329,3.905
		c15.993,0,24.739-13.248,24.739-24.738c0-0.377-0.008-0.754-0.024-1.125C39.741,7.354,41.215,5.822,42.381,4.076z"/>
</g>
</svg>